<?xml version="1.0" encoding="UTF-8"?><!DOCTYPE score-partwise PUBLIC "-//Recordare//DTD MusicXML 2.0 Partwise//EN"                                "http://www.musicxml.org/dtds/partwise.dtd"><score-partwise version="2.0">  <identification>    <rights>CM kerstzingcie 2006</rights>    <encoding>      <software>Finale 2011 for Macintosh</software>      <software>Dolet Light for Finale 2011</software>      <encoding-date>2011-09-30</encoding-date>      <supports attribute="new-system" element="print" type="yes" value="yes"/>      <supports attribute="new-page" element="print" type="yes" value="yes"/>    </encoding>  </identification>  <defaults>    <scaling>      <millimeters>8.6783</millimeters>      <tenths>40</tenths>    </scaling>    <page-layout>      <page-height>1288</page-height>      <page-width>995</page-width>      <page-margins type="both">        <left-margin>117</left-margin>        <right-margin>59</right-margin>        <top-margin>59</top-margin>        <bottom-margin>59</bottom-margin>      </page-margins>    </page-layout>    <system-layout>      <system-margins>        <left-margin>0</left-margin>        <right-margin>0</right-margin>      </system-margins>      <system-distance>121</system-distance>      <top-system-distance>70</top-system-distance>    </system-layout>    <staff-layout>      <staff-distance>147</staff-distance>    </staff-layout>    <appearance>      <line-width type="stem">1.4583</line-width>      <line-width type="beam">5</line-width>      <line-width type="staff">1.4583</line-width>      <line-width type="light barline">1.4583</line-width>      <line-width type="heavy barline">5</line-width>      <line-width type="leger">1.4583</line-width>      <line-width type="ending">1.4583</line-width>      <line-width type="wedge">1.4583</line-width>      <line-width type="enclosure">1.4583</line-width>      <line-width type="tuplet bracket">1.4583</line-width>      <note-size type="grace">60</note-size>      <note-size type="cue">60</note-size>    </appearance>    <music-font font-family="Maestro" font-size="24.6"/>    <word-font font-family="Times New Roman" font-size="12.3"/>    <lyric-font font-family="Times New Roman" font-size="12.3" name="verse"/>  </defaults>  <credit page="1">    <credit-words default-x="525" default-y="1212" font-size="28.8" font-weight="bold" justify="center" valign="top">07. Once in royal David's city</credit-words>  </credit>  <credit page="1">    <credit-words default-x="937" default-y="1147" font-size="14.4" font-weight="bold" justify="right" valign="top">Words by C.F. Alexander
arr. by A.H. Mann</credit-words>  </credit>  <credit page="1">    <credit-words default-x="525" default-y="30" font-size="12" halign="center" valign="bottom">CM kerstzingcie 2006</credit-words>  </credit>  <credit page="1">    <credit-words default-x="147" default-y="370" font-size="12" valign="top">2. He came down to earth from heaven  
  Who is God and Lord of all,
And his shelter was a stable, 
  And his cradle was a stall;
With the poor and mean and lowly
Lived on earth our Saviour holy.

</credit-words>  </credit>  <credit page="1">    <credit-words default-x="582" default-y="214" font-size="12" valign="top">5. And our eyes at last shall see him, 
  Through his own redeeming love,
For that child so dear and gentle
  Is our Lord in heaven above;
And he leads his children on
To the place where he is gone. </credit-words>  </credit>  <credit page="1">    <credit-words default-x="587" default-y="369" font-size="12" valign="top">4. For he is our childhood's pattern,
  Day by day like us he grew,
He was little, weak and helpless,
  Tears and smiles like us he knew:
And he feeleth for our sadness,
And he shareth in our gladness.</credit-words>  </credit>  <credit page="1">    <credit-words default-x="138" default-y="211" font-size="12" valign="top">3. And through all his wondrous childhood
     He would honour and obey
   Love and watch the lowly maiden
     In whose gentle arms he lay:
   Christian children all must be
      Mild, obediend, good as he.</credit-words>  </credit>  <part-list>    <part-group number="1" type="start">      <group-symbol default-x="-6">bracket</group-symbol>      <group-barline>no</group-barline>    </part-group>    <score-part id="P1">      <part-name>Sopraan
Alt</part-name>      <part-abbreviation>S
A</part-abbreviation>      <score-instrument id="P1-I1">        <instrument-name>Choir Aahs</instrument-name>      </score-instrument>      <midi-instrument id="P1-I1">        <midi-channel>1</midi-channel>        <midi-program>1</midi-program>        <volume>80</volume>        <pan>0</pan>      </midi-instrument>    </score-part>    <score-part id="P2">      <part-name>Tenor
Bas</part-name>      <part-abbreviation>T
B</part-abbreviation>      <score-instrument id="P2-I1">        <instrument-name>Choir Aahs</instrument-name>      </score-instrument>      <midi-instrument id="P2-I1">        <midi-channel>1</midi-channel>        <midi-program>1</midi-program>        <volume>80</volume>        <pan>0</pan>      </midi-instrument>    </score-part>    <part-group number="1" type="stop"/>  </part-list>  <!--=========================================================-->  <part id="P1">    <measure implicit="yes" number="0" width="204">      <print>        <system-layout>          <system-margins>            <left-margin>70</left-margin>            <right-margin>0</right-margin>          </system-margins>          <top-system-distance>211</top-system-distance>        </system-layout>        <measure-numbering>system</measure-numbering>      </print>      <barline location="left">        <bar-style>heavy-light</bar-style>        <repeat direction="forward"/>      </barline>      <attributes>        <divisions>2</divisions>        <key>          <fifths>1</fifths>          <mode>major</mode>        </key>        <time symbol="common">          <beats>4</beats>          <beat-type>4</beat-type>        </time>        <clef>          <sign>G</sign>          <line>2</line>        </clef>      </attributes>      <direction directive="yes" placement="above">        <direction-type>          <metronome default-y="27" font-family="Maestro" font-size="14" relative-x="8">            <beat-unit>quarter</beat-unit>            <per-minute>63</per-minute>          </metronome>        </direction-type>        <sound tempo="90"/>      </direction>      <note default-x="147">        <pitch>          <step>D</step>          <octave>4</octave>        </pitch>        <duration>2</duration>        <voice>1</voice>        <type>quarter</type>        <stem default-y="-9">up</stem>      </note>      <note default-x="183">        <pitch>          <step>F</step>          <alter>1</alter>          <octave>4</octave>        </pitch>        <duration>2</duration>        <voice>1</voice>        <type>quarter</type>        <stem default-y="1">up</stem>      </note>      <backup>        <duration>4</duration>      </backup>      <note default-x="147">        <pitch>          <step>D</step>          <octave>4</octave>        </pitch>        <duration>2</duration>        <voice>2</voice>        <type>quarter</type>        <stem default-y="-71">down</stem>        <lyric default-y="-96" number="1" relative-x="-14">          <syllabic>single</syllabic>          <text>1.Once</text>        </lyric>        <lyric default-y="-116" number="2">          <syllabic>single</syllabic>          <text>Where</text>        </lyric>      </note>      <note default-x="183">        <pitch>          <step>F</step>          <alter>1</alter>          <octave>4</octave>        </pitch>        <duration>2</duration>        <voice>2</voice>        <type>quarter</type>        <stem default-y="-60.5">down</stem>        <lyric default-y="-96" number="1">          <syllabic>single</syllabic>          <text>in</text>        </lyric>        <lyric default-y="-116" number="2">          <syllabic>single</syllabic>          <text>a</text>        </lyric>      </note>    </measure>    <!--=======================================================-->    <measure number="1" width="160">      <note default-x="20">        <pitch>          <step>G</step>          <octave>4</octave>        </pitch>        <duration>3</duration>        <voice>1</voice>        <type>quarter</type>        <dot/>        <stem default-y="6">up</stem>      </note>      <note default-x="59">        <pitch>          <step>G</step>          <octave>4</octave>        </pitch>        <duration>1</duration>        <voice>1</voice>        <type>eighth</type>        <stem default-y="6">up</stem>      </note>      <note default-x="80">        <pitch>          <step>G</step>          <octave>4</octave>        </pitch>        <duration>1</duration>        <tie type="start"/>        <voice>1</voice>        <type>eighth</type>        <stem default-y="5">up</stem>        <beam number="1">begin</beam>        <notations>          <tied orientation="over" type="start"/>        </notations>      </note>      <note default-x="106">        <pitch>          <step>F</step>          <alter>1</alter>          <octave>4</octave>        </pitch>        <duration>1</duration>        <voice>1</voice>        <type>eighth</type>        <stem default-y="2.5">up</stem>        <beam number="1">end</beam>      </note>      <note default-x="120">        <pitch>          <step>G</step>          <octave>4</octave>        </pitch>        <duration>1</duration>        <tie type="start"/>        <voice>1</voice>        <type>eighth</type>        <stem default-y="5">up</stem>        <beam number="1">begin</beam>        <notations>          <tied orientation="over" type="start"/>        </notations>      </note>      <note default-x="145">        <pitch>          <step>A</step>          <octave>4</octave>        </pitch>        <duration>1</duration>        <voice>1</voice>        <type>eighth</type>        <stem default-y="10">up</stem>        <beam number="1">end</beam>      </note>      <backup>        <duration>8</duration>      </backup>      <note default-x="20">        <pitch>          <step>D</step>          <octave>4</octave>        </pitch>        <duration>2</duration>        <voice>2</voice>        <type>quarter</type>        <stem default-y="-71">down</stem>        <lyric default-y="-96" number="1">          <syllabic>begin</syllabic>          <text>roy</text>        </lyric>        <lyric default-y="-116" number="2" relative-x="-5">          <syllabic>begin</syllabic>          <text>mo</text>        </lyric>      </note>      <note default-x="41">        <pitch>          <step>D</step>          <octave>4</octave>        </pitch>        <duration>2</duration>        <voice>2</voice>        <type>quarter</type>        <stem default-y="-71">down</stem>        <lyric default-y="-96" number="1">          <syllabic>end</syllabic>          <text>al</text>        </lyric>        <lyric default-y="-117" number="2" relative-x="6">          <syllabic>end</syllabic>          <text>ther</text>        </lyric>      </note>      <note default-x="80">        <pitch>          <step>C</step>          <alter>1</alter>          <octave>4</octave>        </pitch>        <duration>2</duration>        <voice>2</voice>        <type>quarter</type>        <accidental>sharp</accidental>        <stem default-y="-75.5">down</stem>        <lyric default-y="-96" number="1">          <syllabic>begin</syllabic>          <text>Da</text>        </lyric>        <lyric default-y="-116" number="2" relative-x="8">          <syllabic>single</syllabic>          <text>laid</text>        </lyric>      </note>      <note default-x="120">        <pitch>          <step>C</step>          <alter>1</alter>          <octave>4</octave>        </pitch>        <duration>2</duration>        <voice>2</voice>        <type>quarter</type>        <stem default-y="-75.5">down</stem>        <lyric default-y="-96" number="1">          <syllabic>end</syllabic>          <text>vid's</text>        </lyric>        <lyric default-y="-117" number="2" relative-x="5">          <syllabic>single</syllabic>          <text>her</text>        </lyric>      </note>    </measure>    <!--=======================================================-->    <measure number="2" width="133">      <note default-x="12">        <pitch>          <step>A</step>          <octave>4</octave>        </pitch>        <duration>2</duration>        <voice>1</voice>        <type>quarter</type>        <stem default-y="11">up</stem>      </note>      <note default-x="51">        <pitch>          <step>G</step>          <octave>4</octave>        </pitch>        <duration>2</duration>        <voice>1</voice>        <type>quarter</type>        <stem default-y="6">up</stem>      </note>      <note default-x="84">        <pitch>          <step>G</step>          <octave>4</octave>        </pitch>        <duration>2</duration>        <voice>1</voice>        <type>quarter</type>        <stem default-y="6">up</stem>      </note>      <note default-x="115">        <pitch>          <step>B</step>          <octave>4</octave>        </pitch>        <duration>2</duration>        <voice>1</voice>        <type>quarter</type>        <stem default-y="16">up</stem>      </note>      <backup>        <duration>8</duration>      </backup>      <note default-x="12">        <pitch>          <step>D</step>          <octave>4</octave>        </pitch>        <duration>1</duration>        <voice>2</voice>        <type>eighth</type>        <stem default-y="-80">down</stem>        <beam number="1">begin</beam>        <lyric default-y="-96" number="1">          <syllabic>begin</syllabic>          <text>ci</text>        </lyric>        <lyric default-y="-116" number="2">          <syllabic>begin</syllabic>          <text>ba</text>        </lyric>      </note>      <note default-x="31">        <pitch>          <step>C</step>          <octave>4</octave>        </pitch>        <duration>1</duration>        <voice>2</voice>        <type>eighth</type>        <stem default-y="-85">down</stem>        <beam number="1">end</beam>      </note>      <note default-x="51">        <pitch>          <step>B</step>          <octave>3</octave>        </pitch>        <duration>2</duration>        <voice>2</voice>        <type>quarter</type>        <stem default-y="-80.5">down</stem>        <lyric default-y="-96" number="1">          <syllabic>end</syllabic>          <text>ty</text>        </lyric>        <lyric default-y="-116" number="2">          <syllabic>end</syllabic>          <text>by</text>        </lyric>      </note>      <note default-x="84">        <pitch>          <step>D</step>          <octave>4</octave>        </pitch>        <duration>2</duration>        <voice>2</voice>        <type>quarter</type>        <stem default-y="-71">down</stem>        <lyric default-y="-96" number="1">          <syllabic>single</syllabic>          <text>Stood</text>        </lyric>        <lyric default-y="-116" number="2">          <syllabic>single</syllabic>          <text>In</text>        </lyric>      </note>      <note default-x="115">        <pitch>          <step>G</step>          <octave>4</octave>        </pitch>        <duration>2</duration>        <voice>2</voice>        <type>quarter</type>        <stem default-y="-55.5">down</stem>        <lyric default-y="-96" number="1">          <syllabic>single</syllabic>          <text>a</text>        </lyric>        <lyric default-y="-116" number="2">          <syllabic>single</syllabic>          <text>a</text>        </lyric>      </note>    </measure>    <!--=======================================================-->    <measure number="3" width="173">      <note default-x="18">        <pitch>          <step>D</step>          <octave>5</octave>        </pitch>        <duration>3</duration>        <voice>1</voice>        <type>quarter</type>        <dot/>        <stem default-y="16">up</stem>      </note>      <note default-x="70">        <pitch>          <step>B</step>          <octave>4</octave>        </pitch>        <duration>1</duration>        <voice>1</voice>        <type>eighth</type>        <stem default-y="16">up</stem>      </note>      <note default-x="90">        <pitch>          <step>B</step>          <octave>4</octave>        </pitch>        <duration>1</duration>        <tie type="start"/>        <voice>1</voice>        <type>eighth</type>        <stem default-y="15">up</stem>        <beam number="1">begin</beam>        <notations>          <tied orientation="over" type="start"/>        </notations>      </note>      <note default-x="118">        <pitch>          <step>A</step>          <octave>4</octave>        </pitch>        <duration>1</duration>        <voice>1</voice>        <type>eighth</type>        <stem default-y="10">up</stem>        <beam number="1">end</beam>      </note>      <note default-x="134">        <pitch>          <step>G</step>          <octave>4</octave>        </pitch>        <duration>1</duration>        <tie type="start"/>        <voice>1</voice>        <type>eighth</type>        <stem default-y="5">up</stem>        <beam number="1">begin</beam>        <notations>          <tied orientation="over" type="start"/>        </notations>      </note>      <note default-x="158">        <pitch>          <step>F</step>          <alter>1</alter>          <octave>4</octave>        </pitch>        <duration>1</duration>        <voice>1</voice>        <type>eighth</type>        <stem default-y="2.5">up</stem>        <beam number="1">end</beam>      </note>      <backup>        <duration>8</duration>      </backup>      <note default-x="18">        <pitch>          <step>D</step>          <octave>4</octave>        </pitch>        <duration>2</duration>        <voice>2</voice>        <type>quarter</type>        <stem default-y="-71">down</stem>        <lyric default-y="-96" number="1">          <syllabic>begin</syllabic>          <text>low</text>        </lyric>        <lyric default-y="-116" number="2">          <syllabic>begin</syllabic>          <text>man</text>        </lyric>      </note>      <note default-x="44">        <pitch>          <step>D</step>          <octave>4</octave>        </pitch>        <duration>2</duration>        <voice>2</voice>        <type>quarter</type>        <stem default-y="-71">down</stem>        <lyric default-y="-96" number="1">          <syllabic>end</syllabic>          <text>ly</text>        </lyric>        <lyric default-y="-116" number="2">          <syllabic>end</syllabic>          <text>ger</text>        </lyric>      </note>      <note default-x="90">        <pitch>          <step>E</step>          <octave>4</octave>        </pitch>        <duration>2</duration>        <voice>2</voice>        <type>quarter</type>        <stem default-y="-66">down</stem>        <lyric default-y="-96" number="1">          <syllabic>begin</syllabic>          <text>cat</text>        </lyric>        <lyric default-y="-116" number="2">          <syllabic>single</syllabic>          <text>for</text>        </lyric>      </note>      <note default-x="134">        <pitch>          <step>D</step>          <octave>4</octave>        </pitch>        <duration>2</duration>        <voice>2</voice>        <type>quarter</type>        <stem default-y="-71">down</stem>        <lyric default-y="-96" number="1">          <syllabic>end</syllabic>          <text>tle</text>        </lyric>        <lyric default-y="-116" number="2">          <syllabic>single</syllabic>          <text>his</text>        </lyric>      </note>    </measure>    <!--=======================================================-->    <measure number="4" width="79">      <note default-x="24">        <pitch>          <step>G</step>          <octave>4</octave>        </pitch>        <duration>4</duration>        <voice>1</voice>        <type>half</type>        <stem default-y="6">up</stem>      </note>      <backup>        <duration>4</duration>      </backup>      <note default-x="24">        <pitch>          <step>D</step>          <octave>4</octave>        </pitch>        <duration>4</duration>        <voice>2</voice>        <type>half</type>        <stem default-y="-71">down</stem>        <lyric default-y="-96" number="1">          <syllabic>single</syllabic>          <text>shed,</text>        </lyric>        <lyric default-y="-116" number="2">          <syllabic>single</syllabic>          <text>bed:</text>        </lyric>      </note>      <barline location="right">        <bar-style>light-heavy</bar-style>        <repeat direction="backward"/>      </barline>    </measure>    <!--=======================================================-->    <measure number="5" width="171">      <print new-system="yes">        <system-layout>          <system-distance>153</system-distance>        </system-layout>      </print>      <note default-x="83">        <pitch>          <step>E</step>          <octave>5</octave>        </pitch>        <duration>2</duration>        <voice>1</voice>        <type>quarter</type>        <stem default-y="21">up</stem>        <lyric default-y="-116" number="2">          <syllabic>begin</syllabic>          <text>Ma</text>        </lyric>      </note>      <note default-x="126">        <pitch>          <step>E</step>          <octave>5</octave>        </pitch>        <duration>2</duration>        <voice>1</voice>        <type>quarter</type>        <stem default-y="21">up</stem>        <lyric default-y="-116" number="2">          <syllabic>end</syllabic>          <text>ry</text>        </lyric>      </note>      <backup>        <duration>4</duration>      </backup>      <note default-x="83">        <pitch>          <step>E</step>          <octave>4</octave>        </pitch>        <duration>1</duration>        <tie type="start"/>        <voice>2</voice>        <type>eighth</type>        <stem default-y="-75">down</stem>        <beam number="1">begin</beam>        <notations>          <tied orientation="under" type="start"/>        </notations>      </note>      <note default-x="111">        <pitch>          <step>F</step>          <alter>1</alter>          <octave>4</octave>        </pitch>        <duration>1</duration>        <voice>2</voice>        <type>eighth</type>        <stem default-y="-70">down</stem>        <beam number="1">end</beam>      </note>      <note default-x="126">        <pitch>          <step>G</step>          <octave>4</octave>        </pitch>        <duration>1</duration>        <tie type="start"/>        <voice>2</voice>        <type>eighth</type>        <stem default-y="-65">down</stem>        <beam number="1">begin</beam>        <notations>          <tied orientation="under" type="start"/>        </notations>      </note>      <note default-x="154">        <pitch>          <step>A</step>          <octave>4</octave>        </pitch>        <duration>1</duration>        <voice>2</voice>        <type>eighth</type>        <stem default-y="-60">down</stem>        <beam number="1">end</beam>      </note>    </measure>    <!--=======================================================-->    <measure number="6" width="148">      <note default-x="18">        <pitch>          <step>D</step>          <octave>5</octave>        </pitch>        <duration>3</duration>        <voice>1</voice>        <type>quarter</type>        <dot/>        <stem default-y="16">up</stem>        <lyric default-y="-116" number="2">          <syllabic>single</syllabic>          <text>was</text>        </lyric>      </note>      <note default-x="55">        <pitch>          <step>G</step>          <octave>4</octave>        </pitch>        <duration>1</duration>        <voice>1</voice>        <type>eighth</type>        <stem default-y="6">up</stem>        <lyric default-y="-116" number="2">          <syllabic>single</syllabic>          <text>that</text>        </lyric>      </note>      <note default-x="88">        <pitch>          <step>C</step>          <octave>5</octave>        </pitch>        <duration>2</duration>        <voice>1</voice>        <type>quarter</type>        <stem default-y="11">up</stem>        <lyric default-y="-116" number="2">          <syllabic>begin</syllabic>          <text>mo</text>        </lyric>      </note>      <note default-x="118">        <pitch>          <step>C</step>          <octave>5</octave>        </pitch>        <duration>2</duration>        <voice>1</voice>        <type>quarter</type>        <stem default-y="11">up</stem>        <lyric default-y="-116" number="2" relative-x="9">          <syllabic>end</syllabic>          <text>ther</text>        </lyric>      </note>      <backup>        <duration>8</duration>      </backup>      <note default-x="18">        <pitch>          <step>D</step>          <octave>4</octave>        </pitch>        <duration>2</duration>        <voice>2</voice>        <type>quarter</type>        <stem default-y="-71">down</stem>      </note>      <note default-x="43">        <pitch>          <step>D</step>          <octave>4</octave>        </pitch>        <duration>2</duration>        <voice>2</voice>        <type>quarter</type>        <stem default-y="-71">down</stem>      </note>      <note default-x="88">        <pitch>          <step>E</step>          <octave>4</octave>        </pitch>        <duration>2</duration>        <voice>2</voice>        <type>quarter</type>        <stem default-y="-65.5">down</stem>      </note>      <note default-x="118">        <pitch>          <step>F</step>          <alter>1</alter>          <octave>4</octave>        </pitch>        <duration>2</duration>        <voice>2</voice>        <type>quarter</type>        <stem default-y="-60.5">down</stem>      </note>    </measure>    <!--=======================================================-->    <measure number="7" width="185">      <note default-x="13">        <pitch>          <step>B</step>          <octave>4</octave>        </pitch>        <duration>2</duration>        <tie type="start"/>        <voice>1</voice>        <type>quarter</type>        <stem default-y="16">up</stem>        <notations>          <tied orientation="over" type="start"/>        </notations>        <lyric default-y="-116" justify="left" number="2">          <syllabic>single</syllabic>          <text>mild,</text>          <extend/>        </lyric>      </note>      <note default-x="72">        <pitch>          <step>B</step>          <octave>4</octave>        </pitch>        <duration>2</duration>        <tie type="stop"/>        <voice>1</voice>        <type>quarter</type>        <stem default-y="16">up</stem>        <notations>          <tied type="stop"/>        </notations>      </note>      <note default-x="94">        <pitch>          <step>E</step>          <octave>5</octave>        </pitch>        <duration>2</duration>        <voice>1</voice>        <type>quarter</type>        <stem default-y="21">up</stem>        <lyric default-y="-116" number="2">          <syllabic>begin</syllabic>          <text>Je</text>        </lyric>      </note>      <note default-x="138">        <pitch>          <step>E</step>          <octave>5</octave>        </pitch>        <duration>2</duration>        <voice>1</voice>        <type>quarter</type>        <stem default-y="21">up</stem>        <lyric default-y="-116" number="2">          <syllabic>end</syllabic>          <text>sus</text>        </lyric>      </note>      <backup>        <duration>8</duration>      </backup>      <note default-x="13">        <pitch>          <step>G</step>          <octave>4</octave>        </pitch>        <duration>2</duration>        <tie type="start"/>        <voice>2</voice>        <type>quarter</type>        <stem default-y="-56">down</stem>        <notations>          <tied orientation="under" type="start"/>        </notations>      </note>      <note default-x="72">        <pitch>          <step>F</step>          <alter>1</alter>          <octave>4</octave>        </pitch>        <duration>2</duration>        <voice>2</voice>        <type>quarter</type>        <stem default-y="-60.5">down</stem>      </note>      <note default-x="94">        <pitch>          <step>E</step>          <octave>4</octave>        </pitch>        <duration>1</duration>        <tie type="start"/>        <voice>2</voice>        <type>eighth</type>        <stem default-y="-75">down</stem>        <beam number="1">begin</beam>        <notations>          <tied orientation="under" type="start"/>        </notations>      </note>      <note default-x="123">        <pitch>          <step>F</step>          <alter>1</alter>          <octave>4</octave>        </pitch>        <duration>1</duration>        <voice>2</voice>        <type>eighth</type>        <stem default-y="-70">down</stem>        <beam number="1">end</beam>      </note>      <note default-x="138">        <pitch>          <step>G</step>          <octave>4</octave>        </pitch>        <duration>1</duration>        <tie type="start"/>        <voice>2</voice>        <type>eighth</type>        <stem default-y="-65">down</stem>        <beam number="1">begin</beam>        <notations>          <tied orientation="under" type="start"/>        </notations>      </note>      <note default-x="167">        <pitch>          <step>A</step>          <octave>4</octave>        </pitch>        <duration>1</duration>        <voice>2</voice>        <type>eighth</type>        <stem default-y="-60">down</stem>        <beam number="1">end</beam>      </note>    </measure>    <!--=======================================================-->    <measure number="8" width="212">      <note default-x="25">        <pitch>          <step>D</step>          <octave>5</octave>        </pitch>        <duration>3</duration>        <voice>1</voice>        <type>quarter</type>        <dot/>        <stem default-y="16">up</stem>        <lyric default-y="-116" number="2">          <syllabic>single</syllabic>          <text>Christ</text>        </lyric>      </note>      <note default-x="83">        <pitch>          <step>B</step>          <octave>4</octave>        </pitch>        <duration>1</duration>        <voice>1</voice>        <type>eighth</type>        <stem default-y="16">up</stem>        <lyric default-y="-116" number="2">          <syllabic>single</syllabic>          <text>her</text>        </lyric>      </note>      <note default-x="109">        <pitch>          <step>B</step>          <octave>4</octave>        </pitch>        <duration>1</duration>        <tie type="start"/>        <voice>1</voice>        <type>eighth</type>        <stem default-y="15">up</stem>        <beam number="1">begin</beam>        <notations>          <tied orientation="over" type="start"/>        </notations>        <lyric default-y="-116" number="2">          <syllabic>begin</syllabic>          <text>lit</text>        </lyric>      </note>      <note default-x="142">        <pitch>          <step>A</step>          <octave>4</octave>        </pitch>        <duration>1</duration>        <voice>1</voice>        <type>eighth</type>        <stem default-y="10">up</stem>        <beam number="1">end</beam>      </note>      <note default-x="159">        <pitch>          <step>G</step>          <octave>4</octave>        </pitch>        <duration>1</duration>        <tie type="start"/>        <voice>1</voice>        <type>eighth</type>        <stem default-y="5">up</stem>        <beam number="1">begin</beam>        <notations>          <tied orientation="over" type="start"/>        </notations>        <lyric default-y="-116" justify="left" number="2">          <syllabic>end</syllabic>          <text>tle</text>          <extend/>        </lyric>      </note>      <note default-x="196">        <pitch>          <step>F</step>          <alter>1</alter>          <octave>4</octave>        </pitch>        <duration>1</duration>        <voice>1</voice>        <type>eighth</type>        <stem default-y="3">up</stem>        <beam number="1">end</beam>      </note>      <backup>        <duration>8</duration>      </backup>      <note default-x="25">        <pitch>          <step>D</step>          <octave>4</octave>        </pitch>        <duration>1</duration>        <voice>2</voice>        <type>eighth</type>        <stem default-y="-80">down</stem>        <beam number="1">begin</beam>        <notations>          <slur bezier-x="11" bezier-y="-4" default-x="1" default-y="-85" number="1" placement="below" type="start"/>        </notations>      </note>      <note default-x="42">        <pitch>          <step>F</step>          <alter>1</alter>          <octave>4</octave>        </pitch>        <duration>1</duration>        <voice>2</voice>        <type>eighth</type>        <stem default-y="-75">down</stem>        <beam number="1">end</beam>      </note>      <note default-x="63">        <pitch>          <step>G</step>          <octave>4</octave>        </pitch>        <duration>1</duration>        <voice>2</voice>        <type>eighth</type>        <stem default-y="-65">down</stem>        <beam number="1">begin</beam>        <notations>          <slur bezier-x="-9" bezier-y="-10" default-x="0" default-y="-74" number="1" type="stop"/>        </notations>      </note>      <note default-x="83">        <pitch>          <step>G</step>          <octave>4</octave>        </pitch>        <duration>1</duration>        <voice>2</voice>        <type>eighth</type>        <stem default-y="-65">down</stem>        <beam number="1">end</beam>      </note>      <note default-x="109">        <pitch>          <step>E</step>          <octave>4</octave>        </pitch>        <duration>2</duration>        <voice>2</voice>        <type>quarter</type>        <stem default-y="-65.5">down</stem>      </note>      <note default-x="159">        <pitch>          <step>D</step>          <octave>4</octave>        </pitch>        <duration>2</duration>        <voice>2</voice>        <type>quarter</type>        <stem default-y="-71">down</stem>      </note>    </measure>    <!--=======================================================-->    <measure number="9" width="104">      <note default-x="11">        <pitch>          <step>G</step>          <octave>4</octave>        </pitch>        <duration>2</duration>        <tie type="start"/>        <voice>1</voice>        <type>quarter</type>        <stem default-y="6">up</stem>        <notations>          <tied orientation="over" type="start"/>        </notations>        <lyric default-y="-116" justify="left" number="2">          <syllabic>single</syllabic>          <text>child.</text>          <extend/>        </lyric>      </note>      <note default-x="77">        <pitch>          <step>G</step>          <octave>4</octave>        </pitch>        <duration>2</duration>        <tie type="stop"/>        <voice>1</voice>        <type>quarter</type>        <stem default-y="6">up</stem>        <notations>          <tied type="stop"/>        </notations>      </note>      <backup>        <duration>4</duration>      </backup>      <note default-x="11">        <pitch>          <step>D</step>          <octave>4</octave>        </pitch>        <duration>2</duration>        <tie type="start"/>        <voice>2</voice>        <type>quarter</type>        <stem default-y="-71">down</stem>        <notations>          <tied orientation="under" type="start"/>        </notations>      </note>      <note default-x="77">        <pitch>          <step>D</step>          <octave>4</octave>        </pitch>        <duration>2</duration>        <tie type="stop"/>        <voice>2</voice>        <type>quarter</type>        <stem default-y="-71">down</stem>        <notations>          <tied type="stop"/>        </notations>      </note>      <barline location="right">        <bar-style>light-heavy</bar-style>      </barline>    </measure>  </part>  <!--=========================================================-->  <part id="P2">    <measure implicit="yes" number="0" width="204">      <print>        <measure-numbering>none</measure-numbering>      </print>      <barline location="left">        <bar-style>heavy-light</bar-style>        <repeat direction="forward"/>      </barline>      <attributes>        <divisions>2</divisions>        <key>          <fifths>1</fifths>          <mode>major</mode>        </key>        <time symbol="common">          <beats>4</beats>          <beat-type>4</beat-type>        </time>        <clef>          <sign>F</sign>          <line>4</line>        </clef>      </attributes>      <note default-x="147">        <pitch>          <step>B</step>          <octave>3</octave>        </pitch>        <duration>2</duration>        <voice>1</voice>        <type>quarter</type>        <stem default-y="31">up</stem>      </note>      <note default-x="183">        <pitch>          <step>C</step>          <octave>4</octave>        </pitch>        <duration>2</duration>        <voice>1</voice>        <type>quarter</type>        <stem default-y="36">up</stem>      </note>      <backup>        <duration>4</duration>      </backup>      <note default-x="147">        <pitch>          <step>B</step>          <octave>3</octave>        </pitch>        <duration>2</duration>        <voice>2</voice>        <type>quarter</type>        <stem default-y="-31">down</stem>      </note>      <note default-x="183">        <pitch>          <step>A</step>          <octave>3</octave>        </pitch>        <duration>2</duration>        <voice>2</voice>        <type>quarter</type>        <stem default-y="-35.5">down</stem>      </note>    </measure>    <!--=======================================================-->    <measure number="1" width="160">      <note default-x="20">        <pitch>          <step>D</step>          <octave>4</octave>        </pitch>        <duration>2</duration>        <voice>1</voice>        <type>quarter</type>        <stem default-y="41">up</stem>      </note>      <note default-x="41">        <pitch>          <step>B</step>          <octave>3</octave>        </pitch>        <duration>2</duration>        <voice>1</voice>        <type>quarter</type>        <stem default-y="31">up</stem>      </note>      <note default-x="80">        <pitch>          <step>A</step>          <octave>3</octave>        </pitch>        <duration>2</duration>        <voice>1</voice>        <type>quarter</type>        <stem default-y="26">up</stem>      </note>      <note default-x="120">        <pitch>          <step>G</step>          <octave>3</octave>        </pitch>        <duration>2</duration>        <voice>1</voice>        <type>quarter</type>        <stem default-y="21">up</stem>      </note>      <backup>        <duration>8</duration>      </backup>      <note default-x="20">        <pitch>          <step>B</step>          <octave>3</octave>        </pitch>        <duration>2</duration>        <voice>2</voice>        <type>quarter</type>        <stem default-y="-31">down</stem>      </note>      <note default-x="41">        <pitch>          <step>G</step>          <octave>3</octave>        </pitch>        <duration>2</duration>        <voice>2</voice>        <type>quarter</type>        <stem default-y="-40.5">down</stem>      </note>      <note default-x="80">        <pitch>          <step>E</step>          <octave>3</octave>        </pitch>        <duration>2</duration>        <voice>2</voice>        <type>quarter</type>        <stem default-y="-51">down</stem>      </note>      <note default-x="120">        <pitch>          <step>A</step>          <octave>2</octave>        </pitch>        <duration>2</duration>        <voice>2</voice>        <type>quarter</type>        <stem default-y="-60.5">down</stem>      </note>    </measure>    <!--=======================================================-->    <measure number="2" width="133">      <note default-x="12">        <pitch>          <step>F</step>          <alter>1</alter>          <octave>3</octave>        </pitch>        <duration>2</duration>        <voice>1</voice>        <type>quarter</type>        <stem default-y="16">up</stem>      </note>      <note default-x="51">        <pitch>          <step>G</step>          <octave>3</octave>        </pitch>        <duration>2</duration>        <voice>1</voice>        <type>quarter</type>        <stem default-y="21">up</stem>      </note>      <note default-x="84">        <pitch>          <step>B</step>          <octave>3</octave>        </pitch>        <duration>2</duration>        <voice>1</voice>        <type>quarter</type>        <stem default-y="31">up</stem>      </note>      <note default-x="115">        <pitch>          <step>D</step>          <octave>4</octave>        </pitch>        <duration>2</duration>        <voice>1</voice>        <type>quarter</type>        <stem default-y="41">up</stem>      </note>      <backup>        <duration>8</duration>      </backup>      <note default-x="12">        <pitch>          <step>D</step>          <octave>3</octave>        </pitch>        <duration>2</duration>        <voice>2</voice>        <type>quarter</type>        <stem default-y="-55.5">down</stem>      </note>      <note default-x="51">        <pitch>          <step>G</step>          <octave>2</octave>        </pitch>        <duration>2</duration>        <voice>2</voice>        <type>quarter</type>        <stem default-y="-66">down</stem>      </note>      <note default-x="84">        <pitch>          <step>B</step>          <octave>3</octave>        </pitch>        <duration>2</duration>        <voice>2</voice>        <type>quarter</type>        <stem default-y="-31">down</stem>      </note>      <note default-x="115">        <pitch>          <step>G</step>          <octave>3</octave>        </pitch>        <duration>2</duration>        <voice>2</voice>        <type>quarter</type>        <stem default-y="-40.5">down</stem>      </note>    </measure>    <!--=======================================================-->    <measure number="3" width="173">      <note default-x="18">        <pitch>          <step>A</step>          <octave>3</octave>        </pitch>        <duration>2</duration>        <voice>1</voice>        <type>quarter</type>        <stem default-y="26">up</stem>      </note>      <note default-x="44">        <pitch>          <step>B</step>          <octave>3</octave>        </pitch>        <duration>1</duration>        <tie type="start"/>        <voice>1</voice>        <type>eighth</type>        <stem default-y="45">up</stem>        <beam number="1">begin</beam>        <notations>          <tied orientation="over" type="start"/>        </notations>      </note>      <note default-x="70">        <pitch>          <step>D</step>          <octave>4</octave>        </pitch>        <duration>1</duration>        <voice>1</voice>        <type>eighth</type>        <stem default-y="50">up</stem>        <beam number="1">end</beam>      </note>      <note default-x="90">        <pitch>          <step>D</step>          <octave>4</octave>        </pitch>        <duration>1</duration>        <tie type="start"/>        <voice>1</voice>        <type>eighth</type>        <stem default-y="50">up</stem>        <beam number="1">begin</beam>        <notations>          <tied orientation="over" type="start"/>        </notations>      </note>      <note default-x="118">        <pitch>          <step>C</step>          <octave>4</octave>        </pitch>        <duration>1</duration>        <voice>1</voice>        <type>eighth</type>        <stem default-y="45">up</stem>        <beam number="1">end</beam>      </note>      <note default-x="134">        <pitch>          <step>B</step>          <octave>3</octave>        </pitch>        <duration>1</duration>        <tie type="start"/>        <voice>1</voice>        <type>eighth</type>        <stem default-y="40">up</stem>        <beam number="1">begin</beam>        <notations>          <tied orientation="over" type="start"/>        </notations>      </note>      <note default-x="158">        <pitch>          <step>A</step>          <octave>3</octave>        </pitch>        <duration>1</duration>        <voice>1</voice>        <type>eighth</type>        <stem default-y="35">up</stem>        <beam number="1">end</beam>      </note>      <backup>        <duration>8</duration>      </backup>      <note default-x="18">        <pitch>          <step>F</step>          <alter>1</alter>          <octave>3</octave>        </pitch>        <duration>2</duration>        <voice>2</voice>        <type>quarter</type>        <stem default-y="-46">down</stem>      </note>      <note default-x="44">        <pitch>          <step>G</step>          <octave>3</octave>        </pitch>        <duration>2</duration>        <voice>2</voice>        <type>quarter</type>        <stem default-y="-40.5">down</stem>      </note>      <note default-x="90">        <pitch>          <step>C</step>          <octave>3</octave>        </pitch>        <duration>2</duration>        <voice>2</voice>        <type>quarter</type>        <stem default-y="-51">down</stem>      </note>      <note default-x="134">        <pitch>          <step>D</step>          <octave>3</octave>        </pitch>        <duration>2</duration>        <voice>2</voice>        <type>quarter</type>        <stem default-y="-55.5">down</stem>      </note>    </measure>    <!--=======================================================-->    <measure number="4" width="79">      <note default-x="24">        <pitch>          <step>B</step>          <octave>3</octave>        </pitch>        <duration>4</duration>        <voice>1</voice>        <type>half</type>        <stem default-y="31">up</stem>      </note>      <backup>        <duration>4</duration>      </backup>      <note default-x="24">        <pitch>          <step>G</step>          <octave>3</octave>        </pitch>        <duration>4</duration>        <voice>2</voice>        <type>half</type>        <stem default-y="-40.5">down</stem>      </note>      <barline location="right">        <bar-style>light-heavy</bar-style>        <repeat direction="backward"/>      </barline>    </measure>    <!--=======================================================-->    <measure number="5" width="171">      <print new-system="yes"/>      <note default-x="83">        <pitch>          <step>G</step>          <octave>3</octave>        </pitch>        <duration>2</duration>        <voice>1</voice>        <type>quarter</type>        <stem default-y="21">up</stem>      </note>      <note default-x="126">        <pitch>          <step>C</step>          <octave>4</octave>        </pitch>        <duration>2</duration>        <voice>1</voice>        <type>quarter</type>        <stem default-y="36">up</stem>      </note>      <backup>        <duration>4</duration>      </backup>      <note default-x="83">        <pitch>          <step>C</step>          <octave>3</octave>        </pitch>        <duration>1</duration>        <tie type="start"/>        <voice>2</voice>        <type>eighth</type>        <stem default-y="-60">down</stem>        <beam number="1">begin</beam>        <notations>          <tied orientation="under" type="start"/>        </notations>      </note>      <note default-x="111">        <pitch>          <step>D</step>          <octave>3</octave>        </pitch>        <duration>1</duration>        <voice>2</voice>        <type>eighth</type>        <stem default-y="-55">down</stem>        <beam number="1">end</beam>      </note>      <note default-x="126">        <pitch>          <step>E</step>          <octave>3</octave>        </pitch>        <duration>1</duration>        <tie type="start"/>        <voice>2</voice>        <type>eighth</type>        <stem default-y="-50">down</stem>        <beam number="1">begin</beam>        <notations>          <tied orientation="under" type="start"/>        </notations>      </note>      <note default-x="154">        <pitch>          <step>F</step>          <alter>1</alter>          <octave>3</octave>        </pitch>        <duration>1</duration>        <voice>2</voice>        <type>eighth</type>        <stem default-y="-45">down</stem>        <beam number="1">end</beam>      </note>    </measure>    <!--=======================================================-->    <measure number="6" width="148">      <note default-x="18">        <pitch>          <step>B</step>          <octave>3</octave>        </pitch>        <duration>2</duration>        <voice>1</voice>        <type>quarter</type>        <stem default-y="31">up</stem>      </note>      <note default-x="43">        <pitch>          <step>B</step>          <octave>3</octave>        </pitch>        <duration>2</duration>        <voice>1</voice>        <type>quarter</type>        <stem default-y="31">up</stem>      </note>      <note default-x="88">        <pitch>          <step>C</step>          <octave>4</octave>        </pitch>        <duration>2</duration>        <voice>1</voice>        <type>quarter</type>        <stem default-y="36">up</stem>      </note>      <note default-x="118">        <pitch>          <step>D</step>          <octave>4</octave>        </pitch>        <duration>2</duration>        <voice>1</voice>        <type>quarter</type>        <stem default-y="41">up</stem>      </note>      <backup>        <duration>8</duration>      </backup>      <note default-x="18">        <pitch>          <step>G</step>          <octave>3</octave>        </pitch>        <duration>2</duration>        <voice>2</voice>        <type>quarter</type>        <stem default-y="-40.5">down</stem>      </note>      <note default-x="43">        <pitch>          <step>B</step>          <octave>3</octave>        </pitch>        <duration>2</duration>        <voice>2</voice>        <type>quarter</type>        <stem default-y="-30.5">down</stem>      </note>      <note default-x="88">        <pitch>          <step>A</step>          <octave>3</octave>        </pitch>        <duration>2</duration>        <voice>2</voice>        <type>quarter</type>        <stem default-y="-36">down</stem>      </note>      <note default-x="118">        <pitch>          <step>D</step>          <octave>3</octave>        </pitch>        <duration>2</duration>        <voice>2</voice>        <type>quarter</type>        <stem default-y="-56">down</stem>      </note>    </measure>    <!--=======================================================-->    <measure number="7" width="185">      <note default-x="13">        <pitch>          <step>D</step>          <octave>4</octave>        </pitch>        <duration>2</duration>        <tie type="start"/>        <voice>1</voice>        <type>quarter</type>        <stem default-y="41">up</stem>        <notations>          <tied orientation="over" type="start"/>        </notations>      </note>      <note default-x="72">        <pitch>          <step>D</step>          <octave>4</octave>        </pitch>        <duration>2</duration>        <tie type="stop"/>        <voice>1</voice>        <type>quarter</type>        <stem default-y="41">up</stem>        <notations>          <tied type="stop"/>        </notations>      </note>      <note default-x="94">        <pitch>          <step>C</step>          <octave>4</octave>        </pitch>        <duration>2</duration>        <voice>1</voice>        <type>quarter</type>        <stem default-y="36">up</stem>      </note>      <note default-x="138">        <pitch>          <step>C</step>          <octave>4</octave>        </pitch>        <duration>2</duration>        <voice>1</voice>        <type>quarter</type>        <stem default-y="36">up</stem>      </note>      <backup>        <duration>8</duration>      </backup>      <note default-x="13">        <pitch>          <step>G</step>          <octave>3</octave>        </pitch>        <duration>2</duration>        <tie type="start"/>        <voice>2</voice>        <type>quarter</type>        <stem default-y="-40.5">down</stem>        <notations>          <tied orientation="under" type="start"/>        </notations>      </note>      <note default-x="72">        <pitch>          <step>G</step>          <octave>3</octave>        </pitch>        <duration>2</duration>        <tie type="stop"/>        <voice>2</voice>        <type>quarter</type>        <stem default-y="-40.5">down</stem>        <notations>          <tied type="stop"/>        </notations>      </note>      <note default-x="94">        <pitch>          <step>C</step>          <octave>3</octave>        </pitch>        <duration>1</duration>        <tie type="start"/>        <voice>2</voice>        <type>eighth</type>        <stem default-y="-60">down</stem>        <beam number="1">begin</beam>        <notations>          <tied orientation="under" type="start"/>        </notations>      </note>      <note default-x="123">        <pitch>          <step>D</step>          <octave>3</octave>        </pitch>        <duration>1</duration>        <voice>2</voice>        <type>eighth</type>        <stem default-y="-55">down</stem>        <beam number="1">end</beam>      </note>      <note default-x="138">        <pitch>          <step>E</step>          <octave>3</octave>        </pitch>        <duration>1</duration>        <tie type="start"/>        <voice>2</voice>        <type>eighth</type>        <stem default-y="-50">down</stem>        <beam number="1">begin</beam>        <notations>          <tied orientation="under" type="start"/>        </notations>      </note>      <note default-x="167">        <pitch>          <step>F</step>          <alter>1</alter>          <octave>3</octave>        </pitch>        <duration>1</duration>        <voice>2</voice>        <type>eighth</type>        <stem default-y="-45">down</stem>        <beam number="1">end</beam>      </note>    </measure>    <!--=======================================================-->    <measure number="8" width="212">      <note default-x="25">        <pitch>          <step>B</step>          <octave>3</octave>        </pitch>        <duration>1</duration>        <voice>1</voice>        <type>eighth</type>        <stem default-y="47">up</stem>        <beam number="1">begin</beam>        <notations>          <slur bezier-x="11" bezier-y="11" default-x="9" default-y="51" number="1" placement="above" type="start"/>        </notations>      </note>      <note default-x="42">        <pitch>          <step>C</step>          <octave>4</octave>        </pitch>        <duration>1</duration>        <voice>1</voice>        <type>eighth</type>        <stem default-y="48.5">up</stem>        <beam number="1">continue</beam>      </note>      <note default-x="63">        <pitch>          <step>D</step>          <octave>4</octave>        </pitch>        <duration>1</duration>        <voice>1</voice>        <type>eighth</type>        <stem default-y="50">up</stem>        <beam number="1">continue</beam>        <notations>          <slur bezier-x="-12" bezier-y="9" default-x="12" default-y="55" number="1" type="stop"/>        </notations>      </note>      <note default-x="83">        <pitch>          <step>D</step>          <octave>4</octave>        </pitch>        <duration>1</duration>        <voice>1</voice>        <type>eighth</type>        <stem default-y="52">up</stem>        <beam number="1">end</beam>      </note>      <note default-x="109">        <pitch>          <step>D</step>          <octave>4</octave>        </pitch>        <duration>1</duration>        <tie type="start"/>        <voice>1</voice>        <type>eighth</type>        <stem default-y="50">up</stem>        <beam number="1">begin</beam>        <notations>          <tied orientation="over" type="start"/>        </notations>      </note>      <note default-x="142">        <pitch>          <step>C</step>          <octave>4</octave>        </pitch>        <duration>1</duration>        <voice>1</voice>        <type>eighth</type>        <stem default-y="48.5">up</stem>        <beam number="1">continue</beam>      </note>      <note default-x="159">        <pitch>          <step>B</step>          <octave>3</octave>        </pitch>        <duration>1</duration>        <tie type="start"/>        <voice>1</voice>        <type>eighth</type>        <stem default-y="47">up</stem>        <beam number="1">continue</beam>        <notations>          <tied orientation="over" type="start"/>        </notations>      </note>      <note default-x="196">        <pitch>          <step>A</step>          <octave>3</octave>        </pitch>        <duration>1</duration>        <voice>1</voice>        <type>eighth</type>        <stem default-y="45">up</stem>        <beam number="1">end</beam>      </note>      <backup>        <duration>8</duration>      </backup>      <note default-x="25">        <pitch>          <step>G</step>          <octave>3</octave>        </pitch>        <duration>1</duration>        <voice>2</voice>        <type>eighth</type>        <stem default-y="-40">down</stem>        <beam number="1">begin</beam>        <notations>          <slur bezier-x="12" bezier-y="-15" default-x="0" default-y="-47" number="1" placement="below" type="start"/>        </notations>      </note>      <note default-x="42">        <pitch>          <step>A</step>          <octave>3</octave>        </pitch>        <duration>1</duration>        <voice>2</voice>        <type>eighth</type>        <stem default-y="-40">down</stem>        <beam number="1">continue</beam>      </note>      <note default-x="63">        <pitch>          <step>B</step>          <octave>3</octave>        </pitch>        <duration>1</duration>        <voice>2</voice>        <type>eighth</type>        <stem default-y="-40">down</stem>        <beam number="1">continue</beam>        <notations>          <slur bezier-x="-11" bezier-y="-15" default-x="1" default-y="-45" number="1" type="stop"/>        </notations>      </note>      <note default-x="83">        <pitch>          <step>G</step>          <octave>3</octave>        </pitch>        <duration>1</duration>        <voice>2</voice>        <type>eighth</type>        <stem default-y="-40">down</stem>        <beam number="1">end</beam>      </note>      <note default-x="109">        <pitch>          <step>C</step>          <octave>3</octave>        </pitch>        <duration>2</duration>        <voice>2</voice>        <type>quarter</type>        <stem default-y="-51">down</stem>      </note>      <note default-x="159">        <pitch>          <step>D</step>          <octave>3</octave>        </pitch>        <duration>2</duration>        <voice>2</voice>        <type>quarter</type>        <stem default-y="-56">down</stem>      </note>    </measure>    <!--=======================================================-->    <measure number="9" width="104">      <note default-x="11">        <pitch>          <step>G</step>          <octave>3</octave>        </pitch>        <duration>2</duration>        <tie type="start"/>        <voice>1</voice>        <type>quarter</type>        <stem default-y="31">up</stem>        <notations>          <tied orientation="over" type="start"/>        </notations>      </note>      <note default-x="11">        <chord/>        <pitch>          <step>B</step>          <octave>3</octave>        </pitch>        <duration>2</duration>        <tie type="start"/>        <voice>1</voice>        <type>quarter</type>        <stem>up</stem>        <notations>          <tied orientation="over" type="start"/>        </notations>      </note>      <note default-x="77">        <pitch>          <step>G</step>          <octave>3</octave>        </pitch>        <duration>2</duration>        <tie type="stop"/>        <voice>1</voice>        <type>quarter</type>        <stem default-y="31">up</stem>        <notations>          <tied type="stop"/>        </notations>      </note>      <note default-x="77">        <chord/>        <pitch>          <step>B</step>          <octave>3</octave>        </pitch>        <duration>2</duration>        <tie type="stop"/>        <voice>1</voice>        <type>quarter</type>        <stem>up</stem>        <notations>          <tied type="stop"/>        </notations>      </note>      <backup>        <duration>4</duration>      </backup>      <note default-x="11">        <pitch>          <step>G</step>          <octave>2</octave>        </pitch>        <duration>2</duration>        <tie type="start"/>        <voice>2</voice>        <type>quarter</type>        <stem default-y="-66">down</stem>        <notations>          <tied orientation="under" type="start"/>        </notations>      </note>      <note default-x="77">        <pitch>          <step>G</step>          <octave>2</octave>        </pitch>        <duration>2</duration>        <tie type="stop"/>        <voice>2</voice>        <type>quarter</type>        <stem default-y="-66">down</stem>        <notations>          <tied type="stop"/>        </notations>      </note>      <barline location="right">        <bar-style>light-heavy</bar-style>      </barline>    </measure>  </part>  <!--=========================================================--></score-partwise>