<?xml version="1.0" encoding="UTF-8"?><!DOCTYPE score-partwise PUBLIC "-//Recordare//DTD MusicXML 2.0 Partwise//EN"                                "http://www.musicxml.org/dtds/partwise.dtd"><score-partwise version="2.0">  <movement-title>Er is een roos ontloken</movement-title>  <identification>    <creator type="composer">Traditioneel kerstlied</creator>    <rights>Kerstzingcie 2006</rights>    <encoding>      <software>Finale 2011 for Macintosh</software>      <software>Dolet Light for Finale 2011</software>      <encoding-date>2011-09-30</encoding-date>      <supports attribute="new-system" element="print" type="yes" value="yes"/>      <supports attribute="new-page" element="print" type="yes" value="yes"/>    </encoding>  </identification>  <defaults>    <scaling>      <millimeters>7.2319</millimeters>      <tenths>40</tenths>    </scaling>    <page-layout>      <page-height>1545</page-height>      <page-width>1194</page-width>      <page-margins type="both">        <left-margin>140</left-margin>        <right-margin>70</right-margin>        <top-margin>70</top-margin>        <bottom-margin>70</bottom-margin>      </page-margins>    </page-layout>    <system-layout>      <system-margins>        <left-margin>0</left-margin>        <right-margin>0</right-margin>      </system-margins>      <system-distance>121</system-distance>      <top-system-distance>70</top-system-distance>    </system-layout>    <staff-layout>      <staff-distance>93</staff-distance>    </staff-layout>    <appearance>      <line-width type="stem">1.4583</line-width>      <line-width type="beam">5</line-width>      <line-width type="staff">1.4583</line-width>      <line-width type="light barline">1.4583</line-width>      <line-width type="heavy barline">5</line-width>      <line-width type="leger">1.4583</line-width>      <line-width type="ending">1.4583</line-width>      <line-width type="wedge">1.4583</line-width>      <line-width type="enclosure">1.4583</line-width>      <line-width type="tuplet bracket">1.4583</line-width>      <note-size type="grace">60</note-size>      <note-size type="cue">60</note-size>    </appearance>    <music-font font-family="Maestro" font-size="20.5"/>    <word-font font-family="Times New Roman" font-size="10.25"/>    <lyric-font font-family="Times New Roman" font-size="10.25" name="verse"/>  </defaults>  <credit page="1">    <credit-words default-x="632" default-y="1458" font-size="24" font-weight="bold" justify="center" valign="top">02. Er is een roos ontloken</credit-words>  </credit>  <credit page="1">    <credit-words default-x="1124" default-y="1393" font-size="12" font-weight="bold" justify="right" valign="top">Traditioneel kerstlied</credit-words>  </credit>  <credit page="1">    <credit-words default-x="632" default-y="53" font-size="10" halign="center" valign="bottom">Kerstzingcie 2006</credit-words>  </credit>  <part-list>    <part-group number="1" type="start">      <group-symbol default-x="-6">bracket</group-symbol>      <group-barline>no</group-barline>    </part-group>    <score-part id="P1">      <part-name>Sopraan
Alt</part-name>      <part-abbreviation>S
A</part-abbreviation>      <score-instrument id="P1-I1">        <instrument-name>Choir Aahs</instrument-name>      </score-instrument>      <midi-instrument id="P1-I1">        <midi-channel>1</midi-channel>        <midi-program>75</midi-program>        <volume>80</volume>        <pan>0</pan>      </midi-instrument>    </score-part>    <score-part id="P2">      <part-name>Tenor
Bas</part-name>      <part-abbreviation>T
B</part-abbreviation>      <score-instrument id="P2-I2">        <instrument-name>Acoustic Grand Piano</instrument-name>      </score-instrument>      <midi-instrument id="P2-I2">        <midi-channel>2</midi-channel>        <midi-program>75</midi-program>        <volume>80</volume>        <pan>0</pan>      </midi-instrument>    </score-part>    <part-group number="1" type="stop"/>  </part-list>  <!--=========================================================-->  <part id="P1">    <measure implicit="yes" number="0" width="157">      <print>        <system-layout>          <system-margins>            <left-margin>70</left-margin>            <right-margin>0</right-margin>          </system-margins>          <top-system-distance>211</top-system-distance>        </system-layout>        <measure-numbering>system</measure-numbering>      </print>      <attributes>        <divisions>2</divisions>        <key>          <fifths>-1</fifths>          <mode>major</mode>        </key>        <time symbol="common">          <beats>4</beats>          <beat-type>4</beat-type>        </time>        <clef>          <sign>G</sign>          <line>2</line>        </clef>      </attributes>      <sound tempo="120"/>      <note default-x="108">        <pitch>          <step>F</step>          <octave>4</octave>        </pitch>        <duration>2</duration>        <voice>1</voice>        <type>quarter</type>        <stem default-y="10.5">up</stem>        <lyric default-y="-80" number="1">          <syllabic>single</syllabic>          <text>Er</text>        </lyric>        <lyric default-y="-97" number="2">          <syllabic>single</syllabic>          <text>Die</text>        </lyric>        <lyric default-y="-113" number="3">          <syllabic>single</syllabic>          <text>Die</text>        </lyric>      </note>      <note default-x="108">        <chord/>        <pitch>          <step>C</step>          <octave>5</octave>        </pitch>        <duration>2</duration>        <voice>1</voice>        <type>quarter</type>        <stem>up</stem>      </note>    </measure>    <!--=======================================================-->    <measure number="1" width="237">      <note default-x="11">        <pitch>          <step>F</step>          <octave>4</octave>        </pitch>        <duration>2</duration>        <voice>1</voice>        <type>quarter</type>        <stem default-y="10.5">up</stem>        <lyric default-y="-80" number="1">          <syllabic>single</syllabic>          <text>is</text>        </lyric>        <lyric default-y="-97" number="2">          <syllabic>single</syllabic>          <text>roos</text>        </lyric>        <lyric default-y="-113" number="3">          <syllabic>single</syllabic>          <text>bloem</text>        </lyric>      </note>      <note default-x="11">        <chord/>        <pitch>          <step>C</step>          <octave>5</octave>        </pitch>        <duration>2</duration>        <voice>1</voice>        <type>quarter</type>        <stem>up</stem>      </note>      <note default-x="67">        <pitch>          <step>F</step>          <octave>4</octave>        </pitch>        <duration>2</duration>        <voice>1</voice>        <type>quarter</type>        <stem default-y="10.5">up</stem>        <lyric default-y="-80" number="1">          <syllabic>single</syllabic>          <text>een</text>        </lyric>        <lyric default-y="-97" number="2">          <syllabic>single</syllabic>          <text>van</text>        </lyric>        <lyric default-y="-113" number="3">          <syllabic>single</syllabic>          <text>van</text>        </lyric>      </note>      <note default-x="67">        <chord/>        <pitch>          <step>C</step>          <octave>5</octave>        </pitch>        <duration>2</duration>        <voice>1</voice>        <type>quarter</type>        <stem>up</stem>      </note>      <note default-x="123">        <pitch>          <step>F</step>          <octave>4</octave>        </pitch>        <duration>2</duration>        <voice>1</voice>        <type>quarter</type>        <stem default-y="16">up</stem>        <lyric default-y="-80" number="1">          <syllabic>single</syllabic>          <text>roos</text>        </lyric>        <lyric default-y="-97" number="2">          <syllabic>single</syllabic>          <text>ons</text>        </lyric>        <lyric default-y="-113" number="3">          <syllabic>single</syllabic>          <text>Gods</text>        </lyric>      </note>      <note default-x="123">        <chord/>        <pitch>          <step>D</step>          <octave>5</octave>        </pitch>        <duration>2</duration>        <voice>1</voice>        <type>quarter</type>        <stem>up</stem>      </note>      <note default-x="180">        <pitch>          <step>F</step>          <octave>4</octave>        </pitch>        <duration>2</duration>        <voice>1</voice>        <type>quarter</type>        <stem default-y="10.5">up</stem>        <lyric default-y="-80" number="1">          <syllabic>begin</syllabic>          <text>ont</text>        </lyric>        <lyric default-y="-97" number="2">          <syllabic>begin</syllabic>          <text>ver</text>        </lyric>        <lyric default-y="-113" number="3">          <syllabic>begin</syllabic>          <text>be</text>        </lyric>      </note>      <note default-x="180">        <chord/>        <pitch>          <step>C</step>          <octave>5</octave>        </pitch>        <duration>2</duration>        <voice>1</voice>        <type>quarter</type>        <stem>up</stem>      </note>    </measure>    <!--=======================================================-->    <measure number="2" width="162">      <note default-x="14">        <pitch>          <step>G</step>          <octave>4</octave>        </pitch>        <duration>4</duration>        <voice>1</voice>        <type>half</type>        <stem default-y="10.5">up</stem>        <lyric default-y="-80" number="1">          <syllabic>middle</syllabic>          <text>lo</text>        </lyric>        <lyric default-y="-97" number="2">          <syllabic>middle</syllabic>          <text>lan</text>        </lyric>        <lyric default-y="-113" number="3">          <syllabic>middle</syllabic>          <text>ha</text>        </lyric>      </note>      <note default-x="14">        <chord/>        <pitch>          <step>C</step>          <octave>5</octave>        </pitch>        <duration>4</duration>        <voice>1</voice>        <type>half</type>        <stem>up</stem>      </note>      <note default-x="87">        <pitch>          <step>F</step>          <octave>4</octave>        </pitch>        <duration>4</duration>        <voice>1</voice>        <type>half</type>        <stem default-y="10.5">up</stem>        <lyric default-y="-80" number="1">          <syllabic>end</syllabic>          <text>ken</text>        </lyric>        <lyric default-y="-97" number="2">          <syllabic>end</syllabic>          <text>gen,</text>        </lyric>        <lyric default-y="-113" number="3">          <syllabic>end</syllabic>          <text>gen</text>        </lyric>      </note>      <note default-x="87">        <chord/>        <pitch>          <step>A</step>          <octave>4</octave>        </pitch>        <duration>4</duration>        <voice>1</voice>        <type>half</type>        <stem>up</stem>      </note>    </measure>    <!--=======================================================-->    <measure number="3" width="179">      <note default-x="13">        <pitch>          <step>F</step>          <octave>4</octave>        </pitch>        <duration>4</duration>        <voice>1</voice>        <type>half</type>        <stem default-y="16">up</stem>        <lyric default-y="-80" number="1">          <syllabic>single</syllabic>          <text>uit</text>        </lyric>        <lyric default-y="-97" number="2">          <syllabic>single</syllabic>          <text>dat</text>        </lyric>        <lyric default-y="-113" number="3">          <syllabic>single</syllabic>          <text>heeft,</text>        </lyric>      </note>      <note default-x="13">        <chord/>        <pitch>          <step>B</step>          <alter>-1</alter>          <octave>4</octave>        </pitch>        <duration>4</duration>        <voice>1</voice>        <type>half</type>        <stem>up</stem>      </note>      <note default-x="87">        <pitch>          <step>F</step>          <octave>4</octave>        </pitch>        <duration>2</duration>        <voice>1</voice>        <type>quarter</type>        <stem default-y="10.5">up</stem>        <lyric default-y="-80" number="1">          <syllabic>begin</syllabic>          <text>bar</text>        </lyric>        <lyric default-y="-97" number="2">          <syllabic>begin</syllabic>          <text>uit</text>        </lyric>        <lyric default-y="-113" number="3">          <syllabic>single</syllabic>          <text>naar</text>        </lyric>      </note>      <note default-x="87">        <chord/>        <pitch>          <step>A</step>          <octave>4</octave>        </pitch>        <duration>2</duration>        <voice>1</voice>        <type>quarter</type>        <stem>up</stem>      </note>      <note default-x="132">        <pitch>          <step>D</step>          <octave>4</octave>        </pitch>        <duration>2</duration>        <voice>1</voice>        <type>quarter</type>        <stem default-y="6">up</stem>        <lyric default-y="-80" number="1">          <syllabic>end</syllabic>          <text>re</text>        </lyric>        <lyric default-y="-97" number="2">          <syllabic>middle</syllabic>          <text>ver</text>        </lyric>        <lyric default-y="-113" number="3">          <syllabic>begin</syllabic>          <text>Je</text>        </lyric>      </note>      <note default-x="132">        <chord/>        <pitch>          <step>G</step>          <octave>4</octave>        </pitch>        <duration>2</duration>        <tie type="start"/>        <voice>1</voice>        <type>quarter</type>        <stem>up</stem>        <notations>          <tied type="start"/>        </notations>      </note>    </measure>    <!--=======================================================-->    <measure number="4" width="179">      <note default-x="14">        <pitch>          <step>G</step>          <octave>4</octave>        </pitch>        <duration>2</duration>        <tie type="stop"/>        <voice>1</voice>        <type>quarter</type>        <stem default-y="6">up</stem>        <notations>          <tied type="stop"/>        </notations>      </note>      <note default-x="59">        <pitch>          <step>F</step>          <octave>4</octave>        </pitch>        <duration>4</duration>        <voice>1</voice>        <type>half</type>        <stem default-y="1">up</stem>        <lyric default-y="-80" number="1" relative-x="-37">          <syllabic>begin</syllabic>          <text>win</text>        </lyric>        <lyric default-y="-97" number="2" relative-x="-42">          <syllabic>middle</syllabic>          <text>ko</text>        </lyric>        <lyric default-y="-112" number="3" relative-x="-40">          <syllabic>middle</syllabic>          <text>sa</text>        </lyric>      </note>      <note default-x="132">        <pitch>          <step>E</step>          <octave>4</octave>        </pitch>        <duration>2</duration>        <voice>1</voice>        <type>quarter</type>        <stem default-y="-4">up</stem>        <lyric default-y="-79" number="1" relative-x="-30">          <syllabic>middle</syllabic>          <text>ter</text>        </lyric>        <lyric default-y="-97" number="2" relative-x="-37">          <syllabic>end</syllabic>          <text>ren</text>        </lyric>        <lyric default-y="-112" number="3" relative-x="-40">          <syllabic>end</syllabic>          <text>ja</text>        </lyric>      </note>      <backup>        <duration>8</duration>      </backup>      <note default-x="14">        <pitch>          <step>C</step>          <octave>4</octave>        </pitch>        <duration>4</duration>        <voice>2</voice>        <type>half</type>        <stem default-y="-76">down</stem>      </note>      <note default-x="96">        <pitch>          <step>B</step>          <alter>-1</alter>          <octave>3</octave>        </pitch>        <duration>4</duration>        <voice>2</voice>        <type>half</type>        <stem default-y="-80.5">down</stem>      </note>    </measure>    <!--=======================================================-->    <measure number="5" width="296">      <print new-system="yes">        <system-layout>          <system-distance>153</system-distance>        </system-layout>      </print>      <note default-x="79">        <pitch>          <step>C</step>          <octave>4</octave>        </pitch>        <duration>4</duration>        <voice>1</voice>        <type>half</type>        <stem default-y="1">up</stem>        <lyric default-y="-80" number="1">          <syllabic>end</syllabic>          <text>grond,</text>        </lyric>        <lyric default-y="-97" number="2">          <syllabic>single</syllabic>          <text>zaad,</text>        </lyric>        <lyric default-y="-113" number="3">          <syllabic>single</syllabic>          <text>sprak,</text>        </lyric>      </note>      <note default-x="79">        <chord/>        <pitch>          <step>F</step>          <octave>4</octave>        </pitch>        <duration>4</duration>        <voice>1</voice>        <type>half</type>        <stem>up</stem>      </note>      <note default-x="175">        <rest/>        <duration>2</duration>        <voice>1</voice>        <type>quarter</type>      </note>      <note default-x="235">        <pitch>          <step>F</step>          <octave>4</octave>        </pitch>        <duration>2</duration>        <voice>1</voice>        <type>quarter</type>        <stem default-y="11">up</stem>        <lyric default-y="-80" number="1">          <syllabic>begin</syllabic>          <text>zo</text>        </lyric>        <lyric default-y="-97" number="2">          <syllabic>single</syllabic>          <text>is</text>        </lyric>        <lyric default-y="-113" number="3">          <syllabic>single</syllabic>          <text>de</text>        </lyric>      </note>      <note default-x="235">        <chord/>        <pitch>          <step>C</step>          <octave>5</octave>        </pitch>        <duration>2</duration>        <voice>1</voice>        <type>quarter</type>        <stem>up</stem>      </note>    </measure>    <!--=======================================================-->    <measure number="6" width="248">      <note default-x="11">        <pitch>          <step>F</step>          <octave>4</octave>        </pitch>        <duration>2</duration>        <voice>1</voice>        <type>quarter</type>        <stem default-y="11">up</stem>        <lyric default-y="-80" number="1">          <syllabic>end</syllabic>          <text>als</text>        </lyric>        <lyric default-y="-97" number="2">          <syllabic>single</syllabic>          <text>door</text>        </lyric>        <lyric default-y="-113" number="3">          <syllabic>begin</syllabic>          <text>win</text>        </lyric>      </note>      <note default-x="11">        <chord/>        <pitch>          <step>C</step>          <octave>5</octave>        </pitch>        <duration>2</duration>        <voice>1</voice>        <type>quarter</type>        <stem>up</stem>      </note>      <note default-x="70">        <pitch>          <step>F</step>          <octave>4</octave>        </pitch>        <duration>2</duration>        <voice>1</voice>        <type>quarter</type>        <stem default-y="11">up</stem>        <lyric default-y="-80" number="1">          <syllabic>single</syllabic>          <text>er</text>        </lyric>        <lyric default-y="-97" number="2">          <syllabic>single</syllabic>          <text>een</text>        </lyric>        <lyric default-y="-113" number="3">          <syllabic>middle</syllabic>          <text>ter</text>        </lyric>      </note>      <note default-x="70">        <chord/>        <pitch>          <step>C</step>          <octave>5</octave>        </pitch>        <duration>2</duration>        <voice>1</voice>        <type>quarter</type>        <stem>up</stem>      </note>      <note default-x="129">        <pitch>          <step>F</step>          <octave>4</octave>        </pitch>        <duration>2</duration>        <voice>1</voice>        <type>quarter</type>        <stem default-y="16">up</stem>        <lyric default-y="-80" number="1">          <syllabic>single</syllabic>          <text>was</text>        </lyric>        <lyric default-y="-97" number="2">          <syllabic>single</syllabic>          <text>maagd</text>        </lyric>        <lyric default-y="-113" number="3">          <syllabic>end</syllabic>          <text>kou</text>        </lyric>      </note>      <note default-x="129">        <chord/>        <pitch>          <step>D</step>          <octave>5</octave>        </pitch>        <duration>2</duration>        <voice>1</voice>        <type>quarter</type>        <stem>up</stem>      </note>      <note default-x="188">        <pitch>          <step>F</step>          <octave>4</octave>        </pitch>        <duration>2</duration>        <voice>1</voice>        <type>quarter</type>        <stem default-y="11">up</stem>        <lyric default-y="-80" number="1">          <syllabic>begin</syllabic>          <text>ge</text>        </lyric>        <lyric default-y="-97" number="2">          <syllabic>begin</syllabic>          <text>ont</text>        </lyric>        <lyric default-y="-113" number="3">          <syllabic>begin</syllabic>          <text>ver</text>        </lyric>      </note>      <note default-x="188">        <chord/>        <pitch>          <step>C</step>          <octave>5</octave>        </pitch>        <duration>2</duration>        <voice>1</voice>        <type>quarter</type>        <stem>up</stem>      </note>    </measure>    <!--=======================================================-->    <measure number="7" width="209">      <note default-x="14">        <pitch>          <step>G</step>          <octave>4</octave>        </pitch>        <duration>4</duration>        <voice>1</voice>        <type>half</type>        <stem default-y="11">up</stem>        <lyric default-y="-80" number="1">          <syllabic>middle</syllabic>          <text>spro</text>        </lyric>        <lyric default-y="-97" number="2">          <syllabic>middle</syllabic>          <text>van</text>        </lyric>        <lyric default-y="-113" number="3">          <syllabic>middle</syllabic>          <text>dra</text>        </lyric>      </note>      <note default-x="14">        <chord/>        <pitch>          <step>C</step>          <octave>5</octave>        </pitch>        <duration>4</duration>        <voice>1</voice>        <type>half</type>        <stem>up</stem>      </note>      <note default-x="111">        <pitch>          <step>F</step>          <octave>4</octave>        </pitch>        <duration>4</duration>        <voice>1</voice>        <type>half</type>        <stem default-y="11">up</stem>        <lyric default-y="-80" number="1">          <syllabic>end</syllabic>          <text>ken</text>        </lyric>        <lyric default-y="-97" number="2">          <syllabic>end</syllabic>          <text>gen</text>        </lyric>        <lyric default-y="-113" number="3">          <syllabic>end</syllabic>          <text>gen</text>        </lyric>      </note>      <note default-x="111">        <chord/>        <pitch>          <step>A</step>          <octave>4</octave>        </pitch>        <duration>4</duration>        <voice>1</voice>        <type>half</type>        <stem>up</stem>      </note>    </measure>    <!--=======================================================-->    <measure number="8" width="231">      <note default-x="14">        <pitch>          <step>F</step>          <octave>4</octave>        </pitch>        <duration>4</duration>        <voice>1</voice>        <type>half</type>        <stem default-y="16">up</stem>        <lyric default-y="-80" number="1">          <syllabic>single</syllabic>          <text>door</text>        </lyric>        <lyric default-y="-97" number="2">          <syllabic>single</syllabic>          <text>uit</text>        </lyric>        <lyric default-y="-113" number="3">          <syllabic>single</syllabic>          <text>als</text>        </lyric>      </note>      <note default-x="14">        <chord/>        <pitch>          <step>B</step>          <alter>-1</alter>          <octave>4</octave>        </pitch>        <duration>4</duration>        <voice>1</voice>        <type>half</type>        <stem>up</stem>      </note>      <note default-x="110">        <pitch>          <step>F</step>          <octave>4</octave>        </pitch>        <duration>2</duration>        <voice>1</voice>        <type>quarter</type>        <stem default-y="11">up</stem>        <lyric default-y="-80" number="1">          <syllabic>single</syllabic>          <text>der</text>        </lyric>        <lyric default-y="-97" number="2">          <syllabic>single</syllabic>          <text>Gods</text>        </lyric>        <lyric default-y="-113" number="3">          <syllabic>begin</syllabic>          <text>al</text>        </lyric>      </note>      <note default-x="110">        <chord/>        <pitch>          <step>A</step>          <octave>4</octave>        </pitch>        <duration>2</duration>        <voice>1</voice>        <type>quarter</type>        <stem>up</stem>      </note>      <note default-x="169">        <pitch>          <step>D</step>          <octave>4</octave>        </pitch>        <duration>2</duration>        <voice>1</voice>        <type>quarter</type>        <stem default-y="6">up</stem>        <lyric default-y="-80" number="1">          <syllabic>begin</syllabic>          <text>pro</text>        </lyric>        <lyric default-y="-97" number="2">          <syllabic>begin</syllabic>          <text>ver</text>        </lyric>        <lyric default-y="-113" number="3">          <syllabic>middle</syllabic>          <text>ler</text>        </lyric>      </note>      <note default-x="169">        <chord/>        <pitch>          <step>G</step>          <octave>4</octave>        </pitch>        <duration>2</duration>        <tie type="start"/>        <voice>1</voice>        <type>quarter</type>        <stem>up</stem>        <notations>          <tied type="start"/>        </notations>      </note>    </measure>    <!--=======================================================-->    <measure number="9" width="325">      <print new-system="yes">        <system-layout>          <system-distance>153</system-distance>        </system-layout>      </print>      <note default-x="79">        <pitch>          <step>G</step>          <octave>4</octave>        </pitch>        <duration>2</duration>        <tie type="stop"/>        <voice>1</voice>        <type>quarter</type>        <stem default-y="6">up</stem>        <notations>          <tied type="stop"/>        </notations>      </note>      <note default-x="146">        <pitch>          <step>F</step>          <octave>4</octave>        </pitch>        <duration>4</duration>        <voice>1</voice>        <type>half</type>        <stem default-y="1">up</stem>        <lyric default-y="-79" number="1" relative-x="-60">          <syllabic>middle</syllabic>          <text>fe</text>        </lyric>        <lyric default-y="-97" number="2" relative-x="-52">          <syllabic>middle</syllabic>          <text>bor</text>        </lyric>        <lyric default-y="-113" number="3" relative-x="-54">          <syllabic>middle</syllabic>          <text>dor</text>        </lyric>      </note>      <note default-x="256">        <pitch>          <step>E</step>          <octave>4</octave>        </pitch>        <duration>2</duration>        <voice>1</voice>        <type>quarter</type>        <stem default-y="-4">up</stem>        <lyric default-y="-79" number="1" relative-x="-56">          <syllabic>middle</syllabic>          <text>ten</text>        </lyric>        <lyric default-y="-97" number="2" relative-x="-55">          <syllabic>end</syllabic>          <text>gen</text>        </lyric>        <lyric default-y="-113" number="3" relative-x="-54">          <syllabic>end</syllabic>          <text>ste</text>        </lyric>      </note>      <backup>        <duration>8</duration>      </backup>      <note default-x="79">        <pitch>          <step>C</step>          <octave>4</octave>        </pitch>        <duration>4</duration>        <voice>2</voice>        <type>half</type>        <stem default-y="-76">down</stem>      </note>      <note default-x="201">        <pitch>          <step>B</step>          <alter>-1</alter>          <octave>3</octave>        </pitch>        <duration>4</duration>        <voice>2</voice>        <type>half</type>        <stem default-y="-81">down</stem>      </note>    </measure>    <!--=======================================================-->    <measure number="10" width="180">      <note default-x="13">        <pitch>          <step>C</step>          <octave>4</octave>        </pitch>        <duration>4</duration>        <voice>1</voice>        <type>half</type>        <stem default-y="1">up</stem>        <lyric default-y="-80" number="1">          <syllabic>end</syllabic>          <text>mond.</text>        </lyric>        <lyric default-y="-97" number="2">          <syllabic>single</syllabic>          <text>raad.</text>        </lyric>        <lyric default-y="-113" number="3">          <syllabic>single</syllabic>          <text>tak.</text>        </lyric>      </note>      <note default-x="13">        <chord/>        <pitch>          <step>F</step>          <octave>4</octave>        </pitch>        <duration>4</duration>        <voice>1</voice>        <type>half</type>        <stem>up</stem>      </note>      <note default-x="88">        <rest/>        <duration>2</duration>        <voice>1</voice>        <type>quarter</type>      </note>      <note default-x="133">        <pitch>          <step>C</step>          <octave>4</octave>        </pitch>        <duration>2</duration>        <voice>1</voice>        <type>quarter</type>        <stem default-y="11">up</stem>        <lyric default-y="-80" number="1">          <syllabic>single</syllabic>          <text>En</text>        </lyric>        <lyric default-y="-97" number="2">          <syllabic>begin</syllabic>          <text>Ma</text>        </lyric>        <lyric default-y="-113" number="3">          <syllabic>single</syllabic>          <text>O</text>        </lyric>      </note>      <note default-x="133">        <chord/>        <pitch>          <step>A</step>          <octave>4</octave>        </pitch>        <duration>2</duration>        <voice>1</voice>        <type>quarter</type>        <stem>up</stem>      </note>    </measure>    <!--=======================================================-->    <measure number="11" width="299">      <note default-x="13">        <pitch>          <step>C</step>          <octave>4</octave>        </pitch>        <duration>2</duration>        <voice>1</voice>        <type>quarter</type>        <stem default-y="6">up</stem>        <lyric default-y="-80" number="1">          <syllabic>begin</syllabic>          <text>Da</text>        </lyric>        <lyric default-y="-97" number="2">          <syllabic>middle</syllabic>          <text>ri</text>        </lyric>        <lyric default-y="-113" number="3">          <syllabic>single</syllabic>          <text>roos</text>        </lyric>      </note>      <note default-x="13">        <chord/>        <pitch>          <step>G</step>          <octave>4</octave>        </pitch>        <duration>2</duration>        <voice>1</voice>        <type>quarter</type>        <stem>up</stem>      </note>      <note default-x="80">        <pitch>          <step>C</step>          <octave>4</octave>        </pitch>        <duration>2</duration>        <voice>1</voice>        <type>quarter</type>        <stem default-y="-4">up</stem>        <lyric default-y="-80" number="1">          <syllabic>end</syllabic>          <text>vids</text>        </lyric>        <lyric default-y="-97" number="2">          <syllabic>end</syllabic>          <text>a</text>        </lyric>        <lyric default-y="-113" number="3">          <syllabic>single</syllabic>          <text>als</text>        </lyric>      </note>      <note default-x="80">        <chord/>        <pitch>          <step>E</step>          <octave>4</octave>        </pitch>        <duration>2</duration>        <voice>1</voice>        <type>quarter</type>        <stem>up</stem>      </note>      <note default-x="146">        <pitch>          <step>F</step>          <octave>4</octave>        </pitch>        <duration>2</duration>        <voice>1</voice>        <type>quarter</type>        <stem default-y="1">up</stem>        <lyric default-y="-80" number="1">          <syllabic>single</syllabic>          <text>oud</text>        </lyric>        <lyric default-y="-97" number="2">          <syllabic>single</syllabic>          <text>was</text>        </lyric>        <lyric default-y="-113" number="3">          <syllabic>single</syllabic>          <text>bloed</text>        </lyric>      </note>      <note default-x="213">        <pitch>          <step>D</step>          <octave>4</octave>        </pitch>        <duration>2</duration>        <voice>1</voice>        <type>quarter</type>        <stem default-y="-9">up</stem>        <lyric default-y="-80" number="1" relative-x="-9">          <syllabic>begin</syllabic>          <text>ge</text>        </lyric>        <lyric default-y="-97" number="2">          <syllabic>begin</syllabic>          <text>be</text>        </lyric>        <lyric default-y="-113" number="3">          <syllabic>single</syllabic>          <text>zo</text>        </lyric>      </note>      <backup>        <duration>8</duration>      </backup>      <forward>        <duration>4</duration>        <voice>2</voice>      </forward>      <note default-x="157">        <cue/>        <pitch>          <step>C</step>          <octave>4</octave>        </pitch>        <duration>2</duration>        <voice>2</voice>        <type size="full">quarter</type>        <stem default-y="-76">down</stem>        <notations>          <tied orientation="under" type="start"/>        </notations>      </note>      <note default-x="225">        <pitch>          <step>C</step>          <octave>4</octave>        </pitch>        <duration>1</duration>        <voice>2</voice>        <type>eighth</type>        <stem default-y="-80">down</stem>        <beam number="1">begin</beam>      </note>      <note default-x="257">        <pitch>          <step>B</step>          <octave>3</octave>        </pitch>        <duration>1</duration>        <voice>2</voice>        <type>eighth</type>        <accidental>natural</accidental>        <stem default-y="-85">down</stem>        <beam number="1">end</beam>      </note>    </measure>    <!--=======================================================-->    <measure number="12" width="179">      <note default-x="14">        <pitch>          <step>G</step>          <octave>3</octave>        </pitch>        <duration>4</duration>        <voice>1</voice>        <type>half</type>        <stem default-y="-14">up</stem>        <lyric default-y="-81" number="1">          <syllabic>end</syllabic>          <text>slacht</text>        </lyric>        <lyric default-y="-97" number="2">          <syllabic>end</syllabic>          <text>reid,</text>        </lyric>        <lyric default-y="-113" number="3">          <syllabic>single</syllabic>          <text>rood,</text>        </lyric>      </note>      <note default-x="14">        <chord/>        <pitch>          <step>C</step>          <octave>4</octave>        </pitch>        <duration>4</duration>        <voice>1</voice>        <type>half</type>        <stem>up</stem>      </note>      <note default-x="87">        <rest/>        <duration>2</duration>        <voice>1</voice>        <type>quarter</type>      </note>      <note default-x="132">        <pitch>          <step>E</step>          <octave>4</octave>        </pitch>        <duration>2</duration>        <voice>1</voice>        <type>quarter</type>        <stem default-y="11">up</stem>        <lyric default-y="-80" number="1">          <syllabic>single</syllabic>          <text>is</text>        </lyric>        <lyric default-y="-97" number="2">          <syllabic>single</syllabic>          <text>toen</text>        </lyric>        <lyric default-y="-113" number="3">          <syllabic>single</syllabic>          <text>God</text>        </lyric>      </note>      <note default-x="132">        <chord/>        <pitch>          <step>C</step>          <octave>5</octave>        </pitch>        <duration>2</duration>        <voice>1</voice>        <type>quarter</type>        <stem>up</stem>      </note>    </measure>    <!--=======================================================-->    <measure number="13" width="270">      <print new-system="yes">        <system-layout>          <system-distance>153</system-distance>        </system-layout>      </print>      <note default-x="76">        <pitch>          <step>F</step>          <octave>4</octave>        </pitch>        <duration>2</duration>        <voice>1</voice>        <type>quarter</type>        <stem default-y="11">up</stem>        <lyric default-y="-80" number="1">          <syllabic>single</syllabic>          <text>weer</text>        </lyric>        <lyric default-y="-97" number="2">          <syllabic>begin</syllabic>          <text>Ga</text>        </lyric>        <lyric default-y="-113" number="3">          <syllabic>single</syllabic>          <text>komt</text>        </lyric>      </note>      <note default-x="76">        <chord/>        <pitch>          <step>C</step>          <octave>5</octave>        </pitch>        <duration>2</duration>        <voice>1</voice>        <type>quarter</type>        <stem>up</stem>      </note>      <note default-x="124">        <pitch>          <step>F</step>          <octave>4</octave>        </pitch>        <duration>2</duration>        <voice>1</voice>        <type>quarter</type>        <stem default-y="11">up</stem>        <lyric default-y="-80" number="1">          <syllabic>begin</syllabic>          <text>op</text>        </lyric>        <lyric default-y="-97" number="2">          <syllabic>middle</syllabic>          <text>bri</text>        </lyric>        <lyric default-y="-113" number="3">          <syllabic>single</syllabic>          <text>zijn</text>        </lyric>      </note>      <note default-x="124">        <chord/>        <pitch>          <step>C</step>          <octave>5</octave>        </pitch>        <duration>2</duration>        <voice>1</voice>        <type>quarter</type>        <stem>up</stem>      </note>      <note default-x="172">        <pitch>          <step>F</step>          <octave>4</octave>        </pitch>        <duration>2</duration>        <voice>1</voice>        <type>quarter</type>        <stem default-y="16">up</stem>        <lyric default-y="-80" number="1">          <syllabic>end</syllabic>          <text>nieuw</text>        </lyric>        <lyric default-y="-97" number="2">          <syllabic>end</syllabic>          <text>ël</text>        </lyric>        <lyric default-y="-113" number="3">          <syllabic>single</syllabic>          <text>volk</text>        </lyric>      </note>      <note default-x="172">        <chord/>        <pitch>          <step>D</step>          <octave>5</octave>        </pitch>        <duration>2</duration>        <voice>1</voice>        <type>quarter</type>        <stem>up</stem>      </note>      <note default-x="220">        <pitch>          <step>F</step>          <octave>4</octave>        </pitch>        <duration>2</duration>        <voice>1</voice>        <type>quarter</type>        <stem default-y="11">up</stem>        <lyric default-y="-80" number="1">          <syllabic>single</syllabic>          <text>gaan</text>        </lyric>        <lyric default-y="-97" number="2">          <syllabic>single</syllabic>          <text>haar</text>        </lyric>        <lyric default-y="-113" number="3">          <syllabic>begin</syllabic>          <text>be</text>        </lyric>      </note>      <note default-x="220">        <chord/>        <pitch>          <step>C</step>          <octave>5</octave>        </pitch>        <duration>2</duration>        <voice>1</voice>        <type>quarter</type>        <stem>up</stem>      </note>    </measure>    <!--=======================================================-->    <measure number="14" width="172">      <note default-x="14">        <pitch>          <step>G</step>          <octave>4</octave>        </pitch>        <duration>4</duration>        <voice>1</voice>        <type>half</type>        <stem default-y="11">up</stem>        <lyric default-y="-80" number="1">          <syllabic>begin</syllabic>          <text>bloe</text>        </lyric>        <lyric default-y="-97" number="2">          <syllabic>begin</syllabic>          <text>groet</text>        </lyric>        <lyric default-y="-113" number="3">          <syllabic>middle</syllabic>          <text>zoe</text>        </lyric>      </note>      <note default-x="14">        <chord/>        <pitch>          <step>C</step>          <octave>5</octave>        </pitch>        <duration>4</duration>        <voice>1</voice>        <type>half</type>        <stem>up</stem>      </note>      <note default-x="92">        <pitch>          <step>F</step>          <alter>1</alter>          <octave>4</octave>        </pitch>        <duration>4</duration>        <voice>1</voice>        <type>half</type>        <accidental>sharp</accidental>        <stem default-y="11">up</stem>        <lyric default-y="-80" number="1">          <syllabic>end</syllabic>          <text>ien</text>        </lyric>        <lyric default-y="-97" number="2">          <syllabic>end</syllabic>          <text>te</text>        </lyric>        <lyric default-y="-113" number="3">          <syllabic>end</syllabic>          <text>ken</text>        </lyric>      </note>      <note default-x="92">        <chord/>        <pitch>          <step>A</step>          <octave>4</octave>        </pitch>        <duration>4</duration>        <voice>1</voice>        <type>half</type>        <stem>up</stem>      </note>    </measure>    <!--=======================================================-->    <measure number="15" width="190">      <note default-x="14">        <pitch>          <step>F</step>          <octave>4</octave>        </pitch>        <duration>4</duration>        <voice>1</voice>        <type>half</type>        <stem default-y="16">up</stem>        <lyric default-y="-80" number="1">          <syllabic>single</syllabic>          <text>in</text>        </lyric>        <lyric default-y="-97" number="2">          <syllabic>single</syllabic>          <text>in</text>        </lyric>        <lyric default-y="-113" number="3">          <syllabic>single</syllabic>          <text>in</text>        </lyric>      </note>      <note default-x="14">        <chord/>        <pitch>          <step>B</step>          <alter>-1</alter>          <octave>4</octave>        </pitch>        <duration>4</duration>        <voice>1</voice>        <type>half</type>        <stem>up</stem>      </note>      <note default-x="92">        <pitch>          <step>F</step>          <octave>4</octave>        </pitch>        <duration>2</duration>        <voice>1</voice>        <type>quarter</type>        <stem default-y="11">up</stem>        <lyric default-y="-80" number="1">          <syllabic>single</syllabic>          <text>'t</text>          <elision> </elision>          <syllabic>begin</syllabic>          <text>mid</text>        </lyric>        <lyric default-y="-97" number="2">          <syllabic>single</syllabic>          <text>'t</text>          <elision> </elision>          <syllabic>begin</syllabic>          <text>mid</text>        </lyric>        <lyric default-y="-113" number="3">          <syllabic>single</syllabic>          <text>'t</text>          <elision> </elision>          <syllabic>begin</syllabic>          <text>mid</text>        </lyric>      </note>      <note default-x="92">        <chord/>        <pitch>          <step>A</step>          <octave>4</octave>        </pitch>        <duration>2</duration>        <voice>1</voice>        <type>quarter</type>        <stem>up</stem>      </note>      <note default-x="140">        <pitch>          <step>D</step>          <octave>4</octave>        </pitch>        <duration>2</duration>        <voice>1</voice>        <type>quarter</type>        <stem default-y="6">up</stem>        <lyric default-y="-80" number="1">          <syllabic>end</syllabic>          <text>den</text>        </lyric>        <lyric default-y="-97" number="2">          <syllabic>end</syllabic>          <text>den</text>        </lyric>        <lyric default-y="-113" number="3">          <syllabic>end</syllabic>          <text>den</text>        </lyric>      </note>      <note default-x="140">        <chord/>        <pitch>          <step>G</step>          <octave>4</octave>        </pitch>        <duration>2</duration>        <tie type="start"/>        <voice>1</voice>        <type>quarter</type>        <stem>up</stem>        <notations>          <tied type="start"/>        </notations>      </note>    </measure>    <!--=======================================================-->    <measure number="16" width="190">      <note default-x="14">        <pitch>          <step>G</step>          <octave>4</octave>        </pitch>        <duration>2</duration>        <tie type="stop"/>        <voice>1</voice>        <type>quarter</type>        <stem default-y="6">up</stem>        <notations>          <tied type="stop"/>        </notations>      </note>      <note default-x="62">        <pitch>          <step>F</step>          <octave>4</octave>        </pitch>        <duration>4</duration>        <voice>1</voice>        <type>half</type>        <stem default-y="1">up</stem>        <lyric default-y="-81" number="1" relative-x="-44">          <syllabic>single</syllabic>          <text>van</text>        </lyric>        <lyric default-y="-97" number="2" relative-x="-42">          <syllabic>single</syllabic>          <text>van</text>        </lyric>        <lyric default-y="-112" number="3" relative-x="-44">          <syllabic>single</syllabic>          <text>van</text>        </lyric>      </note>      <note default-x="140">        <pitch>          <step>E</step>          <octave>4</octave>        </pitch>        <duration>2</duration>        <voice>1</voice>        <type>quarter</type>        <stem default-y="-4">up</stem>        <lyric default-y="-81" number="1" relative-x="-35">          <syllabic>single</syllabic>          <text>de</text>        </lyric>        <lyric default-y="-97" number="2" relative-x="-36">          <syllabic>single</syllabic>          <text>de</text>        </lyric>        <lyric default-y="-111" number="3" relative-x="-34">          <syllabic>single</syllabic>          <text>de</text>        </lyric>      </note>      <backup>        <duration>8</duration>      </backup>      <note default-x="14">        <pitch>          <step>C</step>          <octave>4</octave>        </pitch>        <duration>4</duration>        <voice>2</voice>        <type>half</type>        <stem default-y="-76">down</stem>      </note>      <note default-x="101">        <pitch>          <step>B</step>          <alter>-1</alter>          <octave>3</octave>        </pitch>        <duration>4</duration>        <voice>2</voice>        <type>half</type>        <stem default-y="-81">down</stem>      </note>    </measure>    <!--=======================================================-->    <measure number="17" width="162">      <note default-x="14">        <pitch>          <step>C</step>          <octave>4</octave>        </pitch>        <duration>4</duration>        <voice>1</voice>        <type>half</type>        <stem default-y="1">up</stem>        <lyric default-y="-80" number="1">          <syllabic>single</syllabic>          <text>nacht.</text>        </lyric>        <lyric default-y="-97" number="2">          <syllabic>single</syllabic>          <text>tijd.</text>        </lyric>        <lyric default-y="-113" number="3">          <syllabic>single</syllabic>          <text>dood.</text>        </lyric>      </note>      <note default-x="14">        <chord/>        <pitch>          <step>F</step>          <octave>4</octave>        </pitch>        <duration>4</duration>        <voice>1</voice>        <type>half</type>        <stem>up</stem>      </note>      <note default-x="93">        <rest/>        <duration>2</duration>        <voice>1</voice>        <type>quarter</type>      </note>      <barline location="right">        <bar-style>light-heavy</bar-style>        <repeat direction="backward"/>      </barline>    </measure>  </part>  <!--=========================================================-->  <part id="P2">    <measure implicit="yes" number="0" width="157">      <print>        <measure-numbering>none</measure-numbering>      </print>      <attributes>        <divisions>2</divisions>        <key>          <fifths>-1</fifths>          <mode>major</mode>        </key>        <time symbol="common">          <beats>4</beats>          <beat-type>4</beat-type>        </time>        <clef>          <sign>F</sign>          <line>4</line>        </clef>      </attributes>      <sound tempo="120"/>      <note default-x="108">        <pitch>          <step>F</step>          <octave>3</octave>        </pitch>        <duration>2</duration>        <voice>1</voice>        <type>quarter</type>        <stem default-y="-46">down</stem>      </note>      <note default-x="108">        <chord/>        <pitch>          <step>A</step>          <octave>3</octave>        </pitch>        <duration>2</duration>        <voice>1</voice>        <type>quarter</type>        <stem>down</stem>      </note>    </measure>    <!--=======================================================-->    <measure number="1" width="237">      <note default-x="11">        <pitch>          <step>F</step>          <octave>3</octave>        </pitch>        <duration>2</duration>        <voice>1</voice>        <type>quarter</type>        <stem default-y="-46">down</stem>      </note>      <note default-x="11">        <chord/>        <pitch>          <step>A</step>          <octave>3</octave>        </pitch>        <duration>2</duration>        <voice>1</voice>        <type>quarter</type>        <stem>down</stem>      </note>      <note default-x="67">        <pitch>          <step>A</step>          <octave>3</octave>        </pitch>        <duration>2</duration>        <voice>1</voice>        <type>quarter</type>        <stem default-y="-35.5">down</stem>      </note>      <note default-x="67">        <chord/>        <pitch>          <step>C</step>          <octave>4</octave>        </pitch>        <duration>2</duration>        <voice>1</voice>        <type>quarter</type>        <stem>down</stem>      </note>      <note default-x="123">        <pitch>          <step>B</step>          <alter>-1</alter>          <octave>3</octave>        </pitch>        <duration>2</duration>        <voice>1</voice>        <type>quarter</type>        <stem default-y="-31">down</stem>      </note>      <note default-x="180">        <pitch>          <step>A</step>          <octave>3</octave>        </pitch>        <duration>2</duration>        <voice>1</voice>        <type>quarter</type>        <stem default-y="-35.5">down</stem>      </note>      <note default-x="180">        <chord/>        <pitch>          <step>C</step>          <octave>4</octave>        </pitch>        <duration>2</duration>        <voice>1</voice>        <type>quarter</type>        <stem>down</stem>      </note>    </measure>    <!--=======================================================-->    <measure number="2" width="162">      <note default-x="14">        <pitch>          <step>E</step>          <octave>3</octave>        </pitch>        <duration>4</duration>        <voice>1</voice>        <type>half</type>        <stem default-y="-51">down</stem>      </note>      <note default-x="14">        <chord/>        <pitch>          <step>C</step>          <octave>4</octave>        </pitch>        <duration>4</duration>        <voice>1</voice>        <type>half</type>        <stem>down</stem>      </note>      <note default-x="87">        <pitch>          <step>D</step>          <octave>3</octave>        </pitch>        <duration>4</duration>        <voice>1</voice>        <type>half</type>        <stem default-y="-55.5">down</stem>      </note>      <note default-x="87">        <chord/>        <pitch>          <step>C</step>          <octave>4</octave>        </pitch>        <duration>4</duration>        <voice>1</voice>        <type>half</type>        <stem>down</stem>      </note>    </measure>    <!--=======================================================-->    <measure number="3" width="179">      <note default-x="13">        <pitch>          <step>G</step>          <octave>2</octave>        </pitch>        <duration>4</duration>        <voice>1</voice>        <type>half</type>        <stem default-y="-66">down</stem>      </note>      <note default-x="13">        <chord/>        <pitch>          <step>D</step>          <octave>4</octave>        </pitch>        <duration>4</duration>        <voice>1</voice>        <type>half</type>        <stem>down</stem>      </note>      <note default-x="87">        <pitch>          <step>A</step>          <octave>2</octave>        </pitch>        <duration>2</duration>        <voice>1</voice>        <type>quarter</type>        <stem default-y="-60.5">down</stem>      </note>      <note default-x="87">        <chord/>        <pitch>          <step>C</step>          <octave>4</octave>        </pitch>        <duration>2</duration>        <voice>1</voice>        <type>quarter</type>        <stem>down</stem>      </note>      <note default-x="132">        <pitch>          <step>B</step>          <alter>-1</alter>          <octave>2</octave>        </pitch>        <duration>2</duration>        <voice>1</voice>        <type>quarter</type>        <stem default-y="-55.5">down</stem>      </note>      <note default-x="132">        <chord/>        <pitch>          <step>B</step>          <alter>-1</alter>          <octave>3</octave>        </pitch>        <duration>2</duration>        <voice>1</voice>        <type>quarter</type>        <stem>down</stem>      </note>    </measure>    <!--=======================================================-->    <measure number="4" width="179">      <note default-x="14">        <pitch>          <step>C</step>          <octave>3</octave>        </pitch>        <duration>4</duration>        <voice>1</voice>        <type>half</type>        <stem default-y="-51">down</stem>      </note>      <note default-x="14">        <chord/>        <pitch>          <step>A</step>          <octave>3</octave>        </pitch>        <duration>4</duration>        <voice>1</voice>        <type>half</type>        <stem>down</stem>      </note>      <note default-x="96">        <pitch>          <step>C</step>          <octave>3</octave>        </pitch>        <duration>4</duration>        <voice>1</voice>        <type>half</type>        <stem default-y="-51">down</stem>      </note>      <note default-x="96">        <chord/>        <pitch>          <step>G</step>          <octave>3</octave>        </pitch>        <duration>4</duration>        <voice>1</voice>        <type>half</type>        <stem>down</stem>      </note>    </measure>    <!--=======================================================-->    <measure number="5" width="296">      <print new-system="yes"/>      <note default-x="79">        <pitch>          <step>F</step>          <octave>3</octave>        </pitch>        <duration>4</duration>        <voice>1</voice>        <type>half</type>        <stem default-y="-45.5">down</stem>      </note>      <note default-x="79">        <chord/>        <pitch>          <step>A</step>          <octave>3</octave>        </pitch>        <duration>4</duration>        <voice>1</voice>        <type>half</type>        <stem>down</stem>      </note>      <note default-x="175">        <rest/>        <duration>2</duration>        <voice>1</voice>        <type>quarter</type>      </note>      <note default-x="235">        <pitch>          <step>F</step>          <octave>3</octave>        </pitch>        <duration>2</duration>        <voice>1</voice>        <type>quarter</type>        <stem default-y="-45.5">down</stem>      </note>      <note default-x="235">        <chord/>        <pitch>          <step>A</step>          <octave>3</octave>        </pitch>        <duration>2</duration>        <voice>1</voice>        <type>quarter</type>        <stem>down</stem>      </note>    </measure>    <!--=======================================================-->    <measure number="6" width="248">      <note default-x="11">        <pitch>          <step>A</step>          <octave>3</octave>        </pitch>        <duration>2</duration>        <voice>1</voice>        <type>quarter</type>        <stem default-y="-36">down</stem>      </note>      <note default-x="70">        <pitch>          <step>A</step>          <octave>3</octave>        </pitch>        <duration>2</duration>        <voice>1</voice>        <type>quarter</type>        <stem default-y="-36">down</stem>      </note>      <note default-x="70">        <chord/>        <pitch>          <step>C</step>          <octave>4</octave>        </pitch>        <duration>2</duration>        <voice>1</voice>        <type>quarter</type>        <stem>down</stem>      </note>      <note default-x="129">        <pitch>          <step>B</step>          <alter>-1</alter>          <octave>3</octave>        </pitch>        <duration>2</duration>        <voice>1</voice>        <type>quarter</type>        <stem default-y="-31">down</stem>      </note>      <note default-x="188">        <pitch>          <step>A</step>          <octave>3</octave>        </pitch>        <duration>2</duration>        <voice>1</voice>        <type>quarter</type>        <stem default-y="-36">down</stem>      </note>      <note default-x="188">        <chord/>        <pitch>          <step>C</step>          <octave>4</octave>        </pitch>        <duration>2</duration>        <voice>1</voice>        <type>quarter</type>        <stem>down</stem>      </note>    </measure>    <!--=======================================================-->    <measure number="7" width="209">      <note default-x="14">        <pitch>          <step>E</step>          <octave>3</octave>        </pitch>        <duration>4</duration>        <voice>1</voice>        <type>half</type>        <stem default-y="-51">down</stem>      </note>      <note default-x="14">        <chord/>        <pitch>          <step>C</step>          <octave>4</octave>        </pitch>        <duration>4</duration>        <voice>1</voice>        <type>half</type>        <stem>down</stem>      </note>      <note default-x="111">        <pitch>          <step>D</step>          <octave>3</octave>        </pitch>        <duration>4</duration>        <voice>1</voice>        <type>half</type>        <stem default-y="-56">down</stem>      </note>      <note default-x="111">        <chord/>        <pitch>          <step>C</step>          <octave>4</octave>        </pitch>        <duration>4</duration>        <voice>1</voice>        <type>half</type>        <stem>down</stem>      </note>    </measure>    <!--=======================================================-->    <measure number="8" width="231">      <note default-x="14">        <pitch>          <step>G</step>          <octave>2</octave>        </pitch>        <duration>4</duration>        <voice>1</voice>        <type>half</type>        <stem default-y="-65.5">down</stem>      </note>      <note default-x="14">        <chord/>        <pitch>          <step>D</step>          <octave>4</octave>        </pitch>        <duration>4</duration>        <voice>1</voice>        <type>half</type>        <stem>down</stem>      </note>      <note default-x="110">        <pitch>          <step>A</step>          <octave>2</octave>        </pitch>        <duration>2</duration>        <voice>1</voice>        <type>quarter</type>        <stem default-y="-60.5">down</stem>      </note>      <note default-x="110">        <chord/>        <pitch>          <step>C</step>          <octave>4</octave>        </pitch>        <duration>2</duration>        <voice>1</voice>        <type>quarter</type>        <stem>down</stem>      </note>      <note default-x="169">        <pitch>          <step>B</step>          <alter>-1</alter>          <octave>2</octave>        </pitch>        <duration>2</duration>        <voice>1</voice>        <type>quarter</type>        <stem default-y="-56">down</stem>      </note>      <note default-x="169">        <chord/>        <pitch>          <step>B</step>          <alter>-1</alter>          <octave>3</octave>        </pitch>        <duration>2</duration>        <voice>1</voice>        <type>quarter</type>        <stem>down</stem>      </note>    </measure>    <!--=======================================================-->    <measure number="9" width="325">      <print new-system="yes"/>      <note default-x="79">        <pitch>          <step>C</step>          <octave>3</octave>        </pitch>        <duration>4</duration>        <voice>1</voice>        <type>half</type>        <stem default-y="-51">down</stem>      </note>      <note default-x="79">        <chord/>        <pitch>          <step>A</step>          <octave>3</octave>        </pitch>        <duration>4</duration>        <voice>1</voice>        <type>half</type>        <stem>down</stem>      </note>      <note default-x="201">        <pitch>          <step>C</step>          <octave>3</octave>        </pitch>        <duration>4</duration>        <voice>1</voice>        <type>half</type>        <stem default-y="-51">down</stem>      </note>      <note default-x="201">        <chord/>        <pitch>          <step>G</step>          <octave>3</octave>        </pitch>        <duration>4</duration>        <voice>1</voice>        <type>half</type>        <stem>down</stem>      </note>    </measure>    <!--=======================================================-->    <measure number="10" width="180">      <note default-x="13">        <pitch>          <step>F</step>          <octave>3</octave>        </pitch>        <duration>4</duration>        <voice>1</voice>        <type>half</type>        <stem default-y="-45.5">down</stem>      </note>      <note default-x="13">        <chord/>        <pitch>          <step>A</step>          <octave>3</octave>        </pitch>        <duration>4</duration>        <voice>1</voice>        <type>half</type>        <stem>down</stem>      </note>      <note default-x="88">        <rest/>        <duration>2</duration>        <voice>1</voice>        <type>quarter</type>      </note>      <note default-x="133">        <pitch>          <step>F</step>          <octave>3</octave>        </pitch>        <duration>2</duration>        <voice>1</voice>        <type>quarter</type>        <stem default-y="-45.5">down</stem>      </note>    </measure>    <!--=======================================================-->    <measure number="11" width="299">      <note default-x="13">        <pitch>          <step>E</step>          <octave>3</octave>        </pitch>        <duration>2</duration>        <voice>1</voice>        <type>quarter</type>        <stem default-y="-51">down</stem>      </note>      <note default-x="13">        <chord/>        <pitch>          <step>G</step>          <octave>3</octave>        </pitch>        <duration>2</duration>        <voice>1</voice>        <type>quarter</type>        <stem>down</stem>      </note>      <note default-x="80">        <pitch>          <step>A</step>          <octave>2</octave>        </pitch>        <duration>2</duration>        <voice>1</voice>        <type>quarter</type>        <stem default-y="-60.5">down</stem>      </note>      <note default-x="80">        <chord/>        <pitch>          <step>G</step>          <octave>3</octave>        </pitch>        <duration>2</duration>        <voice>1</voice>        <type>quarter</type>        <stem>down</stem>      </note>      <note default-x="146">        <pitch>          <step>D</step>          <octave>3</octave>        </pitch>        <duration>2</duration>        <voice>1</voice>        <type>quarter</type>        <stem default-y="-56">down</stem>      </note>      <note default-x="146">        <chord/>        <pitch>          <step>A</step>          <octave>3</octave>        </pitch>        <duration>2</duration>        <voice>1</voice>        <type>quarter</type>        <stem>down</stem>      </note>      <note default-x="213">        <pitch>          <step>G</step>          <octave>2</octave>        </pitch>        <duration>2</duration>        <voice>1</voice>        <type>quarter</type>        <stem default-y="16">up</stem>      </note>      <note default-x="213">        <chord/>        <pitch>          <step>F</step>          <octave>3</octave>        </pitch>        <duration>2</duration>        <voice>1</voice>        <type>quarter</type>        <stem>up</stem>      </note>    </measure>    <!--=======================================================-->    <measure number="12" width="179">      <note default-x="14">        <pitch>          <step>C</step>          <octave>3</octave>        </pitch>        <duration>4</duration>        <voice>1</voice>        <type>half</type>        <stem default-y="-51">down</stem>      </note>      <note default-x="14">        <chord/>        <pitch>          <step>E</step>          <octave>3</octave>        </pitch>        <duration>4</duration>        <voice>1</voice>        <type>half</type>        <stem>down</stem>      </note>      <note default-x="87">        <rest/>        <duration>2</duration>        <voice>1</voice>        <type>quarter</type>      </note>      <note default-x="132">        <pitch>          <step>C</step>          <octave>3</octave>        </pitch>        <duration>2</duration>        <voice>1</voice>        <type>quarter</type>        <stem default-y="-51">down</stem>      </note>      <note default-x="132">        <chord/>        <pitch>          <step>B</step>          <alter>-1</alter>          <octave>3</octave>        </pitch>        <duration>2</duration>        <voice>1</voice>        <type>quarter</type>        <stem>down</stem>      </note>    </measure>    <!--=======================================================-->    <measure number="13" width="270">      <print new-system="yes"/>      <note default-x="76">        <pitch>          <step>F</step>          <octave>3</octave>        </pitch>        <duration>2</duration>        <voice>1</voice>        <type>quarter</type>        <stem default-y="-45.5">down</stem>      </note>      <note default-x="76">        <chord/>        <pitch>          <step>A</step>          <octave>3</octave>        </pitch>        <duration>2</duration>        <voice>1</voice>        <type>quarter</type>        <stem>down</stem>      </note>      <note default-x="124">        <pitch>          <step>A</step>          <octave>3</octave>        </pitch>        <duration>2</duration>        <voice>1</voice>        <type>quarter</type>        <stem default-y="-36">down</stem>      </note>      <note default-x="124">        <chord/>        <pitch>          <step>C</step>          <octave>4</octave>        </pitch>        <duration>2</duration>        <voice>1</voice>        <type>quarter</type>        <stem>down</stem>      </note>      <note default-x="172">        <pitch>          <step>B</step>          <alter>-1</alter>          <octave>3</octave>        </pitch>        <duration>2</duration>        <voice>1</voice>        <type>quarter</type>        <stem default-y="-31">down</stem>      </note>      <note default-x="220">        <pitch>          <step>A</step>          <octave>3</octave>        </pitch>        <duration>2</duration>        <voice>1</voice>        <type>quarter</type>        <stem default-y="-36">down</stem>      </note>      <note default-x="220">        <chord/>        <pitch>          <step>C</step>          <octave>4</octave>        </pitch>        <duration>2</duration>        <voice>1</voice>        <type>quarter</type>        <stem>down</stem>      </note>    </measure>    <!--=======================================================-->    <measure number="14" width="172">      <note default-x="14">        <pitch>          <step>E</step>          <octave>3</octave>        </pitch>        <duration>4</duration>        <voice>1</voice>        <type>half</type>        <stem default-y="-51">down</stem>      </note>      <note default-x="14">        <chord/>        <pitch>          <step>C</step>          <octave>4</octave>        </pitch>        <duration>4</duration>        <voice>1</voice>        <type>half</type>        <stem>down</stem>      </note>      <note default-x="92">        <pitch>          <step>D</step>          <octave>3</octave>        </pitch>        <duration>4</duration>        <voice>1</voice>        <type>half</type>        <stem default-y="-56">down</stem>      </note>      <note default-x="92">        <chord/>        <pitch>          <step>C</step>          <octave>4</octave>        </pitch>        <duration>4</duration>        <voice>1</voice>        <type>half</type>        <stem>down</stem>      </note>    </measure>    <!--=======================================================-->    <measure number="15" width="190">      <note default-x="14">        <pitch>          <step>G</step>          <octave>2</octave>        </pitch>        <duration>4</duration>        <voice>1</voice>        <type>half</type>        <stem default-y="-65.5">down</stem>      </note>      <note default-x="14">        <chord/>        <pitch>          <step>D</step>          <octave>4</octave>        </pitch>        <duration>4</duration>        <voice>1</voice>        <type>half</type>        <stem>down</stem>      </note>      <note default-x="92">        <pitch>          <step>A</step>          <octave>2</octave>        </pitch>        <duration>2</duration>        <voice>1</voice>        <type>quarter</type>        <stem default-y="-60.5">down</stem>      </note>      <note default-x="92">        <chord/>        <pitch>          <step>C</step>          <octave>4</octave>        </pitch>        <duration>2</duration>        <voice>1</voice>        <type>quarter</type>        <stem>down</stem>      </note>      <note default-x="140">        <pitch>          <step>B</step>          <alter>-1</alter>          <octave>2</octave>        </pitch>        <duration>2</duration>        <voice>1</voice>        <type>quarter</type>        <stem default-y="-56">down</stem>      </note>      <note default-x="140">        <chord/>        <pitch>          <step>B</step>          <alter>-1</alter>          <octave>3</octave>        </pitch>        <duration>2</duration>        <voice>1</voice>        <type>quarter</type>        <stem>down</stem>      </note>    </measure>    <!--=======================================================-->    <measure number="16" width="190">      <note default-x="14">        <pitch>          <step>C</step>          <octave>3</octave>        </pitch>        <duration>4</duration>        <voice>1</voice>        <type>half</type>        <stem default-y="-51">down</stem>      </note>      <note default-x="14">        <chord/>        <pitch>          <step>A</step>          <octave>3</octave>        </pitch>        <duration>4</duration>        <voice>1</voice>        <type>half</type>        <stem>down</stem>      </note>      <note default-x="101">        <pitch>          <step>C</step>          <octave>3</octave>        </pitch>        <duration>4</duration>        <voice>1</voice>        <type>half</type>        <stem default-y="-51">down</stem>      </note>      <note default-x="101">        <chord/>        <pitch>          <step>G</step>          <octave>3</octave>        </pitch>        <duration>4</duration>        <voice>1</voice>        <type>half</type>        <stem>down</stem>      </note>    </measure>    <!--=======================================================-->    <measure number="17" width="162">      <note default-x="14">        <pitch>          <step>F</step>          <octave>3</octave>        </pitch>        <duration>4</duration>        <voice>1</voice>        <type>half</type>        <stem default-y="-45.5">down</stem>      </note>      <note default-x="14">        <chord/>        <pitch>          <step>A</step>          <octave>3</octave>        </pitch>        <duration>4</duration>        <voice>1</voice>        <type>half</type>        <stem>down</stem>      </note>      <note default-x="93">        <rest/>        <duration>2</duration>        <voice>1</voice>        <type>quarter</type>      </note>      <barline location="right">        <bar-style>light-heavy</bar-style>        <repeat direction="backward"/>      </barline>    </measure>  </part>  <!--=========================================================--></score-partwise>