<?xml version="1.0" encoding="UTF-8"?><!DOCTYPE score-partwise PUBLIC "-//Recordare//DTD MusicXML 2.0 Partwise//EN"                                "http://www.musicxml.org/dtds/partwise.dtd"><score-partwise version="2.0">  <movement-title>Joy to the World</movement-title>  <identification>    <creator type="composer">Händel 1742</creator>    <rights>CM Kerstzingcie 2006</rights>    <encoding>      <software>Finale 2011 for Macintosh</software>      <software>Dolet Light for Finale 2011</software>      <encoding-date>2011-09-30</encoding-date>      <supports attribute="new-system" element="print" type="yes" value="yes"/>      <supports attribute="new-page" element="print" type="yes" value="yes"/>    </encoding>  </identification>  <defaults>    <scaling>      <millimeters>6.6146</millimeters>      <tenths>40</tenths>    </scaling>    <page-layout>      <page-height>1690</page-height>      <page-width>1306</page-width>      <page-margins type="both">        <left-margin>91</left-margin>        <right-margin>121</right-margin>        <top-margin>121</top-margin>        <bottom-margin>121</bottom-margin>      </page-margins>    </page-layout>    <system-layout>      <system-margins>        <left-margin>0</left-margin>        <right-margin>0</right-margin>      </system-margins>      <system-distance>54</system-distance>      <top-system-distance>30</top-system-distance>    </system-layout>    <staff-layout>      <staff-distance>93</staff-distance>    </staff-layout>    <appearance>      <line-width type="stem">1.4583</line-width>      <line-width type="beam">5.0391</line-width>      <line-width type="staff">1.4583</line-width>      <line-width type="light barline">1.4583</line-width>      <line-width type="heavy barline">5.0391</line-width>      <line-width type="leger">1.4583</line-width>      <line-width type="ending">1.4583</line-width>      <line-width type="wedge">1.4583</line-width>      <line-width type="enclosure">1.4583</line-width>      <line-width type="tuplet bracket">1.4583</line-width>      <note-size type="grace">50</note-size>      <note-size type="cue">50</note-size>    </appearance>    <music-font font-family="Maestro" font-size="18.75"/>    <word-font font-family="Times New Roman" font-size="9.4"/>    <lyric-font font-family="Times New Roman" font-size="9.4" name="verse"/>  </defaults>  <credit page="1">    <credit-words default-x="690" default-y="1646" font-size="24" font-weight="bold" justify="center" valign="top">03. Joy to the World</credit-words>  </credit>  <credit page="1">    <credit-words default-x="1232" default-y="1613" font-size="12" font-weight="bold" justify="right" valign="top" xml:lang="de">Händel 1742</credit-words>  </credit>  <credit page="1">    <credit-words default-x="691" default-y="58" font-size="10" justify="center" valign="bottom">CM Kerstzingcie 2006</credit-words>  </credit>  <credit page="1">    <credit-words default-x="144" default-y="458" font-size="12" valign="top">2. Joy to the World! the Saviour reigns:
    Let men their songs employ,
    While fields and floods, rocks, hills and plains,
    - Repeat the sounding joy -
    Repeat, repeat the sounding joy.
</credit-words>  </credit>  <credit page="1">    <credit-words default-x="485" default-y="271" font-size="12" valign="top">4. He rules the world with truth and grace,
    And makes the nation prove
    The glories of His righteousness
    - And wonders of His love -
    And wonders, wonders of His love.</credit-words>  </credit>  <credit page="1">    <credit-words default-x="731" default-y="455" font-size="12" valign="top">3. No more let sin and sorrow grow,
    Nor thorns infest the ground;
    He comes to make His blessings flow
    - Far as the curse is found -
    Far as, far as the curse is found.</credit-words>  </credit>  <part-list>    <part-group number="1" type="start">      <group-symbol default-x="-13">bracket</group-symbol>      <group-barline>no</group-barline>    </part-group>    <score-part id="P1">      <part-name>Sopraan
Alt</part-name>      <score-instrument id="P1-I1">        <instrument-name>Acoustic Grand Piano</instrument-name>      </score-instrument>      <score-instrument id="P1-I2">        <instrument-name>Instrument2</instrument-name>      </score-instrument>      <midi-instrument id="P1-I1">        <midi-channel>1</midi-channel>        <midi-program>72</midi-program>        <volume>80</volume>        <pan>0</pan>      </midi-instrument>      <midi-instrument id="P1-I2">        <midi-channel>2</midi-channel>        <midi-program>57</midi-program>        <volume>80</volume>        <pan>0</pan>      </midi-instrument>    </score-part>    <score-part id="P2">      <part-name>Tenor
Bas</part-name>      <score-instrument id="P2-I3">        <instrument-name>Instrument3</instrument-name>      </score-instrument>      <score-instrument id="P2-I4">        <instrument-name>Instrument4</instrument-name>      </score-instrument>      <midi-instrument id="P2-I3">        <midi-channel>3</midi-channel>        <midi-program>69</midi-program>        <volume>80</volume>        <pan>0</pan>      </midi-instrument>      <midi-instrument id="P2-I4">        <midi-channel>4</midi-channel>        <midi-program>59</midi-program>        <volume>80</volume>        <pan>0</pan>      </midi-instrument>    </score-part>    <part-group number="1" type="stop"/>  </part-list>  <!--=========================================================-->  <part id="P1">    <measure number="1" width="351">      <print>        <page-layout>          <page-height>1690</page-height>          <page-width>1306</page-width>          <page-margins>            <left-margin>154</left-margin>            <right-margin>77</right-margin>            <top-margin>77</top-margin>            <bottom-margin>77</bottom-margin>          </page-margins>        </page-layout>        <system-layout>          <top-system-distance>67</top-system-distance>        </system-layout>        <measure-numbering>system</measure-numbering>      </print>      <attributes>        <divisions>8</divisions>        <key>          <fifths>2</fifths>          <mode>major</mode>        </key>        <time>          <beats>2</beats>          <beat-type>4</beat-type>        </time>        <instruments>2</instruments>        <clef>          <sign>G</sign>          <line>2</line>        </clef>      </attributes>      <sound tempo="120"/>      <direction placement="above">        <direction-type>          <dynamics default-y="11" relative-x="-36">            <f/>          </dynamics>        </direction-type>        <sound dynamics="98"/>      </direction>      <note default-x="119">        <pitch>          <step>D</step>          <octave>5</octave>        </pitch>        <duration>8</duration>        <instrument id="P1-I1"/>        <voice>1</voice>        <type>quarter</type>        <stem default-y="15.5">up</stem>      </note>      <note default-x="234">        <pitch>          <step>C</step>          <alter>1</alter>          <octave>5</octave>        </pitch>        <duration>6</duration>        <instrument id="P1-I1"/>        <voice>1</voice>        <type>eighth</type>        <dot/>        <stem default-y="17">up</stem>      </note>      <note default-x="320">        <pitch>          <step>B</step>          <octave>4</octave>        </pitch>        <duration>2</duration>        <instrument id="P1-I1"/>        <voice>1</voice>        <type>16th</type>        <stem default-y="12">up</stem>      </note>      <backup>        <duration>16</duration>      </backup>      <note default-x="119">        <pitch>          <step>F</step>          <alter>1</alter>          <octave>4</octave>        </pitch>        <duration>8</duration>        <instrument id="P1-I2"/>        <voice>2</voice>        <type>quarter</type>        <stem default-y="1">up</stem>        <lyric default-y="-85" number="1">          <syllabic>single</syllabic>          <text font-size="9.4">Joy</text>        </lyric>      </note>      <note default-x="234">        <pitch>          <step>A</step>          <octave>4</octave>        </pitch>        <duration>6</duration>        <instrument id="P1-I2"/>        <voice>2</voice>        <type>eighth</type>        <dot/>        <stem default-y="18">up</stem>        <lyric default-y="-85" number="1">          <syllabic>single</syllabic>          <text font-size="9.4">to</text>        </lyric>      </note>      <note default-x="320">        <pitch>          <step>G</step>          <octave>4</octave>        </pitch>        <duration>2</duration>        <instrument id="P1-I2"/>        <voice>2</voice>        <type>16th</type>        <stem default-y="12.5">up</stem>        <lyric default-y="-85" number="1" relative-x="-5">          <syllabic>single</syllabic>          <text font-size="9.4">the</text>        </lyric>      </note>    </measure>    <!--=======================================================-->    <measure number="2" width="241">      <note default-x="10">        <pitch>          <step>A</step>          <octave>4</octave>        </pitch>        <duration>12</duration>        <instrument id="P1-I1"/>        <voice>1</voice>        <type>quarter</type>        <dot/>        <stem default-y="11">up</stem>      </note>      <note default-x="182">        <pitch>          <step>G</step>          <octave>4</octave>        </pitch>        <duration>4</duration>        <instrument id="P1-I1"/>        <voice>1</voice>        <type>eighth</type>        <stem default-y="3">up</stem>      </note>      <backup>        <duration>16</duration>      </backup>      <note default-x="10">        <pitch>          <step>F</step>          <alter>1</alter>          <octave>4</octave>        </pitch>        <duration>12</duration>        <instrument id="P1-I2"/>        <voice>2</voice>        <type>quarter</type>        <dot/>        <stem default-y="1">up</stem>        <lyric default-y="-85" number="1" relative-x="10">          <syllabic>single</syllabic>          <text font-size="9.4">world!</text>        </lyric>      </note>      <note default-x="182">        <pitch>          <step>E</step>          <octave>4</octave>        </pitch>        <duration>4</duration>        <instrument id="P1-I2"/>        <voice>2</voice>        <type>eighth</type>        <stem default-y="3">up</stem>        <lyric default-y="-85" number="1">          <syllabic>single</syllabic>          <text font-size="9.4">the</text>        </lyric>      </note>    </measure>    <!--=======================================================-->    <measure number="3" width="241">      <note default-x="10">        <pitch>          <step>F</step>          <alter>1</alter>          <octave>4</octave>        </pitch>        <duration>8</duration>        <instrument id="P1-I1"/>        <voice>1</voice>        <type>quarter</type>        <stem default-y="1">up</stem>      </note>      <note default-x="125">        <pitch>          <step>E</step>          <octave>4</octave>        </pitch>        <duration>8</duration>        <instrument id="P1-I1"/>        <voice>1</voice>        <type>quarter</type>        <stem default-y="-4">up</stem>      </note>      <backup>        <duration>16</duration>      </backup>      <note default-x="10">        <pitch>          <step>D</step>          <octave>4</octave>        </pitch>        <duration>8</duration>        <instrument id="P1-I2"/>        <voice>2</voice>        <type>quarter</type>        <stem default-y="-9">up</stem>        <lyric default-y="-85" number="1">          <syllabic>single</syllabic>          <text font-size="9.4">Lord</text>        </lyric>      </note>      <note default-x="125">        <pitch>          <step>C</step>          <alter>1</alter>          <octave>4</octave>        </pitch>        <duration>8</duration>        <instrument id="P1-I2"/>        <voice>2</voice>        <type>quarter</type>        <stem default-y="-14">up</stem>        <lyric default-y="-85" number="1">          <syllabic>single</syllabic>          <text font-size="9.4">has</text>        </lyric>      </note>    </measure>    <!--=======================================================-->    <measure number="4" width="241">      <note default-x="10">        <pitch>          <step>D</step>          <octave>4</octave>        </pitch>        <duration>12</duration>        <instrument id="P1-I1"/>        <voice>1</voice>        <type>quarter</type>        <dot/>        <stem default-y="-9">up</stem>      </note>      <note default-x="182">        <pitch>          <step>A</step>          <octave>4</octave>        </pitch>        <duration>4</duration>        <instrument id="P1-I1"/>        <voice>1</voice>        <type>eighth</type>        <stem default-y="11">up</stem>      </note>      <backup>        <duration>16</duration>      </backup>      <note default-x="10">        <pitch>          <step>D</step>          <octave>4</octave>        </pitch>        <duration>12</duration>        <instrument id="P1-I2"/>        <voice>2</voice>        <type>quarter</type>        <dot/>        <stem default-y="-9">up</stem>        <lyric default-y="-85" number="1">          <syllabic>single</syllabic>          <text font-size="9.4">come:</text>        </lyric>      </note>      <note default-x="182">        <pitch>          <step>D</step>          <octave>4</octave>        </pitch>        <duration>4</duration>        <instrument id="P1-I2"/>        <voice>2</voice>        <type>eighth</type>        <stem default-y="11">up</stem>        <lyric default-y="-85" number="1">          <syllabic>single</syllabic>          <text font-size="9.4">Let</text>        </lyric>      </note>    </measure>    <!--=======================================================-->    <measure number="5" width="333">      <print new-system="yes">        <system-layout>          <system-distance>105</system-distance>        </system-layout>      </print>      <note default-x="88">        <pitch>          <step>B</step>          <octave>4</octave>        </pitch>        <duration>12</duration>        <instrument id="P1-I1"/>        <voice>1</voice>        <type>quarter</type>        <dot/>        <stem default-y="13">up</stem>      </note>      <note default-x="271">        <pitch>          <step>B</step>          <octave>4</octave>        </pitch>        <duration>4</duration>        <instrument id="P1-I1"/>        <voice>1</voice>        <type>eighth</type>        <stem default-y="13">up</stem>      </note>      <backup>        <duration>16</duration>      </backup>      <note default-x="88">        <pitch>          <step>G</step>          <octave>4</octave>        </pitch>        <duration>12</duration>        <instrument id="P1-I2"/>        <voice>2</voice>        <type>quarter</type>        <dot/>        <stem default-y="6">up</stem>        <lyric default-y="-85" number="1">          <syllabic>single</syllabic>          <text font-size="9.4">earth</text>        </lyric>      </note>      <note default-x="271">        <pitch>          <step>G</step>          <octave>4</octave>        </pitch>        <duration>4</duration>        <instrument id="P1-I2"/>        <voice>2</voice>        <type>eighth</type>        <stem default-y="13">up</stem>        <lyric default-y="-85" number="1">          <syllabic>begin</syllabic>          <text font-size="9.4">re</text>        </lyric>      </note>    </measure>    <!--=======================================================-->    <measure number="6" width="256">      <note default-x="10">        <pitch>          <step>C</step>          <alter>1</alter>          <octave>5</octave>        </pitch>        <duration>12</duration>        <instrument id="P1-I1"/>        <voice>1</voice>        <type>quarter</type>        <dot/>        <stem default-y="11">up</stem>      </note>      <note default-x="193">        <pitch>          <step>C</step>          <alter>1</alter>          <octave>5</octave>        </pitch>        <duration>4</duration>        <instrument id="P1-I1"/>        <voice>1</voice>        <type>eighth</type>        <stem default-y="18">up</stem>      </note>      <backup>        <duration>16</duration>      </backup>      <note default-x="10">        <pitch>          <step>E</step>          <octave>4</octave>        </pitch>        <duration>12</duration>        <instrument id="P1-I2"/>        <voice>2</voice>        <type>quarter</type>        <dot/>        <stem default-y="-4">up</stem>        <lyric default-y="-85" number="1">          <syllabic>end</syllabic>          <text font-size="9.4">ceive</text>        </lyric>      </note>      <note default-x="193">        <pitch>          <step>E</step>          <octave>4</octave>        </pitch>        <duration>4</duration>        <instrument id="P1-I2"/>        <voice>2</voice>        <type>eighth</type>        <stem default-y="18">up</stem>        <lyric default-y="-85" number="1">          <syllabic>single</syllabic>          <text font-size="9.4">her</text>        </lyric>      </note>    </measure>    <!--=======================================================-->    <measure number="7" width="155">      <note default-x="27">        <pitch>          <step>D</step>          <octave>5</octave>        </pitch>        <duration>12</duration>        <instrument id="P1-I1"/>        <voice>1</voice>        <type>quarter</type>        <dot/>        <stem default-y="16">up</stem>      </note>      <note default-x="113">        <pitch>          <step>D</step>          <octave>5</octave>        </pitch>        <duration>4</duration>        <instrument id="P1-I1"/>        <voice>1</voice>        <type>eighth</type>        <stem default-y="23.5">up</stem>      </note>      <backup>        <duration>16</duration>      </backup>      <note default-x="27">        <pitch>          <step>F</step>          <alter>1</alter>          <octave>4</octave>        </pitch>        <duration>12</duration>        <instrument id="P1-I2"/>        <voice>2</voice>        <type>quarter</type>        <dot/>        <stem default-y="1">up</stem>        <lyric default-y="-85" number="1">          <syllabic>single</syllabic>          <text font-size="9.4">King;</text>        </lyric>      </note>      <note default-x="113">        <pitch>          <step>F</step>          <alter>1</alter>          <octave>4</octave>        </pitch>        <duration>4</duration>        <instrument id="P1-I2"/>        <voice>2</voice>        <type>eighth</type>        <stem default-y="23">up</stem>        <lyric default-y="-85" number="1">          <syllabic>single</syllabic>          <text font-size="9.4">Let</text>        </lyric>      </note>    </measure>    <!--=======================================================-->    <measure number="8" width="155">      <note default-x="13">        <pitch>          <step>D</step>          <octave>5</octave>        </pitch>        <duration>4</duration>        <instrument id="P1-I1"/>        <voice>1</voice>        <type>eighth</type>        <stem default-y="25">up</stem>        <beam number="1">begin</beam>        <notations>          <slur number="1" placement="above" type="start"/>        </notations>      </note>      <note default-x="48">        <pitch>          <step>C</step>          <alter>1</alter>          <octave>5</octave>        </pitch>        <duration>4</duration>        <instrument id="P1-I1"/>        <voice>1</voice>        <type>eighth</type>        <stem default-y="20">up</stem>        <beam number="1">end</beam>        <notations>          <slur number="1" type="stop"/>        </notations>      </note>      <note default-x="84">        <pitch>          <step>B</step>          <octave>4</octave>        </pitch>        <duration>4</duration>        <instrument id="P1-I1"/>        <voice>1</voice>        <type>eighth</type>        <stem default-y="15">up</stem>        <beam number="1">begin</beam>        <notations>          <slur number="1" placement="above" type="start"/>        </notations>      </note>      <note default-x="119">        <pitch>          <step>A</step>          <octave>4</octave>        </pitch>        <duration>4</duration>        <instrument id="P1-I1"/>        <voice>1</voice>        <type>eighth</type>        <stem default-y="10">up</stem>        <beam number="1">end</beam>        <notations>          <slur number="1" type="stop"/>        </notations>      </note>      <backup>        <duration>16</duration>      </backup>      <note default-x="13">        <pitch>          <step>F</step>          <alter>1</alter>          <octave>4</octave>        </pitch>        <duration>4</duration>        <instrument id="P1-I2"/>        <voice>2</voice>        <type>eighth</type>        <stem default-y="25">up</stem>        <beam number="1">begin</beam>        <lyric default-y="-85" number="1">          <syllabic>begin</syllabic>          <text font-size="9.4">ev</text>        </lyric>      </note>      <note default-x="48">        <pitch>          <step>A</step>          <octave>4</octave>        </pitch>        <duration>4</duration>        <instrument id="P1-I2"/>        <voice>2</voice>        <type>eighth</type>        <stem default-y="20">up</stem>        <beam number="1">end</beam>      </note>      <note default-x="84">        <pitch>          <step>G</step>          <octave>4</octave>        </pitch>        <duration>4</duration>        <instrument id="P1-I2"/>        <voice>2</voice>        <type>eighth</type>        <stem default-y="15">up</stem>        <beam number="1">begin</beam>        <lyric default-y="-86" justify="left" number="1" relative-x="-10">          <syllabic>end</syllabic>          <text font-size="9.4">'ry</text>          <extend/>        </lyric>      </note>      <note default-x="119">        <pitch>          <step>F</step>          <alter>1</alter>          <octave>4</octave>        </pitch>        <duration>4</duration>        <instrument id="P1-I2"/>        <voice>2</voice>        <type>eighth</type>        <stem default-y="10">up</stem>        <beam number="1">end</beam>      </note>    </measure>    <!--=======================================================-->    <measure number="9" width="175">      <note default-x="13">        <pitch>          <step>A</step>          <octave>4</octave>        </pitch>        <duration>6</duration>        <instrument id="P1-I1"/>        <voice>1</voice>        <type>eighth</type>        <dot/>        <stem default-y="10">up</stem>        <beam number="1">begin</beam>        <notations>          <slur number="1" placement="above" type="start"/>        </notations>      </note>      <note default-x="68">        <pitch>          <step>G</step>          <octave>4</octave>        </pitch>        <duration>2</duration>        <instrument id="P1-I1"/>        <voice>1</voice>        <type>16th</type>        <stem default-y="7">up</stem>        <beam number="1">continue</beam>        <beam number="2">backward hook</beam>      </note>      <note default-x="93">        <pitch>          <step>F</step>          <alter>1</alter>          <octave>4</octave>        </pitch>        <duration>4</duration>        <instrument id="P1-I1"/>        <voice>1</voice>        <type>eighth</type>        <stem default-y="5">up</stem>        <beam number="1">end</beam>        <notations>          <slur number="1" type="stop"/>        </notations>      </note>      <note default-x="133">        <pitch>          <step>D</step>          <octave>5</octave>        </pitch>        <duration>4</duration>        <instrument id="P1-I1"/>        <voice>1</voice>        <type>eighth</type>        <stem default-y="24.5">up</stem>      </note>      <backup>        <duration>16</duration>      </backup>      <note default-x="13">        <pitch>          <step>F</step>          <alter>1</alter>          <octave>4</octave>        </pitch>        <duration>6</duration>        <instrument id="P1-I2"/>        <voice>2</voice>        <type>eighth</type>        <dot/>        <stem default-y="10">up</stem>        <beam number="1">begin</beam>        <lyric default-y="-85" justify="left" number="1" relative-x="-11">          <syllabic>single</syllabic>          <text font-size="9.4">heart</text>          <extend/>        </lyric>      </note>      <note default-x="68">        <pitch>          <step>E</step>          <octave>4</octave>        </pitch>        <duration>2</duration>        <instrument id="P1-I2"/>        <voice>2</voice>        <type>16th</type>        <stem default-y="7">up</stem>        <beam number="1">continue</beam>        <beam number="2">backward hook</beam>      </note>      <note default-x="93">        <pitch>          <step>D</step>          <octave>4</octave>        </pitch>        <duration>4</duration>        <instrument id="P1-I2"/>        <voice>2</voice>        <type>eighth</type>        <stem default-y="5">up</stem>        <beam number="1">end</beam>      </note>      <note default-x="133">        <pitch>          <step>F</step>          <alter>1</alter>          <octave>4</octave>        </pitch>        <duration>4</duration>        <instrument id="P1-I2"/>        <voice>2</voice>        <type>eighth</type>        <stem default-y="24.5">up</stem>        <lyric default-y="-84" number="1" relative-x="4">          <syllabic>begin</syllabic>          <text font-size="9.4">pre</text>        </lyric>      </note>    </measure>    <!--=======================================================-->    <measure number="10" width="230">      <print new-system="yes">        <system-layout>          <system-distance>105</system-distance>        </system-layout>      </print>      <note default-x="89">        <pitch>          <step>D</step>          <octave>5</octave>        </pitch>        <duration>4</duration>        <instrument id="P1-I1"/>        <voice>1</voice>        <type>eighth</type>        <stem default-y="25">up</stem>        <beam number="1">begin</beam>      </note>      <note default-x="133">        <pitch>          <step>C</step>          <alter>1</alter>          <octave>5</octave>        </pitch>        <duration>4</duration>        <instrument id="P1-I1"/>        <voice>1</voice>        <type>eighth</type>        <stem default-y="20">up</stem>        <beam number="1">end</beam>        <notations>          <slur number="1" type="stop"/>        </notations>      </note>      <note default-x="158">        <pitch>          <step>B</step>          <octave>4</octave>        </pitch>        <duration>4</duration>        <instrument id="P1-I1"/>        <voice>1</voice>        <type>eighth</type>        <stem default-y="15">up</stem>        <beam number="1">begin</beam>        <notations>          <slur number="2" placement="above" type="start"/>        </notations>      </note>      <note default-x="203">        <pitch>          <step>A</step>          <octave>4</octave>        </pitch>        <duration>4</duration>        <instrument id="P1-I1"/>        <voice>1</voice>        <type>eighth</type>        <stem default-y="10">up</stem>        <beam number="1">end</beam>        <notations>          <slur number="2" type="stop"/>        </notations>      </note>      <backup>        <duration>16</duration>      </backup>      <note default-x="89">        <pitch>          <step>F</step>          <alter>1</alter>          <octave>4</octave>        </pitch>        <duration>4</duration>        <instrument id="P1-I2"/>        <voice>2</voice>        <type>eighth</type>        <stem default-y="26.5">up</stem>        <beam number="1">begin</beam>        <notations>          <slur number="1" placement="above" type="start"/>        </notations>        <lyric default-y="-85" justify="left" number="1">          <syllabic>end</syllabic>          <text font-size="9.4">pare</text>          <extend/>        </lyric>      </note>      <note default-x="133">        <pitch>          <step>A</step>          <octave>4</octave>        </pitch>        <duration>4</duration>        <instrument id="P1-I2"/>        <voice>2</voice>        <type>eighth</type>        <stem default-y="20">up</stem>        <beam number="1">end</beam>      </note>      <note default-x="158">        <pitch>          <step>G</step>          <octave>4</octave>        </pitch>        <duration>4</duration>        <instrument id="P1-I2"/>        <voice>2</voice>        <type>eighth</type>        <stem default-y="15">up</stem>        <beam number="1">begin</beam>        <lyric default-y="-85" justify="left" number="1">          <syllabic>single</syllabic>          <text font-size="9.4">Him</text>          <extend/>        </lyric>      </note>      <note default-x="203">        <pitch>          <step>F</step>          <alter>1</alter>          <octave>4</octave>        </pitch>        <duration>4</duration>        <instrument id="P1-I2"/>        <voice>2</voice>        <type>eighth</type>        <stem default-y="10">up</stem>        <beam number="1">end</beam>      </note>    </measure>    <!--=======================================================-->    <measure number="11" width="208">      <note default-x="10">        <pitch>          <step>A</step>          <octave>4</octave>        </pitch>        <duration>6</duration>        <instrument id="P1-I1"/>        <voice>1</voice>        <type>eighth</type>        <dot/>        <stem default-y="10">up</stem>        <beam number="1">begin</beam>        <notations>          <slur number="1" placement="above" type="start"/>        </notations>      </note>      <note default-x="84">        <pitch>          <step>G</step>          <octave>4</octave>        </pitch>        <duration>2</duration>        <instrument id="P1-I1"/>        <voice>1</voice>        <type>16th</type>        <stem default-y="6">up</stem>        <beam number="1">continue</beam>        <beam number="2">backward hook</beam>      </note>      <note default-x="108">        <pitch>          <step>F</step>          <alter>1</alter>          <octave>4</octave>        </pitch>        <duration>4</duration>        <instrument id="P1-I1"/>        <voice>1</voice>        <type>eighth</type>        <stem default-y="5">up</stem>        <beam number="1">end</beam>        <notations>          <slur number="1" type="stop"/>        </notations>      </note>      <direction placement="above">        <direction-type>          <dynamics default-y="17">            <p/>          </dynamics>        </direction-type>        <offset sound="yes">-2</offset>        <sound dynamics="54"/>      </direction>      <note default-x="157">        <pitch>          <step>F</step>          <alter>1</alter>          <octave>4</octave>        </pitch>        <duration>4</duration>        <instrument id="P1-I1"/>        <voice>1</voice>        <type>eighth</type>        <stem default-y="1">up</stem>      </note>      <backup>        <duration>16</duration>      </backup>      <note default-x="10">        <pitch>          <step>F</step>          <alter>1</alter>          <octave>4</octave>        </pitch>        <duration>6</duration>        <instrument id="P1-I2"/>        <voice>2</voice>        <type>eighth</type>        <dot/>        <stem default-y="11.5">up</stem>        <beam number="1">begin</beam>        <lyric default-y="-85" justify="left" number="1">          <syllabic>single</syllabic>          <text font-size="9.4">room,</text>          <extend/>        </lyric>      </note>      <note default-x="84">        <pitch>          <step>E</step>          <octave>4</octave>        </pitch>        <duration>2</duration>        <instrument id="P1-I2"/>        <voice>2</voice>        <type>16th</type>        <stem default-y="6">up</stem>        <beam number="1">continue</beam>        <beam number="2">backward hook</beam>      </note>      <note default-x="108">        <pitch>          <step>D</step>          <octave>4</octave>        </pitch>        <duration>4</duration>        <instrument id="P1-I2"/>        <voice>2</voice>        <type>eighth</type>        <stem default-y="4">up</stem>        <beam number="1">end</beam>      </note>      <note default-x="157">        <pitch>          <step>D</step>          <octave>4</octave>        </pitch>        <duration>4</duration>        <instrument id="P1-I2"/>        <voice>2</voice>        <type>eighth</type>        <stem default-y="1">up</stem>        <lyric default-y="-85" number="1">          <syllabic>single</syllabic>          <text font-size="9.4">And</text>        </lyric>      </note>    </measure>    <!--=======================================================-->    <measure number="12" width="209">      <note default-x="29">        <pitch>          <step>F</step>          <alter>1</alter>          <octave>4</octave>        </pitch>        <duration>4</duration>        <instrument id="P1-I1"/>        <voice>1</voice>        <type>eighth</type>        <stem default-y="1">up</stem>      </note>      <note default-x="79">        <pitch>          <step>F</step>          <alter>1</alter>          <octave>4</octave>        </pitch>        <duration>4</duration>        <instrument id="P1-I1"/>        <voice>1</voice>        <type>eighth</type>        <stem default-y="1">up</stem>      </note>      <note default-x="116">        <pitch>          <step>F</step>          <alter>1</alter>          <octave>4</octave>        </pitch>        <duration>4</duration>        <instrument id="P1-I1"/>        <voice>1</voice>        <type>eighth</type>        <stem default-y="1">up</stem>      </note>      <note default-x="148">        <pitch>          <step>F</step>          <alter>1</alter>          <octave>4</octave>        </pitch>        <duration>2</duration>        <instrument id="P1-I1"/>        <voice>1</voice>        <type>16th</type>        <stem default-y="0">up</stem>        <beam number="1">begin</beam>        <beam number="2">begin</beam>        <notations>          <slur bezier-x="10" bezier-y="9" default-x="13" default-y="6" number="1" placement="above" type="start"/>        </notations>      </note>      <note default-x="187">        <pitch>          <step>G</step>          <octave>4</octave>        </pitch>        <duration>2</duration>        <instrument id="P1-I1"/>        <voice>1</voice>        <type>16th</type>        <stem default-y="5">up</stem>        <beam number="1">end</beam>        <beam number="2">end</beam>        <notations>          <slur bezier-x="-12" bezier-y="6" default-x="12" default-y="10" number="1" type="stop"/>        </notations>      </note>      <backup>        <duration>16</duration>      </backup>      <note default-x="29">        <pitch>          <step>D</step>          <octave>4</octave>        </pitch>        <duration>4</duration>        <instrument id="P1-I2"/>        <voice>2</voice>        <type>eighth</type>        <stem default-y="1">up</stem>        <lyric default-y="-85" number="1">          <syllabic>single</syllabic>          <text font-size="9.4">heav'n</text>        </lyric>      </note>      <note default-x="79">        <pitch>          <step>D</step>          <octave>4</octave>        </pitch>        <duration>4</duration>        <instrument id="P1-I2"/>        <voice>2</voice>        <type>eighth</type>        <stem default-y="1">up</stem>        <lyric default-y="-85" number="1">          <syllabic>single</syllabic>          <text font-size="9.4">and</text>        </lyric>      </note>      <note default-x="116">        <pitch>          <step>D</step>          <octave>4</octave>        </pitch>        <duration>4</duration>        <instrument id="P1-I2"/>        <voice>2</voice>        <type>eighth</type>        <stem default-y="1">up</stem>        <lyric default-y="-85" number="1">          <syllabic>begin</syllabic>          <text font-size="9.4">na</text>        </lyric>      </note>      <note default-x="148">        <pitch>          <step>D</step>          <octave>4</octave>        </pitch>        <duration>2</duration>        <instrument id="P1-I2"/>        <voice>2</voice>        <type>16th</type>        <stem default-y="0">up</stem>        <beam number="1">begin</beam>        <beam number="2">begin</beam>        <lyric default-y="-85" justify="left" number="1">          <syllabic>end</syllabic>          <text font-size="9.4">ture</text>          <extend/>        </lyric>      </note>      <note default-x="187">        <pitch>          <step>E</step>          <octave>4</octave>        </pitch>        <duration>2</duration>        <instrument id="P1-I2"/>        <voice>2</voice>        <type>16th</type>        <stem default-y="5">up</stem>        <beam number="1">end</beam>        <beam number="2">end</beam>      </note>    </measure>    <!--=======================================================-->    <measure number="13" width="216">      <note default-x="29">        <pitch>          <step>A</step>          <octave>4</octave>        </pitch>        <duration>12</duration>        <instrument id="P1-I1"/>        <voice>1</voice>        <type>quarter</type>        <dot/>        <stem default-y="11">up</stem>      </note>      <note default-x="157">        <pitch>          <step>G</step>          <octave>4</octave>        </pitch>        <duration>2</duration>        <instrument id="P1-I1"/>        <voice>1</voice>        <type>16th</type>        <stem default-y="2.5">up</stem>        <beam number="1">begin</beam>        <beam number="2">begin</beam>        <notations>          <slur number="1" placement="above" type="start"/>        </notations>      </note>      <note default-x="193">        <pitch>          <step>F</step>          <alter>1</alter>          <octave>4</octave>        </pitch>        <duration>2</duration>        <instrument id="P1-I1"/>        <voice>1</voice>        <type>16th</type>        <stem default-y="0">up</stem>        <beam number="1">end</beam>        <beam number="2">end</beam>        <notations>          <slur number="1" type="stop"/>        </notations>      </note>      <backup>        <duration>16</duration>      </backup>      <note default-x="29">        <pitch>          <step>F</step>          <alter>1</alter>          <octave>4</octave>        </pitch>        <duration>12</duration>        <instrument id="P1-I2"/>        <voice>2</voice>        <type>quarter</type>        <dot/>        <stem default-y="1">up</stem>        <lyric default-y="-85" number="1">          <syllabic>single</syllabic>          <text font-size="9.4">sing,</text>        </lyric>      </note>      <note default-x="157">        <pitch>          <step>E</step>          <octave>4</octave>        </pitch>        <duration>2</duration>        <instrument id="P1-I2"/>        <voice>2</voice>        <type>16th</type>        <stem default-y="2.5">up</stem>        <beam number="1">begin</beam>        <beam number="2">begin</beam>        <lyric default-y="-85" justify="left" number="1">          <syllabic>single</syllabic>          <text font-size="9.4">and</text>          <extend/>        </lyric>      </note>      <note default-x="193">        <pitch>          <step>D</step>          <octave>4</octave>        </pitch>        <duration>2</duration>        <instrument id="P1-I2"/>        <voice>2</voice>        <type>16th</type>        <stem default-y="0">up</stem>        <beam number="1">end</beam>        <beam number="2">end</beam>      </note>    </measure>    <!--=======================================================-->    <measure number="14" width="213">      <note default-x="29">        <pitch>          <step>E</step>          <octave>4</octave>        </pitch>        <duration>4</duration>        <instrument id="P1-I1"/>        <voice>1</voice>        <type>eighth</type>        <stem default-y="-4">up</stem>      </note>      <note default-x="79">        <pitch>          <step>E</step>          <octave>4</octave>        </pitch>        <duration>4</duration>        <instrument id="P1-I1"/>        <voice>1</voice>        <type>eighth</type>        <stem default-y="-4">up</stem>      </note>      <note default-x="117">        <pitch>          <step>E</step>          <octave>4</octave>        </pitch>        <duration>4</duration>        <instrument id="P1-I1"/>        <voice>1</voice>        <type>eighth</type>        <stem default-y="-4">up</stem>      </note>      <note default-x="152">        <pitch>          <step>E</step>          <octave>4</octave>        </pitch>        <duration>2</duration>        <instrument id="P1-I1"/>        <voice>1</voice>        <type>16th</type>        <stem default-y="-7">up</stem>        <beam number="1">begin</beam>        <beam number="2">begin</beam>        <notations>          <slur number="1" placement="above" type="start"/>        </notations>      </note>      <note default-x="190">        <pitch>          <step>F</step>          <alter>1</alter>          <octave>4</octave>        </pitch>        <duration>2</duration>        <instrument id="P1-I1"/>        <voice>1</voice>        <type>16th</type>        <stem default-y="-5">up</stem>        <beam number="1">end</beam>        <beam number="2">end</beam>        <notations>          <slur number="1" type="stop"/>        </notations>      </note>      <backup>        <duration>16</duration>      </backup>      <note default-x="29">        <pitch>          <step>C</step>          <alter>1</alter>          <octave>4</octave>        </pitch>        <duration>4</duration>        <instrument id="P1-I2"/>        <voice>2</voice>        <type>eighth</type>        <stem default-y="-4">up</stem>        <lyric default-y="-85" number="1">          <syllabic>single</syllabic>          <text font-size="9.4">heav'n</text>        </lyric>      </note>      <note default-x="79">        <pitch>          <step>C</step>          <alter>1</alter>          <octave>4</octave>        </pitch>        <duration>4</duration>        <instrument id="P1-I2"/>        <voice>2</voice>        <type>eighth</type>        <stem default-y="-4">up</stem>        <lyric default-y="-85" number="1">          <syllabic>single</syllabic>          <text font-size="9.4">and</text>        </lyric>      </note>      <note default-x="117">        <pitch>          <step>C</step>          <alter>1</alter>          <octave>4</octave>        </pitch>        <duration>4</duration>        <instrument id="P1-I2"/>        <voice>2</voice>        <type>eighth</type>        <stem default-y="-4">up</stem>        <lyric default-y="-85" number="1">          <syllabic>begin</syllabic>          <text font-size="9.4">na</text>        </lyric>      </note>      <note default-x="152">        <pitch>          <step>C</step>          <alter>1</alter>          <octave>4</octave>        </pitch>        <duration>2</duration>        <instrument id="P1-I2"/>        <voice>2</voice>        <type>16th</type>        <stem default-y="-7">up</stem>        <beam number="1">begin</beam>        <beam number="2">begin</beam>        <lyric default-y="-85" justify="left" number="1">          <syllabic>end</syllabic>          <text font-size="9.4">ture</text>          <extend/>        </lyric>      </note>      <note default-x="190">        <pitch>          <step>D</step>          <octave>4</octave>        </pitch>        <duration>2</duration>        <instrument id="P1-I2"/>        <voice>2</voice>        <type>16th</type>        <stem default-y="-5">up</stem>        <beam number="1">end</beam>        <beam number="2">end</beam>      </note>    </measure>    <!--=======================================================-->    <measure number="15" width="335">      <print new-system="yes">        <system-layout>          <system-distance>105</system-distance>        </system-layout>      </print>      <direction placement="above">        <direction-type>          <wedge default-y="11" relative-x="11" spread="0" type="crescendo"/>        </direction-type>      </direction>      <note default-x="107">        <pitch>          <step>G</step>          <octave>4</octave>        </pitch>        <duration>12</duration>        <instrument id="P1-I1"/>        <voice>1</voice>        <type>quarter</type>        <dot/>        <stem default-y="6">up</stem>      </note>      <direction>        <direction-type>          <wedge spread="15" type="stop"/>        </direction-type>        <offset>-1</offset>      </direction>      <direction placement="above">        <direction-type>          <dynamics default-y="13">            <f/>          </dynamics>        </direction-type>        <sound dynamics="98"/>      </direction>      <note default-x="268">        <pitch>          <step>F</step>          <alter>1</alter>          <octave>4</octave>        </pitch>        <duration>2</duration>        <instrument id="P1-I1"/>        <voice>1</voice>        <type>16th</type>        <stem default-y="-4.5">up</stem>        <beam number="1">begin</beam>        <beam number="2">begin</beam>        <notations>          <slur number="1" placement="above" type="start"/>        </notations>      </note>      <note default-x="301">        <pitch>          <step>E</step>          <octave>4</octave>        </pitch>        <duration>2</duration>        <instrument id="P1-I1"/>        <voice>1</voice>        <type>16th</type>        <stem default-y="-7">up</stem>        <beam number="1">end</beam>        <beam number="2">end</beam>        <notations>          <slur number="1" type="stop"/>        </notations>      </note>      <backup>        <duration>16</duration>      </backup>      <note default-x="107">        <pitch>          <step>E</step>          <octave>4</octave>        </pitch>        <duration>12</duration>        <instrument id="P1-I2"/>        <voice>2</voice>        <type>quarter</type>        <dot/>        <stem default-y="-4">up</stem>        <lyric default-y="-85" number="1">          <syllabic>single</syllabic>          <text font-size="9.4">sing,</text>        </lyric>      </note>      <note default-x="268">        <pitch>          <step>D</step>          <octave>4</octave>        </pitch>        <duration>2</duration>        <instrument id="P1-I2"/>        <voice>2</voice>        <type>16th</type>        <stem default-y="-4.5">up</stem>        <beam number="1">begin</beam>        <beam number="2">begin</beam>        <lyric default-y="-85" number="1">          <syllabic>single</syllabic>          <text font-size="9.4">And</text>        </lyric>      </note>      <note default-x="301">        <pitch>          <step>C</step>          <alter>1</alter>          <octave>4</octave>        </pitch>        <duration>2</duration>        <instrument id="P1-I2"/>        <voice>2</voice>        <type>16th</type>        <stem default-y="-7">up</stem>        <beam number="1">end</beam>        <beam number="2">end</beam>      </note>    </measure>    <!--=======================================================-->    <measure number="16" width="193">      <note default-x="23">        <pitch>          <step>D</step>          <octave>4</octave>        </pitch>        <duration>4</duration>        <instrument id="P1-I1"/>        <voice>1</voice>        <type>eighth</type>        <stem default-y="-9">up</stem>        <notations>          <slur number="1" placement="above" type="start"/>          <slur bezier-x="19" bezier-y="-14" default-x="12" default-y="-51" number="2" placement="above" type="start"/>        </notations>      </note>      <note default-x="89">        <pitch>          <step>D</step>          <octave>5</octave>        </pitch>        <duration>8</duration>        <instrument id="P1-I1"/>        <voice>1</voice>        <type>quarter</type>        <stem default-y="16">up</stem>        <notations>          <slur number="1" type="stop"/>          <slur bezier-x="-16" bezier-y="-17" default-x="7" default-y="-45" number="2" type="stop"/>        </notations>      </note>      <note default-x="149">        <pitch>          <step>B</step>          <octave>4</octave>        </pitch>        <duration>4</duration>        <instrument id="P1-I1"/>        <voice>1</voice>        <type>eighth</type>        <stem default-y="14.5">up</stem>      </note>      <backup>        <duration>16</duration>      </backup>      <note default-x="23">        <pitch>          <step>D</step>          <octave>4</octave>        </pitch>        <duration>4</duration>        <instrument id="P1-I2"/>        <voice>2</voice>        <type>eighth</type>        <stem default-y="-9">up</stem>        <lyric default-y="-85" justify="left" number="1">          <syllabic>single</syllabic>          <text font-size="9.4">heav'n,</text>          <extend/>        </lyric>      </note>      <note default-x="89">        <pitch>          <step>F</step>          <alter>1</alter>          <octave>4</octave>        </pitch>        <duration>8</duration>        <instrument id="P1-I2"/>        <voice>2</voice>        <type>quarter</type>        <stem default-y="1">up</stem>      </note>      <note default-x="149">        <pitch>          <step>G</step>          <octave>4</octave>        </pitch>        <duration>4</duration>        <instrument id="P1-I2"/>        <voice>2</voice>        <type>eighth</type>        <stem default-y="15">up</stem>        <lyric default-y="-85" number="1">          <syllabic>single</syllabic>          <text font-size="9.4">and</text>        </lyric>      </note>    </measure>    <!--=======================================================-->    <measure number="17" width="247">      <note default-x="10">        <pitch>          <step>A</step>          <octave>4</octave>        </pitch>        <duration>6</duration>        <instrument id="P1-I1"/>        <voice>1</voice>        <type>eighth</type>        <dot/>        <stem default-y="10">up</stem>        <beam number="1">begin</beam>      </note>      <note default-x="99">        <pitch>          <step>G</step>          <octave>4</octave>        </pitch>        <duration>2</duration>        <instrument id="P1-I1"/>        <voice>1</voice>        <type>16th</type>        <stem default-y="6.5">up</stem>        <beam number="1">continue</beam>        <beam number="2">backward hook</beam>      </note>      <note default-x="128">        <pitch>          <step>F</step>          <alter>1</alter>          <octave>4</octave>        </pitch>        <duration>4</duration>        <instrument id="P1-I1"/>        <voice>1</voice>        <type>eighth</type>        <stem default-y="5">up</stem>        <beam number="1">end</beam>        <notations>          <slur bezier-x="-9" bezier-y="24" default-x="12" default-y="16" number="1" type="stop"/>        </notations>      </note>      <note default-x="187">        <pitch>          <step>G</step>          <octave>4</octave>        </pitch>        <duration>4</duration>        <instrument id="P1-I1"/>        <voice>1</voice>        <type>eighth</type>        <stem default-y="6">up</stem>      </note>      <backup>        <duration>16</duration>      </backup>      <note default-x="10">        <pitch>          <step>F</step>          <alter>1</alter>          <octave>4</octave>        </pitch>        <duration>6</duration>        <instrument id="P1-I2"/>        <voice>2</voice>        <type>eighth</type>        <dot/>        <stem default-y="11.5">up</stem>        <beam number="1">begin</beam>        <notations>          <slur bezier-x="5" bezier-y="24" default-x="14" default-y="16" number="1" placement="above" type="start"/>        </notations>        <lyric default-y="-85" justify="left" number="1">          <syllabic>single</syllabic>          <text font-size="9.4">heav'n</text>          <extend/>        </lyric>      </note>      <note default-x="99">        <pitch>          <step>E</step>          <octave>4</octave>        </pitch>        <duration>2</duration>        <instrument id="P1-I2"/>        <voice>2</voice>        <type>16th</type>        <stem default-y="6.5">up</stem>        <beam number="1">continue</beam>        <beam number="2">backward hook</beam>      </note>      <note default-x="128">        <pitch>          <step>D</step>          <octave>4</octave>        </pitch>        <duration>4</duration>        <instrument id="P1-I2"/>        <voice>2</voice>        <type>eighth</type>        <stem default-y="5">up</stem>        <beam number="1">end</beam>      </note>      <note default-x="187">        <pitch>          <step>E</step>          <octave>4</octave>        </pitch>        <duration>4</duration>        <instrument id="P1-I2"/>        <voice>2</voice>        <type>eighth</type>        <stem default-y="6">up</stem>        <lyric default-y="-85" number="1">          <syllabic>single</syllabic>          <text font-size="9.4">and</text>        </lyric>      </note>    </measure>    <!--=======================================================-->    <measure number="18" width="150">      <note default-x="13">        <pitch>          <step>F</step>          <alter>1</alter>          <octave>4</octave>        </pitch>        <duration>8</duration>        <instrument id="P1-I1"/>        <voice>1</voice>        <type>quarter</type>        <stem default-y="1">up</stem>      </note>      <note default-x="74">        <pitch>          <step>E</step>          <octave>4</octave>        </pitch>        <duration>8</duration>        <instrument id="P1-I1"/>        <voice>1</voice>        <type>quarter</type>        <stem default-y="-4">up</stem>      </note>      <backup>        <duration>16</duration>      </backup>      <note default-x="13">        <pitch>          <step>D</step>          <octave>4</octave>        </pitch>        <duration>8</duration>        <instrument id="P1-I2"/>        <voice>2</voice>        <type>quarter</type>        <stem default-y="-67">down</stem>        <lyric default-y="-85" number="1">          <syllabic>begin</syllabic>          <text font-size="9.4">na</text>        </lyric>      </note>      <note default-x="74">        <pitch>          <step>C</step>          <alter>1</alter>          <octave>4</octave>        </pitch>        <duration>8</duration>        <instrument id="P1-I2"/>        <voice>2</voice>        <type>quarter</type>        <stem default-y="-70">down</stem>        <lyric default-y="-85" number="1">          <syllabic>end</syllabic>          <text font-size="9.4">ture</text>        </lyric>      </note>    </measure>    <!--=======================================================-->    <measure number="19" width="150">      <note default-x="23">        <pitch>          <step>D</step>          <octave>4</octave>        </pitch>        <duration>16</duration>        <instrument id="P1-I1"/>        <voice>1</voice>        <type>half</type>        <stem default-y="-9">up</stem>      </note>      <backup>        <duration>16</duration>      </backup>      <note default-x="23">        <pitch>          <step>D</step>          <octave>4</octave>        </pitch>        <duration>16</duration>        <instrument id="P1-I2"/>        <voice>2</voice>        <type>half</type>        <stem default-y="-67">down</stem>        <lyric default-y="-85" number="1">          <syllabic>single</syllabic>          <text font-size="9.4">sing.</text>        </lyric>      </note>      <barline location="right">        <bar-style>light-heavy</bar-style>      </barline>    </measure>  </part>  <!--=========================================================-->  <part id="P2">    <measure number="1" width="351">      <print>        <measure-numbering>none</measure-numbering>      </print>      <attributes>        <divisions>8</divisions>        <key>          <fifths>2</fifths>          <mode>major</mode>        </key>        <time>          <beats>2</beats>          <beat-type>4</beat-type>        </time>        <instruments>2</instruments>        <clef>          <sign>F</sign>          <line>4</line>        </clef>      </attributes>      <sound tempo="120"/>      <direction placement="above">        <direction-type>          <dynamics default-y="11" relative-x="-36">            <f/>          </dynamics>        </direction-type>        <sound dynamics="98"/>      </direction>      <note default-x="119">        <pitch>          <step>D</step>          <octave>4</octave>        </pitch>        <duration>8</duration>        <instrument id="P2-I3"/>        <voice>1</voice>        <type>quarter</type>        <stem default-y="-20.5">down</stem>      </note>      <note default-x="234">        <pitch>          <step>D</step>          <octave>4</octave>        </pitch>        <duration>6</duration>        <instrument id="P2-I3"/>        <voice>1</voice>        <type>eighth</type>        <dot/>        <stem default-y="-56">down</stem>      </note>      <note default-x="320">        <pitch>          <step>D</step>          <octave>4</octave>        </pitch>        <duration>2</duration>        <instrument id="P2-I3"/>        <voice>1</voice>        <type>16th</type>        <stem default-y="-56">down</stem>      </note>      <backup>        <duration>16</duration>      </backup>      <note default-x="119">        <pitch>          <step>D</step>          <octave>3</octave>        </pitch>        <duration>8</duration>        <instrument id="P2-I4"/>        <voice>2</voice>        <type>quarter</type>        <stem default-y="-56">down</stem>      </note>      <note default-x="234">        <pitch>          <step>D</step>          <octave>3</octave>        </pitch>        <duration>6</duration>        <instrument id="P2-I4"/>        <voice>2</voice>        <type>eighth</type>        <dot/>        <stem default-y="-56">down</stem>      </note>      <note default-x="320">        <pitch>          <step>D</step>          <octave>3</octave>        </pitch>        <duration>2</duration>        <instrument id="P2-I4"/>        <voice>2</voice>        <type>16th</type>        <stem default-y="-56">down</stem>      </note>    </measure>    <!--=======================================================-->    <measure number="2" width="241">      <note default-x="10">        <pitch>          <step>D</step>          <octave>4</octave>        </pitch>        <duration>12</duration>        <instrument id="P2-I3"/>        <voice>1</voice>        <type>quarter</type>        <dot/>        <stem default-y="-20.5">down</stem>      </note>      <note default-x="182">        <pitch>          <step>B</step>          <octave>3</octave>        </pitch>        <duration>4</duration>        <instrument id="P2-I3"/>        <voice>1</voice>        <type>eighth</type>        <stem default-y="-75">down</stem>      </note>      <backup>        <duration>16</duration>      </backup>      <note default-x="10">        <pitch>          <step>D</step>          <octave>3</octave>        </pitch>        <duration>12</duration>        <instrument id="P2-I4"/>        <voice>2</voice>        <type>quarter</type>        <dot/>        <stem default-y="-56">down</stem>      </note>      <note default-x="182">        <pitch>          <step>G</step>          <octave>2</octave>        </pitch>        <duration>4</duration>        <instrument id="P2-I4"/>        <voice>2</voice>        <type>eighth</type>        <stem default-y="-75.5">down</stem>      </note>    </measure>    <!--=======================================================-->    <measure number="3" width="241">      <note default-x="10">        <pitch>          <step>A</step>          <octave>3</octave>        </pitch>        <duration>12</duration>        <instrument id="P2-I3"/>        <voice>1</voice>        <type>quarter</type>        <dot/>        <stem default-y="-35.5">down</stem>      </note>      <note default-x="182">        <pitch>          <step>G</step>          <octave>3</octave>        </pitch>        <duration>4</duration>        <instrument id="P2-I3"/>        <voice>1</voice>        <type>eighth</type>        <stem default-y="-41">down</stem>      </note>      <backup>        <duration>16</duration>      </backup>      <note default-x="10">        <pitch>          <step>A</step>          <octave>2</octave>        </pitch>        <duration>8</duration>        <instrument id="P2-I4"/>        <voice>2</voice>        <type>quarter</type>        <stem default-y="-60.5">down</stem>      </note>      <note default-x="125">        <pitch>          <step>A</step>          <octave>2</octave>        </pitch>        <duration>8</duration>        <instrument id="P2-I4"/>        <voice>2</voice>        <type>quarter</type>        <stem default-y="-60.5">down</stem>      </note>    </measure>    <!--=======================================================-->    <measure number="4" width="241">      <note default-x="10">        <pitch>          <step>F</step>          <alter>1</alter>          <octave>3</octave>        </pitch>        <duration>12</duration>        <instrument id="P2-I3"/>        <voice>1</voice>        <type>quarter</type>        <dot/>        <stem default-y="-45.5">down</stem>      </note>      <note default-x="182">        <pitch>          <step>D</step>          <octave>4</octave>        </pitch>        <duration>4</duration>        <instrument id="P2-I3"/>        <voice>1</voice>        <type>eighth</type>        <stem default-y="-45.5">down</stem>      </note>      <backup>        <duration>16</duration>      </backup>      <note default-x="10">        <pitch>          <step>D</step>          <octave>3</octave>        </pitch>        <duration>12</duration>        <instrument id="P2-I4"/>        <voice>2</voice>        <type>quarter</type>        <dot/>        <stem default-y="-56">down</stem>      </note>      <note default-x="182">        <pitch>          <step>F</step>          <alter>1</alter>          <octave>3</octave>        </pitch>        <duration>4</duration>        <instrument id="P2-I4"/>        <voice>2</voice>        <type>eighth</type>        <stem default-y="-45.5">down</stem>      </note>    </measure>    <!--=======================================================-->    <measure number="5" width="333">      <print new-system="yes"/>      <note default-x="88">        <pitch>          <step>D</step>          <octave>4</octave>        </pitch>        <duration>12</duration>        <instrument id="P2-I3"/>        <voice>1</voice>        <type>quarter</type>        <dot/>        <stem default-y="-20.5">down</stem>      </note>      <note default-x="271">        <pitch>          <step>D</step>          <octave>4</octave>        </pitch>        <duration>4</duration>        <instrument id="P2-I3"/>        <voice>1</voice>        <type>eighth</type>        <stem default-y="-40">down</stem>      </note>      <backup>        <duration>16</duration>      </backup>      <note default-x="88">        <pitch>          <step>G</step>          <octave>3</octave>        </pitch>        <duration>12</duration>        <instrument id="P2-I4"/>        <voice>2</voice>        <type>quarter</type>        <dot/>        <stem default-y="-40">down</stem>      </note>      <note default-x="271">        <pitch>          <step>G</step>          <octave>3</octave>        </pitch>        <duration>4</duration>        <instrument id="P2-I4"/>        <voice>2</voice>        <type>eighth</type>        <stem default-y="-40">down</stem>      </note>    </measure>    <!--=======================================================-->    <measure number="6" width="256">      <note default-x="10">        <pitch>          <step>A</step>          <octave>3</octave>        </pitch>        <duration>12</duration>        <instrument id="P2-I3"/>        <voice>1</voice>        <type>quarter</type>        <dot/>        <stem default-y="26">up</stem>      </note>      <note default-x="193">        <pitch>          <step>A</step>          <octave>3</octave>        </pitch>        <duration>4</duration>        <instrument id="P2-I3"/>        <voice>1</voice>        <type>eighth</type>        <stem default-y="36">up</stem>      </note>      <backup>        <duration>16</duration>      </backup>      <note default-x="10">        <pitch>          <step>A</step>          <octave>3</octave>        </pitch>        <duration>12</duration>        <instrument id="P2-I4"/>        <voice>2</voice>        <type>quarter</type>        <dot/>        <stem default-y="-35.5">down</stem>      </note>      <note default-x="193">        <pitch>          <step>A</step>          <octave>3</octave>        </pitch>        <duration>4</duration>        <instrument id="P2-I4"/>        <voice>2</voice>        <type>eighth</type>        <stem default-y="-35.5">down</stem>      </note>    </measure>    <!--=======================================================-->    <measure number="7" width="155">      <note default-x="27">        <pitch>          <step>A</step>          <octave>3</octave>        </pitch>        <duration>12</duration>        <instrument id="P2-I3"/>        <voice>1</voice>        <type>quarter</type>        <dot/>        <stem default-y="-35.5">down</stem>      </note>      <note default-x="113">        <pitch>          <step>A</step>          <octave>3</octave>        </pitch>        <duration>4</duration>        <instrument id="P2-I3"/>        <voice>1</voice>        <type>eighth</type>        <stem default-y="-55">down</stem>      </note>      <backup>        <duration>16</duration>      </backup>      <note default-x="27">        <pitch>          <step>D</step>          <octave>3</octave>        </pitch>        <duration>12</duration>        <instrument id="P2-I4"/>        <voice>2</voice>        <type>quarter</type>        <dot/>        <stem default-y="-55">down</stem>      </note>      <note default-x="113">        <pitch>          <step>D</step>          <octave>3</octave>        </pitch>        <duration>4</duration>        <instrument id="P2-I4"/>        <voice>2</voice>        <type>eighth</type>        <stem default-y="-55">down</stem>      </note>    </measure>    <!--=======================================================-->    <measure number="8" width="155">      <note default-x="13">        <pitch>          <step>A</step>          <octave>3</octave>        </pitch>        <duration>8</duration>        <instrument id="P2-I3"/>        <voice>1</voice>        <type>quarter</type>        <stem default-y="-35.5">down</stem>      </note>      <note default-x="84">        <pitch>          <step>D</step>          <octave>4</octave>        </pitch>        <duration>8</duration>        <instrument id="P2-I3"/>        <voice>1</voice>        <type>quarter</type>        <stem default-y="-20.5">down</stem>      </note>      <backup>        <duration>16</duration>      </backup>      <note default-x="13">        <pitch>          <step>D</step>          <octave>3</octave>        </pitch>        <duration>8</duration>        <instrument id="P2-I4"/>        <voice>2</voice>        <type>quarter</type>        <stem default-y="-55">down</stem>      </note>      <note default-x="84">        <pitch>          <step>D</step>          <octave>3</octave>        </pitch>        <duration>8</duration>        <instrument id="P2-I4"/>        <voice>2</voice>        <type>quarter</type>        <stem default-y="-55">down</stem>      </note>    </measure>    <!--=======================================================-->    <measure number="9" width="175">      <note default-x="13">        <pitch>          <step>D</step>          <octave>4</octave>        </pitch>        <duration>12</duration>        <instrument id="P2-I3"/>        <voice>1</voice>        <type>quarter</type>        <dot/>        <stem default-y="-20.5">down</stem>      </note>      <note default-x="133">        <pitch>          <step>A</step>          <octave>3</octave>        </pitch>        <duration>4</duration>        <instrument id="P2-I3"/>        <voice>1</voice>        <type>eighth</type>        <stem default-y="-55">down</stem>      </note>      <backup>        <duration>16</duration>      </backup>      <note default-x="13">        <pitch>          <step>D</step>          <octave>3</octave>        </pitch>        <duration>12</duration>        <instrument id="P2-I4"/>        <voice>2</voice>        <type>quarter</type>        <dot/>        <stem default-y="-55">down</stem>      </note>      <note default-x="133">        <pitch>          <step>D</step>          <octave>3</octave>        </pitch>        <duration>4</duration>        <instrument id="P2-I4"/>        <voice>2</voice>        <type>eighth</type>        <stem default-y="-55">down</stem>      </note>    </measure>    <!--=======================================================-->    <measure number="10" width="230">      <print new-system="yes"/>      <note default-x="89">        <pitch>          <step>A</step>          <octave>3</octave>        </pitch>        <duration>8</duration>        <instrument id="P2-I3"/>        <voice>1</voice>        <type>quarter</type>        <stem default-y="-36">down</stem>      </note>      <note default-x="158">        <pitch>          <step>D</step>          <octave>4</octave>        </pitch>        <duration>8</duration>        <instrument id="P2-I3"/>        <voice>1</voice>        <type>quarter</type>        <stem default-y="-21">down</stem>      </note>      <backup>        <duration>16</duration>      </backup>      <note default-x="89">        <pitch>          <step>D</step>          <octave>3</octave>        </pitch>        <duration>8</duration>        <instrument id="P2-I4"/>        <voice>2</voice>        <type>quarter</type>        <stem default-y="-55.5">down</stem>      </note>      <note default-x="158">        <pitch>          <step>D</step>          <octave>3</octave>        </pitch>        <duration>8</duration>        <instrument id="P2-I4"/>        <voice>2</voice>        <type>quarter</type>        <stem default-y="-55.5">down</stem>      </note>    </measure>    <!--=======================================================-->    <measure number="11" width="208">      <note default-x="10">        <pitch>          <step>D</step>          <octave>4</octave>        </pitch>        <duration>12</duration>        <instrument id="P2-I3"/>        <voice>1</voice>        <type>quarter</type>        <dot/>        <stem default-y="-21">down</stem>      </note>      <direction placement="above">        <direction-type>          <dynamics default-y="17">            <p/>          </dynamics>        </direction-type>        <offset sound="yes">-2</offset>        <sound dynamics="54"/>      </direction>      <note default-x="157">        <rest>          <display-step>C</display-step>          <display-octave>4</display-octave>        </rest>        <duration>4</duration>        <instrument id="P2-I3"/>        <voice>1</voice>        <type>eighth</type>      </note>      <backup>        <duration>16</duration>      </backup>      <note default-x="10">        <pitch>          <step>D</step>          <octave>3</octave>        </pitch>        <duration>12</duration>        <instrument id="P2-I4"/>        <voice>2</voice>        <type>quarter</type>        <dot/>        <stem default-y="-55.5">down</stem>      </note>      <note default-x="157">        <rest>          <display-step>E</display-step>          <display-octave>2</display-octave>        </rest>        <duration>4</duration>        <instrument id="P2-I4"/>        <voice>2</voice>        <type>eighth</type>      </note>    </measure>    <!--=======================================================-->    <measure number="12" width="209">      <note default-x="30">        <rest>          <display-step>C</display-step>          <display-octave>4</display-octave>        </rest>        <duration>8</duration>        <instrument id="P2-I3"/>        <voice>1</voice>        <type>quarter</type>      </note>      <note default-x="116">        <rest>          <display-step>C</display-step>          <display-octave>4</display-octave>        </rest>        <duration>4</duration>        <instrument id="P2-I3"/>        <voice>1</voice>        <type>eighth</type>      </note>      <note default-x="148">        <pitch>          <step>A</step>          <octave>3</octave>        </pitch>        <duration>4</duration>        <instrument id="P2-I3"/>        <voice>1</voice>        <type>eighth</type>        <stem default-y="-55.5">down</stem>        <lyric default-y="-85" number="1">          <syllabic>single</syllabic>          <text font-size="9.4">And</text>        </lyric>      </note>      <backup>        <duration>16</duration>      </backup>      <note default-x="30">        <rest>          <display-step>E</display-step>          <display-octave>2</display-octave>        </rest>        <duration>8</duration>        <instrument id="P2-I4"/>        <voice>2</voice>        <type>quarter</type>      </note>      <note default-x="116">        <rest>          <display-step>E</display-step>          <display-octave>2</display-octave>        </rest>        <duration>4</duration>        <instrument id="P2-I4"/>        <voice>2</voice>        <type>eighth</type>      </note>      <note default-x="148">        <pitch>          <step>D</step>          <octave>3</octave>        </pitch>        <duration>4</duration>        <instrument id="P2-I4"/>        <voice>2</voice>        <type>eighth</type>        <stem default-y="-55.5">down</stem>      </note>    </measure>    <!--=======================================================-->    <measure number="13" width="216">      <note default-x="29">        <pitch>          <step>A</step>          <octave>3</octave>        </pitch>        <duration>4</duration>        <instrument id="P2-I3"/>        <voice>1</voice>        <type>eighth</type>        <stem default-y="-55.5">down</stem>        <lyric default-y="-85" number="1">          <syllabic>single</syllabic>          <text font-size="9.4">heav'n</text>        </lyric>      </note>      <note default-x="79">        <pitch>          <step>A</step>          <octave>3</octave>        </pitch>        <duration>4</duration>        <instrument id="P2-I3"/>        <voice>1</voice>        <type>eighth</type>        <stem default-y="-55.5">down</stem>        <lyric default-y="-85" number="1">          <syllabic>single</syllabic>          <text font-size="9.4">and</text>        </lyric>      </note>      <note default-x="117">        <pitch>          <step>A</step>          <octave>3</octave>        </pitch>        <duration>4</duration>        <instrument id="P2-I3"/>        <voice>1</voice>        <type>eighth</type>        <stem default-y="-55.5">down</stem>        <lyric default-y="-85" number="1">          <syllabic>begin</syllabic>          <text font-size="9.4">na</text>        </lyric>      </note>      <note default-x="157">        <pitch>          <step>A</step>          <octave>3</octave>        </pitch>        <duration>4</duration>        <instrument id="P2-I3"/>        <voice>1</voice>        <type>eighth</type>        <stem default-y="-55.5">down</stem>        <lyric default-y="-85" number="1">          <syllabic>end</syllabic>          <text font-size="9.4">ture</text>        </lyric>      </note>      <backup>        <duration>16</duration>      </backup>      <note default-x="29">        <pitch>          <step>D</step>          <octave>3</octave>        </pitch>        <duration>4</duration>        <instrument id="P2-I4"/>        <voice>2</voice>        <type>eighth</type>        <stem default-y="-55.5">down</stem>      </note>      <note default-x="79">        <pitch>          <step>D</step>          <octave>3</octave>        </pitch>        <duration>4</duration>        <instrument id="P2-I4"/>        <voice>2</voice>        <type>eighth</type>        <stem default-y="-55.5">down</stem>      </note>      <note default-x="117">        <pitch>          <step>D</step>          <octave>3</octave>        </pitch>        <duration>4</duration>        <instrument id="P2-I4"/>        <voice>2</voice>        <type>eighth</type>        <stem default-y="-55.5">down</stem>      </note>      <note default-x="157">        <pitch>          <step>D</step>          <octave>3</octave>        </pitch>        <duration>4</duration>        <instrument id="P2-I4"/>        <voice>2</voice>        <type>eighth</type>        <stem default-y="-55.5">down</stem>      </note>    </measure>    <!--=======================================================-->    <measure number="14" width="213">      <note default-x="29">        <pitch>          <step>A</step>          <octave>3</octave>        </pitch>        <duration>16</duration>        <tie type="start"/>        <instrument id="P2-I3"/>        <voice>1</voice>        <type>half</type>        <stem default-y="25.5">up</stem>        <notations>          <tied orientation="over" type="start"/>        </notations>        <lyric default-y="-85" number="1">          <syllabic>single</syllabic>          <text font-size="9.4">sing,</text>        </lyric>      </note>      <backup>        <duration>16</duration>      </backup>      <note default-x="29">        <pitch>          <step>A</step>          <octave>3</octave>        </pitch>        <duration>12</duration>        <instrument id="P2-I4"/>        <voice>2</voice>        <type>quarter</type>        <dot/>        <stem default-y="-36">down</stem>      </note>      <note default-x="152">        <pitch>          <step>A</step>          <octave>2</octave>        </pitch>        <duration>4</duration>        <instrument id="P2-I4"/>        <voice>2</voice>        <type>eighth</type>        <stem default-y="-70.5">down</stem>        <lyric default-y="-85" number="1">          <syllabic>single</syllabic>          <text font-size="9.4">and</text>        </lyric>      </note>    </measure>    <!--=======================================================-->    <measure number="15" width="335">      <print new-system="yes"/>      <note default-x="107">        <pitch>          <step>A</step>          <octave>3</octave>        </pitch>        <duration>12</duration>        <tie type="stop"/>        <instrument id="P2-I3"/>        <voice>1</voice>        <type>quarter</type>        <dot/>        <stem default-y="-35">down</stem>        <notations>          <tied type="stop"/>        </notations>      </note>      <note default-x="268">        <pitch>          <step>A</step>          <octave>3</octave>        </pitch>        <duration>2</duration>        <instrument id="P2-I3"/>        <voice>1</voice>        <type>16th</type>        <stem default-y="35">up</stem>        <beam number="1">begin</beam>        <beam number="2">begin</beam>      </note>      <note default-x="301">        <pitch>          <step>G</step>          <octave>3</octave>        </pitch>        <duration>2</duration>        <instrument id="P2-I3"/>        <voice>1</voice>        <type>16th</type>        <stem default-y="30">up</stem>        <beam number="1">end</beam>        <beam number="2">end</beam>      </note>      <backup>        <duration>16</duration>      </backup>      <note default-x="107">        <pitch>          <step>A</step>          <octave>2</octave>        </pitch>        <duration>4</duration>        <instrument id="P2-I4"/>        <voice>2</voice>        <type>eighth</type>        <stem default-y="-70.5">down</stem>        <lyric default-y="-85" number="1">          <syllabic>single</syllabic>          <text font-size="9.4">heav'n</text>        </lyric>      </note>      <note default-x="161">        <pitch>          <step>A</step>          <octave>2</octave>        </pitch>        <duration>4</duration>        <instrument id="P2-I4"/>        <voice>2</voice>        <type>eighth</type>        <stem default-y="-70.5">down</stem>        <lyric default-y="-85" number="1">          <syllabic>single</syllabic>          <text font-size="9.4">and</text>        </lyric>      </note>      <note default-x="214">        <pitch>          <step>A</step>          <octave>2</octave>        </pitch>        <duration>4</duration>        <instrument id="P2-I4"/>        <voice>2</voice>        <type>eighth</type>        <stem default-y="-70.5">down</stem>        <lyric default-y="-85" number="1">          <syllabic>begin</syllabic>          <text font-size="9.4">na</text>        </lyric>      </note>      <note default-x="268">        <pitch>          <step>A</step>          <octave>2</octave>        </pitch>        <duration>4</duration>        <instrument id="P2-I4"/>        <voice>2</voice>        <type>eighth</type>        <stem default-y="-70.5">down</stem>        <lyric default-y="-85" number="1">          <syllabic>end</syllabic>          <text font-size="9.4">ture</text>        </lyric>      </note>    </measure>    <!--=======================================================-->    <measure number="16" width="193">      <note default-x="23">        <pitch>          <step>F</step>          <alter>1</alter>          <octave>3</octave>        </pitch>        <duration>4</duration>        <instrument id="P2-I3"/>        <voice>1</voice>        <type>eighth</type>        <stem default-y="23">up</stem>        <notations>          <slur number="1" placement="above" type="start"/>        </notations>      </note>      <note default-x="89">        <pitch>          <step>A</step>          <octave>3</octave>        </pitch>        <duration>8</duration>        <instrument id="P2-I3"/>        <voice>1</voice>        <type>quarter</type>        <stem default-y="-35">down</stem>        <notations>          <slur number="1" type="stop"/>        </notations>      </note>      <direction placement="above">        <direction-type>          <dynamics default-y="17">            <f/>          </dynamics>        </direction-type>        <offset sound="yes">-3</offset>        <sound dynamics="98"/>      </direction>      <note default-x="149">        <pitch>          <step>D</step>          <octave>4</octave>        </pitch>        <duration>4</duration>        <instrument id="P2-I3"/>        <voice>1</voice>        <type>eighth</type>        <stem default-y="-55.5">down</stem>      </note>      <backup>        <duration>16</duration>      </backup>      <note default-x="23">        <pitch>          <step>D</step>          <octave>3</octave>        </pitch>        <duration>12</duration>        <instrument id="P2-I4"/>        <voice>2</voice>        <type>quarter</type>        <dot/>        <stem default-y="-55.5">down</stem>        <lyric default-y="-85" number="1">          <syllabic>single</syllabic>          <text font-size="9.4">sing,</text>        </lyric>      </note>      <note default-x="149">        <pitch>          <step>D</step>          <octave>3</octave>        </pitch>        <duration>4</duration>        <instrument id="P2-I4"/>        <voice>2</voice>        <type>eighth</type>        <stem default-y="-55.5">down</stem>      </note>    </measure>    <!--=======================================================-->    <measure number="17" width="247">      <note default-x="10">        <pitch>          <step>D</step>          <octave>4</octave>        </pitch>        <duration>12</duration>        <instrument id="P2-I3"/>        <voice>1</voice>        <type>quarter</type>        <dot/>        <stem default-y="-20.5">down</stem>      </note>      <note default-x="187">        <pitch>          <step>B</step>          <octave>3</octave>        </pitch>        <duration>4</duration>        <instrument id="P2-I3"/>        <voice>1</voice>        <type>eighth</type>        <stem default-y="-75">down</stem>      </note>      <backup>        <duration>16</duration>      </backup>      <note default-x="10">        <pitch>          <step>D</step>          <octave>3</octave>        </pitch>        <duration>12</duration>        <instrument id="P2-I4"/>        <voice>2</voice>        <type>quarter</type>        <dot/>        <stem default-y="-55.5">down</stem>      </note>      <note default-x="187">        <pitch>          <step>G</step>          <octave>2</octave>        </pitch>        <duration>4</duration>        <instrument id="P2-I4"/>        <voice>2</voice>        <type>eighth</type>        <stem default-y="-75">down</stem>      </note>    </measure>    <!--=======================================================-->    <measure number="18" width="150">      <note default-x="13">        <pitch>          <step>A</step>          <octave>3</octave>        </pitch>        <duration>8</duration>        <instrument id="P2-I3"/>        <voice>1</voice>        <type>quarter</type>        <stem default-y="-35">down</stem>      </note>      <note default-x="74">        <pitch>          <step>A</step>          <octave>3</octave>        </pitch>        <duration>4</duration>        <instrument id="P2-I3"/>        <voice>1</voice>        <type>eighth</type>        <stem default-y="35">up</stem>        <beam number="1">begin</beam>      </note>      <note default-x="111">        <pitch>          <step>G</step>          <octave>3</octave>        </pitch>        <duration>4</duration>        <instrument id="P2-I3"/>        <voice>1</voice>        <type>eighth</type>        <stem default-y="30">up</stem>        <beam number="1">end</beam>      </note>      <backup>        <duration>16</duration>      </backup>      <note default-x="13">        <pitch>          <step>A</step>          <octave>2</octave>        </pitch>        <duration>8</duration>        <instrument id="P2-I4"/>        <voice>2</voice>        <type>quarter</type>        <stem default-y="-60.5">down</stem>      </note>      <note default-x="74">        <pitch>          <step>A</step>          <octave>2</octave>        </pitch>        <duration>8</duration>        <instrument id="P2-I4"/>        <voice>2</voice>        <type>quarter</type>        <stem default-y="-60.5">down</stem>      </note>    </measure>    <!--=======================================================-->    <measure number="19" width="150">      <note default-x="23">        <pitch>          <step>F</step>          <alter>1</alter>          <octave>3</octave>        </pitch>        <duration>16</duration>        <instrument id="P2-I3"/>        <voice>1</voice>        <type>half</type>        <stem default-y="16">up</stem>      </note>      <backup>        <duration>16</duration>      </backup>      <note default-x="23">        <pitch>          <step>D</step>          <octave>3</octave>        </pitch>        <duration>16</duration>        <instrument id="P2-I4"/>        <voice>2</voice>        <type>half</type>        <stem default-y="-55.5">down</stem>      </note>      <barline location="right">        <bar-style>light-heavy</bar-style>      </barline>    </measure>  </part>  <!--=========================================================--></score-partwise>