<?xml version="1.0" encoding="UTF-8"?><!DOCTYPE score-partwise PUBLIC "-//Recordare//DTD MusicXML 2.0 Partwise//EN"                                "http://www.musicxml.org/dtds/partwise.dtd"><score-partwise version="2.0">  <identification>    <encoding>      <software>Finale 2011 for Macintosh</software>      <software>Dolet Light for Finale 2011</software>      <encoding-date>2011-09-30</encoding-date>      <supports attribute="new-system" element="print" type="yes" value="yes"/>      <supports attribute="new-page" element="print" type="yes" value="yes"/>    </encoding>  </identification>  <defaults>    <scaling>      <millimeters>5.9972</millimeters>      <tenths>40</tenths>    </scaling>    <page-layout>      <page-height>1864</page-height>      <page-width>1440</page-width>      <page-margins type="both">        <left-margin>127</left-margin>        <right-margin>85</right-margin>        <top-margin>85</top-margin>        <bottom-margin>85</bottom-margin>      </page-margins>    </page-layout>    <system-layout>      <system-margins>        <left-margin>19</left-margin>        <right-margin>0</right-margin>      </system-margins>      <system-distance>173</system-distance>      <top-system-distance>140</top-system-distance>    </system-layout>    <staff-layout>      <staff-distance>101</staff-distance>    </staff-layout>    <appearance>      <line-width type="stem">1.4583</line-width>      <line-width type="beam">5</line-width>      <line-width type="staff">1.4583</line-width>      <line-width type="light barline">1.4583</line-width>      <line-width type="heavy barline">5</line-width>      <line-width type="leger">1.4583</line-width>      <line-width type="ending">1.4583</line-width>      <line-width type="wedge">1.4583</line-width>      <line-width type="enclosure">1.4583</line-width>      <line-width type="tuplet bracket">1.4583</line-width>      <note-size type="grace">60</note-size>      <note-size type="cue">60</note-size>    </appearance>    <music-font font-family="Maestro" font-size="17"/>    <word-font font-family="Times New Roman" font-size="8.5"/>    <lyric-font font-family="Times New Roman" font-size="8.5" name="verse"/>  </defaults>  <credit page="1">    <credit-words default-x="708" default-y="41" font-size="10" justify="center" valign="bottom">CM Kerstzingcie 2006 "pimp my kerstzingcie"</credit-words>  </credit>  <credit page="1">    <credit-words default-x="746" default-y="1809" font-size="24" font-weight="bold" justify="center" valign="top">13. A Little Child There Is Ybore
Susani</credit-words>  </credit>  <credit page="1">    <credit-words default-x="1355" default-y="1655" font-size="12" font-weight="bold" justify="right" valign="top">German carol tune, sixteenth centure, arr. E.P.</credit-words>  </credit>  <credit page="1">    <credit-words default-x="201" default-y="731" font-size="10" valign="top">3. Jesus is that child's name,
Eia, Eia, susanni, susanni, susanni,
A maid and mother is his dame,
Alleluia, Alleluia,
And so our sorrow is turned to game.

4. It fell upon the high midnight,
Eia, Eia, susanni, susanni, susanni,
The stars they shone both fair and bright,
Alleluia, Alleluia,
The angels sang with all their might.

5. Three kings there came with their presents
Eia, Eia, susanni, susanni, susanni,
Of myrrh and gold and frankincense,
Alleluia, Alleluia,
As clerkes sing in their sequence.

6. Now sit we down upon our knee,
Eia, Eia, susanni, susanni, susanni,
And pray that child that is so free:
Alleluia, Alleluia,
And with good heart~ now sing we.
</credit-words>  </credit>  <credit page="1">    <credit-words default-x="235" default-y="1602" font-size="12" valign="top">Flowing, with a broad swing (one-in-a-bar stress)</credit-words>  </credit>  <credit page="1">    <credit-words default-x="821" default-y="739" font-size="10" valign="top" xml:lang="de">1. Vom Himmel hoch, ihr Englein kommt!
Eia, eia, susani, susani, susani!
Kommt, singt und springt, kommt, pfeift und trombt!
Alleluja, alleluja! Von Jesus singt und Maria!

2. Kommt ohne Instrumente nit,
eia, eia, susani, susani, susani!
Bringt Lauten, Harfen, Geigen mit!
Alleluja, alleluja! Von Jesus singt und Maria!

3. Lasst hören eurer Stimmen viel,
eia, eia, susani, susani, susani!
Mit Orgel- und mit Saitenspiel!
Alleluja, alleluja! Von Jesus singt und Maria!

4. Das Saitenspiel muss lauten süß,
eia, eia, susani, susani, susani!
Davon das Kindlein schlafen müss.
Alleluja, alleluja! Von Jesus singt und Maria!

5. Singt Fried' den Menschen weit und breit,
eia, eia, susani, susani, susani!
Gott Preis und Ehr in Ewigkeit!
Alleluja, alleluja! Von Jesus singt und Maria! </credit-words>  </credit>  <part-list>    <part-group number="1" type="start">      <group-symbol default-x="2">bracket</group-symbol>      <group-barline>no</group-barline>    </part-group>    <score-part id="P1">      <part-name>S A</part-name>      <part-abbreviation>S A</part-abbreviation>      <score-instrument id="P1-I1">        <instrument-name>Choir Aahs</instrument-name>      </score-instrument>      <midi-instrument id="P1-I1">        <midi-channel>1</midi-channel>        <midi-program>1</midi-program>        <volume>80</volume>        <pan>0</pan>      </midi-instrument>    </score-part>    <score-part id="P2">      <part-name>T B</part-name>      <part-abbreviation>T B</part-abbreviation>      <score-instrument id="P2-I1">        <instrument-name>Choir Aahs</instrument-name>      </score-instrument>      <midi-instrument id="P2-I1">        <midi-channel>1</midi-channel>        <midi-program>1</midi-program>        <volume>80</volume>        <pan>0</pan>      </midi-instrument>    </score-part>    <part-group number="1" type="stop"/>  </part-list>  <!--=========================================================-->  <part id="P1">    <measure implicit="yes" number="0" width="160">      <print>        <system-layout>          <system-margins>            <left-margin>9</left-margin>            <right-margin>12</right-margin>          </system-margins>          <top-system-distance>226</top-system-distance>        </system-layout>        <measure-numbering>system</measure-numbering>      </print>      <attributes>        <divisions>8</divisions>        <key>          <fifths>-1</fifths>          <mode>major</mode>        </key>        <time>          <beats>3</beats>          <beat-type>4</beat-type>        </time>        <clef>          <sign>G</sign>          <line>2</line>        </clef>      </attributes>      <sound tempo="150"/>      <direction placement="below">        <direction-type>          <dynamics default-y="-90" relative-x="-36">            <f/>          </dynamics>        </direction-type>        <sound dynamics="98"/>      </direction>      <note default-x="116">        <pitch>          <step>A</step>          <octave>4</octave>        </pitch>        <duration>8</duration>        <voice>1</voice>        <type>quarter</type>        <stem default-y="11">up</stem>        <lyric default-y="-80" number="1">          <syllabic>single</syllabic>          <text>1.A</text>        </lyric>        <lyric default-y="-97" number="2">          <syllabic>single</syllabic>          <text>2.Je</text>        </lyric>      </note>    </measure>    <!--=======================================================-->    <measure number="1" width="138">      <note default-x="17">        <pitch>          <step>A</step>          <octave>4</octave>        </pitch>        <duration>8</duration>        <voice>1</voice>        <type>quarter</type>        <stem default-y="11">up</stem>        <notations>          <slur line-type="dashed" number="1" placement="below" type="start"/>          <slur number="2" placement="below" type="start"/>        </notations>        <lyric default-y="-80" justify="left" number="1">          <syllabic>begin</syllabic>          <text>lit</text>        </lyric>        <lyric default-y="-97" justify="left" number="2">          <syllabic>single</syllabic>          <text>sus</text>          <extend/>        </lyric>      </note>      <note default-x="57">        <pitch>          <step>G</step>          <octave>4</octave>        </pitch>        <duration>8</duration>        <voice>1</voice>        <type>quarter</type>        <stem default-y="6">up</stem>        <notations>          <slur number="1" type="stop"/>          <slur number="2" type="stop"/>        </notations>      </note>      <note default-x="96">        <pitch>          <step>F</step>          <octave>4</octave>        </pitch>        <duration>8</duration>        <voice>1</voice>        <type>quarter</type>        <stem default-y="1">up</stem>        <lyric default-y="-80" number="1">          <syllabic>end</syllabic>          <text>tle</text>        </lyric>        <lyric default-y="-97" number="2">          <syllabic>single</syllabic>          <text>that</text>        </lyric>      </note>    </measure>    <!--=======================================================-->    <measure number="2" width="148">      <note default-x="24">        <pitch>          <step>C</step>          <octave>5</octave>        </pitch>        <duration>16</duration>        <voice>1</voice>        <type>half</type>        <stem default-y="-50.5">down</stem>        <lyric default-y="-80" number="1">          <syllabic>single</syllabic>          <text>child</text>        </lyric>        <lyric default-y="-97" number="2">          <syllabic>single</syllabic>          <text>is</text>        </lyric>      </note>      <note default-x="96">        <pitch>          <step>A</step>          <octave>4</octave>        </pitch>        <duration>8</duration>        <voice>1</voice>        <type>quarter</type>        <stem default-y="11">up</stem>        <lyric default-y="-80" number="1">          <syllabic>single</syllabic>          <text>there</text>        </lyric>        <lyric default-y="-97" number="2">          <syllabic>single</syllabic>          <text>so</text>        </lyric>      </note>    </measure>    <!--=======================================================-->    <measure number="3" width="135">      <note default-x="11">        <pitch>          <step>F</step>          <octave>4</octave>        </pitch>        <duration>8</duration>        <voice>1</voice>        <type>quarter</type>        <stem default-y="1">up</stem>        <notations>          <slur line-type="dashed" number="1" placement="below" type="start"/>          <slur number="2" placement="below" type="start"/>        </notations>        <lyric default-y="-80" justify="left" number="1">          <syllabic>single</syllabic>          <text>is</text>          <extend/>        </lyric>        <lyric default-y="-97" justify="left" number="2">          <syllabic>single</syllabic>          <text>full</text>          <extend/>        </lyric>      </note>      <note default-x="52">        <pitch>          <step>G</step>          <octave>4</octave>        </pitch>        <duration>8</duration>        <voice>1</voice>        <type>quarter</type>        <stem default-y="6">up</stem>        <notations>          <slur number="1" type="stop"/>          <slur number="2" type="stop"/>        </notations>      </note>      <note default-x="92">        <pitch>          <step>A</step>          <octave>4</octave>        </pitch>        <duration>8</duration>        <voice>1</voice>        <type>quarter</type>        <stem default-y="11">up</stem>        <lyric default-y="-80" number="1">          <syllabic>begin</syllabic>          <text>y</text>        </lyric>        <lyric default-y="-97" number="2">          <syllabic>single</syllabic>          <text>of</text>        </lyric>      </note>    </measure>    <!--=======================================================-->    <measure number="4" width="98">      <note default-x="11">        <pitch>          <step>F</step>          <octave>4</octave>        </pitch>        <duration>24</duration>        <voice>1</voice>        <type>half</type>        <dot/>        <stem default-y="1">up</stem>        <lyric default-y="-80" number="1">          <syllabic>end</syllabic>          <text>bore,</text>        </lyric>        <lyric default-y="-97" number="2">          <syllabic>single</syllabic>          <text>might,</text>        </lyric>      </note>      <direction placement="below">        <direction-type>          <dynamics default-y="-89" relative-x="-18">            <mp/>          </dynamics>        </direction-type>        <offset sound="yes">-5</offset>        <sound dynamics="69"/>      </direction>    </measure>    <!--=======================================================-->    <measure number="5" width="100">      <note default-x="13">        <pitch>          <step>C</step>          <octave>4</octave>        </pitch>        <duration>24</duration>        <voice>1</voice>        <type>half</type>        <dot/>        <stem default-y="11">up</stem>        <lyric default-y="-80" number="1">          <syllabic>begin</syllabic>          <text>E</text>        </lyric>        <lyric default-y="-97" number="2">          <syllabic>begin</syllabic>          <text>E</text>        </lyric>      </note>      <note default-x="13">        <chord/>        <pitch>          <step>C</step>          <octave>5</octave>        </pitch>        <duration>24</duration>        <voice>1</voice>        <type>half</type>        <dot/>        <stem>up</stem>      </note>    </measure>    <!--=======================================================-->    <measure number="6" width="98">      <note default-x="11">        <pitch>          <step>D</step>          <octave>4</octave>        </pitch>        <duration>24</duration>        <voice>1</voice>        <type>half</type>        <dot/>        <stem default-y="11">up</stem>        <lyric default-y="-80" number="1">          <syllabic>end</syllabic>          <text>ia,</text>        </lyric>        <lyric default-y="-97" number="2">          <syllabic>end</syllabic>          <text>ia,</text>        </lyric>      </note>      <note default-x="11">        <chord/>        <pitch>          <step>A</step>          <octave>4</octave>        </pitch>        <duration>24</duration>        <voice>1</voice>        <type>half</type>        <dot/>        <stem>up</stem>      </note>      <direction placement="below">        <direction-type>          <dynamics default-y="-85" relative-x="-18">            <pp/>          </dynamics>        </direction-type>        <offset sound="yes">-6</offset>        <sound dynamics="40"/>      </direction>    </measure>    <!--=======================================================-->    <measure number="7" width="100">      <note default-x="14">        <pitch>          <step>C</step>          <octave>4</octave>        </pitch>        <duration>24</duration>        <voice>1</voice>        <type>half</type>        <dot/>        <stem default-y="11">up</stem>        <lyric default-y="-80" number="1">          <syllabic>begin</syllabic>          <text>E</text>        </lyric>        <lyric default-y="-97" number="2">          <syllabic>begin</syllabic>          <text>E</text>        </lyric>      </note>      <note default-x="14">        <chord/>        <pitch>          <step>C</step>          <octave>5</octave>        </pitch>        <duration>24</duration>        <voice>1</voice>        <type>half</type>        <dot/>        <stem>up</stem>      </note>    </measure>    <!--=======================================================-->    <measure number="8" width="98">      <note default-x="11">        <pitch>          <step>D</step>          <octave>4</octave>        </pitch>        <duration>24</duration>        <voice>1</voice>        <type>half</type>        <dot/>        <stem default-y="11">up</stem>        <lyric default-y="-80" number="1">          <syllabic>end</syllabic>          <text>ia,</text>        </lyric>        <lyric default-y="-97" number="2">          <syllabic>end</syllabic>          <text>ia,</text>        </lyric>      </note>      <note default-x="11">        <chord/>        <pitch>          <step>A</step>          <octave>4</octave>        </pitch>        <duration>24</duration>        <voice>1</voice>        <type>half</type>        <dot/>        <stem>up</stem>      </note>    </measure>    <!--=======================================================-->    <measure number="9" width="133">      <note default-x="13">        <pitch>          <step>F</step>          <octave>4</octave>        </pitch>        <duration>8</duration>        <voice>1</voice>        <type>quarter</type>        <stem default-y="1">up</stem>        <lyric default-y="-80" number="1">          <syllabic>begin</syllabic>          <text>su</text>        </lyric>        <lyric default-y="-97" number="2">          <syllabic>begin</syllabic>          <text>su</text>        </lyric>      </note>      <note default-x="53">        <pitch>          <step>G</step>          <octave>4</octave>        </pitch>        <duration>8</duration>        <voice>1</voice>        <type>quarter</type>        <stem default-y="6">up</stem>        <lyric default-y="-80" number="1">          <syllabic>middle</syllabic>          <text>san</text>        </lyric>        <lyric default-y="-97" number="2">          <syllabic>middle</syllabic>          <text>san</text>        </lyric>      </note>      <note default-x="92">        <pitch>          <step>A</step>          <octave>4</octave>        </pitch>        <duration>8</duration>        <voice>1</voice>        <type>quarter</type>        <stem default-y="11">up</stem>        <lyric default-y="-80" number="1">          <syllabic>end</syllabic>          <text>ni,</text>        </lyric>        <lyric default-y="-97" number="2">          <syllabic>end</syllabic>          <text>ni,</text>        </lyric>      </note>    </measure>    <!--=======================================================-->    <measure number="10" width="193">      <print new-system="yes">        <system-layout>          <system-margins>            <left-margin>10</left-margin>            <right-margin>19</right-margin>          </system-margins>          <system-distance>116</system-distance>        </system-layout>      </print>      <note default-x="78">        <pitch>          <step>F</step>          <octave>4</octave>        </pitch>        <duration>8</duration>        <voice>1</voice>        <type>quarter</type>        <stem default-y="11">up</stem>        <lyric default-y="-80" number="1">          <syllabic>begin</syllabic>          <text>su</text>        </lyric>        <lyric default-y="-97" number="2">          <syllabic>begin</syllabic>          <text>su</text>        </lyric>      </note>      <note default-x="78">        <chord/>        <pitch>          <step>C</step>          <octave>5</octave>        </pitch>        <duration>8</duration>        <voice>1</voice>        <type>quarter</type>        <stem>up</stem>      </note>      <note default-x="116">        <pitch>          <step>G</step>          <octave>4</octave>        </pitch>        <duration>8</duration>        <voice>1</voice>        <type>quarter</type>        <stem default-y="16">up</stem>        <lyric default-y="-80" number="1">          <syllabic>middle</syllabic>          <text>san</text>        </lyric>        <lyric default-y="-97" number="2">          <syllabic>middle</syllabic>          <text>san</text>        </lyric>      </note>      <note default-x="116">        <chord/>        <pitch>          <step>B</step>          <alter>-1</alter>          <octave>4</octave>        </pitch>        <duration>8</duration>        <voice>1</voice>        <type>quarter</type>        <stem>up</stem>      </note>      <note default-x="154">        <pitch>          <step>F</step>          <octave>4</octave>        </pitch>        <duration>8</duration>        <voice>1</voice>        <type>quarter</type>        <stem default-y="11">up</stem>        <lyric default-y="-80" number="1">          <syllabic>end</syllabic>          <text>ni,</text>        </lyric>        <lyric default-y="-97" number="2">          <syllabic>end</syllabic>          <text>ni,</text>        </lyric>      </note>      <note default-x="154">        <chord/>        <pitch>          <step>A</step>          <octave>4</octave>        </pitch>        <duration>8</duration>        <voice>1</voice>        <type>quarter</type>        <stem>up</stem>      </note>    </measure>    <!--=======================================================-->    <measure number="11" width="113">      <note default-x="13">        <pitch>          <step>D</step>          <octave>4</octave>        </pitch>        <duration>16</duration>        <voice>1</voice>        <type>half</type>        <stem default-y="1">up</stem>        <lyric default-y="-80" number="1">          <syllabic>begin</syllabic>          <text>su</text>        </lyric>        <lyric default-y="-97" number="2">          <syllabic>begin</syllabic>          <text>su</text>        </lyric>      </note>      <note default-x="13">        <chord/>        <pitch>          <step>F</step>          <octave>4</octave>        </pitch>        <duration>16</duration>        <voice>1</voice>        <type>half</type>        <stem>up</stem>      </note>      <note default-x="74">        <pitch>          <step>C</step>          <octave>4</octave>        </pitch>        <duration>8</duration>        <voice>1</voice>        <type>quarter</type>        <stem default-y="-4">up</stem>        <lyric default-y="-80" number="1">          <syllabic>middle</syllabic>          <text>san</text>        </lyric>        <lyric default-y="-97" number="2">          <syllabic>middle</syllabic>          <text>san</text>        </lyric>      </note>      <note default-x="74">        <chord/>        <pitch>          <step>E</step>          <octave>4</octave>        </pitch>        <duration>8</duration>        <voice>1</voice>        <type>quarter</type>        <stem>up</stem>      </note>    </measure>    <!--=======================================================-->    <measure number="12" width="115">      <note default-x="14">        <pitch>          <step>C</step>          <octave>4</octave>        </pitch>        <duration>16</duration>        <voice>1</voice>        <type>half</type>        <stem default-y="1">up</stem>        <lyric default-y="-80" number="1">          <syllabic>end</syllabic>          <text>ni.</text>        </lyric>        <lyric default-y="-97" number="2">          <syllabic>end</syllabic>          <text>ni.</text>        </lyric>      </note>      <note default-x="14">        <chord/>        <pitch>          <step>F</step>          <octave>4</octave>        </pitch>        <duration>16</duration>        <voice>1</voice>        <type>half</type>        <stem>up</stem>      </note>      <note default-x="76">        <pitch>          <step>C</step>          <octave>5</octave>        </pitch>        <duration>8</duration>        <voice>1</voice>        <type>quarter</type>        <stem default-y="-50">down</stem>        <lyric default-y="-80" number="1">          <syllabic>begin</syllabic>          <text>Y</text>        </lyric>        <lyric default-y="-97" number="2">          <syllabic>begin</syllabic>          <text>Y</text>        </lyric>      </note>    </measure>    <!--=======================================================-->    <measure number="13" width="133">      <note default-x="31">        <pitch>          <step>C</step>          <octave>5</octave>        </pitch>        <duration>16</duration>        <voice>1</voice>        <type>half</type>        <stem default-y="-50">down</stem>        <lyric default-y="-80" number="1">          <syllabic>middle</syllabic>          <text>sprung</text>        </lyric>        <lyric default-y="-97" number="2">          <syllabic>end</syllabic>          <text>bore</text>        </lyric>      </note>      <note default-x="94">        <pitch>          <step>B</step>          <alter>-1</alter>          <octave>4</octave>        </pitch>        <duration>8</duration>        <voice>1</voice>        <type>quarter</type>        <stem default-y="-55.5">down</stem>        <lyric default-y="-80" number="1">          <syllabic>end</syllabic>          <text>en</text>        </lyric>        <lyric default-y="-97" number="2">          <syllabic>single</syllabic>          <text>he</text>        </lyric>      </note>    </measure>    <!--=======================================================-->    <measure number="14" width="121">      <note default-x="19">        <pitch>          <step>A</step>          <octave>4</octave>        </pitch>        <duration>16</duration>        <voice>1</voice>        <type>half</type>        <stem default-y="11">up</stem>        <lyric default-y="-80" number="1">          <syllabic>single</syllabic>          <text>out</text>        </lyric>        <lyric default-y="-97" number="2">          <syllabic>single</syllabic>          <text>was</text>        </lyric>      </note>      <note default-x="81">        <pitch>          <step>F</step>          <octave>4</octave>        </pitch>        <duration>8</duration>        <voice>1</voice>        <type>quarter</type>        <stem default-y="16">up</stem>        <lyric default-y="-80" number="1">          <syllabic>single</syllabic>          <text>of</text>        </lyric>        <lyric default-y="-97" number="2">          <syllabic>begin</syllabic>          <text>a</text>        </lyric>      </note>      <note default-x="81">        <chord/>        <pitch>          <step>D</step>          <octave>5</octave>        </pitch>        <duration>8</duration>        <voice>1</voice>        <type>quarter</type>        <stem>up</stem>      </note>    </measure>    <!--=======================================================-->    <measure number="15" width="149">      <note default-x="22">        <pitch>          <step>C</step>          <octave>5</octave>        </pitch>        <duration>8</duration>        <voice>1</voice>        <type>quarter</type>        <stem default-y="11">up</stem>        <notations>          <slur line-type="dashed" number="1" placement="above" type="start"/>          <slur number="2" placement="above" type="start"/>        </notations>        <lyric default-y="-80" justify="left" number="1">          <syllabic>begin</syllabic>          <text>Jes</text>        </lyric>        <lyric default-y="-97" justify="left" number="2">          <syllabic>end</syllabic>          <text>bout</text>          <extend/>        </lyric>      </note>      <note default-x="67">        <pitch>          <step>B</step>          <alter>-1</alter>          <octave>4</octave>        </pitch>        <duration>8</duration>        <voice>1</voice>        <type>quarter</type>        <stem default-y="16">up</stem>        <notations>          <slur number="1" type="stop"/>          <slur number="2" type="stop"/>        </notations>      </note>      <note default-x="107">        <pitch>          <step>A</step>          <octave>4</octave>        </pitch>        <duration>8</duration>        <voice>1</voice>        <type>quarter</type>        <stem default-y="11">up</stem>        <lyric default-y="-80" number="1">          <syllabic>end</syllabic>          <text>se's</text>        </lyric>        <lyric default-y="-97" number="2">          <syllabic>begin</syllabic>          <text>mid</text>        </lyric>      </note>      <backup>        <duration>24</duration>      </backup>      <note default-x="22">        <pitch>          <step>G</step>          <octave>4</octave>        </pitch>        <duration>16</duration>        <voice>2</voice>        <type>half</type>        <stem default-y="-55.5">down</stem>      </note>      <note default-x="107">        <pitch>          <step>F</step>          <alter>1</alter>          <octave>4</octave>        </pitch>        <duration>8</duration>        <voice>2</voice>        <type>quarter</type>        <accidental>sharp</accidental>        <stem default-y="-60">down</stem>      </note>    </measure>    <!--=======================================================-->    <measure number="16" width="129">      <note default-x="27">        <pitch>          <step>G</step>          <octave>4</octave>        </pitch>        <duration>16</duration>        <voice>1</voice>        <type>half</type>        <stem default-y="6">up</stem>        <lyric default-y="-80" number="1">          <syllabic>single</syllabic>          <text>more,</text>        </lyric>        <lyric default-y="-97" number="2">          <syllabic>end</syllabic>          <text>night;</text>        </lyric>      </note>      <note default-x="89">        <pitch>          <step>E</step>          <octave>4</octave>        </pitch>        <duration>8</duration>        <voice>1</voice>        <type>quarter</type>        <stem default-y="11">up</stem>        <lyric default-y="-80" number="1">          <syllabic>begin</syllabic>          <text>Al</text>        </lyric>        <lyric default-y="-97" number="2">          <syllabic>begin</syllabic>          <text>Al</text>        </lyric>      </note>      <note default-x="89">        <chord/>        <pitch>          <step>C</step>          <octave>5</octave>        </pitch>        <duration>8</duration>        <voice>1</voice>        <type>quarter</type>        <stem>up</stem>      </note>    </measure>    <!--=======================================================-->    <measure number="17" width="129">      <note default-x="14">        <pitch>          <step>G</step>          <octave>4</octave>        </pitch>        <duration>8</duration>        <voice>1</voice>        <type>quarter</type>        <stem default-y="6">up</stem>        <notations>          <slur number="1" placement="above" type="start"/>        </notations>        <lyric default-y="-80" number="1">          <syllabic>middle</syllabic>          <text>le</text>        </lyric>        <lyric default-y="-97" number="2">          <syllabic>middle</syllabic>          <text>le</text>        </lyric>      </note>      <note default-x="52">        <pitch>          <step>A</step>          <octave>4</octave>        </pitch>        <duration>8</duration>        <voice>1</voice>        <type>quarter</type>        <stem default-y="11">up</stem>        <notations>          <slur number="1" type="stop"/>        </notations>      </note>      <note default-x="89">        <pitch>          <step>B</step>          <alter>-1</alter>          <octave>4</octave>        </pitch>        <duration>8</duration>        <voice>1</voice>        <type>quarter</type>        <stem default-y="16">up</stem>        <lyric default-y="-80" number="1">          <syllabic>middle</syllabic>          <text>lu</text>        </lyric>        <lyric default-y="-97" number="2">          <syllabic>middle</syllabic>          <text>lu</text>        </lyric>      </note>      <backup>        <duration>24</duration>      </backup>      <note default-x="14">        <pitch>          <step>E</step>          <octave>4</octave>        </pitch>        <duration>16</duration>        <voice>2</voice>        <type>half</type>        <stem default-y="-65.5">down</stem>      </note>      <note default-x="89">        <pitch>          <step>F</step>          <octave>4</octave>        </pitch>        <duration>8</duration>        <voice>2</voice>        <type>quarter</type>        <stem default-y="-60">down</stem>      </note>    </measure>    <!--=======================================================-->    <measure number="18" width="117">      <note default-x="16">        <pitch>          <step>F</step>          <octave>4</octave>        </pitch>        <duration>16</duration>        <voice>1</voice>        <type>half</type>        <stem default-y="11">up</stem>        <lyric default-y="-80" number="1">          <syllabic>end</syllabic>          <text>ya,</text>        </lyric>        <lyric default-y="-97" number="2">          <syllabic>end</syllabic>          <text>ya,</text>        </lyric>      </note>      <note default-x="16">        <chord/>        <pitch>          <step>C</step>          <octave>5</octave>        </pitch>        <duration>16</duration>        <voice>1</voice>        <type>half</type>        <stem>up</stem>      </note>      <note default-x="77">        <pitch>          <step>D</step>          <octave>4</octave>        </pitch>        <duration>8</duration>        <voice>1</voice>        <type>quarter</type>        <stem default-y="1">up</stem>        <lyric default-y="-80" number="1">          <syllabic>begin</syllabic>          <text>Al</text>        </lyric>        <lyric default-y="-97" number="2">          <syllabic>begin</syllabic>          <text>Al</text>        </lyric>      </note>      <note default-x="77">        <chord/>        <pitch>          <step>F</step>          <octave>4</octave>        </pitch>        <duration>8</duration>        <voice>1</voice>        <type>quarter</type>        <stem>up</stem>      </note>    </measure>    <!--=======================================================-->    <measure number="19" width="253">      <print new-system="yes">        <system-layout>          <system-margins>            <left-margin>8</left-margin>            <right-margin>11</right-margin>          </system-margins>          <system-distance>109</system-distance>        </system-layout>      </print>      <note default-x="79">        <pitch>          <step>C</step>          <octave>4</octave>        </pitch>        <duration>16</duration>        <voice>1</voice>        <type>half</type>        <stem default-y="1">up</stem>        <lyric default-y="-80" number="1">          <syllabic>middle</syllabic>          <text>le</text>        </lyric>        <lyric default-y="-97" number="2">          <syllabic>middle</syllabic>          <text>le</text>        </lyric>      </note>      <note default-x="79">        <chord/>        <pitch>          <step>F</step>          <octave>4</octave>        </pitch>        <duration>16</duration>        <voice>1</voice>        <type>half</type>        <stem>up</stem>      </note>      <note default-x="194">        <pitch>          <step>C</step>          <octave>4</octave>        </pitch>        <duration>8</duration>        <voice>1</voice>        <type>quarter</type>        <stem default-y="-4">up</stem>        <lyric default-y="-80" number="1">          <syllabic>middle</syllabic>          <text>lu</text>        </lyric>        <lyric default-y="-97" number="2">          <syllabic>middle</syllabic>          <text>lu</text>        </lyric>      </note>      <note default-x="194">        <chord/>        <pitch>          <step>E</step>          <octave>4</octave>        </pitch>        <duration>8</duration>        <voice>1</voice>        <type>quarter</type>        <stem>up</stem>      </note>    </measure>    <!--=======================================================-->    <measure number="20" width="180">      <note default-x="15">        <pitch>          <step>C</step>          <octave>4</octave>        </pitch>        <duration>16</duration>        <voice>1</voice>        <type>half</type>        <stem default-y="1">up</stem>        <lyric default-y="-80" number="1">          <syllabic>end</syllabic>          <text>ya.</text>        </lyric>        <lyric default-y="-97" number="2">          <syllabic>end</syllabic>          <text>ya.</text>        </lyric>      </note>      <note default-x="15">        <chord/>        <pitch>          <step>F</step>          <octave>4</octave>        </pitch>        <duration>16</duration>        <voice>1</voice>        <type>half</type>        <stem>up</stem>      </note>      <note default-x="116">        <pitch>          <step>F</step>          <octave>4</octave>        </pitch>        <duration>8</duration>        <voice>1</voice>        <type>quarter</type>        <stem default-y="16">up</stem>        <lyric default-y="-80" number="1">          <syllabic>single</syllabic>          <text>To</text>        </lyric>        <lyric default-y="-97" number="2">          <syllabic>single</syllabic>          <text>The</text>        </lyric>      </note>      <note default-x="116">        <chord/>        <pitch>          <step>B</step>          <alter>-1</alter>          <octave>4</octave>        </pitch>        <duration>8</duration>        <voice>1</voice>        <type>quarter</type>        <stem>up</stem>      </note>    </measure>    <!--=======================================================-->    <measure number="21" width="215">      <note default-x="13">        <pitch>          <step>B</step>          <alter>-1</alter>          <octave>4</octave>        </pitch>        <duration>8</duration>        <voice>1</voice>        <type>quarter</type>        <stem default-y="16">up</stem>        <notations>          <slur line-type="dashed" number="1" placement="above" type="start"/>          <slur number="2" placement="above" type="start"/>        </notations>        <lyric default-y="-80" justify="left" number="1">          <syllabic>single</syllabic>          <text>save</text>          <extend/>        </lyric>        <lyric default-y="-97" justify="left" number="2">          <syllabic>begin</syllabic>          <text>an</text>        </lyric>      </note>      <note default-x="80">        <pitch>          <step>A</step>          <octave>4</octave>        </pitch>        <duration>8</duration>        <voice>1</voice>        <type>quarter</type>        <stem default-y="11">up</stem>        <notations>          <slur number="1" type="stop"/>          <slur number="2" type="stop"/>        </notations>      </note>      <note default-x="147">        <pitch>          <step>G</step>          <octave>4</octave>        </pitch>        <duration>8</duration>        <voice>1</voice>        <type>quarter</type>        <stem default-y="6">up</stem>        <lyric default-y="-80" number="1">          <syllabic>single</syllabic>          <text>us</text>        </lyric>        <lyric default-y="-97" number="2">          <syllabic>end</syllabic>          <text>gels</text>        </lyric>      </note>      <backup>        <duration>24</duration>      </backup>      <note default-x="13">        <pitch>          <step>F</step>          <octave>4</octave>        </pitch>        <duration>16</duration>        <voice>2</voice>        <type>half</type>        <stem default-y="-60.5">down</stem>      </note>      <note default-x="147">        <pitch>          <step>E</step>          <octave>4</octave>        </pitch>        <duration>8</duration>        <voice>2</voice>        <type>quarter</type>        <stem default-y="-66">down</stem>      </note>    </measure>    <!--=======================================================-->    <measure number="22" width="224">      <note default-x="14">        <pitch>          <step>A</step>          <octave>4</octave>        </pitch>        <duration>8</duration>        <voice>1</voice>        <type>quarter</type>        <stem default-y="11">up</stem>        <notations>          <slur line-type="dashed" number="1" placement="above" type="start"/>          <slur number="2" placement="above" type="start"/>        </notations>        <lyric default-y="-80" justify="left" number="1">          <syllabic>single</syllabic>          <text>all</text>          <extend/>        </lyric>        <lyric default-y="-97" justify="left" number="2">          <syllabic>single</syllabic>          <text>sung</text>          <extend/>        </lyric>      </note>      <note default-x="83">        <pitch>          <step>B</step>          <alter>-1</alter>          <octave>4</octave>        </pitch>        <duration>8</duration>        <voice>1</voice>        <type>quarter</type>        <stem default-y="16">up</stem>        <notations>          <slur number="1" type="stop"/>          <slur number="2" type="stop"/>        </notations>      </note>      <note default-x="153">        <pitch>          <step>C</step>          <octave>5</octave>        </pitch>        <duration>8</duration>        <voice>1</voice>        <type>quarter</type>        <stem default-y="11">up</stem>        <lyric default-y="-80" number="1">          <syllabic>single</syllabic>          <text>that</text>        </lyric>        <lyric default-y="-97" number="2">          <syllabic>single</syllabic>          <text>with</text>        </lyric>      </note>      <backup>        <duration>24</duration>      </backup>      <note default-x="14">        <pitch>          <step>F</step>          <octave>4</octave>        </pitch>        <duration>16</duration>        <voice>2</voice>        <type>half</type>        <stem default-y="-60.5">down</stem>      </note>      <note default-x="153">        <pitch>          <step>F</step>          <octave>4</octave>        </pitch>        <duration>8</duration>        <voice>2</voice>        <type>quarter</type>        <stem default-y="-60.5">down</stem>      </note>    </measure>    <!--=======================================================-->    <measure number="23" width="200">      <note default-x="23">        <pitch>          <step>A</step>          <octave>4</octave>        </pitch>        <duration>16</duration>        <voice>1</voice>        <type>half</type>        <stem default-y="11">up</stem>        <lyric default-y="-80" number="1">          <syllabic>single</syllabic>          <text>were</text>        </lyric>        <lyric default-y="-97" number="2">          <syllabic>single</syllabic>          <text>all</text>        </lyric>      </note>      <note default-x="131">        <pitch>          <step>G</step>          <octave>4</octave>        </pitch>        <duration>8</duration>        <voice>1</voice>        <type>quarter</type>        <stem default-y="6">up</stem>        <lyric default-y="-80" number="1">          <syllabic>begin</syllabic>          <text>fore</text>        </lyric>        <lyric default-y="-97" number="2">          <syllabic>single</syllabic>          <text>their</text>        </lyric>      </note>      <backup>        <duration>24</duration>      </backup>      <note default-x="23">        <pitch>          <step>F</step>          <octave>4</octave>        </pitch>        <duration>16</duration>        <voice>2</voice>        <type>half</type>        <stem default-y="-60.5">down</stem>      </note>      <note default-x="131">        <pitch>          <step>E</step>          <octave>4</octave>        </pitch>        <duration>8</duration>        <voice>2</voice>        <type>quarter</type>        <stem default-y="-66">down</stem>      </note>    </measure>    <!--=======================================================-->    <measure number="24" width="138">      <note default-x="30">        <pitch>          <step>F</step>          <octave>4</octave>        </pitch>        <duration>16</duration>        <voice>1</voice>        <type>half</type>        <stem default-y="1">up</stem>        <lyric default-y="-80" number="1">          <syllabic>end</syllabic>          <text>lore.</text>        </lyric>        <lyric default-y="-97" number="2">          <syllabic>single</syllabic>          <text>might.</text>        </lyric>      </note>      <barline location="right">        <bar-style>light-heavy</bar-style>      </barline>    </measure>  </part>  <!--=========================================================-->  <part id="P2">    <measure implicit="yes" number="0" width="160">      <print>        <measure-numbering>none</measure-numbering>      </print>      <attributes>        <divisions>8</divisions>        <key>          <fifths>-1</fifths>          <mode>major</mode>        </key>        <time>          <beats>3</beats>          <beat-type>4</beat-type>        </time>        <clef>          <sign>F</sign>          <line>4</line>        </clef>      </attributes>      <sound tempo="150"/>      <note default-x="116">        <pitch>          <step>A</step>          <octave>3</octave>        </pitch>        <duration>8</duration>        <voice>1</voice>        <type>quarter</type>        <stem default-y="-36">down</stem>      </note>    </measure>    <!--=======================================================-->    <measure number="1" width="138">      <note default-x="17">        <pitch>          <step>A</step>          <octave>3</octave>        </pitch>        <duration>8</duration>        <voice>1</voice>        <type>quarter</type>        <stem default-y="-36">down</stem>        <notations>          <slur line-type="dashed" number="1" placement="above" type="start"/>          <slur number="2" placement="above" type="start"/>        </notations>      </note>      <note default-x="57">        <pitch>          <step>G</step>          <octave>3</octave>        </pitch>        <duration>8</duration>        <voice>1</voice>        <type>quarter</type>        <stem default-y="-40.5">down</stem>        <notations>          <slur number="1" type="stop"/>          <slur number="2" type="stop"/>        </notations>      </note>      <note default-x="96">        <pitch>          <step>F</step>          <octave>3</octave>        </pitch>        <duration>8</duration>        <voice>1</voice>        <type>quarter</type>        <stem default-y="-46">down</stem>      </note>    </measure>    <!--=======================================================-->    <measure number="2" width="148">      <note default-x="24">        <pitch>          <step>C</step>          <octave>4</octave>        </pitch>        <duration>16</duration>        <voice>1</voice>        <type>half</type>        <stem default-y="-26">down</stem>      </note>      <note default-x="96">        <pitch>          <step>A</step>          <octave>3</octave>        </pitch>        <duration>8</duration>        <voice>1</voice>        <type>quarter</type>        <stem default-y="-36">down</stem>      </note>    </measure>    <!--=======================================================-->    <measure number="3" width="135">      <note default-x="11">        <pitch>          <step>F</step>          <octave>3</octave>        </pitch>        <duration>8</duration>        <voice>1</voice>        <type>quarter</type>        <stem default-y="-46">down</stem>        <notations>          <slur line-type="dashed" number="1" placement="above" type="start"/>          <slur number="2" placement="above" type="start"/>        </notations>      </note>      <note default-x="52">        <pitch>          <step>G</step>          <octave>3</octave>        </pitch>        <duration>8</duration>        <voice>1</voice>        <type>quarter</type>        <stem default-y="-40.5">down</stem>        <notations>          <slur number="1" type="stop"/>          <slur number="2" type="stop"/>        </notations>      </note>      <note default-x="92">        <pitch>          <step>A</step>          <octave>3</octave>        </pitch>        <duration>8</duration>        <voice>1</voice>        <type>quarter</type>        <stem default-y="-36">down</stem>      </note>    </measure>    <!--=======================================================-->    <measure number="4" width="98">      <note default-x="11">        <pitch>          <step>F</step>          <octave>3</octave>        </pitch>        <duration>24</duration>        <voice>1</voice>        <type>half</type>        <dot/>        <stem default-y="-46">down</stem>      </note>    </measure>    <!--=======================================================-->    <measure number="5" width="100">      <note default-x="13">        <pitch>          <step>A</step>          <octave>2</octave>        </pitch>        <duration>24</duration>        <voice>1</voice>        <type>half</type>        <dot/>        <stem default-y="11">up</stem>      </note>      <note default-x="13">        <chord/>        <pitch>          <step>E</step>          <octave>3</octave>        </pitch>        <duration>24</duration>        <voice>1</voice>        <type>half</type>        <dot/>        <stem>up</stem>      </note>    </measure>    <!--=======================================================-->    <measure number="6" width="98">      <note default-x="11">        <pitch>          <step>D</step>          <octave>3</octave>        </pitch>        <duration>24</duration>        <voice>1</voice>        <type>half</type>        <dot/>        <stem default-y="-56">down</stem>      </note>      <note default-x="11">        <chord/>        <pitch>          <step>F</step>          <octave>3</octave>        </pitch>        <duration>24</duration>        <voice>1</voice>        <type>half</type>        <dot/>        <stem>down</stem>      </note>    </measure>    <!--=======================================================-->    <measure number="7" width="100">      <note default-x="14">        <pitch>          <step>A</step>          <octave>2</octave>        </pitch>        <duration>24</duration>        <voice>1</voice>        <type>half</type>        <dot/>        <stem default-y="11">up</stem>      </note>      <note default-x="14">        <chord/>        <pitch>          <step>E</step>          <octave>3</octave>        </pitch>        <duration>24</duration>        <voice>1</voice>        <type>half</type>        <dot/>        <stem>up</stem>      </note>    </measure>    <!--=======================================================-->    <measure number="8" width="98">      <note default-x="11">        <pitch>          <step>D</step>          <octave>3</octave>        </pitch>        <duration>24</duration>        <voice>1</voice>        <type>half</type>        <dot/>        <stem default-y="-56">down</stem>      </note>      <note default-x="11">        <chord/>        <pitch>          <step>F</step>          <octave>3</octave>        </pitch>        <duration>24</duration>        <voice>1</voice>        <type>half</type>        <dot/>        <stem>down</stem>      </note>    </measure>    <!--=======================================================-->    <measure number="9" width="133">      <direction placement="above">        <direction-type>          <wedge default-y="25" spread="0" type="crescendo"/>        </direction-type>      </direction>      <note default-x="13">        <pitch>          <step>F</step>          <octave>3</octave>        </pitch>        <duration>8</duration>        <voice>1</voice>        <type>quarter</type>        <stem default-y="-46">down</stem>      </note>      <note default-x="53">        <pitch>          <step>G</step>          <octave>3</octave>        </pitch>        <duration>8</duration>        <voice>1</voice>        <type>quarter</type>        <stem default-y="-40.5">down</stem>      </note>      <note default-x="92">        <pitch>          <step>A</step>          <octave>3</octave>        </pitch>        <duration>8</duration>        <voice>1</voice>        <type>quarter</type>        <stem default-y="-36">down</stem>      </note>      <direction>        <direction-type>          <wedge spread="15" type="stop"/>        </direction-type>        <offset>-1</offset>      </direction>    </measure>    <!--=======================================================-->    <measure number="10" width="193">      <print new-system="yes"/>      <direction placement="above">        <direction-type>          <wedge default-y="27" relative-x="-7" spread="0" type="crescendo"/>        </direction-type>      </direction>      <note default-x="78">        <pitch>          <step>F</step>          <octave>3</octave>        </pitch>        <duration>8</duration>        <voice>1</voice>        <type>quarter</type>        <stem default-y="-45.5">down</stem>      </note>      <note default-x="78">        <chord/>        <pitch>          <step>A</step>          <octave>3</octave>        </pitch>        <duration>8</duration>        <voice>1</voice>        <type>quarter</type>        <stem>down</stem>      </note>      <note default-x="116">        <pitch>          <step>G</step>          <octave>3</octave>        </pitch>        <duration>8</duration>        <voice>1</voice>        <type>quarter</type>        <stem default-y="-41">down</stem>      </note>      <note default-x="116">        <chord/>        <pitch>          <step>B</step>          <alter>-1</alter>          <octave>3</octave>        </pitch>        <duration>8</duration>        <voice>1</voice>        <type>quarter</type>        <stem>down</stem>      </note>      <note default-x="154">        <pitch>          <step>A</step>          <octave>3</octave>        </pitch>        <duration>8</duration>        <voice>1</voice>        <type>quarter</type>        <stem default-y="-35.5">down</stem>      </note>      <note default-x="154">        <chord/>        <pitch>          <step>C</step>          <octave>4</octave>        </pitch>        <duration>8</duration>        <voice>1</voice>        <type>quarter</type>        <stem>down</stem>      </note>      <direction>        <direction-type>          <wedge spread="15" type="stop"/>        </direction-type>      </direction>    </measure>    <!--=======================================================-->    <measure number="11" width="113">      <direction placement="above">        <direction-type>          <wedge default-y="27" spread="15" type="diminuendo"/>        </direction-type>        <offset>1</offset>      </direction>      <note default-x="13">        <pitch>          <step>B</step>          <alter>-1</alter>          <octave>3</octave>        </pitch>        <duration>16</duration>        <voice>1</voice>        <type>half</type>        <stem default-y="-31">down</stem>      </note>      <direction>        <direction-type>          <wedge spread="0" type="stop"/>        </direction-type>        <offset>2</offset>      </direction>      <note default-x="74">        <pitch>          <step>G</step>          <octave>3</octave>        </pitch>        <duration>8</duration>        <voice>1</voice>        <type>quarter</type>        <stem default-y="-41">down</stem>      </note>    </measure>    <!--=======================================================-->    <measure number="12" width="115">      <note default-x="14">        <pitch>          <step>F</step>          <octave>3</octave>        </pitch>        <duration>16</duration>        <voice>1</voice>        <type>half</type>        <stem default-y="-45.5">down</stem>      </note>      <note default-x="14">        <chord/>        <pitch>          <step>A</step>          <octave>3</octave>        </pitch>        <duration>16</duration>        <voice>1</voice>        <type>half</type>        <stem>down</stem>      </note>      <direction placement="above">        <direction-type>          <dynamics default-y="52" relative-x="-18">            <mf/>          </dynamics>        </direction-type>        <offset sound="yes">-7</offset>        <sound dynamics="83"/>      </direction>      <note default-x="76">        <pitch>          <step>C</step>          <octave>4</octave>        </pitch>        <duration>8</duration>        <voice>1</voice>        <type>quarter</type>        <stem default-y="-25.5">down</stem>      </note>    </measure>    <!--=======================================================-->    <measure number="13" width="133">      <note default-x="31">        <pitch>          <step>C</step>          <octave>4</octave>        </pitch>        <duration>16</duration>        <voice>1</voice>        <type>half</type>        <stem default-y="-25.5">down</stem>      </note>      <note default-x="94">        <pitch>          <step>B</step>          <alter>-1</alter>          <octave>3</octave>        </pitch>        <duration>8</duration>        <voice>1</voice>        <type>quarter</type>        <stem default-y="-31">down</stem>      </note>    </measure>    <!--=======================================================-->    <measure number="14" width="121">      <note default-x="19">        <pitch>          <step>A</step>          <octave>3</octave>        </pitch>        <duration>16</duration>        <voice>1</voice>        <type>half</type>        <stem default-y="-35.5">down</stem>      </note>      <note default-x="81">        <pitch>          <step>D</step>          <octave>3</octave>        </pitch>        <duration>8</duration>        <voice>1</voice>        <type>quarter</type>        <stem default-y="-55.5">down</stem>      </note>      <note default-x="81">        <chord/>        <pitch>          <step>A</step>          <octave>3</octave>        </pitch>        <duration>8</duration>        <voice>1</voice>        <type>quarter</type>        <stem>down</stem>      </note>    </measure>    <!--=======================================================-->    <measure number="15" width="149">      <note default-x="22">        <pitch>          <step>E</step>          <alter>-1</alter>          <octave>3</octave>        </pitch>        <duration>16</duration>        <voice>1</voice>        <type>half</type>        <accidental>flat</accidental>        <stem default-y="-51">down</stem>      </note>      <note default-x="22">        <chord/>        <pitch>          <step>G</step>          <octave>3</octave>        </pitch>        <duration>16</duration>        <voice>1</voice>        <type>half</type>        <stem>down</stem>      </note>      <note default-x="107">        <pitch>          <step>D</step>          <octave>3</octave>        </pitch>        <duration>8</duration>        <voice>1</voice>        <type>quarter</type>        <stem default-y="-55.5">down</stem>      </note>      <note default-x="107">        <chord/>        <pitch>          <step>A</step>          <octave>3</octave>        </pitch>        <duration>8</duration>        <voice>1</voice>        <type>quarter</type>        <stem>down</stem>      </note>    </measure>    <!--=======================================================-->    <measure number="16" width="129">      <note default-x="27">        <pitch>          <step>G</step>          <octave>3</octave>        </pitch>        <duration>16</duration>        <voice>1</voice>        <type>half</type>        <stem default-y="-41">down</stem>      </note>      <note default-x="27">        <chord/>        <pitch>          <step>B</step>          <octave>3</octave>        </pitch>        <duration>16</duration>        <voice>1</voice>        <type>half</type>        <accidental>natural</accidental>        <stem>down</stem>      </note>      <note default-x="89">        <pitch>          <step>C</step>          <octave>3</octave>        </pitch>        <duration>8</duration>        <voice>1</voice>        <type>quarter</type>        <stem default-y="-51">down</stem>      </note>      <note default-x="89">        <chord/>        <pitch>          <step>C</step>          <octave>4</octave>        </pitch>        <duration>8</duration>        <voice>1</voice>        <type>quarter</type>        <stem>down</stem>      </note>    </measure>    <!--=======================================================-->    <measure number="17" width="129">      <note default-x="14">        <pitch>          <step>C</step>          <octave>3</octave>        </pitch>        <duration>16</duration>        <voice>1</voice>        <type>half</type>        <stem default-y="-51">down</stem>      </note>      <note default-x="14">        <chord/>        <pitch>          <step>C</step>          <octave>4</octave>        </pitch>        <duration>16</duration>        <voice>1</voice>        <type>half</type>        <stem>down</stem>      </note>      <note default-x="89">        <pitch>          <step>B</step>          <alter>-1</alter>          <octave>2</octave>        </pitch>        <duration>8</duration>        <voice>1</voice>        <type>quarter</type>        <stem default-y="-55.5">down</stem>      </note>      <note default-x="89">        <chord/>        <pitch>          <step>D</step>          <octave>4</octave>        </pitch>        <duration>8</duration>        <voice>1</voice>        <type>quarter</type>        <stem>down</stem>      </note>    </measure>    <!--=======================================================-->    <measure number="18" width="117">      <note default-x="16">        <pitch>          <step>A</step>          <octave>2</octave>        </pitch>        <duration>16</duration>        <voice>1</voice>        <type>half</type>        <stem default-y="-61">down</stem>      </note>      <note default-x="16">        <chord/>        <pitch>          <step>C</step>          <octave>4</octave>        </pitch>        <duration>16</duration>        <voice>1</voice>        <type>half</type>        <stem>down</stem>      </note>      <note default-x="77">        <pitch>          <step>B</step>          <alter>-1</alter>          <octave>2</octave>        </pitch>        <duration>8</duration>        <voice>1</voice>        <type>quarter</type>        <stem default-y="-55.5">down</stem>      </note>      <note default-x="77">        <chord/>        <pitch>          <step>B</step>          <alter>-1</alter>          <octave>3</octave>        </pitch>        <duration>8</duration>        <voice>1</voice>        <type>quarter</type>        <stem>down</stem>      </note>    </measure>    <!--=======================================================-->    <measure number="19" width="253">      <print new-system="yes"/>      <note default-x="79">        <pitch>          <step>C</step>          <octave>3</octave>        </pitch>        <duration>16</duration>        <voice>1</voice>        <type>half</type>        <stem default-y="-50.5">down</stem>      </note>      <note default-x="194">        <pitch>          <step>C</step>          <octave>3</octave>        </pitch>        <duration>8</duration>        <voice>1</voice>        <type>quarter</type>        <stem default-y="-50.5">down</stem>      </note>      <backup>        <duration>24</duration>      </backup>      <note default-x="79">        <pitch>          <step>G</step>          <octave>3</octave>        </pitch>        <duration>8</duration>        <voice>2</voice>        <type>quarter</type>        <stem default-y="-40.5">down</stem>        <notations>          <slur bezier-x="14" bezier-y="16" default-x="5" default-y="1" number="1" placement="below" type="start"/>        </notations>      </note>      <note default-x="136">        <pitch>          <step>A</step>          <octave>3</octave>        </pitch>        <duration>8</duration>        <voice>2</voice>        <type>quarter</type>        <stem default-y="-36">down</stem>        <notations>          <slur bezier-x="-19" bezier-y="9" default-x="5" default-y="14" number="1" type="stop"/>        </notations>      </note>      <note default-x="194">        <pitch>          <step>B</step>          <alter>-1</alter>          <octave>3</octave>        </pitch>        <duration>8</duration>        <voice>2</voice>        <type>quarter</type>        <stem default-y="-30.5">down</stem>      </note>    </measure>    <!--=======================================================-->    <measure number="20" width="180">      <note default-x="15">        <pitch>          <step>F</step>          <octave>3</octave>        </pitch>        <duration>16</duration>        <voice>1</voice>        <type>half</type>        <stem default-y="-46">down</stem>      </note>      <note default-x="15">        <chord/>        <pitch>          <step>A</step>          <octave>3</octave>        </pitch>        <duration>16</duration>        <voice>1</voice>        <type>half</type>        <stem>down</stem>      </note>      <note default-x="116">        <pitch>          <step>B</step>          <alter>-1</alter>          <octave>2</octave>        </pitch>        <duration>8</duration>        <voice>1</voice>        <type>quarter</type>        <stem default-y="-56">down</stem>      </note>      <note default-x="116">        <chord/>        <pitch>          <step>D</step>          <octave>4</octave>        </pitch>        <duration>8</duration>        <voice>1</voice>        <type>quarter</type>        <stem>down</stem>      </note>    </measure>    <!--=======================================================-->    <measure number="21" width="215">      <note default-x="13">        <pitch>          <step>B</step>          <alter>-1</alter>          <octave>2</octave>        </pitch>        <duration>16</duration>        <voice>1</voice>        <type>half</type>        <stem default-y="-56">down</stem>      </note>      <note default-x="13">        <chord/>        <pitch>          <step>D</step>          <octave>4</octave>        </pitch>        <duration>16</duration>        <voice>1</voice>        <type>half</type>        <stem>down</stem>      </note>      <note default-x="147">        <pitch>          <step>C</step>          <octave>3</octave>        </pitch>        <duration>8</duration>        <voice>1</voice>        <type>quarter</type>        <stem default-y="-50.5">down</stem>      </note>      <note default-x="147">        <chord/>        <pitch>          <step>C</step>          <octave>4</octave>        </pitch>        <duration>8</duration>        <voice>1</voice>        <type>quarter</type>        <stem>down</stem>      </note>    </measure>    <!--=======================================================-->    <measure number="22" width="224">      <note default-x="14">        <pitch>          <step>F</step>          <octave>3</octave>        </pitch>        <duration>16</duration>        <voice>1</voice>        <type>half</type>        <stem default-y="-46">down</stem>      </note>      <note default-x="14">        <chord/>        <pitch>          <step>C</step>          <octave>4</octave>        </pitch>        <duration>16</duration>        <voice>1</voice>        <type>half</type>        <stem>down</stem>      </note>      <note default-x="153">        <pitch>          <step>A</step>          <octave>2</octave>        </pitch>        <duration>8</duration>        <voice>1</voice>        <type>quarter</type>        <stem default-y="-60.5">down</stem>      </note>      <note default-x="153">        <chord/>        <pitch>          <step>C</step>          <octave>4</octave>        </pitch>        <duration>8</duration>        <voice>1</voice>        <type>quarter</type>        <stem>down</stem>      </note>    </measure>    <!--=======================================================-->    <measure number="23" width="200">      <note default-x="23">        <pitch>          <step>C</step>          <octave>3</octave>        </pitch>        <duration>16</duration>        <voice>1</voice>        <type>half</type>        <stem default-y="-50.5">down</stem>      </note>      <note default-x="23">        <chord/>        <pitch>          <step>C</step>          <octave>4</octave>        </pitch>        <duration>16</duration>        <voice>1</voice>        <type>half</type>        <stem>down</stem>      </note>      <note default-x="131">        <pitch>          <step>C</step>          <octave>3</octave>        </pitch>        <duration>8</duration>        <voice>1</voice>        <type>quarter</type>        <stem default-y="-50.5">down</stem>      </note>      <note default-x="131">        <chord/>        <pitch>          <step>B</step>          <alter>-1</alter>          <octave>3</octave>        </pitch>        <duration>8</duration>        <voice>1</voice>        <type>quarter</type>        <stem>down</stem>      </note>    </measure>    <!--=======================================================-->    <measure number="24" width="138">      <note default-x="30">        <pitch>          <step>F</step>          <octave>2</octave>        </pitch>        <duration>16</duration>        <voice>1</voice>        <type>half</type>        <stem default-y="26">up</stem>      </note>      <note default-x="30">        <chord/>        <pitch>          <step>C</step>          <octave>3</octave>        </pitch>        <duration>16</duration>        <voice>1</voice>        <type>half</type>        <stem>up</stem>      </note>      <note default-x="30">        <chord/>        <pitch>          <step>A</step>          <octave>3</octave>        </pitch>        <duration>16</duration>        <voice>1</voice>        <type>half</type>        <stem>up</stem>      </note>      <barline location="right">        <bar-style>light-heavy</bar-style>      </barline>    </measure>  </part>  <!--=========================================================--></score-partwise>