<?xml version="1.0" encoding="UTF-8"?><!DOCTYPE score-partwise PUBLIC "-//Recordare//DTD MusicXML 2.0 Partwise//EN"                                "http://www.musicxml.org/dtds/partwise.dtd"><score-partwise version="2.0">  <movement-title>Ding Dong Merrily on high</movement-title>  <identification>    <creator type="composer">arr. Charles Wood</creator>    <rights>CM Kerstzingcie 2006</rights>    <encoding>      <software>Finale 2011 for Macintosh</software>      <software>Dolet Light for Finale 2011</software>      <encoding-date>2011-09-30</encoding-date>      <supports attribute="new-system" element="print" type="yes" value="yes"/>      <supports attribute="new-page" element="print" type="yes" value="yes"/>    </encoding>  </identification>  <defaults>    <scaling>      <millimeters>7.9375</millimeters>      <tenths>40</tenths>    </scaling>    <page-layout>      <page-height>1408</page-height>      <page-width>1088</page-width>      <page-margins type="both">        <left-margin>50</left-margin>        <right-margin>76</right-margin>        <top-margin>76</top-margin>        <bottom-margin>76</bottom-margin>      </page-margins>    </page-layout>    <system-layout>      <system-margins>        <left-margin>0</left-margin>        <right-margin>0</right-margin>      </system-margins>      <system-distance>109</system-distance>      <top-system-distance>67</top-system-distance>    </system-layout>    <staff-layout>      <staff-distance>105</staff-distance>    </staff-layout>    <appearance>      <line-width type="stem">1.4583</line-width>      <line-width type="beam">5.0391</line-width>      <line-width type="staff">1.4583</line-width>      <line-width type="light barline">1.4583</line-width>      <line-width type="heavy barline">5.0391</line-width>      <line-width type="leger">1.4583</line-width>      <line-width type="ending">1.4583</line-width>      <line-width type="wedge">1.4583</line-width>      <line-width type="enclosure">1.4583</line-width>      <line-width type="tuplet bracket">1.4583</line-width>      <note-size type="grace">50</note-size>      <note-size type="cue">50</note-size>    </appearance>    <music-font font-family="Maestro" font-size="22.5"/>    <word-font font-family="Times New Roman" font-size="11.25"/>    <lyric-font font-family="Times New Roman" font-size="11.25" name="verse"/>  </defaults>  <credit page="1">    <credit-words default-x="559" default-y="1373" font-size="28.8" font-weight="bold" justify="center" valign="top">08. Ding Dong Merrily on high</credit-words>  </credit>  <credit page="1">    <credit-words default-x="1016" default-y="1287" font-size="14.4" font-weight="bold" justify="right" valign="top">arr. Charles Wood</credit-words>  </credit>  <credit page="1">    <credit-words default-x="574" default-y="14" font-size="12" justify="center" valign="bottom">CM Kerstzingcie 2006</credit-words>  </credit>  <credit page="1">    <credit-words default-x="126" default-y="163" font-size="12" valign="top">2. Now on earth below, below, the steeple bells are swinging,
    And i-o, i-o, i-o, are priest and people singing.</credit-words>  </credit>  <credit page="1">    <credit-words default-x="123" default-y="103" font-size="12" valign="top">3. May you dutifully prime your matin chime, you ringers.
    May you beautifully rhyme your evensong, you singers.</credit-words>  </credit>  <credit page="1">    <credit-words default-x="223" default-y="1290" font-size="14.4" valign="top">Quick and gay</credit-words>  </credit>  <credit page="1">    <credit-words default-x="644" default-y="1315" font-size="14.4" valign="top">Sixteenth-century French dance tune</credit-words>  </credit>  <part-list>    <part-group number="1" type="start">      <group-symbol default-x="-13">bracket</group-symbol>      <group-barline>no</group-barline>    </part-group>    <score-part id="P1">      <part-name>Sopraan
Alt</part-name>      <part-abbreviation>S
A</part-abbreviation>      <score-instrument id="P1-I3">        <instrument-name>Klarinet</instrument-name>      </score-instrument>      <score-instrument id="P1-I2">        <instrument-name>Trombone</instrument-name>      </score-instrument>      <midi-instrument id="P1-I3">        <midi-channel>1</midi-channel>        <midi-program>58</midi-program>        <volume>80</volume>        <pan>0</pan>      </midi-instrument>      <midi-instrument id="P1-I2">        <midi-channel>2</midi-channel>        <midi-program>57</midi-program>        <volume>80</volume>        <pan>0</pan>      </midi-instrument>    </score-part>    <score-part id="P2">      <part-name>Tenor
Bas</part-name>      <part-abbreviation>T
B</part-abbreviation>      <score-instrument id="P2-I1">        <instrument-name>Acoustic Grand Piano</instrument-name>      </score-instrument>      <score-instrument id="P2-I4">        <instrument-name>Tuba</instrument-name>      </score-instrument>      <midi-instrument id="P2-I1">        <midi-channel>3</midi-channel>        <midi-program>57</midi-program>        <volume>80</volume>        <pan>0</pan>      </midi-instrument>      <midi-instrument id="P2-I4">        <midi-channel>4</midi-channel>        <midi-program>59</midi-program>        <volume>80</volume>        <pan>0</pan>      </midi-instrument>    </score-part>    <part-group number="1" type="stop"/>  </part-list>  <!--=========================================================-->  <part id="P1">    <measure number="1" width="304">      <print>        <page-layout>          <page-height>1408</page-height>          <page-width>1088</page-width>          <page-margins>            <left-margin>128</left-margin>            <right-margin>64</right-margin>            <top-margin>64</top-margin>            <bottom-margin>64</bottom-margin>          </page-margins>        </page-layout>        <system-layout>          <top-system-distance>108</top-system-distance>        </system-layout>        <measure-numbering>system</measure-numbering>      </print>      <attributes>        <divisions>2</divisions>        <key>          <fifths>-2</fifths>          <mode>major</mode>        </key>        <time>          <beats>4</beats>          <beat-type>4</beat-type>        </time>        <instruments>2</instruments>        <clef>          <sign>G</sign>          <line>2</line>        </clef>      </attributes>      <sound tempo="180"/>      <note default-x="117">        <pitch>          <step>B</step>          <alter>-1</alter>          <octave>4</octave>        </pitch>        <duration>2</duration>        <instrument id="P1-I3"/>        <voice>1</voice>        <type>quarter</type>        <stem default-y="16">up</stem>        <lyric default-y="-93" number="1">          <syllabic>begin</syllabic>          <text font-size="11.2">Ding</text>        </lyric>      </note>      <note default-x="163">        <pitch>          <step>B</step>          <alter>-1</alter>          <octave>4</octave>        </pitch>        <duration>2</duration>        <instrument id="P1-I3"/>        <voice>1</voice>        <type>quarter</type>        <stem default-y="16">up</stem>        <lyric default-y="-93" number="1">          <syllabic>end</syllabic>          <text font-size="11.2">dong</text>        </lyric>      </note>      <note default-x="209">        <pitch>          <step>C</step>          <octave>5</octave>        </pitch>        <duration>1</duration>        <instrument id="P1-I3"/>        <voice>1</voice>        <type>eighth</type>        <stem default-y="20">up</stem>        <beam number="1">begin</beam>        <lyric default-y="-93" number="1">          <syllabic>begin</syllabic>          <text font-size="11.2">mer</text>        </lyric>      </note>      <note default-x="233">        <pitch>          <step>B</step>          <alter>-1</alter>          <octave>4</octave>        </pitch>        <duration>1</duration>        <instrument id="P1-I3"/>        <voice>1</voice>        <type>eighth</type>        <stem default-y="15">up</stem>        <beam number="1">end</beam>        <lyric default-y="-93" number="1">          <syllabic>middle</syllabic>          <text font-size="11.2">ri</text>        </lyric>      </note>      <note default-x="256">        <pitch>          <step>A</step>          <octave>4</octave>        </pitch>        <duration>1</duration>        <instrument id="P1-I3"/>        <voice>1</voice>        <type>eighth</type>        <stem default-y="10">up</stem>        <beam number="1">begin</beam>        <lyric default-y="-93" number="1">          <syllabic>end</syllabic>          <text font-size="11.2">ly</text>        </lyric>      </note>      <note default-x="279">        <pitch>          <step>G</step>          <octave>4</octave>        </pitch>        <duration>1</duration>        <instrument id="P1-I3"/>        <voice>1</voice>        <type>eighth</type>        <stem default-y="5">up</stem>        <beam number="1">end</beam>        <lyric default-y="-93" number="1">          <syllabic>single</syllabic>          <text font-size="11.2">on</text>        </lyric>      </note>      <backup>        <duration>8</duration>      </backup>      <note default-x="117">        <pitch>          <step>F</step>          <octave>4</octave>        </pitch>        <duration>2</duration>        <instrument id="P1-I2"/>        <voice>2</voice>        <type>quarter</type>        <stem default-y="-60.5">down</stem>      </note>      <note default-x="163">        <pitch>          <step>F</step>          <octave>4</octave>        </pitch>        <duration>2</duration>        <instrument id="P1-I2"/>        <voice>2</voice>        <type>quarter</type>        <stem default-y="-60.5">down</stem>      </note>      <note default-x="209">        <pitch>          <step>G</step>          <octave>4</octave>        </pitch>        <duration>1</duration>        <instrument id="P1-I2"/>        <voice>2</voice>        <type>eighth</type>        <stem default-y="-65">down</stem>        <beam number="1">begin</beam>      </note>      <note default-x="233">        <pitch>          <step>G</step>          <octave>4</octave>        </pitch>        <duration>1</duration>        <instrument id="P1-I2"/>        <voice>2</voice>        <type>eighth</type>        <stem default-y="-65">down</stem>        <beam number="1">end</beam>      </note>      <note default-x="256">        <pitch>          <step>E</step>          <alter>-1</alter>          <octave>4</octave>        </pitch>        <duration>1</duration>        <instrument id="P1-I2"/>        <voice>2</voice>        <type>eighth</type>        <stem default-y="-75">down</stem>        <beam number="1">begin</beam>      </note>      <note default-x="279">        <pitch>          <step>E</step>          <alter>-1</alter>          <octave>4</octave>        </pitch>        <duration>1</duration>        <instrument id="P1-I2"/>        <voice>2</voice>        <type>eighth</type>        <stem default-y="-75">down</stem>        <beam number="1">end</beam>      </note>    </measure>    <!--=======================================================-->    <measure number="2" width="197">      <note default-x="10">        <pitch>          <step>F</step>          <octave>4</octave>        </pitch>        <duration>6</duration>        <instrument id="P1-I3"/>        <voice>1</voice>        <type>half</type>        <dot/>        <stem default-y="1">up</stem>        <lyric default-y="-93" number="1">          <syllabic>single</syllabic>          <text font-size="11.2">high,</text>        </lyric>      </note>      <note default-x="149">        <pitch>          <step>F</step>          <octave>4</octave>        </pitch>        <duration>2</duration>        <instrument id="P1-I3"/>        <voice>1</voice>        <type>quarter</type>        <stem default-y="1">up</stem>        <lyric default-y="-93" number="1">          <syllabic>single</syllabic>          <text font-size="11.2">in</text>        </lyric>      </note>      <backup>        <duration>8</duration>      </backup>      <note default-x="10">        <pitch>          <step>C</step>          <octave>4</octave>        </pitch>        <duration>6</duration>        <instrument id="P1-I2"/>        <voice>2</voice>        <type>half</type>        <dot/>        <stem default-y="-75.5">down</stem>      </note>      <note default-x="149">        <pitch>          <step>F</step>          <octave>4</octave>        </pitch>        <duration>2</duration>        <instrument id="P1-I2"/>        <voice>2</voice>        <type>quarter</type>        <stem default-y="-60.5">down</stem>      </note>    </measure>    <!--=======================================================-->    <measure number="3" width="197">      <note default-x="10">        <pitch>          <step>G</step>          <octave>4</octave>        </pitch>        <duration>2</duration>        <instrument id="P1-I3"/>        <voice>1</voice>        <type>quarter</type>        <stem default-y="6">up</stem>        <lyric default-y="-93" number="1">          <syllabic>single</syllabic>          <text font-size="11.2">heav'n</text>        </lyric>      </note>      <note default-x="56">        <pitch>          <step>B</step>          <alter>-1</alter>          <octave>4</octave>        </pitch>        <duration>2</duration>        <instrument id="P1-I3"/>        <voice>1</voice>        <type>quarter</type>        <stem default-y="16">up</stem>        <lyric default-y="-93" number="1">          <syllabic>single</syllabic>          <text font-size="11.2">the</text>        </lyric>      </note>      <note default-x="103">        <pitch>          <step>B</step>          <alter>-1</alter>          <octave>4</octave>        </pitch>        <duration>2</duration>        <instrument id="P1-I3"/>        <voice>1</voice>        <type>quarter</type>        <stem default-y="16">up</stem>        <lyric default-y="-93" number="1">          <syllabic>single</syllabic>          <text font-size="11.2">bells</text>        </lyric>      </note>      <note default-x="149">        <pitch>          <step>A</step>          <octave>4</octave>        </pitch>        <duration>2</duration>        <instrument id="P1-I3"/>        <voice>1</voice>        <type>quarter</type>        <stem default-y="11">up</stem>        <lyric default-y="-93" number="1">          <syllabic>single</syllabic>          <text font-size="11.2">are</text>        </lyric>      </note>      <backup>        <duration>8</duration>      </backup>      <note default-x="21">        <pitch>          <step>F</step>          <octave>4</octave>        </pitch>        <duration>2</duration>        <instrument id="P1-I2"/>        <voice>2</voice>        <type>quarter</type>        <stem default-y="-60.5">down</stem>      </note>      <note default-x="56">        <pitch>          <step>E</step>          <alter>-1</alter>          <octave>4</octave>        </pitch>        <duration>2</duration>        <instrument id="P1-I2"/>        <voice>2</voice>        <type>quarter</type>        <stem default-y="-65">down</stem>      </note>      <note default-x="103">        <pitch>          <step>C</step>          <octave>4</octave>        </pitch>        <duration>2</duration>        <instrument id="P1-I2"/>        <voice>2</voice>        <type>quarter</type>        <stem default-y="-75.5">down</stem>      </note>      <note default-x="149">        <pitch>          <step>F</step>          <octave>4</octave>        </pitch>        <duration>2</duration>        <instrument id="P1-I2"/>        <voice>2</voice>        <type>quarter</type>        <stem default-y="-60.5">down</stem>      </note>    </measure>    <!--=======================================================-->    <measure number="4" width="197">      <note default-x="10">        <pitch>          <step>B</step>          <alter>-1</alter>          <octave>4</octave>        </pitch>        <duration>4</duration>        <instrument id="P1-I3"/>        <voice>1</voice>        <type>half</type>        <stem default-y="16">up</stem>        <lyric default-y="-93" number="1">          <syllabic>begin</syllabic>          <text font-size="11.2">ring</text>        </lyric>      </note>      <note default-x="103">        <pitch>          <step>B</step>          <alter>-1</alter>          <octave>4</octave>        </pitch>        <duration>4</duration>        <instrument id="P1-I3"/>        <voice>1</voice>        <type>half</type>        <stem default-y="16">up</stem>        <lyric default-y="-93" number="1">          <syllabic>end</syllabic>          <text font-size="11.2">ing,</text>        </lyric>      </note>      <backup>        <duration>8</duration>      </backup>      <note default-x="10">        <pitch>          <step>F</step>          <octave>4</octave>        </pitch>        <duration>4</duration>        <instrument id="P1-I2"/>        <voice>2</voice>        <type>half</type>        <stem default-y="-60.5">down</stem>      </note>      <note default-x="103">        <pitch>          <step>F</step>          <octave>4</octave>        </pitch>        <duration>4</duration>        <instrument id="P1-I2"/>        <voice>2</voice>        <type>half</type>        <stem default-y="-60.5">down</stem>      </note>    </measure>    <!--=======================================================-->    <measure number="5" width="280">      <print new-system="yes">        <system-layout>          <system-distance>100</system-distance>        </system-layout>      </print>      <note default-x="85">        <pitch>          <step>B</step>          <alter>-1</alter>          <octave>4</octave>        </pitch>        <duration>2</duration>        <instrument id="P1-I3"/>        <voice>1</voice>        <type>quarter</type>        <stem default-y="16">up</stem>        <lyric default-y="-93" number="1">          <syllabic>begin</syllabic>          <text font-size="11.2">Ding</text>        </lyric>      </note>      <note default-x="133">        <pitch>          <step>B</step>          <alter>-1</alter>          <octave>4</octave>        </pitch>        <duration>2</duration>        <instrument id="P1-I3"/>        <voice>1</voice>        <type>quarter</type>        <stem>double</stem>        <lyric default-y="-93" number="1">          <syllabic>end</syllabic>          <text font-size="11.2">dong</text>        </lyric>      </note>      <note default-x="182">        <pitch>          <step>C</step>          <octave>5</octave>        </pitch>        <duration>1</duration>        <instrument id="P1-I3"/>        <voice>1</voice>        <type>eighth</type>        <stem default-y="20">up</stem>        <beam number="1">begin</beam>        <lyric default-y="-93" number="1">          <syllabic>begin</syllabic>          <text font-size="11.2">ve</text>        </lyric>      </note>      <note default-x="206">        <pitch>          <step>B</step>          <alter>-1</alter>          <octave>4</octave>        </pitch>        <duration>1</duration>        <instrument id="P1-I3"/>        <voice>1</voice>        <type>eighth</type>        <stem default-y="15">up</stem>        <beam number="1">end</beam>        <lyric default-y="-93" number="1">          <syllabic>middle</syllabic>          <text font-size="11.2">ri</text>        </lyric>      </note>      <note default-x="230">        <pitch>          <step>A</step>          <octave>4</octave>        </pitch>        <duration>1</duration>        <instrument id="P1-I3"/>        <voice>1</voice>        <type>eighth</type>        <stem default-y="10">up</stem>        <beam number="1">begin</beam>        <lyric default-y="-93" number="1">          <syllabic>end</syllabic>          <text font-size="11.2">ly</text>        </lyric>      </note>      <note default-x="254">        <pitch>          <step>G</step>          <octave>4</octave>        </pitch>        <duration>1</duration>        <instrument id="P1-I3"/>        <voice>1</voice>        <type>eighth</type>        <stem default-y="5">up</stem>        <beam number="1">end</beam>        <lyric default-y="-93" number="1">          <syllabic>single</syllabic>          <text font-size="11.2">the</text>        </lyric>      </note>      <backup>        <duration>8</duration>      </backup>      <note default-x="85">        <pitch>          <step>F</step>          <octave>4</octave>        </pitch>        <duration>2</duration>        <instrument id="P1-I2"/>        <voice>2</voice>        <type>quarter</type>        <stem default-y="-60.5">down</stem>      </note>      <note default-x="133">        <pitch>          <step>F</step>          <octave>4</octave>        </pitch>        <duration>2</duration>        <instrument id="P1-I2"/>        <voice>2</voice>        <type>quarter</type>        <stem default-y="-60.5">down</stem>      </note>      <note default-x="182">        <pitch>          <step>G</step>          <octave>4</octave>        </pitch>        <duration>1</duration>        <instrument id="P1-I2"/>        <voice>2</voice>        <type>eighth</type>        <stem default-y="-64.5">down</stem>        <beam number="1">begin</beam>      </note>      <note default-x="206">        <pitch>          <step>G</step>          <octave>4</octave>        </pitch>        <duration>1</duration>        <instrument id="P1-I2"/>        <voice>2</voice>        <type>eighth</type>        <stem default-y="-64.5">down</stem>        <beam number="1">end</beam>      </note>      <note default-x="230">        <pitch>          <step>E</step>          <alter>-1</alter>          <octave>4</octave>        </pitch>        <duration>1</duration>        <instrument id="P1-I2"/>        <voice>2</voice>        <type>eighth</type>        <stem default-y="-75">down</stem>        <beam number="1">begin</beam>      </note>      <note default-x="254">        <pitch>          <step>E</step>          <alter>-1</alter>          <octave>4</octave>        </pitch>        <duration>1</duration>        <instrument id="P1-I2"/>        <voice>2</voice>        <type>eighth</type>        <stem default-y="-75">down</stem>        <beam number="1">end</beam>      </note>    </measure>    <!--=======================================================-->    <measure number="6" width="205">      <note default-x="10">        <pitch>          <step>F</step>          <octave>4</octave>        </pitch>        <duration>6</duration>        <instrument id="P1-I3"/>        <voice>1</voice>        <type>half</type>        <dot/>        <stem default-y="1">up</stem>        <lyric default-y="-93" number="1">          <syllabic>single</syllabic>          <text font-size="11.2">sky</text>        </lyric>      </note>      <note default-x="155">        <pitch>          <step>F</step>          <octave>4</octave>        </pitch>        <duration>2</duration>        <instrument id="P1-I3"/>        <voice>1</voice>        <type>quarter</type>        <stem default-y="1">up</stem>        <lyric default-y="-93" number="1">          <syllabic>single</syllabic>          <text font-size="11.2">is</text>        </lyric>      </note>      <backup>        <duration>8</duration>      </backup>      <note default-x="10">        <pitch>          <step>C</step>          <octave>4</octave>        </pitch>        <duration>6</duration>        <instrument id="P1-I2"/>        <voice>2</voice>        <type>half</type>        <dot/>        <stem default-y="-75">down</stem>      </note>      <note default-x="155">        <pitch>          <step>F</step>          <octave>4</octave>        </pitch>        <duration>2</duration>        <instrument id="P1-I2"/>        <voice>2</voice>        <type>quarter</type>        <stem default-y="-60.5">down</stem>      </note>    </measure>    <!--=======================================================-->    <measure number="7" width="205">      <note default-x="10">        <pitch>          <step>G</step>          <octave>4</octave>        </pitch>        <duration>2</duration>        <instrument id="P1-I3"/>        <voice>1</voice>        <type>quarter</type>        <stem default-y="5.5">up</stem>        <lyric default-y="-93" number="1">          <syllabic>single</syllabic>          <text font-size="11.2">rent</text>        </lyric>      </note>      <note default-x="58">        <pitch>          <step>B</step>          <alter>-1</alter>          <octave>4</octave>        </pitch>        <duration>2</duration>        <instrument id="P1-I3"/>        <voice>1</voice>        <type>quarter</type>        <stem default-y="16">up</stem>        <lyric default-y="-93" number="1">          <syllabic>single</syllabic>          <text font-size="11.2">with</text>        </lyric>      </note>      <note default-x="107">        <pitch>          <step>B</step>          <alter>-1</alter>          <octave>4</octave>        </pitch>        <duration>2</duration>        <instrument id="P1-I3"/>        <voice>1</voice>        <type>quarter</type>        <stem default-y="16">up</stem>        <lyric default-y="-93" number="1">          <syllabic>begin</syllabic>          <text font-size="11.2">an</text>        </lyric>      </note>      <note default-x="155">        <pitch>          <step>A</step>          <octave>4</octave>        </pitch>        <duration>2</duration>        <instrument id="P1-I3"/>        <voice>1</voice>        <type>quarter</type>        <stem default-y="11">up</stem>        <lyric default-y="-93" number="1">          <syllabic>end</syllabic>          <text font-size="11.2">gels</text>        </lyric>      </note>      <backup>        <duration>8</duration>      </backup>      <note default-x="21">        <pitch>          <step>F</step>          <octave>4</octave>        </pitch>        <duration>2</duration>        <instrument id="P1-I2"/>        <voice>2</voice>        <type>quarter</type>        <stem default-y="-60.5">down</stem>      </note>      <note default-x="58">        <pitch>          <step>E</step>          <alter>-1</alter>          <octave>4</octave>        </pitch>        <duration>2</duration>        <instrument id="P1-I2"/>        <voice>2</voice>        <type>quarter</type>        <stem default-y="-65.5">down</stem>      </note>      <note default-x="107">        <pitch>          <step>C</step>          <octave>4</octave>        </pitch>        <duration>2</duration>        <instrument id="P1-I2"/>        <voice>2</voice>        <type>quarter</type>        <stem default-y="-75">down</stem>      </note>      <note default-x="155">        <pitch>          <step>F</step>          <octave>4</octave>        </pitch>        <duration>2</duration>        <instrument id="P1-I2"/>        <voice>2</voice>        <type>quarter</type>        <stem default-y="-60.5">down</stem>      </note>    </measure>    <!--=======================================================-->    <measure number="8" width="205">      <note default-x="10">        <pitch>          <step>B</step>          <alter>-1</alter>          <octave>4</octave>        </pitch>        <duration>4</duration>        <instrument id="P1-I3"/>        <voice>1</voice>        <type>half</type>        <stem default-y="16">up</stem>        <lyric default-y="-93" number="1">          <syllabic>begin</syllabic>          <text font-size="11.2">sing</text>        </lyric>      </note>      <note default-x="107">        <pitch>          <step>B</step>          <alter>-1</alter>          <octave>4</octave>        </pitch>        <duration>4</duration>        <instrument id="P1-I3"/>        <voice>1</voice>        <type>half</type>        <stem default-y="16">up</stem>        <lyric default-y="-93" number="1">          <syllabic>end</syllabic>          <text font-size="11.2">ing.</text>        </lyric>      </note>      <backup>        <duration>8</duration>      </backup>      <note default-x="10">        <pitch>          <step>F</step>          <octave>4</octave>        </pitch>        <duration>4</duration>        <instrument id="P1-I2"/>        <voice>2</voice>        <type>half</type>        <stem default-y="-60.5">down</stem>      </note>      <note default-x="107">        <pitch>          <step>F</step>          <octave>4</octave>        </pitch>        <duration>4</duration>        <instrument id="P1-I2"/>        <voice>2</voice>        <type>half</type>        <stem default-y="-60.5">down</stem>      </note>    </measure>    <!--=======================================================-->    <measure number="9" width="266">      <print new-system="yes">        <system-layout>          <system-distance>100</system-distance>        </system-layout>      </print>      <barline location="left">        <bar-style>heavy-light</bar-style>        <repeat direction="forward"/>      </barline>      <note default-x="113">        <pitch>          <step>F</step>          <octave>5</octave>        </pitch>        <duration>3</duration>        <instrument id="P1-I3"/>        <voice>1</voice>        <type>quarter</type>        <dot/>        <stem default-y="26">up</stem>        <notations>          <slur bezier-x="0" bezier-y="51" default-x="19" default-y="16" number="1" placement="above" type="start"/>          <slur bezier-x="0" bezier-y="51" default-x="782" default-y="16" number="1" type="continue"/>        </notations>        <lyric default-y="-93" number="1">          <syllabic>begin</syllabic>          <text font-size="11.2">Glo</text>        </lyric>      </note>      <note default-x="157">        <pitch>          <step>E</step>          <alter>-1</alter>          <octave>5</octave>        </pitch>        <duration>1</duration>        <instrument id="P1-I3"/>        <voice>1</voice>        <type>eighth</type>        <stem default-y="31">up</stem>      </note>      <note default-x="184">        <pitch>          <step>D</step>          <octave>5</octave>        </pitch>        <duration>1</duration>        <instrument id="P1-I3"/>        <voice>1</voice>        <type>eighth</type>        <stem default-y="35">up</stem>        <beam number="1">begin</beam>      </note>      <note default-x="204">        <pitch>          <step>E</step>          <alter>-1</alter>          <octave>5</octave>        </pitch>        <duration>1</duration>        <instrument id="P1-I3"/>        <voice>1</voice>        <type>eighth</type>        <stem default-y="35">up</stem>        <beam number="1">continue</beam>      </note>      <note default-x="224">        <pitch>          <step>F</step>          <octave>5</octave>        </pitch>        <duration>1</duration>        <instrument id="P1-I3"/>        <voice>1</voice>        <type>eighth</type>        <stem default-y="35">up</stem>        <beam number="1">continue</beam>      </note>      <note default-x="244">        <pitch>          <step>D</step>          <octave>5</octave>        </pitch>        <duration>1</duration>        <instrument id="P1-I3"/>        <voice>1</voice>        <type>eighth</type>        <stem default-y="35">up</stem>        <beam number="1">end</beam>      </note>      <backup>        <duration>8</duration>      </backup>      <note default-x="113">        <rest>          <display-step>C</display-step>          <display-octave>4</display-octave>        </rest>        <duration>2</duration>        <instrument id="P1-I2"/>        <voice>2</voice>        <type>quarter</type>      </note>      <note default-x="143">        <pitch>          <step>F</step>          <octave>4</octave>        </pitch>        <duration>4</duration>        <instrument id="P1-I2"/>        <voice>2</voice>        <type>half</type>        <stem default-y="-60">down</stem>        <notations>          <slur bezier-x="49" bezier-y="-35" default-x="5" default-y="-51" number="2" placement="below" type="start"/>        </notations>      </note>      <note default-x="224">        <pitch>          <step>B</step>          <alter>-1</alter>          <octave>4</octave>        </pitch>        <duration>2</duration>        <tie type="start"/>        <instrument id="P1-I2"/>        <voice>2</voice>        <type>quarter</type>        <stem default-y="-55.5">down</stem>        <notations>          <tied orientation="under" type="start"/>        </notations>      </note>    </measure>    <!--=======================================================-->    <measure number="10" width="232">      <note default-x="10">        <pitch>          <step>E</step>          <alter>-1</alter>          <octave>5</octave>        </pitch>        <duration>3</duration>        <instrument id="P1-I3"/>        <voice>1</voice>        <type>quarter</type>        <dot/>        <stem default-y="20.5">up</stem>      </note>      <note default-x="92">        <pitch>          <step>D</step>          <octave>5</octave>        </pitch>        <duration>1</duration>        <instrument id="P1-I3"/>        <voice>1</voice>        <type>eighth</type>        <stem default-y="26">up</stem>      </note>      <note default-x="120">        <pitch>          <step>C</step>          <octave>5</octave>        </pitch>        <duration>1</duration>        <instrument id="P1-I3"/>        <voice>1</voice>        <type>eighth</type>        <stem default-y="30">up</stem>        <beam number="1">begin</beam>      </note>      <note default-x="148">        <pitch>          <step>D</step>          <octave>5</octave>        </pitch>        <duration>1</duration>        <instrument id="P1-I3"/>        <voice>1</voice>        <type>eighth</type>        <stem default-y="30">up</stem>        <beam number="1">continue</beam>      </note>      <note default-x="175">        <pitch>          <step>E</step>          <alter>-1</alter>          <octave>5</octave>        </pitch>        <duration>1</duration>        <instrument id="P1-I3"/>        <voice>1</voice>        <type>eighth</type>        <stem default-y="30">up</stem>        <beam number="1">continue</beam>      </note>      <note default-x="202">        <pitch>          <step>C</step>          <octave>5</octave>        </pitch>        <duration>1</duration>        <instrument id="P1-I3"/>        <voice>1</voice>        <type>eighth</type>        <stem default-y="30">up</stem>        <beam number="1">end</beam>      </note>      <backup>        <duration>8</duration>      </backup>      <note default-x="10">        <pitch>          <step>B</step>          <alter>-1</alter>          <octave>4</octave>        </pitch>        <duration>1</duration>        <tie type="stop"/>        <instrument id="P1-I2"/>        <voice>2</voice>        <type>eighth</type>        <stem default-y="-65">down</stem>        <beam number="1">begin</beam>        <notations>          <tied type="stop"/>        </notations>      </note>      <note default-x="38">        <pitch>          <step>A</step>          <octave>4</octave>        </pitch>        <duration>1</duration>        <instrument id="P1-I2"/>        <voice>2</voice>        <type>eighth</type>        <stem default-y="-66.5">down</stem>        <beam number="1">continue</beam>      </note>      <note default-x="65">        <pitch>          <step>G</step>          <octave>4</octave>        </pitch>        <duration>1</duration>        <instrument id="P1-I2"/>        <voice>2</voice>        <type>eighth</type>        <stem default-y="-68">down</stem>        <beam number="1">continue</beam>      </note>      <note default-x="92">        <pitch>          <step>F</step>          <octave>4</octave>        </pitch>        <duration>1</duration>        <instrument id="P1-I2"/>        <voice>2</voice>        <type>eighth</type>        <stem default-y="-70">down</stem>        <beam number="1">end</beam>      </note>      <note default-x="120">        <pitch>          <step>G</step>          <octave>4</octave>        </pitch>        <duration>1</duration>        <instrument id="P1-I2"/>        <voice>2</voice>        <type>eighth</type>        <stem default-y="-65">down</stem>        <beam number="1">begin</beam>      </note>      <note default-x="148">        <pitch>          <step>F</step>          <octave>4</octave>        </pitch>        <duration>1</duration>        <instrument id="P1-I2"/>        <voice>2</voice>        <type>eighth</type>        <stem default-y="-70">down</stem>        <beam number="1">end</beam>      </note>      <note default-x="175">        <pitch>          <step>E</step>          <alter>-1</alter>          <octave>4</octave>        </pitch>        <duration>2</duration>        <instrument id="P1-I2"/>        <voice>2</voice>        <type>quarter</type>        <stem default-y="-66">down</stem>        <notations>          <slur bezier-x="9" bezier-y="-43" default-x="-5" default-y="-56" number="2" type="stop"/>        </notations>      </note>    </measure>    <!--=======================================================-->    <measure number="11" width="167">      <note default-x="10">        <pitch>          <step>D</step>          <octave>5</octave>        </pitch>        <duration>3</duration>        <instrument id="P1-I3"/>        <voice>1</voice>        <type>quarter</type>        <dot/>        <stem default-y="16">up</stem>      </note>      <note default-x="58">        <pitch>          <step>C</step>          <octave>5</octave>        </pitch>        <duration>1</duration>        <instrument id="P1-I3"/>        <voice>1</voice>        <type>eighth</type>        <stem default-y="20.5">up</stem>      </note>      <note default-x="84">        <pitch>          <step>B</step>          <alter>-1</alter>          <octave>4</octave>        </pitch>        <duration>1</duration>        <instrument id="P1-I3"/>        <voice>1</voice>        <type>eighth</type>        <stem default-y="25">up</stem>        <beam number="1">begin</beam>      </note>      <note default-x="105">        <pitch>          <step>C</step>          <octave>5</octave>        </pitch>        <duration>1</duration>        <instrument id="P1-I3"/>        <voice>1</voice>        <type>eighth</type>        <stem default-y="25">up</stem>        <beam number="1">continue</beam>      </note>      <note default-x="125">        <pitch>          <step>D</step>          <octave>5</octave>        </pitch>        <duration>1</duration>        <instrument id="P1-I3"/>        <voice>1</voice>        <type>eighth</type>        <stem default-y="25">up</stem>        <beam number="1">continue</beam>      </note>      <note default-x="145">        <pitch>          <step>B</step>          <alter>-1</alter>          <octave>4</octave>        </pitch>        <duration>1</duration>        <instrument id="P1-I3"/>        <voice>1</voice>        <type>eighth</type>        <stem default-y="25">up</stem>        <beam number="1">end</beam>      </note>      <backup>        <duration>8</duration>      </backup>      <note default-x="11">        <rest>          <display-step>C</display-step>          <display-octave>4</display-octave>        </rest>        <duration>2</duration>        <instrument id="P1-I2"/>        <voice>2</voice>        <type>quarter</type>      </note>      <note default-x="38">        <pitch>          <step>F</step>          <octave>4</octave>        </pitch>        <duration>1</duration>        <instrument id="P1-I2"/>        <voice>2</voice>        <type>eighth</type>        <stem default-y="-70">down</stem>        <beam number="1">begin</beam>        <notations>          <slur bezier-x="52" bezier-y="-18" default-x="0" default-y="-75" number="2" placement="below" type="start"/>        </notations>      </note>      <note default-x="58">        <pitch>          <step>E</step>          <alter>-1</alter>          <octave>4</octave>        </pitch>        <duration>1</duration>        <instrument id="P1-I2"/>        <voice>2</voice>        <type>eighth</type>        <stem default-y="-74.5">down</stem>        <beam number="1">end</beam>      </note>      <note default-x="84">        <pitch>          <step>D</step>          <octave>4</octave>        </pitch>        <duration>2</duration>        <instrument id="P1-I2"/>        <voice>2</voice>        <type>quarter</type>        <stem default-y="-70.5">down</stem>      </note>      <note default-x="125">        <pitch>          <step>F</step>          <octave>4</octave>        </pitch>        <duration>2</duration>        <instrument id="P1-I2"/>        <voice>2</voice>        <type>quarter</type>        <stem default-y="-60">down</stem>      </note>    </measure>    <!--=======================================================-->    <measure number="12" width="232">      <note default-x="10">        <pitch>          <step>C</step>          <octave>5</octave>        </pitch>        <duration>3</duration>        <instrument id="P1-I3"/>        <voice>1</voice>        <type>quarter</type>        <dot/>        <stem default-y="11">up</stem>      </note>      <note default-x="92">        <pitch>          <step>B</step>          <alter>-1</alter>          <octave>4</octave>        </pitch>        <duration>1</duration>        <instrument id="P1-I3"/>        <voice>1</voice>        <type>eighth</type>        <stem default-y="16">up</stem>      </note>      <note default-x="120">        <pitch>          <step>A</step>          <octave>4</octave>        </pitch>        <duration>1</duration>        <instrument id="P1-I3"/>        <voice>1</voice>        <type>eighth</type>        <stem default-y="20">up</stem>        <beam number="1">begin</beam>      </note>      <note default-x="147">        <pitch>          <step>B</step>          <alter>-1</alter>          <octave>4</octave>        </pitch>        <duration>1</duration>        <instrument id="P1-I3"/>        <voice>1</voice>        <type>eighth</type>        <stem default-y="20">up</stem>        <beam number="1">continue</beam>      </note>      <note default-x="175">        <pitch>          <step>C</step>          <octave>5</octave>        </pitch>        <duration>1</duration>        <instrument id="P1-I3"/>        <voice>1</voice>        <type>eighth</type>        <stem default-y="20">up</stem>        <beam number="1">continue</beam>      </note>      <note default-x="202">        <pitch>          <step>A</step>          <octave>4</octave>        </pitch>        <duration>1</duration>        <instrument id="P1-I3"/>        <voice>1</voice>        <type>eighth</type>        <stem default-y="20">up</stem>        <beam number="1">end</beam>      </note>      <backup>        <duration>8</duration>      </backup>      <note default-x="10">        <pitch>          <step>G</step>          <octave>4</octave>        </pitch>        <duration>1</duration>        <instrument id="P1-I2"/>        <voice>2</voice>        <type>eighth</type>        <stem default-y="-74.5">down</stem>        <beam number="1">begin</beam>      </note>      <note default-x="38">        <pitch>          <step>F</step>          <octave>4</octave>        </pitch>        <duration>1</duration>        <instrument id="P1-I2"/>        <voice>2</voice>        <type>eighth</type>        <stem default-y="-76">down</stem>        <beam number="1">continue</beam>      </note>      <note default-x="65">        <pitch>          <step>E</step>          <alter>-1</alter>          <octave>4</octave>        </pitch>        <duration>1</duration>        <instrument id="P1-I2"/>        <voice>2</voice>        <type>eighth</type>        <stem default-y="-78">down</stem>        <beam number="1">continue</beam>      </note>      <note default-x="92">        <pitch>          <step>D</step>          <octave>4</octave>        </pitch>        <duration>1</duration>        <instrument id="P1-I2"/>        <voice>2</voice>        <type>eighth</type>        <stem default-y="-80">down</stem>        <beam number="1">end</beam>      </note>      <note default-x="120">        <pitch>          <step>E</step>          <alter>-1</alter>          <octave>4</octave>        </pitch>        <duration>1</duration>        <instrument id="P1-I2"/>        <voice>2</voice>        <type>eighth</type>        <stem default-y="-74.5">down</stem>        <beam number="1">begin</beam>      </note>      <note default-x="147">        <pitch>          <step>D</step>          <octave>4</octave>        </pitch>        <duration>1</duration>        <instrument id="P1-I2"/>        <voice>2</voice>        <type>eighth</type>        <stem default-y="-80">down</stem>        <beam number="1">end</beam>      </note>      <note default-x="175">        <pitch>          <step>C</step>          <octave>4</octave>        </pitch>        <duration>2</duration>        <instrument id="P1-I2"/>        <voice>2</voice>        <type>quarter</type>        <stem default-y="-75.5">down</stem>        <notations>          <slur bezier-x="47" bezier-y="-41" default-x="-6" default-y="-66" number="2" type="stop"/>        </notations>      </note>    </measure>    <!--=======================================================-->    <measure number="13" width="230">      <print new-system="yes">        <system-layout>          <system-distance>100</system-distance>        </system-layout>      </print>      <note default-x="85">        <pitch>          <step>B</step>          <alter>-1</alter>          <octave>4</octave>        </pitch>        <duration>3</duration>        <instrument id="P1-I3"/>        <voice>1</voice>        <type>quarter</type>        <dot/>        <stem default-y="16">up</stem>      </note>      <note default-x="127">        <pitch>          <step>A</step>          <octave>4</octave>        </pitch>        <duration>1</duration>        <instrument id="P1-I3"/>        <voice>1</voice>        <type>eighth</type>        <stem default-y="11">up</stem>      </note>      <note default-x="153">        <pitch>          <step>G</step>          <octave>4</octave>        </pitch>        <duration>1</duration>        <instrument id="P1-I3"/>        <voice>1</voice>        <type>eighth</type>        <stem default-y="15">up</stem>        <beam number="1">begin</beam>      </note>      <note default-x="172">        <pitch>          <step>A</step>          <octave>4</octave>        </pitch>        <duration>1</duration>        <instrument id="P1-I3"/>        <voice>1</voice>        <type>eighth</type>        <stem default-y="15">up</stem>        <beam number="1">continue</beam>      </note>      <note default-x="191">        <pitch>          <step>B</step>          <alter>-1</alter>          <octave>4</octave>        </pitch>        <duration>1</duration>        <instrument id="P1-I3"/>        <voice>1</voice>        <type>eighth</type>        <stem default-y="15">up</stem>        <beam number="1">continue</beam>      </note>      <note default-x="210">        <pitch>          <step>G</step>          <octave>4</octave>        </pitch>        <duration>1</duration>        <instrument id="P1-I3"/>        <voice>1</voice>        <type>eighth</type>        <stem default-y="15">up</stem>        <beam number="1">end</beam>      </note>      <backup>        <duration>8</duration>      </backup>      <note default-x="85">        <rest>          <display-step>C</display-step>          <display-octave>4</display-octave>        </rest>        <duration>2</duration>        <instrument id="P1-I2"/>        <voice>2</voice>        <type>quarter</type>      </note>      <note default-x="106">        <pitch>          <step>D</step>          <octave>4</octave>        </pitch>        <duration>1</duration>        <instrument id="P1-I2"/>        <voice>2</voice>        <type>eighth</type>        <stem default-y="-79.5">down</stem>        <beam number="1">begin</beam>        <notations>          <slur bezier-x="6" bezier-y="-23" default-x="0" default-y="-86" number="2" placement="below" type="start"/>        </notations>      </note>      <note default-x="127">        <pitch>          <step>C</step>          <octave>4</octave>        </pitch>        <duration>1</duration>        <instrument id="P1-I2"/>        <voice>2</voice>        <type>eighth</type>        <stem default-y="-84.5">down</stem>        <beam number="1">end</beam>      </note>      <note default-x="153">        <pitch>          <step>B</step>          <alter>-1</alter>          <octave>3</octave>        </pitch>        <duration>2</duration>        <instrument id="P1-I2"/>        <voice>2</voice>        <type>quarter</type>        <stem default-y="-80.5">down</stem>      </note>      <note default-x="191">        <pitch>          <step>D</step>          <octave>4</octave>        </pitch>        <duration>2</duration>        <instrument id="P1-I2"/>        <voice>2</voice>        <type>quarter</type>        <stem default-y="-70">down</stem>      </note>    </measure>    <!--=======================================================-->    <measure number="14" width="216">      <note default-x="10">        <pitch>          <step>A</step>          <octave>4</octave>        </pitch>        <duration>3</duration>        <instrument id="P1-I3"/>        <voice>1</voice>        <type>quarter</type>        <dot/>        <stem default-y="11">up</stem>        <notations>          <slur bezier-x2="-1" bezier-y2="41" default-x="-165" default-y="4" number="1" type="continue"/>          <slur bezier-x="-13" bezier-y="35" default-x="7" default-y="4" number="1" type="stop"/>        </notations>      </note>      <note default-x="87">        <pitch>          <step>G</step>          <octave>4</octave>        </pitch>        <duration>1</duration>        <instrument id="P1-I3"/>        <voice>1</voice>        <type>eighth</type>        <stem default-y="6">up</stem>      </note>      <note default-x="112">        <pitch>          <step>F</step>          <octave>4</octave>        </pitch>        <duration>2</duration>        <instrument id="P1-I3"/>        <voice>1</voice>        <type>quarter</type>        <stem default-y="1">up</stem>        <lyric default-y="-93" number="1">          <syllabic>end</syllabic>          <text font-size="11.2">a,</text>        </lyric>      </note>      <note default-x="163">        <pitch>          <step>F</step>          <octave>4</octave>        </pitch>        <duration>2</duration>        <instrument id="P1-I3"/>        <voice>1</voice>        <type>quarter</type>        <stem default-y="1">up</stem>        <lyric default-y="-93" number="1">          <syllabic>begin</syllabic>          <text font-size="11.2">Ho</text>        </lyric>      </note>      <backup>        <duration>8</duration>      </backup>      <note default-x="10">        <pitch>          <step>C</step>          <octave>4</octave>        </pitch>        <duration>2</duration>        <instrument id="P1-I2"/>        <voice>2</voice>        <type>quarter</type>        <stem default-y="-75.5">down</stem>        <notations>          <slur bezier-x="-10" bezier-y="-22" default-x="-5" default-y="-67" number="2" type="stop"/>        </notations>      </note>      <note default-x="61">        <pitch>          <step>B</step>          <alter>-1</alter>          <octave>3</octave>        </pitch>        <duration>2</duration>        <instrument id="P1-I2"/>        <voice>2</voice>        <type>quarter</type>        <stem default-y="-80.5">down</stem>        <lyric default-y="-93" number="1">          <syllabic>end</syllabic>          <text font-size="11.2">ri</text>        </lyric>      </note>      <note default-x="112">        <pitch>          <step>C</step>          <octave>4</octave>        </pitch>        <duration>2</duration>        <instrument id="P1-I2"/>        <voice>2</voice>        <type>quarter</type>        <stem default-y="-75.5">down</stem>      </note>      <note default-x="163">        <pitch>          <step>D</step>          <octave>4</octave>        </pitch>        <duration>2</duration>        <instrument id="P1-I2"/>        <voice>2</voice>        <type>quarter</type>        <stem default-y="-70">down</stem>      </note>    </measure>    <!--=======================================================-->    <measure number="15" width="216">      <note default-x="10">        <pitch>          <step>G</step>          <octave>4</octave>        </pitch>        <duration>2</duration>        <instrument id="P1-I3"/>        <voice>1</voice>        <type>quarter</type>        <stem default-y="6">up</stem>        <lyric default-y="-93" number="1">          <syllabic>begin</syllabic>          <text font-size="11.2">san</text>        </lyric>      </note>      <note default-x="61">        <pitch>          <step>B</step>          <alter>-1</alter>          <octave>4</octave>        </pitch>        <duration>2</duration>        <instrument id="P1-I3"/>        <voice>1</voice>        <type>quarter</type>        <stem default-y="16">up</stem>        <lyric default-y="-93" number="1">          <syllabic>end</syllabic>          <text font-size="11.2">na</text>        </lyric>      </note>      <note default-x="112">        <pitch>          <step>B</step>          <alter>-1</alter>          <octave>4</octave>        </pitch>        <duration>2</duration>        <instrument id="P1-I3"/>        <voice>1</voice>        <type>quarter</type>        <stem default-y="16">up</stem>        <lyric default-y="-93" number="1">          <syllabic>single</syllabic>          <text font-size="11.2">in</text>        </lyric>      </note>      <note default-x="163">        <pitch>          <step>A</step>          <octave>4</octave>        </pitch>        <duration>2</duration>        <instrument id="P1-I3"/>        <voice>1</voice>        <type>quarter</type>        <stem default-y="11">up</stem>        <lyric default-y="-93" number="1">          <syllabic>begin</syllabic>          <text font-size="11.2">ex</text>        </lyric>      </note>      <backup>        <duration>8</duration>      </backup>      <note default-x="21">        <pitch>          <step>F</step>          <octave>4</octave>        </pitch>        <duration>2</duration>        <instrument id="P1-I2"/>        <voice>2</voice>        <type>quarter</type>        <stem default-y="-60.5">down</stem>      </note>      <note default-x="61">        <pitch>          <step>E</step>          <alter>-1</alter>          <octave>4</octave>        </pitch>        <duration>2</duration>        <instrument id="P1-I2"/>        <voice>2</voice>        <type>quarter</type>        <stem default-y="-65">down</stem>      </note>      <note default-x="112">        <pitch>          <step>C</step>          <octave>4</octave>        </pitch>        <duration>2</duration>        <instrument id="P1-I2"/>        <voice>2</voice>        <type>quarter</type>        <stem default-y="-75.5">down</stem>      </note>      <note default-x="163">        <pitch>          <step>F</step>          <octave>4</octave>        </pitch>        <duration>2</duration>        <instrument id="P1-I2"/>        <voice>2</voice>        <type>quarter</type>        <stem default-y="-60.5">down</stem>      </note>    </measure>    <!--=======================================================-->    <measure number="16" width="234">      <note default-x="10">        <pitch>          <step>B</step>          <alter>-1</alter>          <octave>4</octave>        </pitch>        <duration>4</duration>        <instrument id="P1-I3"/>        <voice>1</voice>        <type>half</type>        <stem default-y="16">up</stem>        <lyric default-y="-93" number="1">          <syllabic>middle</syllabic>          <text font-size="11.2">cel</text>        </lyric>      </note>      <note default-x="112">        <pitch>          <step>B</step>          <alter>-1</alter>          <octave>4</octave>        </pitch>        <duration>4</duration>        <instrument id="P1-I3"/>        <voice>1</voice>        <type>half</type>        <stem default-y="16">up</stem>        <lyric default-y="-93" number="1">          <syllabic>middle</syllabic>          <text font-size="11.2">sis.</text>        </lyric>      </note>      <backup>        <duration>8</duration>      </backup>      <note default-x="10">        <pitch>          <step>F</step>          <octave>4</octave>        </pitch>        <duration>4</duration>        <instrument id="P1-I2"/>        <voice>2</voice>        <type>half</type>        <stem default-y="-60.5">down</stem>      </note>      <note default-x="112">        <pitch>          <step>F</step>          <octave>4</octave>        </pitch>        <duration>4</duration>        <instrument id="P1-I2"/>        <voice>2</voice>        <type>half</type>        <stem default-y="-60.5">down</stem>      </note>      <barline location="right">        <bar-style>light-heavy</bar-style>        <repeat direction="backward"/>      </barline>    </measure>  </part>  <!--=========================================================-->  <part id="P2">    <measure number="1" width="304">      <print>        <measure-numbering>none</measure-numbering>      </print>      <attributes>        <divisions>2</divisions>        <key>          <fifths>-2</fifths>          <mode>major</mode>        </key>        <time>          <beats>4</beats>          <beat-type>4</beat-type>        </time>        <instruments>2</instruments>        <clef>          <sign>F</sign>          <line>4</line>        </clef>      </attributes>      <sound tempo="180"/>      <note default-x="117">        <pitch>          <step>D</step>          <octave>4</octave>        </pitch>        <duration>2</duration>        <instrument id="P2-I1"/>        <voice>1</voice>        <type>quarter</type>        <stem default-y="40.5">up</stem>      </note>      <note default-x="163">        <pitch>          <step>B</step>          <alter>-1</alter>          <octave>3</octave>        </pitch>        <duration>2</duration>        <instrument id="P2-I1"/>        <voice>1</voice>        <type>quarter</type>        <stem default-y="31">up</stem>      </note>      <note default-x="209">        <pitch>          <step>G</step>          <octave>3</octave>        </pitch>        <duration>1</duration>        <instrument id="P2-I1"/>        <voice>1</voice>        <type>eighth</type>        <stem default-y="30">up</stem>        <beam number="1">begin</beam>      </note>      <note default-x="233">        <pitch>          <step>G</step>          <octave>3</octave>        </pitch>        <duration>1</duration>        <instrument id="P2-I1"/>        <voice>1</voice>        <type>eighth</type>        <stem default-y="30">up</stem>        <beam number="1">end</beam>      </note>      <note default-x="256">        <pitch>          <step>C</step>          <octave>4</octave>        </pitch>        <duration>1</duration>        <instrument id="P2-I1"/>        <voice>1</voice>        <type>eighth</type>        <stem default-y="45">up</stem>        <beam number="1">begin</beam>      </note>      <note default-x="279">        <pitch>          <step>B</step>          <alter>-1</alter>          <octave>3</octave>        </pitch>        <duration>1</duration>        <instrument id="P2-I1"/>        <voice>1</voice>        <type>eighth</type>        <stem default-y="40">up</stem>        <beam number="1">end</beam>      </note>      <backup>        <duration>8</duration>      </backup>      <note default-x="117">        <pitch>          <step>B</step>          <alter>-1</alter>          <octave>2</octave>        </pitch>        <duration>2</duration>        <instrument id="P2-I4"/>        <voice>2</voice>        <type>quarter</type>        <stem default-y="-55.5">down</stem>      </note>      <note default-x="163">        <pitch>          <step>D</step>          <octave>3</octave>        </pitch>        <duration>2</duration>        <instrument id="P2-I4"/>        <voice>2</voice>        <type>quarter</type>        <stem default-y="-55.5">down</stem>      </note>      <note default-x="209">        <pitch>          <step>E</step>          <alter>-1</alter>          <octave>3</octave>        </pitch>        <duration>1</duration>        <instrument id="P2-I4"/>        <voice>2</voice>        <type>eighth</type>        <stem default-y="-49.5">down</stem>        <beam number="1">begin</beam>      </note>      <note default-x="233">        <pitch>          <step>E</step>          <alter>-1</alter>          <octave>3</octave>        </pitch>        <duration>1</duration>        <instrument id="P2-I4"/>        <voice>2</voice>        <type>eighth</type>        <stem default-y="-49.5">down</stem>        <beam number="1">end</beam>      </note>      <note default-x="256">        <pitch>          <step>C</step>          <octave>3</octave>        </pitch>        <duration>1</duration>        <instrument id="P2-I4"/>        <voice>2</voice>        <type>eighth</type>        <stem default-y="-60">down</stem>        <beam number="1">begin</beam>      </note>      <note default-x="279">        <pitch>          <step>C</step>          <octave>3</octave>        </pitch>        <duration>1</duration>        <instrument id="P2-I4"/>        <voice>2</voice>        <type>eighth</type>        <stem default-y="-60">down</stem>        <beam number="1">end</beam>      </note>    </measure>    <!--=======================================================-->    <measure number="2" width="197">      <note default-x="10">        <pitch>          <step>A</step>          <octave>3</octave>        </pitch>        <duration>6</duration>        <instrument id="P2-I1"/>        <voice>1</voice>        <type>half</type>        <dot/>        <stem default-y="26">up</stem>      </note>      <note default-x="149">        <pitch>          <step>B</step>          <alter>-1</alter>          <octave>3</octave>        </pitch>        <duration>2</duration>        <instrument id="P2-I1"/>        <voice>1</voice>        <type>quarter</type>        <stem default-y="31">up</stem>      </note>      <backup>        <duration>8</duration>      </backup>      <note default-x="10">        <pitch>          <step>F</step>          <octave>3</octave>        </pitch>        <duration>6</duration>        <instrument id="P2-I4"/>        <voice>2</voice>        <type>half</type>        <dot/>        <stem default-y="-45.5">down</stem>      </note>      <note default-x="149">        <pitch>          <step>D</step>          <octave>3</octave>        </pitch>        <duration>2</duration>        <instrument id="P2-I4"/>        <voice>2</voice>        <type>quarter</type>        <stem default-y="-55.5">down</stem>      </note>    </measure>    <!--=======================================================-->    <measure number="3" width="197">      <note default-x="10">        <pitch>          <step>B</step>          <alter>-1</alter>          <octave>3</octave>        </pitch>        <duration>2</duration>        <instrument id="P2-I1"/>        <voice>1</voice>        <type>quarter</type>        <stem default-y="31">up</stem>      </note>      <note default-x="56">        <pitch>          <step>B</step>          <alter>-1</alter>          <octave>3</octave>        </pitch>        <duration>2</duration>        <instrument id="P2-I1"/>        <voice>1</voice>        <type>quarter</type>        <stem default-y="31">up</stem>      </note>      <note default-x="103">        <pitch>          <step>C</step>          <octave>4</octave>        </pitch>        <duration>2</duration>        <instrument id="P2-I1"/>        <voice>1</voice>        <type>quarter</type>        <stem default-y="36">up</stem>      </note>      <note default-x="149">        <pitch>          <step>C</step>          <octave>4</octave>        </pitch>        <duration>2</duration>        <instrument id="P2-I1"/>        <voice>1</voice>        <type>quarter</type>        <stem default-y="36">up</stem>      </note>      <backup>        <duration>8</duration>      </backup>      <note default-x="10">        <pitch>          <step>E</step>          <alter>-1</alter>          <octave>3</octave>        </pitch>        <duration>2</duration>        <instrument id="P2-I4"/>        <voice>2</voice>        <type>quarter</type>        <stem default-y="-50.5">down</stem>      </note>      <note default-x="56">        <pitch>          <step>G</step>          <octave>3</octave>        </pitch>        <duration>2</duration>        <instrument id="P2-I4"/>        <voice>2</voice>        <type>quarter</type>        <stem default-y="-41">down</stem>      </note>      <note default-x="103">        <pitch>          <step>F</step>          <octave>3</octave>        </pitch>        <duration>2</duration>        <instrument id="P2-I4"/>        <voice>2</voice>        <type>quarter</type>        <stem default-y="-45.5">down</stem>      </note>      <note default-x="149">        <pitch>          <step>F</step>          <octave>3</octave>        </pitch>        <duration>2</duration>        <instrument id="P2-I4"/>        <voice>2</voice>        <type>quarter</type>        <stem default-y="-45.5">down</stem>      </note>    </measure>    <!--=======================================================-->    <measure number="4" width="197">      <note default-x="10">        <pitch>          <step>D</step>          <octave>4</octave>        </pitch>        <duration>4</duration>        <instrument id="P2-I1"/>        <voice>1</voice>        <type>half</type>        <stem default-y="40.5">up</stem>      </note>      <note default-x="103">        <pitch>          <step>D</step>          <octave>4</octave>        </pitch>        <duration>4</duration>        <instrument id="P2-I1"/>        <voice>1</voice>        <type>half</type>        <stem default-y="40.5">up</stem>      </note>      <backup>        <duration>8</duration>      </backup>      <note default-x="10">        <pitch>          <step>B</step>          <alter>-1</alter>          <octave>2</octave>        </pitch>        <duration>4</duration>        <instrument id="P2-I4"/>        <voice>2</voice>        <type>half</type>        <stem default-y="-55.5">down</stem>      </note>      <note default-x="103">        <pitch>          <step>B</step>          <alter>-1</alter>          <octave>2</octave>        </pitch>        <duration>4</duration>        <instrument id="P2-I4"/>        <voice>2</voice>        <type>half</type>        <stem default-y="-55.5">down</stem>      </note>    </measure>    <!--=======================================================-->    <measure number="5" width="280">      <print new-system="yes"/>      <note default-x="85">        <pitch>          <step>D</step>          <octave>4</octave>        </pitch>        <duration>2</duration>        <instrument id="P2-I1"/>        <voice>1</voice>        <type>quarter</type>        <stem default-y="41">up</stem>      </note>      <note default-x="133">        <pitch>          <step>B</step>          <alter>-1</alter>          <octave>3</octave>        </pitch>        <duration>2</duration>        <instrument id="P2-I1"/>        <voice>1</voice>        <type>quarter</type>        <stem default-y="31">up</stem>      </note>      <note default-x="182">        <pitch>          <step>G</step>          <octave>3</octave>        </pitch>        <duration>1</duration>        <instrument id="P2-I1"/>        <voice>1</voice>        <type>eighth</type>        <stem default-y="30">up</stem>        <beam number="1">begin</beam>      </note>      <note default-x="206">        <pitch>          <step>G</step>          <octave>3</octave>        </pitch>        <duration>1</duration>        <instrument id="P2-I1"/>        <voice>1</voice>        <type>eighth</type>        <stem default-y="30">up</stem>        <beam number="1">end</beam>      </note>      <note default-x="230">        <pitch>          <step>C</step>          <octave>4</octave>        </pitch>        <duration>1</duration>        <instrument id="P2-I1"/>        <voice>1</voice>        <type>eighth</type>        <stem default-y="45">up</stem>        <beam number="1">begin</beam>      </note>      <note default-x="254">        <pitch>          <step>B</step>          <alter>-1</alter>          <octave>3</octave>        </pitch>        <duration>1</duration>        <instrument id="P2-I1"/>        <voice>1</voice>        <type>eighth</type>        <stem default-y="40">up</stem>        <beam number="1">end</beam>      </note>      <backup>        <duration>8</duration>      </backup>      <note default-x="85">        <pitch>          <step>B</step>          <alter>-1</alter>          <octave>2</octave>        </pitch>        <duration>2</duration>        <instrument id="P2-I4"/>        <voice>2</voice>        <type>quarter</type>        <stem default-y="-55.5">down</stem>      </note>      <note default-x="133">        <pitch>          <step>D</step>          <octave>3</octave>        </pitch>        <duration>2</duration>        <instrument id="P2-I4"/>        <voice>2</voice>        <type>quarter</type>        <stem default-y="-55.5">down</stem>      </note>      <note default-x="182">        <pitch>          <step>E</step>          <alter>-1</alter>          <octave>3</octave>        </pitch>        <duration>1</duration>        <instrument id="P2-I4"/>        <voice>2</voice>        <type>eighth</type>        <stem default-y="-50">down</stem>        <beam number="1">begin</beam>      </note>      <note default-x="206">        <pitch>          <step>E</step>          <alter>-1</alter>          <octave>3</octave>        </pitch>        <duration>1</duration>        <instrument id="P2-I4"/>        <voice>2</voice>        <type>eighth</type>        <stem default-y="-50">down</stem>        <beam number="1">end</beam>      </note>      <note default-x="230">        <pitch>          <step>C</step>          <octave>3</octave>        </pitch>        <duration>1</duration>        <instrument id="P2-I4"/>        <voice>2</voice>        <type>eighth</type>        <stem default-y="-60">down</stem>        <beam number="1">begin</beam>      </note>      <note default-x="254">        <pitch>          <step>C</step>          <octave>3</octave>        </pitch>        <duration>1</duration>        <instrument id="P2-I4"/>        <voice>2</voice>        <type>eighth</type>        <stem default-y="-60">down</stem>        <beam number="1">end</beam>      </note>    </measure>    <!--=======================================================-->    <measure number="6" width="205">      <note default-x="10">        <pitch>          <step>A</step>          <octave>3</octave>        </pitch>        <duration>6</duration>        <instrument id="P2-I1"/>        <voice>1</voice>        <type>half</type>        <dot/>        <stem default-y="26">up</stem>      </note>      <note default-x="155">        <pitch>          <step>B</step>          <alter>-1</alter>          <octave>3</octave>        </pitch>        <duration>2</duration>        <instrument id="P2-I1"/>        <voice>1</voice>        <type>quarter</type>        <stem default-y="31">up</stem>      </note>      <backup>        <duration>8</duration>      </backup>      <note default-x="10">        <pitch>          <step>F</step>          <octave>3</octave>        </pitch>        <duration>6</duration>        <instrument id="P2-I4"/>        <voice>2</voice>        <type>half</type>        <dot/>        <stem default-y="-45">down</stem>      </note>      <note default-x="155">        <pitch>          <step>D</step>          <octave>3</octave>        </pitch>        <duration>2</duration>        <instrument id="P2-I4"/>        <voice>2</voice>        <type>quarter</type>        <stem default-y="-55.5">down</stem>      </note>    </measure>    <!--=======================================================-->    <measure number="7" width="205">      <note default-x="10">        <pitch>          <step>B</step>          <alter>-1</alter>          <octave>3</octave>        </pitch>        <duration>2</duration>        <instrument id="P2-I1"/>        <voice>1</voice>        <type>quarter</type>        <stem default-y="31">up</stem>      </note>      <note default-x="58">        <pitch>          <step>B</step>          <alter>-1</alter>          <octave>3</octave>        </pitch>        <duration>2</duration>        <instrument id="P2-I1"/>        <voice>1</voice>        <type>quarter</type>        <stem default-y="31">up</stem>      </note>      <note default-x="107">        <pitch>          <step>C</step>          <octave>4</octave>        </pitch>        <duration>2</duration>        <instrument id="P2-I1"/>        <voice>1</voice>        <type>quarter</type>        <stem default-y="35.5">up</stem>      </note>      <note default-x="155">        <pitch>          <step>C</step>          <octave>4</octave>        </pitch>        <duration>2</duration>        <instrument id="P2-I1"/>        <voice>1</voice>        <type>quarter</type>        <stem default-y="35.5">up</stem>      </note>      <backup>        <duration>8</duration>      </backup>      <note default-x="10">        <pitch>          <step>E</step>          <alter>-1</alter>          <octave>3</octave>        </pitch>        <duration>2</duration>        <instrument id="P2-I4"/>        <voice>2</voice>        <type>quarter</type>        <stem default-y="-51">down</stem>      </note>      <note default-x="58">        <pitch>          <step>G</step>          <octave>3</octave>        </pitch>        <duration>2</duration>        <instrument id="P2-I4"/>        <voice>2</voice>        <type>quarter</type>        <stem default-y="-40.5">down</stem>      </note>      <note default-x="107">        <pitch>          <step>F</step>          <octave>3</octave>        </pitch>        <duration>2</duration>        <instrument id="P2-I4"/>        <voice>2</voice>        <type>quarter</type>        <stem default-y="-45">down</stem>      </note>      <note default-x="155">        <pitch>          <step>F</step>          <octave>3</octave>        </pitch>        <duration>2</duration>        <instrument id="P2-I4"/>        <voice>2</voice>        <type>quarter</type>        <stem default-y="-45">down</stem>      </note>    </measure>    <!--=======================================================-->    <measure number="8" width="205">      <note default-x="10">        <pitch>          <step>D</step>          <octave>4</octave>        </pitch>        <duration>4</duration>        <instrument id="P2-I1"/>        <voice>1</voice>        <type>half</type>        <stem default-y="41">up</stem>      </note>      <note default-x="107">        <pitch>          <step>D</step>          <octave>4</octave>        </pitch>        <duration>4</duration>        <instrument id="P2-I1"/>        <voice>1</voice>        <type>half</type>        <stem default-y="41">up</stem>      </note>      <backup>        <duration>8</duration>      </backup>      <note default-x="10">        <pitch>          <step>B</step>          <alter>-1</alter>          <octave>2</octave>        </pitch>        <duration>4</duration>        <instrument id="P2-I4"/>        <voice>2</voice>        <type>half</type>        <stem default-y="-55.5">down</stem>      </note>      <note default-x="107">        <pitch>          <step>B</step>          <alter>-1</alter>          <octave>2</octave>        </pitch>        <duration>4</duration>        <instrument id="P2-I4"/>        <voice>2</voice>        <type>half</type>        <stem default-y="-55.5">down</stem>      </note>    </measure>    <!--=======================================================-->    <measure number="9" width="266">      <print new-system="yes"/>      <barline location="left">        <bar-style>heavy-light</bar-style>        <repeat direction="forward"/>      </barline>      <note default-x="113">        <rest>          <display-step>E</display-step>          <display-octave>3</display-octave>        </rest>        <duration>2</duration>        <instrument id="P2-I1"/>        <voice>1</voice>        <type>quarter</type>      </note>      <note default-x="143">        <pitch>          <step>C</step>          <octave>4</octave>        </pitch>        <duration>2</duration>        <instrument id="P2-I1"/>        <voice>1</voice>        <type>quarter</type>        <stem default-y="36">up</stem>        <notations>          <slur bezier-x="-8" bezier-y="38" default-x="18" default-y="26" number="1" placement="above" type="start"/>        </notations>      </note>      <note default-x="184">        <pitch>          <step>D</step>          <octave>4</octave>        </pitch>        <duration>2</duration>        <instrument id="P2-I1"/>        <voice>1</voice>        <type>quarter</type>        <stem default-y="41">up</stem>      </note>      <note default-x="224">        <pitch>          <step>B</step>          <alter>-1</alter>          <octave>3</octave>        </pitch>        <duration>2</duration>        <instrument id="P2-I1"/>        <voice>1</voice>        <type>quarter</type>        <stem default-y="30.5">up</stem>      </note>      <backup>        <duration>8</duration>      </backup>      <forward>        <duration>2</duration>        <voice>2</voice>      </forward>      <note default-x="143">        <pitch>          <step>A</step>          <octave>3</octave>        </pitch>        <duration>2</duration>        <instrument id="P2-I4"/>        <voice>2</voice>        <type>quarter</type>        <stem default-y="-36">down</stem>        <notations>          <slur bezier-x="48" bezier-y="-43" default-x="5" default-y="-27" number="2" placement="below" type="start"/>        </notations>      </note>      <note default-x="184">        <pitch>          <step>B</step>          <alter>-1</alter>          <octave>3</octave>        </pitch>        <duration>2</duration>        <instrument id="P2-I4"/>        <voice>2</voice>        <type>quarter</type>        <stem default-y="-30">down</stem>      </note>      <note default-x="224">        <pitch>          <step>D</step>          <octave>3</octave>        </pitch>        <duration>2</duration>        <instrument id="P2-I4"/>        <voice>2</voice>        <type>quarter</type>        <stem default-y="-56">down</stem>      </note>    </measure>    <!--=======================================================-->    <measure number="10" width="232">      <note default-x="10">        <pitch>          <step>C</step>          <octave>4</octave>        </pitch>        <duration>2</duration>        <instrument id="P2-I1"/>        <voice>1</voice>        <type>quarter</type>        <stem default-y="36">up</stem>      </note>      <note default-x="65">        <pitch>          <step>B</step>          <alter>-1</alter>          <octave>3</octave>        </pitch>        <duration>4</duration>        <instrument id="P2-I1"/>        <voice>1</voice>        <type>half</type>        <stem default-y="30.5">up</stem>      </note>      <note default-x="175">        <pitch>          <step>C</step>          <octave>4</octave>        </pitch>        <duration>2</duration>        <instrument id="P2-I1"/>        <voice>1</voice>        <type>quarter</type>        <stem default-y="36">up</stem>        <notations>          <slur bezier-x="-57" bezier-y="27" default-x="7" default-y="26" number="1" type="stop"/>        </notations>      </note>      <backup>        <duration>8</duration>      </backup>      <note default-x="10">        <pitch>          <step>C</step>          <octave>3</octave>        </pitch>        <duration>2</duration>        <instrument id="P2-I4"/>        <voice>2</voice>        <type>quarter</type>        <stem default-y="-50">down</stem>      </note>      <note default-x="65">        <pitch>          <step>D</step>          <octave>3</octave>        </pitch>        <duration>2</duration>        <instrument id="P2-I4"/>        <voice>2</voice>        <type>quarter</type>        <stem default-y="-56">down</stem>      </note>      <note default-x="120">        <pitch>          <step>E</step>          <alter>-1</alter>          <octave>3</octave>        </pitch>        <duration>1</duration>        <instrument id="P2-I4"/>        <voice>2</voice>        <type>eighth</type>        <stem default-y="-50">down</stem>        <beam number="1">begin</beam>      </note>      <note default-x="148">        <pitch>          <step>D</step>          <octave>3</octave>        </pitch>        <duration>1</duration>        <instrument id="P2-I4"/>        <voice>2</voice>        <type>eighth</type>        <stem default-y="-55">down</stem>        <beam number="1">end</beam>      </note>      <note default-x="175">        <pitch>          <step>C</step>          <octave>3</octave>        </pitch>        <duration>2</duration>        <instrument id="P2-I4"/>        <voice>2</voice>        <type>quarter</type>        <stem default-y="-50">down</stem>        <notations>          <slur bezier-x="-4" bezier-y="-47" default-x="-5" default-y="-40" number="2" type="stop"/>        </notations>      </note>    </measure>    <!--=======================================================-->    <measure number="11" width="167">      <note default-x="11">        <rest>          <display-step>D</display-step>          <display-octave>3</display-octave>        </rest>        <duration>2</duration>        <instrument id="P2-I1"/>        <voice>1</voice>        <type>quarter</type>      </note>      <note default-x="38">        <pitch>          <step>A</step>          <octave>3</octave>        </pitch>        <duration>2</duration>        <instrument id="P2-I1"/>        <voice>1</voice>        <type>quarter</type>        <stem default-y="26">up</stem>        <notations>          <slur bezier-x="-4" bezier-y="39" default-x="18" default-y="16" number="1" placement="above" type="start"/>        </notations>      </note>      <note default-x="84">        <pitch>          <step>B</step>          <alter>-1</alter>          <octave>3</octave>        </pitch>        <duration>2</duration>        <instrument id="P2-I1"/>        <voice>1</voice>        <type>quarter</type>        <stem default-y="30.5">up</stem>      </note>      <note default-x="125">        <pitch>          <step>G</step>          <octave>3</octave>        </pitch>        <duration>2</duration>        <instrument id="P2-I1"/>        <voice>1</voice>        <type>quarter</type>        <stem default-y="21">up</stem>      </note>      <backup>        <duration>8</duration>      </backup>      <forward>        <duration>2</duration>        <voice>2</voice>      </forward>      <note default-x="38">        <pitch>          <step>F</step>          <octave>3</octave>        </pitch>        <duration>2</duration>        <instrument id="P2-I4"/>        <voice>2</voice>        <type>quarter</type>        <stem default-y="-45.5">down</stem>        <notations>          <slur bezier-x="50" bezier-y="-35" default-x="5" default-y="-36" number="2" placement="below" type="start"/>        </notations>      </note>      <note default-x="84">        <pitch>          <step>G</step>          <octave>3</octave>        </pitch>        <duration>2</duration>        <instrument id="P2-I4"/>        <voice>2</voice>        <type>quarter</type>        <stem default-y="-40.5">down</stem>      </note>      <note default-x="125">        <pitch>          <step>B</step>          <alter>-1</alter>          <octave>2</octave>        </pitch>        <duration>2</duration>        <instrument id="P2-I4"/>        <voice>2</voice>        <type>quarter</type>        <stem default-y="-56">down</stem>      </note>    </measure>    <!--=======================================================-->    <measure number="12" width="232">      <note default-x="10">        <pitch>          <step>A</step>          <octave>3</octave>        </pitch>        <duration>2</duration>        <instrument id="P2-I1"/>        <voice>1</voice>        <type>quarter</type>        <stem default-y="26">up</stem>      </note>      <note default-x="65">        <pitch>          <step>G</step>          <octave>3</octave>        </pitch>        <duration>4</duration>        <instrument id="P2-I1"/>        <voice>1</voice>        <type>half</type>        <stem default-y="21">up</stem>      </note>      <note default-x="175">        <pitch>          <step>A</step>          <octave>3</octave>        </pitch>        <duration>2</duration>        <instrument id="P2-I1"/>        <voice>1</voice>        <type>quarter</type>        <stem default-y="26">up</stem>        <notations>          <slur bezier-x="-65" bezier-y="20" default-x="7" default-y="16" number="1" type="stop"/>        </notations>      </note>      <backup>        <duration>8</duration>      </backup>      <note default-x="10">        <pitch>          <step>A</step>          <octave>2</octave>        </pitch>        <duration>2</duration>        <instrument id="P2-I4"/>        <voice>2</voice>        <type>quarter</type>        <stem default-y="-60.5">down</stem>      </note>      <note default-x="65">        <pitch>          <step>B</step>          <alter>-1</alter>          <octave>2</octave>        </pitch>        <duration>2</duration>        <instrument id="P2-I4"/>        <voice>2</voice>        <type>quarter</type>        <stem default-y="-56">down</stem>      </note>      <note default-x="120">        <pitch>          <step>C</step>          <octave>3</octave>        </pitch>        <duration>1</duration>        <instrument id="P2-I4"/>        <voice>2</voice>        <type>eighth</type>        <stem default-y="-60">down</stem>        <beam number="1">begin</beam>      </note>      <note default-x="147">        <pitch>          <step>B</step>          <alter>-1</alter>          <octave>2</octave>        </pitch>        <duration>1</duration>        <instrument id="P2-I4"/>        <voice>2</voice>        <type>eighth</type>        <stem default-y="-64.5">down</stem>        <beam number="1">end</beam>      </note>      <note default-x="175">        <pitch>          <step>A</step>          <octave>2</octave>        </pitch>        <duration>2</duration>        <instrument id="P2-I4"/>        <voice>2</voice>        <type>quarter</type>        <stem default-y="-60.5">down</stem>        <notations>          <slur bezier-x="20" bezier-y="-45" default-x="-6" default-y="-51" number="2" type="stop"/>        </notations>      </note>    </measure>    <!--=======================================================-->    <measure number="13" width="230">      <print new-system="yes"/>      <note default-x="85">        <rest>          <display-step>E</display-step>          <display-octave>3</display-octave>        </rest>        <duration>2</duration>        <instrument id="P2-I1"/>        <voice>1</voice>        <type>quarter</type>      </note>      <note default-x="106">        <pitch>          <step>F</step>          <octave>3</octave>        </pitch>        <duration>2</duration>        <instrument id="P2-I1"/>        <voice>1</voice>        <type>quarter</type>        <stem default-y="16">up</stem>        <notations>          <slur bezier-x="4" bezier-y="30" default-x="18" default-y="6" number="1" placement="above" type="start"/>        </notations>      </note>      <note default-x="153">        <pitch>          <step>G</step>          <octave>3</octave>        </pitch>        <duration>4</duration>        <instrument id="P2-I1"/>        <voice>1</voice>        <type>half</type>        <stem default-y="21">up</stem>      </note>      <backup>        <duration>8</duration>      </backup>      <forward>        <duration>2</duration>        <voice>2</voice>      </forward>      <note default-x="106">        <pitch>          <step>D</step>          <octave>3</octave>        </pitch>        <duration>2</duration>        <instrument id="P2-I4"/>        <voice>2</voice>        <type>quarter</type>        <stem default-y="-55">down</stem>        <notations>          <slur number="2" placement="below" type="start"/>        </notations>      </note>      <note default-x="153">        <pitch>          <step>E</step>          <alter>-1</alter>          <octave>3</octave>        </pitch>        <duration>2</duration>        <instrument id="P2-I4"/>        <voice>2</voice>        <type>quarter</type>        <stem default-y="-50.5">down</stem>      </note>      <note default-x="191">        <pitch>          <step>C</step>          <octave>3</octave>        </pitch>        <duration>2</duration>        <instrument id="P2-I4"/>        <voice>2</voice>        <type>quarter</type>        <stem default-y="-50.5">down</stem>      </note>    </measure>    <!--=======================================================-->    <measure number="14" width="216">      <note default-x="10">        <pitch>          <step>F</step>          <octave>3</octave>        </pitch>        <duration>2</duration>        <instrument id="P2-I1"/>        <voice>1</voice>        <type>quarter</type>        <stem default-y="16">up</stem>        <notations>          <slur bezier-x="-29" bezier-y="28" default-x="7" default-y="6" number="1" type="stop"/>        </notations>      </note>      <note default-x="61">        <pitch>          <step>B</step>          <alter>-1</alter>          <octave>3</octave>        </pitch>        <duration>2</duration>        <instrument id="P2-I1"/>        <voice>1</voice>        <type>quarter</type>        <stem default-y="31">up</stem>      </note>      <note default-x="112">        <pitch>          <step>C</step>          <octave>4</octave>        </pitch>        <duration>2</duration>        <instrument id="P2-I1"/>        <voice>1</voice>        <type>quarter</type>        <stem default-y="36">up</stem>      </note>      <note default-x="163">        <pitch>          <step>D</step>          <octave>4</octave>        </pitch>        <duration>2</duration>        <instrument id="P2-I1"/>        <voice>1</voice>        <type>quarter</type>        <stem default-y="41">up</stem>      </note>      <backup>        <duration>8</duration>      </backup>      <note default-x="10">        <pitch>          <step>F</step>          <octave>3</octave>        </pitch>        <duration>2</duration>        <instrument id="P2-I4"/>        <voice>2</voice>        <type>quarter</type>        <stem default-y="-45.5">down</stem>        <notations>          <slur number="2" type="stop"/>        </notations>      </note>      <note default-x="61">        <pitch>          <step>G</step>          <octave>3</octave>        </pitch>        <duration>2</duration>        <instrument id="P2-I4"/>        <voice>2</voice>        <type>quarter</type>        <stem default-y="-41">down</stem>      </note>      <note default-x="112">        <pitch>          <step>A</step>          <octave>3</octave>        </pitch>        <duration>2</duration>        <instrument id="P2-I4"/>        <voice>2</voice>        <type>quarter</type>        <stem default-y="-35">down</stem>      </note>      <note default-x="163">        <pitch>          <step>B</step>          <alter>-1</alter>          <octave>3</octave>        </pitch>        <duration>2</duration>        <instrument id="P2-I4"/>        <voice>2</voice>        <type>quarter</type>        <stem default-y="-30.5">down</stem>      </note>    </measure>    <!--=======================================================-->    <measure number="15" width="216">      <note default-x="10">        <pitch>          <step>B</step>          <alter>-1</alter>          <octave>3</octave>        </pitch>        <duration>2</duration>        <instrument id="P2-I1"/>        <voice>1</voice>        <type>quarter</type>        <stem default-y="31">up</stem>      </note>      <note default-x="61">        <pitch>          <step>B</step>          <alter>-1</alter>          <octave>3</octave>        </pitch>        <duration>2</duration>        <instrument id="P2-I1"/>        <voice>1</voice>        <type>quarter</type>        <stem default-y="31">up</stem>      </note>      <note default-x="112">        <pitch>          <step>C</step>          <octave>4</octave>        </pitch>        <duration>2</duration>        <instrument id="P2-I1"/>        <voice>1</voice>        <type>quarter</type>        <stem default-y="36">up</stem>      </note>      <note default-x="163">        <pitch>          <step>C</step>          <octave>4</octave>        </pitch>        <duration>2</duration>        <instrument id="P2-I1"/>        <voice>1</voice>        <type>quarter</type>        <stem default-y="36">up</stem>      </note>      <backup>        <duration>8</duration>      </backup>      <note default-x="10">        <pitch>          <step>E</step>          <alter>-1</alter>          <octave>3</octave>        </pitch>        <duration>2</duration>        <instrument id="P2-I4"/>        <voice>2</voice>        <type>quarter</type>        <stem default-y="-50.5">down</stem>      </note>      <note default-x="61">        <pitch>          <step>G</step>          <octave>3</octave>        </pitch>        <duration>2</duration>        <instrument id="P2-I4"/>        <voice>2</voice>        <type>quarter</type>        <stem default-y="-41">down</stem>      </note>      <note default-x="112">        <pitch>          <step>F</step>          <octave>3</octave>        </pitch>        <duration>2</duration>        <instrument id="P2-I4"/>        <voice>2</voice>        <type>quarter</type>        <stem default-y="-45.5">down</stem>      </note>      <note default-x="163">        <pitch>          <step>F</step>          <octave>3</octave>        </pitch>        <duration>2</duration>        <instrument id="P2-I4"/>        <voice>2</voice>        <type>quarter</type>        <stem default-y="-45.5">down</stem>      </note>    </measure>    <!--=======================================================-->    <measure number="16" width="234">      <note default-x="10">        <pitch>          <step>D</step>          <octave>4</octave>        </pitch>        <duration>4</duration>        <instrument id="P2-I1"/>        <voice>1</voice>        <type>half</type>        <stem default-y="41">up</stem>      </note>      <note default-x="112">        <pitch>          <step>D</step>          <octave>4</octave>        </pitch>        <duration>4</duration>        <instrument id="P2-I1"/>        <voice>1</voice>        <type>half</type>        <stem default-y="41">up</stem>      </note>      <backup>        <duration>8</duration>      </backup>      <note default-x="10">        <pitch>          <step>B</step>          <alter>-1</alter>          <octave>2</octave>        </pitch>        <duration>4</duration>        <instrument id="P2-I4"/>        <voice>2</voice>        <type>half</type>        <stem default-y="-55">down</stem>      </note>      <note default-x="112">        <pitch>          <step>B</step>          <alter>-1</alter>          <octave>2</octave>        </pitch>        <duration>4</duration>        <instrument id="P2-I4"/>        <voice>2</voice>        <type>half</type>        <stem default-y="-55">down</stem>      </note>      <barline location="right">        <bar-style>light-heavy</bar-style>        <repeat direction="backward"/>      </barline>    </measure>  </part>  <!--=========================================================--></score-partwise>