<?xml version="1.0" encoding="UTF-8"?><!DOCTYPE score-partwise PUBLIC "-//Recordare//DTD MusicXML 2.0 Partwise//EN"                                "http://www.musicxml.org/dtds/partwise.dtd"><score-partwise version="2.0">  <movement-title>Coventry Carol</movement-title>  <identification>    <creator type="composer">Arr. by Martin Shaw</creator>    <rights>CM Kerstzingcie 2006</rights>    <encoding>      <software>Finale 2011 for Macintosh</software>      <software>Dolet Light for Finale 2011</software>      <encoding-date>2011-09-30</encoding-date>      <supports attribute="new-system" element="print" type="yes" value="yes"/>      <supports attribute="new-page" element="print" type="yes" value="yes"/>    </encoding>  </identification>  <defaults>    <scaling>      <millimeters>7.2319</millimeters>      <tenths>40</tenths>    </scaling>    <page-layout>      <page-height>1545</page-height>      <page-width>1194</page-width>      <page-margins type="both">        <left-margin>140</left-margin>        <right-margin>70</right-margin>        <top-margin>70</top-margin>        <bottom-margin>70</bottom-margin>      </page-margins>    </page-layout>    <system-layout>      <system-margins>        <left-margin>0</left-margin>        <right-margin>2</right-margin>      </system-margins>      <system-distance>127</system-distance>      <top-system-distance>76</top-system-distance>    </system-layout>    <staff-layout>      <staff-distance>148</staff-distance>    </staff-layout>    <appearance>      <line-width type="stem">1.4583</line-width>      <line-width type="beam">5</line-width>      <line-width type="staff">1.4583</line-width>      <line-width type="light barline">1.4583</line-width>      <line-width type="heavy barline">5</line-width>      <line-width type="leger">1.4583</line-width>      <line-width type="ending">1.4583</line-width>      <line-width type="wedge">1.4583</line-width>      <line-width type="enclosure">1.4583</line-width>      <line-width type="tuplet bracket">1.4583</line-width>      <note-size type="grace">60</note-size>      <note-size type="cue">60</note-size>    </appearance>    <music-font font-family="Maestro" font-size="20.5"/>    <word-font font-family="Times New Roman" font-size="10.25"/>    <lyric-font font-family="Times New Roman" font-size="10.25" name="verse"/>  </defaults>  <credit page="1">    <credit-words default-x="632" default-y="1458" font-size="24" font-weight="bold" justify="center" valign="top">09. Coventry Carol</credit-words>  </credit>  <credit page="1">    <credit-words default-x="1124" default-y="1393" font-size="12" font-weight="bold" justify="right" valign="top">Arr. by Martin Shaw</credit-words>  </credit>  <credit page="1">    <credit-words default-x="632" default-y="53" font-size="10" halign="center" valign="bottom">CM Kerstzingcie 2006</credit-words>  </credit>  <credit page="1">    <credit-words default-x="792" default-y="126" font-size="12" valign="top">After 3rd verse, sing refrain again</credit-words>  </credit>  <part-list>    <part-group number="1" type="start">      <group-symbol default-x="-6">bracket</group-symbol>      <group-barline>no</group-barline>    </part-group>    <score-part id="P1">      <part-name>Soprano</part-name>      <part-abbreviation>S</part-abbreviation>      <score-instrument id="P1-I1">        <instrument-name>Choir Aahs</instrument-name>      </score-instrument>      <score-instrument id="P1-I2">        <instrument-name>Instrument2</instrument-name>      </score-instrument>      <midi-instrument id="P1-I1">        <midi-channel>1</midi-channel>        <midi-program>72</midi-program>        <volume>80</volume>        <pan>0</pan>      </midi-instrument>      <midi-instrument id="P1-I2">        <midi-channel>2</midi-channel>        <midi-program>57</midi-program>        <volume>80</volume>        <pan>0</pan>      </midi-instrument>    </score-part>    <score-part id="P2">      <part-name>Bass</part-name>      <part-abbreviation>B</part-abbreviation>      <score-instrument id="P2-I3">        <instrument-name>Instrument3</instrument-name>      </score-instrument>      <score-instrument id="P2-I4">        <instrument-name>Instrument4</instrument-name>      </score-instrument>      <midi-instrument id="P2-I3">        <midi-channel>3</midi-channel>        <midi-program>58</midi-program>        <volume>80</volume>        <pan>0</pan>      </midi-instrument>      <midi-instrument id="P2-I4">        <midi-channel>4</midi-channel>        <midi-program>59</midi-program>        <volume>80</volume>        <pan>0</pan>      </midi-instrument>    </score-part>    <part-group number="1" type="stop"/>  </part-list>  <!--=========================================================-->  <part id="P1">    <measure number="1" width="292">      <print>        <system-layout>          <system-margins>            <left-margin>2</left-margin>            <right-margin>2</right-margin>          </system-margins>          <top-system-distance>132</top-system-distance>        </system-layout>        <measure-numbering>system</measure-numbering>      </print>      <attributes>        <divisions>2</divisions>        <key>          <fifths>-2</fifths>          <mode>minor</mode>        </key>        <time>          <beats>3</beats>          <beat-type>2</beat-type>        </time>        <instruments>2</instruments>        <clef>          <sign>G</sign>          <line>2</line>        </clef>      </attributes>      <sound tempo="270"/>      <direction placement="below">        <direction-type>          <dynamics default-y="-115" relative-x="-55">            <pp/>          </dynamics>        </direction-type>      </direction>      <note default-x="123">        <pitch>          <step>D</step>          <octave>4</octave>        </pitch>        <duration>4</duration>        <instrument id="P1-I1"/>        <voice>1</voice>        <type>half</type>        <stem default-y="-71">down</stem>      </note>      <note default-x="180">        <pitch>          <step>D</step>          <octave>4</octave>        </pitch>        <duration>4</duration>        <instrument id="P1-I1"/>        <voice>1</voice>        <type>half</type>        <stem default-y="-71">down</stem>      </note>      <note default-x="235">        <pitch>          <step>D</step>          <octave>4</octave>        </pitch>        <duration>4</duration>        <instrument id="P1-I1"/>        <voice>1</voice>        <type>half</type>        <stem default-y="-71">down</stem>      </note>      <backup>        <duration>12</duration>      </backup>      <note default-x="123">        <pitch>          <step>G</step>          <octave>4</octave>        </pitch>        <duration>4</duration>        <instrument id="P1-I2"/>        <voice>2</voice>        <type>half</type>        <stem default-y="6">up</stem>        <lyric default-y="-120" number="2">          <syllabic>begin</syllabic>          <text>Lul</text>        </lyric>      </note>      <note default-x="180">        <pitch>          <step>G</step>          <octave>4</octave>        </pitch>        <duration>4</duration>        <instrument id="P1-I2"/>        <voice>2</voice>        <type>half</type>        <stem default-y="6">up</stem>        <lyric default-y="-120" number="2">          <syllabic>end</syllabic>          <text>ly,</text>        </lyric>      </note>      <note default-x="235">        <pitch>          <step>F</step>          <alter>1</alter>          <octave>4</octave>        </pitch>        <duration>4</duration>        <instrument id="P1-I2"/>        <voice>2</voice>        <type>half</type>        <accidental>sharp</accidental>        <stem default-y="0.5">up</stem>        <lyric default-y="-120" number="2">          <syllabic>begin</syllabic>          <text>lul</text>        </lyric>      </note>    </measure>    <!--=======================================================-->    <measure number="2" width="160">      <note default-x="13">        <pitch>          <step>D</step>          <octave>4</octave>        </pitch>        <duration>8</duration>        <instrument id="P1-I1"/>        <voice>1</voice>        <type>whole</type>      </note>      <note default-x="103">        <pitch>          <step>G</step>          <octave>4</octave>        </pitch>        <duration>4</duration>        <instrument id="P1-I1"/>        <voice>1</voice>        <type>half</type>        <stem default-y="-55.5">down</stem>      </note>      <backup>        <duration>12</duration>      </backup>      <note default-x="13">        <pitch>          <step>G</step>          <octave>4</octave>        </pitch>        <duration>8</duration>        <instrument id="P1-I2"/>        <voice>2</voice>        <type>whole</type>        <lyric default-y="-120" number="2">          <syllabic>end</syllabic>          <text>la,</text>        </lyric>      </note>      <note default-x="103">        <pitch>          <step>B</step>          <alter>-1</alter>          <octave>4</octave>        </pitch>        <duration>4</duration>        <instrument id="P1-I2"/>        <voice>2</voice>        <type>half</type>        <stem default-y="16">up</stem>        <lyric default-y="-120" number="2">          <syllabic>single</syllabic>          <text>thou</text>        </lyric>      </note>    </measure>    <!--=======================================================-->    <measure number="3" width="195">      <note default-x="13">        <pitch>          <step>F</step>          <octave>4</octave>        </pitch>        <duration>2</duration>        <instrument id="P1-I1"/>        <voice>1</voice>        <type>quarter</type>        <stem default-y="-61">down</stem>      </note>      <note default-x="48">        <pitch>          <step>F</step>          <octave>4</octave>        </pitch>        <duration>2</duration>        <instrument id="P1-I1"/>        <voice>1</voice>        <type>quarter</type>        <stem default-y="-61">down</stem>      </note>      <note default-x="82">        <pitch>          <step>F</step>          <octave>4</octave>        </pitch>        <duration>4</duration>        <instrument id="P1-I1"/>        <voice>1</voice>        <type>half</type>        <stem default-y="-61">down</stem>      </note>      <note default-x="138">        <pitch>          <step>D</step>          <octave>4</octave>        </pitch>        <duration>4</duration>        <instrument id="P1-I1"/>        <voice>1</voice>        <type>half</type>        <stem default-y="-71">down</stem>      </note>      <backup>        <duration>12</duration>      </backup>      <note default-x="13">        <pitch>          <step>A</step>          <octave>4</octave>        </pitch>        <duration>2</duration>        <instrument id="P1-I2"/>        <voice>2</voice>        <type>quarter</type>        <stem default-y="11">up</stem>        <lyric default-y="-120" number="2">          <syllabic>begin</syllabic>          <text>lit</text>        </lyric>      </note>      <note default-x="48">        <pitch>          <step>A</step>          <octave>4</octave>        </pitch>        <duration>2</duration>        <instrument id="P1-I2"/>        <voice>2</voice>        <type>quarter</type>        <stem default-y="11">up</stem>        <lyric default-y="-120" number="2">          <syllabic>end</syllabic>          <text>tle</text>        </lyric>      </note>      <note default-x="82">        <pitch>          <step>A</step>          <octave>4</octave>        </pitch>        <duration>4</duration>        <instrument id="P1-I2"/>        <voice>2</voice>        <type>half</type>        <stem default-y="11">up</stem>        <lyric default-y="-120" number="2">          <syllabic>begin</syllabic>          <text>ti</text>        </lyric>      </note>      <note default-x="138">        <pitch>          <step>G</step>          <octave>4</octave>        </pitch>        <duration>4</duration>        <instrument id="P1-I2"/>        <voice>2</voice>        <type>half</type>        <stem default-y="6">up</stem>        <lyric default-y="-120" number="2">          <syllabic>end</syllabic>          <text>ny</text>        </lyric>      </note>    </measure>    <!--=======================================================-->    <measure number="4" width="147">      <note default-x="26">        <pitch>          <step>D</step>          <octave>4</octave>        </pitch>        <duration>12</duration>        <instrument id="P1-I1"/>        <voice>1</voice>        <type>whole</type>        <dot/>      </note>      <backup>        <duration>12</duration>      </backup>      <note default-x="26">        <pitch>          <step>F</step>          <alter>1</alter>          <octave>4</octave>        </pitch>        <duration>12</duration>        <instrument id="P1-I2"/>        <voice>2</voice>        <type>whole</type>        <dot/>        <accidental>sharp</accidental>        <lyric default-y="-120" number="2">          <syllabic>single</syllabic>          <text>child,</text>        </lyric>      </note>    </measure>    <!--=======================================================-->    <measure number="5" width="185">      <note default-x="16">        <pitch>          <step>D</step>          <octave>4</octave>        </pitch>        <duration>4</duration>        <instrument id="P1-I1"/>        <voice>1</voice>        <type>half</type>        <stem default-y="-71">down</stem>      </note>      <note default-x="71">        <pitch>          <step>F</step>          <octave>4</octave>        </pitch>        <duration>4</duration>        <instrument id="P1-I1"/>        <voice>1</voice>        <type>half</type>        <stem default-y="-61">down</stem>      </note>      <note default-x="127">        <pitch>          <step>F</step>          <octave>4</octave>        </pitch>        <duration>4</duration>        <instrument id="P1-I1"/>        <voice>1</voice>        <type>half</type>        <stem default-y="-61">down</stem>      </note>      <backup>        <duration>12</duration>      </backup>      <note default-x="16">        <pitch>          <step>G</step>          <octave>4</octave>        </pitch>        <duration>4</duration>        <instrument id="P1-I2"/>        <voice>2</voice>        <type>half</type>        <stem default-y="6">up</stem>        <lyric default-y="-120" number="2">          <syllabic>single</syllabic>          <text>By</text>        </lyric>      </note>      <note default-x="71">        <pitch>          <step>A</step>          <octave>4</octave>        </pitch>        <duration>4</duration>        <instrument id="P1-I2"/>        <voice>2</voice>        <type>half</type>        <stem default-y="11">up</stem>        <lyric default-y="-120" number="2">          <syllabic>single</syllabic>          <text>by,</text>        </lyric>      </note>      <note default-x="127">        <pitch>          <step>B</step>          <alter>-1</alter>          <octave>4</octave>        </pitch>        <duration>4</duration>        <instrument id="P1-I2"/>        <voice>2</voice>        <type>half</type>        <stem default-y="16">up</stem>        <lyric default-y="-120" number="2">          <syllabic>begin</syllabic>          <text>lul</text>        </lyric>      </note>    </measure>    <!--=======================================================-->    <measure number="6" width="228">      <print new-system="yes">        <system-layout>          <system-margins>            <left-margin>0</left-margin>            <right-margin>0</right-margin>          </system-margins>          <system-distance>48</system-distance>        </system-layout>      </print>      <note default-x="89">        <pitch>          <step>G</step>          <octave>4</octave>        </pitch>        <duration>8</duration>        <instrument id="P1-I1"/>        <voice>1</voice>        <type>whole</type>      </note>      <note default-x="178">        <pitch>          <step>F</step>          <alter>1</alter>          <octave>4</octave>        </pitch>        <duration>4</duration>        <instrument id="P1-I1"/>        <voice>1</voice>        <type>half</type>        <accidental>sharp</accidental>        <stem default-y="-61">down</stem>      </note>      <backup>        <duration>12</duration>      </backup>      <note default-x="89">        <pitch>          <step>C</step>          <octave>5</octave>        </pitch>        <duration>4</duration>        <instrument id="P1-I2"/>        <voice>2</voice>        <type>half</type>        <stem default-y="11">up</stem>        <lyric default-y="-120" number="2">          <syllabic>end</syllabic>          <text>ly</text>        </lyric>      </note>      <note default-x="138">        <pitch>          <step>A</step>          <octave>4</octave>        </pitch>        <duration>8</duration>        <instrument id="P1-I2"/>        <voice>2</voice>        <type>whole</type>        <lyric default-y="-120" number="2">          <syllabic>begin</syllabic>          <text>lul</text>        </lyric>      </note>    </measure>    <!--=======================================================-->    <measure number="7" width="126">      <note default-x="22">        <pitch>          <step>G</step>          <octave>4</octave>        </pitch>        <duration>12</duration>        <instrument id="P1-I1"/>        <voice>1</voice>        <type>whole</type>        <dot/>      </note>      <backup>        <duration>12</duration>      </backup>      <note default-x="22">        <pitch>          <step>B</step>          <octave>4</octave>        </pitch>        <duration>12</duration>        <instrument id="P1-I2"/>        <voice>2</voice>        <type>whole</type>        <dot/>        <accidental>natural</accidental>        <lyric default-y="-120" number="2">          <syllabic>end</syllabic>          <text>lay.</text>        </lyric>      </note>    </measure>    <!--=======================================================-->    <measure number="8" width="194">      <barline location="left">        <bar-style>heavy-light</bar-style>        <repeat direction="forward"/>      </barline>      <direction placement="below">        <direction-type>          <dynamics default-y="-90" relative-x="-45">            <p/>          </dynamics>        </direction-type>      </direction>      <direction placement="below">        <direction-type>          <dynamics default-y="-115" relative-x="-47">            <f/>          </dynamics>        </direction-type>      </direction>      <direction placement="below">        <direction-type>          <dynamics default-y="-139" relative-x="-59">            <pp/>          </dynamics>        </direction-type>      </direction>      <note default-x="48">        <pitch>          <step>D</step>          <octave>4</octave>        </pitch>        <duration>4</duration>        <instrument id="P1-I1"/>        <voice>1</voice>        <type>half</type>        <stem default-y="-70.5">down</stem>      </note>      <note default-x="102">        <pitch>          <step>D</step>          <octave>4</octave>        </pitch>        <duration>4</duration>        <instrument id="P1-I1"/>        <voice>1</voice>        <type>half</type>        <stem default-y="-70.5">down</stem>      </note>      <note default-x="152">        <pitch>          <step>D</step>          <octave>4</octave>        </pitch>        <duration>4</duration>        <instrument id="P1-I1"/>        <voice>1</voice>        <type>half</type>        <stem default-y="-70.5">down</stem>      </note>      <backup>        <duration>12</duration>      </backup>      <note default-x="48">        <pitch>          <step>G</step>          <octave>4</octave>        </pitch>        <duration>4</duration>        <instrument id="P1-I2"/>        <voice>2</voice>        <type>half</type>        <stem default-y="6">up</stem>        <lyric default-y="-101" number="1">          <syllabic>single</syllabic>          <text>1.O</text>        </lyric>        <lyric default-y="-120" number="2">          <syllabic>begin</syllabic>          <text>2.He</text>        </lyric>        <lyric default-y="-142" number="3">          <syllabic>single</syllabic>          <text>3.That</text>        </lyric>      </note>      <note default-x="102">        <pitch>          <step>G</step>          <octave>4</octave>        </pitch>        <duration>4</duration>        <instrument id="P1-I2"/>        <voice>2</voice>        <type>half</type>        <stem default-y="6">up</stem>        <lyric default-y="-101" number="1">          <syllabic>begin</syllabic>          <text>sis</text>        </lyric>        <lyric default-y="-120" number="2">          <syllabic>end</syllabic>          <text>rod,</text>        </lyric>        <lyric default-y="-142" number="3">          <syllabic>single</syllabic>          <text>woe</text>        </lyric>      </note>      <note default-x="152">        <pitch>          <step>F</step>          <alter>1</alter>          <octave>4</octave>        </pitch>        <duration>4</duration>        <instrument id="P1-I2"/>        <voice>2</voice>        <type>half</type>        <accidental>sharp</accidental>        <stem default-y="1">up</stem>        <lyric default-y="-101" number="1">          <syllabic>end</syllabic>          <text>ters</text>        </lyric>        <lyric default-y="-120" number="2">          <syllabic>single</syllabic>          <text>the</text>        </lyric>        <lyric default-y="-142" number="3">          <syllabic>single</syllabic>          <text>is</text>        </lyric>      </note>    </measure>    <!--=======================================================-->    <measure number="9" width="152">      <note default-x="24">        <pitch>          <step>D</step>          <octave>4</octave>        </pitch>        <duration>8</duration>        <instrument id="P1-I1"/>        <voice>1</voice>        <type>whole</type>      </note>      <note default-x="102">        <pitch>          <step>G</step>          <octave>4</octave>        </pitch>        <duration>4</duration>        <instrument id="P1-I1"/>        <voice>1</voice>        <type>half</type>        <stem default-y="-55.5">down</stem>      </note>      <backup>        <duration>12</duration>      </backup>      <note default-x="24">        <pitch>          <step>G</step>          <octave>4</octave>        </pitch>        <duration>8</duration>        <instrument id="P1-I2"/>        <voice>2</voice>        <type>whole</type>        <lyric default-y="-101" number="1">          <syllabic>single</syllabic>          <text>too,</text>        </lyric>        <lyric default-y="-120" number="2">          <syllabic>single</syllabic>          <text>king,</text>        </lyric>        <lyric default-y="-142" number="3">          <syllabic>single</syllabic>          <text>me,</text>        </lyric>      </note>      <note default-x="113">        <pitch>          <step>B</step>          <alter>-1</alter>          <octave>4</octave>        </pitch>        <duration>4</duration>        <instrument id="P1-I2"/>        <voice>2</voice>        <type>half</type>        <stem default-y="16">up</stem>        <lyric default-y="-101" number="1">          <syllabic>single</syllabic>          <text>How</text>        </lyric>        <lyric default-y="-120" number="2">          <syllabic>single</syllabic>          <text>In</text>        </lyric>        <lyric default-y="-142" number="3">          <syllabic>single</syllabic>          <text>poor</text>        </lyric>      </note>    </measure>    <!--=======================================================-->    <measure number="10" width="152">      <note default-x="24">        <pitch>          <step>F</step>          <octave>4</octave>        </pitch>        <duration>8</duration>        <instrument id="P1-I1"/>        <voice>1</voice>        <type>whole</type>      </note>      <note default-x="102">        <pitch>          <step>D</step>          <octave>4</octave>        </pitch>        <duration>4</duration>        <instrument id="P1-I1"/>        <voice>1</voice>        <type>half</type>        <stem default-y="-70.5">down</stem>      </note>      <backup>        <duration>12</duration>      </backup>      <note default-x="24">        <pitch>          <step>A</step>          <octave>4</octave>        </pitch>        <duration>8</duration>        <instrument id="P1-I2"/>        <voice>2</voice>        <type>whole</type>        <lyric default-y="-101" number="1">          <syllabic>single</syllabic>          <text>may</text>        </lyric>        <lyric default-y="-120" number="2">          <syllabic>single</syllabic>          <text>his</text>        </lyric>        <lyric default-y="-142" number="3">          <syllabic>single</syllabic>          <text>child</text>        </lyric>      </note>      <note default-x="102">        <pitch>          <step>G</step>          <octave>4</octave>        </pitch>        <duration>4</duration>        <instrument id="P1-I2"/>        <voice>2</voice>        <type>half</type>        <stem default-y="6">up</stem>        <lyric default-y="-101" number="1">          <syllabic>single</syllabic>          <text>we</text>        </lyric>        <lyric default-y="-120" number="2">          <syllabic>begin</syllabic>          <text>rag</text>        </lyric>        <lyric default-y="-142" number="3">          <syllabic>single</syllabic>          <text>for</text>        </lyric>      </note>    </measure>    <!--=======================================================-->    <measure number="11" width="131">      <note default-x="24">        <pitch>          <step>D</step>          <octave>4</octave>        </pitch>        <duration>12</duration>        <instrument id="P1-I1"/>        <voice>1</voice>        <type>whole</type>        <dot/>      </note>      <backup>        <duration>12</duration>      </backup>      <note default-x="24">        <pitch>          <step>F</step>          <alter>1</alter>          <octave>4</octave>        </pitch>        <duration>12</duration>        <instrument id="P1-I2"/>        <voice>2</voice>        <type>whole</type>        <dot/>        <accidental>sharp</accidental>        <lyric default-y="-101" number="1">          <syllabic>single</syllabic>          <text>do</text>        </lyric>        <lyric default-y="-120" number="2">          <syllabic>end</syllabic>          <text>ing,</text>        </lyric>        <lyric default-y="-142" number="3">          <syllabic>single</syllabic>          <text>thee!</text>        </lyric>      </note>    </measure>    <!--=======================================================-->    <measure number="12" width="267">      <print new-system="yes">        <system-layout>          <system-margins>            <left-margin>0</left-margin>            <right-margin>0</right-margin>          </system-margins>          <system-distance>95</system-distance>        </system-layout>      </print>      <note default-x="99">        <pitch>          <step>D</step>          <octave>4</octave>        </pitch>        <duration>4</duration>        <instrument id="P1-I1"/>        <voice>1</voice>        <type>half</type>        <stem default-y="-70.5">down</stem>      </note>      <note default-x="154">        <pitch>          <step>F</step>          <octave>4</octave>        </pitch>        <duration>4</duration>        <instrument id="P1-I1"/>        <voice>1</voice>        <type>half</type>        <stem default-y="-61">down</stem>      </note>      <note default-x="210">        <pitch>          <step>F</step>          <octave>4</octave>        </pitch>        <duration>4</duration>        <instrument id="P1-I1"/>        <voice>1</voice>        <type>half</type>        <stem default-y="-61">down</stem>      </note>      <backup>        <duration>12</duration>      </backup>      <note default-x="99">        <pitch>          <step>G</step>          <octave>4</octave>        </pitch>        <duration>4</duration>        <instrument id="P1-I2"/>        <voice>2</voice>        <type>half</type>        <stem default-y="6">up</stem>        <lyric default-y="-101" number="1">          <syllabic>single</syllabic>          <text>For</text>        </lyric>        <lyric default-y="-120" number="2">          <syllabic>begin</syllabic>          <text>Char</text>        </lyric>        <lyric default-y="-142" number="3">          <syllabic>single</syllabic>          <text>And</text>        </lyric>      </note>      <note default-x="154">        <pitch>          <step>A</step>          <octave>4</octave>        </pitch>        <duration>4</duration>        <instrument id="P1-I2"/>        <voice>2</voice>        <type>half</type>        <stem default-y="11">up</stem>        <lyric default-y="-101" number="1">          <syllabic>single</syllabic>          <text>to</text>        </lyric>        <lyric default-y="-120" number="2">          <syllabic>end</syllabic>          <text>ged</text>        </lyric>        <lyric default-y="-142" number="3">          <syllabic>begin</syllabic>          <text>ev</text>        </lyric>      </note>      <note default-x="210">        <pitch>          <step>B</step>          <alter>-1</alter>          <octave>4</octave>        </pitch>        <duration>4</duration>        <instrument id="P1-I2"/>        <voice>2</voice>        <type>half</type>        <stem default-y="16">up</stem>        <lyric default-y="-101" number="1">          <syllabic>begin</syllabic>          <text>pre</text>        </lyric>        <lyric default-y="-120" number="2">          <syllabic>single</syllabic>          <text>he</text>        </lyric>        <lyric default-y="-142" number="3">          <syllabic>end</syllabic>          <text>er</text>        </lyric>      </note>    </measure>    <!--=======================================================-->    <measure number="13" width="183">      <note default-x="25">        <pitch>          <step>G</step>          <octave>4</octave>        </pitch>        <duration>8</duration>        <instrument id="P1-I1"/>        <voice>1</voice>        <type>whole</type>      </note>      <note default-x="125">        <pitch>          <step>F</step>          <alter>1</alter>          <octave>4</octave>        </pitch>        <duration>4</duration>        <instrument id="P1-I1"/>        <voice>1</voice>        <type>half</type>        <accidental>sharp</accidental>        <stem default-y="-61">down</stem>      </note>      <backup>        <duration>12</duration>      </backup>      <note default-x="25">        <pitch>          <step>C</step>          <octave>5</octave>        </pitch>        <duration>4</duration>        <instrument id="P1-I2"/>        <voice>2</voice>        <type>half</type>        <stem default-y="11">up</stem>        <lyric default-y="-101" number="1">          <syllabic>end</syllabic>          <text>serve</text>        </lyric>        <lyric default-y="-120" number="2">          <syllabic>single</syllabic>          <text>hath</text>        </lyric>        <lyric default-y="-142" number="3">          <syllabic>single</syllabic>          <text>morn</text>        </lyric>      </note>      <note default-x="81">        <pitch>          <step>A</step>          <octave>4</octave>        </pitch>        <duration>8</duration>        <instrument id="P1-I2"/>        <voice>2</voice>        <type>whole</type>        <lyric default-y="-101" number="1">          <syllabic>single</syllabic>          <text>this</text>        </lyric>        <lyric default-y="-120" number="2">          <syllabic>single</syllabic>          <text>this</text>        </lyric>        <lyric default-y="-142" number="3">          <syllabic>single</syllabic>          <text>and</text>        </lyric>      </note>    </measure>    <!--=======================================================-->    <measure number="14" width="168">      <note default-x="20">        <pitch>          <step>G</step>          <octave>4</octave>        </pitch>        <duration>8</duration>        <instrument id="P1-I1"/>        <voice>1</voice>        <type>whole</type>      </note>      <note default-x="110">        <pitch>          <step>F</step>          <octave>4</octave>        </pitch>        <duration>4</duration>        <instrument id="P1-I1"/>        <voice>1</voice>        <type>half</type>        <stem default-y="-61">down</stem>      </note>      <backup>        <duration>12</duration>      </backup>      <note default-x="20">        <pitch>          <step>G</step>          <octave>4</octave>        </pitch>        <duration>8</duration>        <instrument id="P1-I2"/>        <voice>2</voice>        <type>whole</type>        <lyric default-y="-101" number="1">          <syllabic>single</syllabic>          <text>day</text>        </lyric>        <lyric default-y="-120" number="2">          <syllabic>single</syllabic>          <text>day.</text>        </lyric>        <lyric default-y="-142" number="3">          <syllabic>single</syllabic>          <text>day.</text>        </lyric>      </note>      <note default-x="110">        <pitch>          <step>D</step>          <octave>5</octave>        </pitch>        <duration>4</duration>        <instrument id="P1-I2"/>        <voice>2</voice>        <type>half</type>        <stem default-y="16">up</stem>        <lyric default-y="-101" number="1">          <syllabic>single</syllabic>          <text>this</text>        </lyric>        <lyric default-y="-120" number="2">          <syllabic>single</syllabic>          <text>His</text>        </lyric>        <lyric default-y="-142" number="3">          <syllabic>single</syllabic>          <text>For</text>        </lyric>      </note>    </measure>    <!--=======================================================-->    <measure number="15" width="170">      <note default-x="22">        <pitch>          <step>A</step>          <octave>4</octave>        </pitch>        <duration>8</duration>        <instrument id="P1-I1"/>        <voice>1</voice>        <type>whole</type>      </note>      <note default-x="112">        <pitch>          <step>G</step>          <octave>4</octave>        </pitch>        <duration>4</duration>        <instrument id="P1-I1"/>        <voice>1</voice>        <type>half</type>        <stem default-y="-55.5">down</stem>      </note>      <backup>        <duration>12</duration>      </backup>      <note default-x="22">        <pitch>          <step>C</step>          <octave>5</octave>        </pitch>        <duration>8</duration>        <instrument id="P1-I2"/>        <voice>2</voice>        <type>whole</type>        <lyric default-y="-101" number="1">          <syllabic>single</syllabic>          <text>poor</text>        </lyric>        <lyric default-y="-120" number="2">          <syllabic>single</syllabic>          <text>men</text>        </lyric>        <lyric default-y="-142" number="3">          <syllabic>single</syllabic>          <text>thy</text>        </lyric>      </note>      <note default-x="112">        <pitch>          <step>B</step>          <alter>-1</alter>          <octave>4</octave>        </pitch>        <duration>4</duration>        <instrument id="P1-I2"/>        <voice>2</voice>        <type>half</type>        <stem default-y="16">up</stem>        <lyric default-y="-101" number="1">          <syllabic>begin</syllabic>          <text>young</text>        </lyric>        <lyric default-y="-120" number="2">          <syllabic>single</syllabic>          <text>of</text>        </lyric>        <lyric default-y="-142" number="3">          <syllabic>begin</syllabic>          <text>part</text>        </lyric>      </note>    </measure>    <!--=======================================================-->    <measure number="16" width="196">      <note default-x="14">        <pitch>          <step>F</step>          <octave>4</octave>        </pitch>        <duration>4</duration>        <instrument id="P1-I1"/>        <voice>1</voice>        <type>half</type>        <stem default-y="-61">down</stem>        <notations>          <slur line-type="dashed" number="1" placement="below" type="start"/>        </notations>      </note>      <note default-x="83">        <pitch>          <step>F</step>          <octave>4</octave>        </pitch>        <duration>4</duration>        <instrument id="P1-I1"/>        <voice>1</voice>        <type>half</type>        <stem default-y="-61">down</stem>        <notations>          <slur number="1" type="stop"/>        </notations>      </note>      <note default-x="139">        <pitch>          <step>D</step>          <octave>4</octave>        </pitch>        <duration>4</duration>        <instrument id="P1-I1"/>        <voice>1</voice>        <type>half</type>        <stem default-y="-70.5">down</stem>      </note>      <backup>        <duration>12</duration>      </backup>      <note default-x="14">        <pitch>          <step>A</step>          <octave>4</octave>        </pitch>        <duration>4</duration>        <instrument id="P1-I2"/>        <voice>2</voice>        <type>half</type>        <stem default-y="11">up</stem>        <notations>          <slur line-type="dashed" number="1" placement="above" type="start"/>        </notations>        <lyric default-y="-101" justify="left" number="1">          <syllabic>end</syllabic>          <text>ling,</text>          <extend/>        </lyric>        <lyric default-y="-120" justify="left" number="2">          <syllabic>single</syllabic>          <text>might,</text>          <extend/>        </lyric>        <lyric default-y="-142" justify="left" number="3">          <syllabic>end</syllabic>          <text>ing,</text>        </lyric>      </note>      <note default-x="83">        <pitch>          <step>A</step>          <octave>4</octave>        </pitch>        <duration>4</duration>        <instrument id="P1-I2"/>        <voice>2</voice>        <type>half</type>        <stem default-y="11">up</stem>        <notations>          <slur number="1" type="stop"/>        </notations>        <lyric default-y="-142" number="3">          <syllabic>begin</syllabic>          <text>Nei</text>        </lyric>      </note>      <note default-x="139">        <pitch>          <step>B</step>          <alter>-1</alter>          <octave>4</octave>        </pitch>        <duration>4</duration>        <instrument id="P1-I2"/>        <voice>2</voice>        <type>half</type>        <stem default-y="16">up</stem>        <lyric default-y="-101" number="1">          <syllabic>single</syllabic>          <text>For</text>        </lyric>        <lyric default-y="-120" number="2">          <syllabic>single</syllabic>          <text>In</text>        </lyric>        <lyric default-y="-142" number="3">          <syllabic>end</syllabic>          <text>ther</text>        </lyric>      </note>    </measure>    <!--=======================================================-->    <measure number="17" width="276">      <print new-system="yes">        <system-layout>          <system-margins>            <left-margin>0</left-margin>            <right-margin>0</right-margin>          </system-margins>          <system-distance>137</system-distance>        </system-layout>      </print>      <note default-x="89">        <pitch>          <step>F</step>          <octave>4</octave>        </pitch>        <duration>4</duration>        <instrument id="P1-I1"/>        <voice>1</voice>        <type>half</type>        <stem default-y="-61">down</stem>        <notations>          <slur line-type="dashed" number="1" placement="below" type="start"/>        </notations>      </note>      <note default-x="154">        <pitch>          <step>F</step>          <octave>4</octave>        </pitch>        <duration>4</duration>        <instrument id="P1-I1"/>        <voice>1</voice>        <type>half</type>        <stem default-y="-61">down</stem>        <notations>          <slur number="1" type="stop"/>        </notations>      </note>      <note default-x="215">        <pitch>          <step>C</step>          <octave>4</octave>        </pitch>        <duration>4</duration>        <instrument id="P1-I1"/>        <voice>1</voice>        <type>half</type>        <stem default-y="-76">down</stem>      </note>      <backup>        <duration>12</duration>      </backup>      <note default-x="89">        <pitch>          <step>A</step>          <octave>4</octave>        </pitch>        <duration>4</duration>        <instrument id="P1-I2"/>        <voice>2</voice>        <type>half</type>        <stem default-y="11">up</stem>        <notations>          <slur line-type="dashed" number="1" placement="above" type="start"/>        </notations>        <lyric default-y="-101" justify="left" number="1">          <syllabic>single</syllabic>          <text>whom</text>        </lyric>        <lyric default-y="-120" justify="left" number="2">          <syllabic>single</syllabic>          <text>his</text>          <extend/>        </lyric>        <lyric default-y="-142" justify="left" number="3">          <syllabic>single</syllabic>          <text>say</text>          <extend/>        </lyric>      </note>      <note default-x="154">        <pitch>          <step>A</step>          <octave>4</octave>        </pitch>        <duration>4</duration>        <instrument id="P1-I2"/>        <voice>2</voice>        <type>half</type>        <stem default-y="11">up</stem>        <notations>          <slur number="1" type="stop"/>        </notations>        <lyric default-y="-101" number="1">          <syllabic>single</syllabic>          <text>we</text>        </lyric>      </note>      <note default-x="215">        <pitch>          <step>G</step>          <octave>4</octave>        </pitch>        <duration>4</duration>        <instrument id="P1-I2"/>        <voice>2</voice>        <type>half</type>        <stem default-y="5.5">up</stem>        <lyric default-y="-101" number="1">          <syllabic>single</syllabic>          <text>do</text>        </lyric>        <lyric default-y="-120" number="2">          <syllabic>single</syllabic>          <text>own</text>        </lyric>        <lyric default-y="-142" number="3">          <syllabic>single</syllabic>          <text>nor</text>        </lyric>      </note>    </measure>    <!--=======================================================-->    <measure number="18" width="154">      <note default-x="26">        <pitch>          <step>D</step>          <octave>4</octave>        </pitch>        <duration>12</duration>        <instrument id="P1-I1"/>        <voice>1</voice>        <type>whole</type>        <dot/>      </note>      <backup>        <duration>12</duration>      </backup>      <note default-x="26">        <pitch>          <step>F</step>          <alter>1</alter>          <octave>4</octave>        </pitch>        <duration>12</duration>        <instrument id="P1-I2"/>        <voice>2</voice>        <type>whole</type>        <dot/>        <accidental>sharp</accidental>        <lyric default-y="-101" number="1">          <syllabic>single</syllabic>          <text>sing,</text>        </lyric>        <lyric default-y="-120" number="2">          <syllabic>single</syllabic>          <text>sight,</text>        </lyric>        <lyric default-y="-142" number="3">          <syllabic>single</syllabic>          <text>sing,</text>        </lyric>      </note>    </measure>    <!--=======================================================-->    <measure number="19" width="195">      <note default-x="16">        <pitch>          <step>D</step>          <octave>4</octave>        </pitch>        <duration>4</duration>        <instrument id="P1-I1"/>        <voice>1</voice>        <type>half</type>        <stem default-y="-70.5">down</stem>      </note>      <note default-x="76">        <pitch>          <step>D</step>          <octave>4</octave>        </pitch>        <duration>4</duration>        <instrument id="P1-I1"/>        <voice>1</voice>        <type>half</type>        <stem default-y="-70.5">down</stem>      </note>      <note default-x="135">        <pitch>          <step>D</step>          <octave>4</octave>        </pitch>        <duration>4</duration>        <instrument id="P1-I1"/>        <voice>1</voice>        <type>half</type>        <stem default-y="-70.5">down</stem>      </note>      <backup>        <duration>12</duration>      </backup>      <note default-x="16">        <pitch>          <step>G</step>          <octave>4</octave>        </pitch>        <duration>4</duration>        <instrument id="P1-I2"/>        <voice>2</voice>        <type>half</type>        <stem default-y="5.5">up</stem>        <lyric default-y="-101" number="1">          <syllabic>single</syllabic>          <text>By</text>        </lyric>        <lyric default-y="-120" number="2">          <syllabic>single</syllabic>          <text>All</text>        </lyric>        <lyric default-y="-142" number="3">          <syllabic>single</syllabic>          <text>By</text>        </lyric>      </note>      <note default-x="76">        <pitch>          <step>F</step>          <alter>1</alter>          <octave>4</octave>        </pitch>        <duration>4</duration>        <instrument id="P1-I2"/>        <voice>2</voice>        <type>half</type>        <accidental>sharp</accidental>        <stem default-y="-61">down</stem>        <lyric default-y="-101" number="1">          <syllabic>single</syllabic>          <text>by,</text>        </lyric>        <lyric default-y="-120" number="2">          <syllabic>single</syllabic>          <text>young</text>        </lyric>        <lyric default-y="-142" number="3">          <syllabic>single</syllabic>          <text>by,</text>        </lyric>      </note>      <note default-x="135">        <pitch>          <step>G</step>          <octave>4</octave>        </pitch>        <duration>4</duration>        <instrument id="P1-I2"/>        <voice>2</voice>        <type>half</type>        <stem default-y="5.5">up</stem>        <lyric default-y="-101" number="1">          <syllabic>begin</syllabic>          <text>lul</text>        </lyric>        <lyric default-y="-120" number="2">          <syllabic>begin</syllabic>          <text>chil</text>        </lyric>        <lyric default-y="-142" number="3">          <syllabic>begin</syllabic>          <text>lul</text>        </lyric>      </note>    </measure>    <!--=======================================================-->    <measure number="20" width="189">      <note default-x="21">        <pitch>          <step>G</step>          <octave>4</octave>        </pitch>        <duration>8</duration>        <instrument id="P1-I1"/>        <voice>1</voice>        <type>whole</type>      </note>      <note default-x="129">        <pitch>          <step>F</step>          <alter>1</alter>          <octave>4</octave>        </pitch>        <duration>4</duration>        <instrument id="P1-I1"/>        <voice>1</voice>        <type>half</type>        <accidental>sharp</accidental>        <stem default-y="-61">down</stem>      </note>      <backup>        <duration>12</duration>      </backup>      <note default-x="21">        <pitch>          <step>C</step>          <octave>5</octave>        </pitch>        <duration>4</duration>        <instrument id="P1-I2"/>        <voice>2</voice>        <type>half</type>        <stem default-y="11">up</stem>        <lyric default-y="-101" number="1">          <syllabic>end</syllabic>          <text>ly</text>        </lyric>        <lyric default-y="-120" number="2">          <syllabic>end</syllabic>          <text>dren</text>        </lyric>        <lyric default-y="-142" number="3">          <syllabic>end</syllabic>          <text>ly</text>        </lyric>      </note>      <note default-x="80">        <pitch>          <step>A</step>          <octave>4</octave>        </pitch>        <duration>8</duration>        <instrument id="P1-I2"/>        <voice>2</voice>        <type>whole</type>        <lyric default-y="-101" number="1">          <syllabic>begin</syllabic>          <text>lul</text>        </lyric>        <lyric default-y="-120" number="2">          <syllabic>single</syllabic>          <text>to</text>        </lyric>        <lyric default-y="-142" number="3">          <syllabic>begin</syllabic>          <text>lul</text>        </lyric>      </note>    </measure>    <!--=======================================================-->    <measure number="21" width="168">      <note default-x="22">        <pitch>          <step>G</step>          <octave>4</octave>        </pitch>        <duration>12</duration>        <instrument id="P1-I1"/>        <voice>1</voice>        <type>whole</type>        <dot relative-x="15"/>      </note>      <backup>        <duration>12</duration>      </backup>      <note default-x="37">        <pitch>          <step>B</step>          <octave>4</octave>        </pitch>        <duration>12</duration>        <instrument id="P1-I2"/>        <voice>2</voice>        <type>whole</type>        <dot/>        <accidental>natural</accidental>        <lyric default-y="-101" number="1">          <syllabic>end</syllabic>          <text>lay?</text>        </lyric>        <lyric default-y="-120" number="2">          <syllabic>single</syllabic>          <text>slay.</text>        </lyric>        <lyric default-y="-142" number="3">          <syllabic>end</syllabic>          <text>lay!</text>        </lyric>      </note>      <barline location="right">        <bar-style>light-heavy</bar-style>        <repeat direction="backward" times="3"/>      </barline>    </measure>  </part>  <!--=========================================================-->  <part id="P2">    <measure number="1" width="292">      <print>        <measure-numbering>none</measure-numbering>      </print>      <attributes>        <divisions>2</divisions>        <key>          <fifths>-2</fifths>          <mode>minor</mode>        </key>        <time>          <beats>3</beats>          <beat-type>2</beat-type>        </time>        <instruments>2</instruments>        <clef>          <sign>F</sign>          <line>4</line>        </clef>      </attributes>      <sound tempo="270"/>      <note default-x="123">        <pitch>          <step>G</step>          <octave>3</octave>        </pitch>        <duration>4</duration>        <instrument id="P2-I3"/>        <voice>1</voice>        <type>half</type>        <stem default-y="-41">down</stem>      </note>      <note default-x="180">        <pitch>          <step>G</step>          <octave>3</octave>        </pitch>        <duration>4</duration>        <instrument id="P2-I3"/>        <voice>1</voice>        <type>half</type>        <stem default-y="-41">down</stem>      </note>      <note default-x="235">        <pitch>          <step>D</step>          <octave>3</octave>        </pitch>        <duration>4</duration>        <instrument id="P2-I3"/>        <voice>1</voice>        <type>half</type>        <stem default-y="-55.5">down</stem>      </note>      <backup>        <duration>12</duration>      </backup>      <note default-x="123">        <pitch>          <step>B</step>          <alter>-1</alter>          <octave>3</octave>        </pitch>        <duration>4</duration>        <instrument id="P2-I4"/>        <voice>2</voice>        <type>half</type>        <stem default-y="31">up</stem>      </note>      <note default-x="180">        <pitch>          <step>B</step>          <alter>-1</alter>          <octave>3</octave>        </pitch>        <duration>4</duration>        <instrument id="P2-I4"/>        <voice>2</voice>        <type>half</type>        <stem default-y="31">up</stem>      </note>      <note default-x="235">        <pitch>          <step>A</step>          <octave>3</octave>        </pitch>        <duration>4</duration>        <instrument id="P2-I4"/>        <voice>2</voice>        <type>half</type>        <stem default-y="26">up</stem>      </note>    </measure>    <!--=======================================================-->    <measure number="2" width="160">      <note default-x="13">        <pitch>          <step>G</step>          <octave>3</octave>        </pitch>        <duration>8</duration>        <instrument id="P2-I3"/>        <voice>1</voice>        <type>whole</type>      </note>      <note default-x="103">        <pitch>          <step>E</step>          <alter>-1</alter>          <octave>3</octave>        </pitch>        <duration>4</duration>        <instrument id="P2-I3"/>        <voice>1</voice>        <type>half</type>        <stem default-y="-50.5">down</stem>      </note>      <backup>        <duration>12</duration>      </backup>      <note default-x="13">        <pitch>          <step>B</step>          <alter>-1</alter>          <octave>3</octave>        </pitch>        <duration>8</duration>        <instrument id="P2-I4"/>        <voice>2</voice>        <type>whole</type>      </note>      <note default-x="103">        <pitch>          <step>E</step>          <alter>-1</alter>          <octave>4</octave>        </pitch>        <duration>4</duration>        <instrument id="P2-I4"/>        <voice>2</voice>        <type>half</type>        <stem default-y="-21">down</stem>      </note>    </measure>    <!--=======================================================-->    <measure number="3" width="195">      <note default-x="13">        <pitch>          <step>F</step>          <octave>3</octave>        </pitch>        <duration>2</duration>        <instrument id="P2-I3"/>        <voice>1</voice>        <type>quarter</type>        <stem default-y="-46">down</stem>      </note>      <note default-x="48">        <pitch>          <step>F</step>          <octave>3</octave>        </pitch>        <duration>2</duration>        <instrument id="P2-I3"/>        <voice>1</voice>        <type>quarter</type>        <stem default-y="-46">down</stem>      </note>      <note default-x="82">        <pitch>          <step>F</step>          <octave>3</octave>        </pitch>        <duration>4</duration>        <instrument id="P2-I3"/>        <voice>1</voice>        <type>half</type>        <stem default-y="-46">down</stem>      </note>      <note default-x="138">        <pitch>          <step>G</step>          <octave>3</octave>        </pitch>        <duration>4</duration>        <instrument id="P2-I3"/>        <voice>1</voice>        <type>half</type>        <stem default-y="-41">down</stem>      </note>      <backup>        <duration>12</duration>      </backup>      <note default-x="13">        <pitch>          <step>C</step>          <octave>4</octave>        </pitch>        <duration>2</duration>        <instrument id="P2-I4"/>        <voice>2</voice>        <type>quarter</type>        <stem default-y="-26">down</stem>      </note>      <note default-x="48">        <pitch>          <step>C</step>          <octave>4</octave>        </pitch>        <duration>2</duration>        <instrument id="P2-I4"/>        <voice>2</voice>        <type>quarter</type>        <stem default-y="-26">down</stem>      </note>      <note default-x="82">        <pitch>          <step>C</step>          <octave>4</octave>        </pitch>        <duration>4</duration>        <instrument id="P2-I4"/>        <voice>2</voice>        <type>half</type>        <stem default-y="-26">down</stem>      </note>      <note default-x="138">        <pitch>          <step>B</step>          <alter>-1</alter>          <octave>3</octave>        </pitch>        <duration>4</duration>        <instrument id="P2-I4"/>        <voice>2</voice>        <type>half</type>        <stem default-y="-30.5">down</stem>      </note>    </measure>    <!--=======================================================-->    <measure number="4" width="147">      <note default-x="26">        <pitch>          <step>D</step>          <octave>3</octave>        </pitch>        <duration>12</duration>        <instrument id="P2-I3"/>        <voice>1</voice>        <type>whole</type>        <dot/>      </note>      <backup>        <duration>12</duration>      </backup>      <note default-x="26">        <pitch>          <step>A</step>          <octave>3</octave>        </pitch>        <duration>12</duration>        <instrument id="P2-I4"/>        <voice>2</voice>        <type>whole</type>        <dot/>      </note>    </measure>    <!--=======================================================-->    <measure number="5" width="185">      <note default-x="16">        <pitch>          <step>G</step>          <octave>3</octave>        </pitch>        <duration>4</duration>        <instrument id="P2-I3"/>        <voice>1</voice>        <type>half</type>        <stem default-y="-41">down</stem>      </note>      <note default-x="71">        <pitch>          <step>F</step>          <octave>3</octave>        </pitch>        <duration>4</duration>        <instrument id="P2-I3"/>        <voice>1</voice>        <type>half</type>        <stem default-y="-46">down</stem>      </note>      <note default-x="127">        <pitch>          <step>D</step>          <octave>3</octave>        </pitch>        <duration>4</duration>        <instrument id="P2-I3"/>        <voice>1</voice>        <type>half</type>        <stem default-y="-55.5">down</stem>      </note>      <backup>        <duration>12</duration>      </backup>      <note default-x="16">        <pitch>          <step>B</step>          <alter>-1</alter>          <octave>3</octave>        </pitch>        <duration>4</duration>        <instrument id="P2-I4"/>        <voice>2</voice>        <type>half</type>        <stem default-y="31">up</stem>      </note>      <note default-x="71">        <pitch>          <step>C</step>          <octave>4</octave>        </pitch>        <duration>4</duration>        <instrument id="P2-I4"/>        <voice>2</voice>        <type>half</type>        <stem default-y="36">up</stem>      </note>      <note default-x="127">        <pitch>          <step>D</step>          <octave>4</octave>        </pitch>        <duration>4</duration>        <instrument id="P2-I4"/>        <voice>2</voice>        <type>half</type>        <stem default-y="40.5">up</stem>      </note>    </measure>    <!--=======================================================-->    <measure number="6" width="228">      <print new-system="yes"/>      <note default-x="89">        <pitch>          <step>C</step>          <octave>3</octave>        </pitch>        <duration>4</duration>        <instrument id="P2-I3"/>        <voice>1</voice>        <type>half</type>        <stem default-y="-50.5">down</stem>      </note>      <note default-x="138">        <pitch>          <step>D</step>          <octave>3</octave>        </pitch>        <duration>8</duration>        <instrument id="P2-I3"/>        <voice>1</voice>        <type>whole</type>      </note>      <backup>        <duration>12</duration>      </backup>      <note default-x="89">        <pitch>          <step>E</step>          <alter>-1</alter>          <octave>4</octave>        </pitch>        <duration>4</duration>        <instrument id="P2-I4"/>        <voice>2</voice>        <type>half</type>        <stem default-y="45.5">up</stem>      </note>      <note default-x="138">        <pitch>          <step>D</step>          <octave>4</octave>        </pitch>        <duration>8</duration>        <instrument id="P2-I4"/>        <voice>2</voice>        <type>whole</type>      </note>    </measure>    <!--=======================================================-->    <measure number="7" width="126">      <note default-x="22">        <pitch>          <step>G</step>          <octave>3</octave>        </pitch>        <duration>12</duration>        <instrument id="P2-I3"/>        <voice>1</voice>        <type>whole</type>        <dot/>      </note>      <backup>        <duration>12</duration>      </backup>      <note default-x="22">        <pitch>          <step>D</step>          <octave>4</octave>        </pitch>        <duration>12</duration>        <instrument id="P2-I4"/>        <voice>2</voice>        <type>whole</type>        <dot/>      </note>    </measure>    <!--=======================================================-->    <measure number="8" width="194">      <barline location="left">        <bar-style>heavy-light</bar-style>        <repeat direction="forward"/>      </barline>      <note default-x="48">        <pitch>          <step>G</step>          <octave>3</octave>        </pitch>        <duration>4</duration>        <instrument id="P2-I3"/>        <voice>1</voice>        <type>half</type>        <stem default-y="-41">down</stem>      </note>      <note default-x="102">        <pitch>          <step>G</step>          <octave>3</octave>        </pitch>        <duration>4</duration>        <instrument id="P2-I3"/>        <voice>1</voice>        <type>half</type>        <stem default-y="-41">down</stem>      </note>      <note default-x="152">        <pitch>          <step>D</step>          <octave>3</octave>        </pitch>        <duration>4</duration>        <instrument id="P2-I3"/>        <voice>1</voice>        <type>half</type>        <stem default-y="-56">down</stem>      </note>      <backup>        <duration>12</duration>      </backup>      <note default-x="48">        <pitch>          <step>B</step>          <alter>-1</alter>          <octave>3</octave>        </pitch>        <duration>4</duration>        <instrument id="P2-I4"/>        <voice>2</voice>        <type>half</type>        <stem default-y="31">up</stem>      </note>      <note default-x="102">        <pitch>          <step>B</step>          <alter>-1</alter>          <octave>3</octave>        </pitch>        <duration>4</duration>        <instrument id="P2-I4"/>        <voice>2</voice>        <type>half</type>        <stem default-y="31">up</stem>      </note>      <note default-x="152">        <pitch>          <step>A</step>          <octave>3</octave>        </pitch>        <duration>4</duration>        <instrument id="P2-I4"/>        <voice>2</voice>        <type>half</type>        <stem default-y="25.5">up</stem>      </note>    </measure>    <!--=======================================================-->    <measure number="9" width="152">      <note default-x="24">        <pitch>          <step>G</step>          <octave>3</octave>        </pitch>        <duration>8</duration>        <instrument id="P2-I3"/>        <voice>1</voice>        <type>whole</type>      </note>      <note default-x="102">        <pitch>          <step>E</step>          <alter>-1</alter>          <octave>3</octave>        </pitch>        <duration>4</duration>        <instrument id="P2-I3"/>        <voice>1</voice>        <type>half</type>        <stem default-y="-50.5">down</stem>      </note>      <backup>        <duration>12</duration>      </backup>      <note default-x="24">        <pitch>          <step>B</step>          <alter>-1</alter>          <octave>3</octave>        </pitch>        <duration>8</duration>        <instrument id="P2-I4"/>        <voice>2</voice>        <type>whole</type>      </note>      <note default-x="102">        <pitch>          <step>E</step>          <alter>-1</alter>          <octave>4</octave>        </pitch>        <duration>4</duration>        <instrument id="P2-I4"/>        <voice>2</voice>        <type>half</type>        <stem default-y="45.5">up</stem>      </note>    </measure>    <!--=======================================================-->    <measure number="10" width="152">      <note default-x="24">        <pitch>          <step>F</step>          <octave>3</octave>        </pitch>        <duration>8</duration>        <instrument id="P2-I3"/>        <voice>1</voice>        <type>whole</type>      </note>      <note default-x="102">        <pitch>          <step>G</step>          <octave>3</octave>        </pitch>        <duration>4</duration>        <instrument id="P2-I3"/>        <voice>1</voice>        <type>half</type>        <stem default-y="-41">down</stem>      </note>      <backup>        <duration>12</duration>      </backup>      <note default-x="24">        <pitch>          <step>C</step>          <octave>4</octave>        </pitch>        <duration>8</duration>        <instrument id="P2-I4"/>        <voice>2</voice>        <type>whole</type>      </note>      <note default-x="102">        <pitch>          <step>B</step>          <alter>-1</alter>          <octave>3</octave>        </pitch>        <duration>4</duration>        <instrument id="P2-I4"/>        <voice>2</voice>        <type>half</type>        <stem default-y="31">up</stem>      </note>    </measure>    <!--=======================================================-->    <measure number="11" width="131">      <note default-x="24">        <pitch>          <step>D</step>          <octave>3</octave>        </pitch>        <duration>12</duration>        <instrument id="P2-I3"/>        <voice>1</voice>        <type>whole</type>        <dot/>      </note>      <backup>        <duration>12</duration>      </backup>      <note default-x="24">        <pitch>          <step>A</step>          <octave>3</octave>        </pitch>        <duration>12</duration>        <instrument id="P2-I4"/>        <voice>2</voice>        <type>whole</type>        <dot/>      </note>    </measure>    <!--=======================================================-->    <measure number="12" width="267">      <print new-system="yes"/>      <note default-x="99">        <pitch>          <step>G</step>          <octave>3</octave>        </pitch>        <duration>4</duration>        <instrument id="P2-I3"/>        <voice>1</voice>        <type>half</type>        <stem default-y="-41">down</stem>      </note>      <note default-x="154">        <pitch>          <step>F</step>          <octave>3</octave>        </pitch>        <duration>4</duration>        <instrument id="P2-I3"/>        <voice>1</voice>        <type>half</type>        <stem default-y="-46">down</stem>      </note>      <note default-x="210">        <pitch>          <step>D</step>          <octave>3</octave>        </pitch>        <duration>4</duration>        <instrument id="P2-I3"/>        <voice>1</voice>        <type>half</type>        <stem default-y="-55.5">down</stem>      </note>      <backup>        <duration>12</duration>      </backup>      <note default-x="99">        <pitch>          <step>B</step>          <alter>-1</alter>          <octave>3</octave>        </pitch>        <duration>4</duration>        <instrument id="P2-I4"/>        <voice>2</voice>        <type>half</type>        <stem default-y="31">up</stem>      </note>      <note default-x="154">        <pitch>          <step>C</step>          <octave>4</octave>        </pitch>        <duration>4</duration>        <instrument id="P2-I4"/>        <voice>2</voice>        <type>half</type>        <stem default-y="36">up</stem>      </note>      <note default-x="210">        <pitch>          <step>D</step>          <octave>4</octave>        </pitch>        <duration>4</duration>        <instrument id="P2-I4"/>        <voice>2</voice>        <type>half</type>        <stem default-y="41">up</stem>      </note>    </measure>    <!--=======================================================-->    <measure number="13" width="183">      <note default-x="25">        <pitch>          <step>C</step>          <octave>3</octave>        </pitch>        <duration>4</duration>        <instrument id="P2-I3"/>        <voice>1</voice>        <type>half</type>        <stem default-y="-50.5">down</stem>      </note>      <note default-x="81">        <pitch>          <step>D</step>          <octave>3</octave>        </pitch>        <duration>8</duration>        <instrument id="P2-I3"/>        <voice>1</voice>        <type>whole</type>      </note>      <backup>        <duration>12</duration>      </backup>      <note default-x="25">        <pitch>          <step>E</step>          <alter>-1</alter>          <octave>4</octave>        </pitch>        <duration>4</duration>        <instrument id="P2-I4"/>        <voice>2</voice>        <type>half</type>        <stem default-y="46">up</stem>      </note>      <note default-x="81">        <pitch>          <step>D</step>          <octave>4</octave>        </pitch>        <duration>8</duration>        <instrument id="P2-I4"/>        <voice>2</voice>        <type>whole</type>      </note>    </measure>    <!--=======================================================-->    <measure number="14" width="168">      <note default-x="20">        <pitch>          <step>G</step>          <octave>3</octave>        </pitch>        <duration>8</duration>        <instrument id="P2-I3"/>        <voice>1</voice>        <type>whole</type>      </note>      <note default-x="110">        <pitch>          <step>B</step>          <alter>-1</alter>          <octave>3</octave>        </pitch>        <duration>4</duration>        <instrument id="P2-I3"/>        <voice>1</voice>        <type>half</type>        <stem default-y="-30.5">down</stem>      </note>      <backup>        <duration>12</duration>      </backup>      <note default-x="20">        <pitch>          <step>D</step>          <octave>4</octave>        </pitch>        <duration>8</duration>        <instrument id="P2-I4"/>        <voice>2</voice>        <type>whole</type>      </note>      <note default-x="110">        <pitch>          <step>D</step>          <octave>4</octave>        </pitch>        <duration>4</duration>        <instrument id="P2-I4"/>        <voice>2</voice>        <type>half</type>        <stem default-y="41">up</stem>      </note>    </measure>    <!--=======================================================-->    <measure number="15" width="170">      <note default-x="22">        <pitch>          <step>F</step>          <octave>3</octave>        </pitch>        <duration>8</duration>        <instrument id="P2-I3"/>        <voice>1</voice>        <type>whole</type>      </note>      <note default-x="112">        <pitch>          <step>G</step>          <octave>3</octave>        </pitch>        <duration>4</duration>        <instrument id="P2-I3"/>        <voice>1</voice>        <type>half</type>        <stem default-y="-41">down</stem>      </note>      <backup>        <duration>12</duration>      </backup>      <note default-x="22">        <pitch>          <step>F</step>          <octave>4</octave>        </pitch>        <duration>8</duration>        <instrument id="P2-I4"/>        <voice>2</voice>        <type>whole</type>      </note>      <note default-x="112">        <pitch>          <step>D</step>          <octave>4</octave>        </pitch>        <duration>4</duration>        <instrument id="P2-I4"/>        <voice>2</voice>        <type>half</type>        <stem default-y="41">up</stem>      </note>    </measure>    <!--=======================================================-->    <measure number="16" width="196">      <note default-x="14">        <pitch>          <step>D</step>          <octave>3</octave>        </pitch>        <duration>4</duration>        <instrument id="P2-I3"/>        <voice>1</voice>        <type>half</type>        <stem default-y="-55.5">down</stem>        <notations>          <slur line-type="dashed" number="1" placement="below" type="start"/>        </notations>      </note>      <note default-x="83">        <pitch>          <step>D</step>          <octave>3</octave>        </pitch>        <duration>4</duration>        <instrument id="P2-I3"/>        <voice>1</voice>        <type>half</type>        <stem default-y="-55.5">down</stem>        <notations>          <slur number="1" type="stop"/>        </notations>      </note>      <note default-x="139">        <pitch>          <step>G</step>          <octave>3</octave>        </pitch>        <duration>4</duration>        <instrument id="P2-I3"/>        <voice>1</voice>        <type>half</type>        <stem default-y="-41">down</stem>      </note>      <backup>        <duration>12</duration>      </backup>      <note default-x="14">        <pitch>          <step>D</step>          <octave>4</octave>        </pitch>        <duration>4</duration>        <instrument id="P2-I4"/>        <voice>2</voice>        <type>half</type>        <stem default-y="41">up</stem>        <notations>          <slur line-type="dashed" number="1" placement="above" type="start"/>        </notations>      </note>      <note default-x="83">        <pitch>          <step>D</step>          <octave>4</octave>        </pitch>        <duration>4</duration>        <instrument id="P2-I4"/>        <voice>2</voice>        <type>half</type>        <stem default-y="41">up</stem>        <notations>          <slur number="1" type="stop"/>        </notations>      </note>      <note default-x="139">        <pitch>          <step>B</step>          <alter>-1</alter>          <octave>3</octave>        </pitch>        <duration>4</duration>        <instrument id="P2-I4"/>        <voice>2</voice>        <type>half</type>        <stem default-y="31">up</stem>      </note>    </measure>    <!--=======================================================-->    <measure number="17" width="276">      <print new-system="yes"/>      <note default-x="89">        <pitch>          <step>F</step>          <octave>3</octave>        </pitch>        <duration>4</duration>        <instrument id="P2-I3"/>        <voice>1</voice>        <type>half</type>        <stem default-y="-45.5">down</stem>        <notations>          <slur line-type="dashed" number="1" placement="below" type="start"/>        </notations>      </note>      <note default-x="154">        <pitch>          <step>F</step>          <octave>3</octave>        </pitch>        <duration>4</duration>        <instrument id="P2-I3"/>        <voice>1</voice>        <type>half</type>        <stem default-y="-45.5">down</stem>        <notations>          <slur number="1" type="stop"/>        </notations>      </note>      <note default-x="215">        <pitch>          <step>E</step>          <octave>3</octave>        </pitch>        <duration>4</duration>        <instrument id="P2-I3"/>        <voice>1</voice>        <type>half</type>        <accidental>natural</accidental>        <stem default-y="-50.5">down</stem>      </note>      <backup>        <duration>12</duration>      </backup>      <note default-x="89">        <pitch>          <step>C</step>          <octave>4</octave>        </pitch>        <duration>4</duration>        <instrument id="P2-I4"/>        <voice>2</voice>        <type>half</type>        <stem default-y="36">up</stem>        <notations>          <slur line-type="dashed" number="1" placement="above" type="start"/>        </notations>      </note>      <note default-x="154">        <pitch>          <step>C</step>          <octave>4</octave>        </pitch>        <duration>4</duration>        <instrument id="P2-I4"/>        <voice>2</voice>        <type>half</type>        <stem default-y="36">up</stem>        <notations>          <slur number="1" type="stop"/>        </notations>      </note>      <note default-x="215">        <pitch>          <step>G</step>          <octave>3</octave>        </pitch>        <duration>4</duration>        <instrument id="P2-I4"/>        <voice>2</voice>        <type>half</type>        <stem default-y="21">up</stem>      </note>    </measure>    <!--=======================================================-->    <measure number="18" width="154">      <note default-x="26">        <pitch>          <step>D</step>          <octave>3</octave>        </pitch>        <duration>12</duration>        <instrument id="P2-I3"/>        <voice>1</voice>        <type>whole</type>        <dot/>      </note>      <backup>        <duration>12</duration>      </backup>      <note default-x="26">        <pitch>          <step>A</step>          <octave>3</octave>        </pitch>        <duration>12</duration>        <instrument id="P2-I4"/>        <voice>2</voice>        <type>whole</type>        <dot/>      </note>    </measure>    <!--=======================================================-->    <measure number="19" width="195">      <note default-x="16">        <pitch>          <step>G</step>          <octave>3</octave>        </pitch>        <duration>4</duration>        <instrument id="P2-I3"/>        <voice>1</voice>        <type>half</type>        <stem default-y="-41">down</stem>      </note>      <note default-x="76">        <pitch>          <step>D</step>          <octave>3</octave>        </pitch>        <duration>4</duration>        <instrument id="P2-I3"/>        <voice>1</voice>        <type>half</type>        <stem default-y="-56">down</stem>      </note>      <note default-x="135">        <pitch>          <step>G</step>          <octave>3</octave>        </pitch>        <duration>4</duration>        <instrument id="P2-I3"/>        <voice>1</voice>        <type>half</type>        <stem default-y="-41">down</stem>      </note>      <backup>        <duration>12</duration>      </backup>      <note default-x="16">        <pitch>          <step>B</step>          <alter>-1</alter>          <octave>3</octave>        </pitch>        <duration>4</duration>        <instrument id="P2-I4"/>        <voice>2</voice>        <type>half</type>        <stem default-y="31">up</stem>      </note>      <note default-x="76">        <pitch>          <step>A</step>          <octave>3</octave>        </pitch>        <duration>4</duration>        <instrument id="P2-I4"/>        <voice>2</voice>        <type>half</type>        <stem default-y="26">up</stem>      </note>      <note default-x="135">        <pitch>          <step>B</step>          <alter>-1</alter>          <octave>3</octave>        </pitch>        <duration>4</duration>        <instrument id="P2-I4"/>        <voice>2</voice>        <type>half</type>        <stem default-y="31">up</stem>      </note>    </measure>    <!--=======================================================-->    <measure number="20" width="189">      <note default-x="21">        <pitch>          <step>C</step>          <octave>3</octave>        </pitch>        <duration>4</duration>        <instrument id="P2-I3"/>        <voice>1</voice>        <type>half</type>        <stem default-y="-50.5">down</stem>      </note>      <note default-x="80">        <pitch>          <step>D</step>          <octave>3</octave>        </pitch>        <duration>8</duration>        <instrument id="P2-I3"/>        <voice>1</voice>        <type>whole</type>      </note>      <backup>        <duration>12</duration>      </backup>      <note default-x="21">        <pitch>          <step>E</step>          <alter>-1</alter>          <octave>4</octave>        </pitch>        <duration>4</duration>        <instrument id="P2-I4"/>        <voice>2</voice>        <type>half</type>        <stem default-y="46">up</stem>      </note>      <note default-x="80">        <pitch>          <step>D</step>          <octave>4</octave>        </pitch>        <duration>8</duration>        <instrument id="P2-I4"/>        <voice>2</voice>        <type>whole</type>      </note>    </measure>    <!--=======================================================-->    <measure number="21" width="168">      <note default-x="22">        <pitch>          <step>G</step>          <octave>3</octave>        </pitch>        <duration>12</duration>        <instrument id="P2-I3"/>        <voice>1</voice>        <type>whole</type>        <dot/>      </note>      <backup>        <duration>12</duration>      </backup>      <note default-x="22">        <pitch>          <step>D</step>          <octave>4</octave>        </pitch>        <duration>12</duration>        <instrument id="P2-I4"/>        <voice>2</voice>        <type>whole</type>        <dot/>      </note>      <barline location="right">        <bar-style>light-heavy</bar-style>        <repeat direction="backward" times="3"/>      </barline>    </measure>  </part>  <!--=========================================================--></score-partwise>