<?xml version="1.0" encoding="UTF-8"?><!DOCTYPE score-partwise PUBLIC "-//Recordare//DTD MusicXML 2.0 Partwise//EN"                                "http://www.musicxml.org/dtds/partwise.dtd"><score-partwise version="2.0">  <identification>    <encoding>      <software>Finale 2011 for Macintosh</software>      <software>Dolet Light for Finale 2011</software>      <encoding-date>2011-09-30</encoding-date>      <supports attribute="new-system" element="print" type="yes" value="yes"/>      <supports attribute="new-page" element="print" type="yes" value="yes"/>    </encoding>  </identification>  <defaults>    <scaling>      <millimeters>6.5969</millimeters>      <tenths>40</tenths>    </scaling>    <page-layout>      <page-height>1694</page-height>      <page-width>1309</page-width>      <page-margins type="both">        <left-margin>116</left-margin>        <right-margin>77</right-margin>        <top-margin>77</top-margin>        <bottom-margin>77</bottom-margin>      </page-margins>    </page-layout>    <system-layout>      <system-margins>        <left-margin>29</left-margin>        <right-margin>0</right-margin>      </system-margins>      <system-distance>126</system-distance>      <top-system-distance>79</top-system-distance>    </system-layout>    <staff-layout>      <staff-distance>93</staff-distance>    </staff-layout>    <appearance>      <line-width type="stem">1.4583</line-width>      <line-width type="beam">5</line-width>      <line-width type="staff">1.4583</line-width>      <line-width type="light barline">1.4583</line-width>      <line-width type="heavy barline">5</line-width>      <line-width type="leger">1.4583</line-width>      <line-width type="ending">1.4583</line-width>      <line-width type="wedge">1.4583</line-width>      <line-width type="enclosure">1.4583</line-width>      <line-width type="tuplet bracket">1.4583</line-width>      <note-size type="grace">60</note-size>      <note-size type="cue">60</note-size>    </appearance>    <music-font font-family="Maestro" font-size="18.7"/>    <word-font font-family="Times New Roman" font-size="9.4"/>    <lyric-font font-family="Times New Roman" font-size="9.4" name="verse"/>  </defaults>  <credit page="1">    <credit-words default-x="679" default-y="38" font-size="11" justify="center" valign="bottom">Kerstzingcie 2006</credit-words>  </credit>  <credit page="1">    <credit-words default-x="670" default-y="1638" font-size="26.4" font-weight="bold" justify="center" valign="top">05. God Rest You Merry</credit-words>  </credit>  <credit page="1">    <credit-words default-x="1232" default-y="1564" font-size="13.2" font-weight="bold" justify="right" valign="top">English traditional carol tune, arr. E.P.</credit-words>  </credit>  <credit page="1">    <credit-words default-x="134" default-y="427" font-size="11" valign="top">2. In Bethlehem in Jewry
 This blessed babe was born,
And laid within a manger
 Upon this blessed morn;
The which his mother Mary
 Nothing did take in scorn:

3. From God our heavenly Father
 A blessed angel came,
And unto certain shepherds
 Brought tidings of the same,
How that in Bethlehem was born
 The son of God by name:
</credit-words>  </credit>  <credit page="1">    <credit-words default-x="490" default-y="432" font-size="11" valign="top">4. 'Fear not,' then said the angel,
 ; Let nothing you afright,
This day is born a Saviour
 Of virtue, power, and might;
So frequently to vanquish all
  The friends of Satan quite:'

7. Now to the Lord sing praises, 
  All you within this place,
And with true love and brotherhood
  Each other now embrace;
This holy tide of Christmas
  All others doth deface:</credit-words>  </credit>  <credit page="1">    <credit-words default-x="886" default-y="432" font-size="11" valign="top" xml:lang="fr">5. The shepherds at those tidings 
       Rejoicèd much in mind,
    And left their flocks a-feeding
        In tempest, storm and wind,
    And went to Bethlehem straightway
        This blessed babe to find

6. But when to Bethlehem they came, 
       Whereat this infant lay,
    They found him in a manger
       Where oxen feed on hay,
    His mother Mary kneeling
      Unto the Lord did pray:</credit-words>  </credit>  <part-list>    <part-group number="1" type="start">      <group-symbol default-x="-5">bracket</group-symbol>      <group-barline>no</group-barline>    </part-group>    <score-part id="P1">      <part-name>Soprano
Alto</part-name>      <part-abbreviation>S
A</part-abbreviation>      <score-instrument id="P1-I1">        <instrument-name>Choir Aahs</instrument-name>      </score-instrument>      <midi-instrument id="P1-I1">        <midi-channel>1</midi-channel>        <midi-program>1</midi-program>        <volume>80</volume>        <pan>0</pan>      </midi-instrument>    </score-part>    <score-part id="P2">      <part-name>Tenor
Bass</part-name>      <part-abbreviation>T
B</part-abbreviation>      <score-instrument id="P2-I2">        <instrument-name>Acoustic Grand Piano</instrument-name>      </score-instrument>      <midi-instrument id="P2-I2">        <midi-channel>2</midi-channel>        <midi-program>57</midi-program>        <volume>80</volume>        <pan>0</pan>      </midi-instrument>    </score-part>    <part-group number="1" type="stop"/>  </part-list>  <!--=========================================================-->  <part id="P1">    <measure implicit="yes" number="0" width="186">      <print>        <system-layout>          <system-margins>            <left-margin>109</left-margin>            <right-margin>0</right-margin>          </system-margins>          <top-system-distance>115</top-system-distance>        </system-layout>        <measure-numbering>system</measure-numbering>      </print>      <attributes>        <divisions>2</divisions>        <key>          <fifths>1</fifths>          <mode>major</mode>        </key>        <time symbol="common">          <beats>4</beats>          <beat-type>4</beat-type>        </time>        <clef>          <sign>G</sign>          <line>2</line>        </clef>      </attributes>      <direction directive="yes" placement="above">        <direction-type>          <words default-y="27" font-size="10.9" font-weight="bold" relative-x="5">Cheerful, flowing</words>        </direction-type>        <sound tempo="160"/>      </direction>      <note default-x="126">        <pitch>          <step>E</step>          <octave>4</octave>        </pitch>        <duration>2</duration>        <voice>1</voice>        <type>quarter</type>        <stem default-y="-4">up</stem>        <lyric default-y="-80" number="1">          <syllabic>single</syllabic>          <text>1.God</text>        </lyric>      </note>    </measure>    <!--=======================================================-->    <measure number="1" width="213">      <note default-x="18">        <pitch>          <step>E</step>          <octave>4</octave>        </pitch>        <duration>2</duration>        <voice>1</voice>        <type>quarter</type>        <stem default-y="-4">up</stem>        <lyric default-y="-80" number="1">          <syllabic>single</syllabic>          <text>rest</text>        </lyric>      </note>      <note default-x="66">        <pitch>          <step>G</step>          <octave>4</octave>        </pitch>        <duration>2</duration>        <voice>1</voice>        <type>quarter</type>        <stem default-y="16">up</stem>        <lyric default-y="-80" number="1">          <syllabic>single</syllabic>          <text>you</text>        </lyric>      </note>      <note default-x="66">        <chord/>        <pitch>          <step>B</step>          <octave>4</octave>        </pitch>        <duration>2</duration>        <voice>1</voice>        <type>quarter</type>        <stem>up</stem>      </note>      <note default-x="115">        <pitch>          <step>F</step>          <alter>1</alter>          <octave>4</octave>        </pitch>        <duration>2</duration>        <voice>1</voice>        <type>quarter</type>        <stem default-y="16">up</stem>        <lyric default-y="-80" number="1">          <syllabic>begin</syllabic>          <text>mer</text>        </lyric>      </note>      <note default-x="115">        <chord/>        <pitch>          <step>B</step>          <octave>4</octave>        </pitch>        <duration>2</duration>        <voice>1</voice>        <type>quarter</type>        <stem>up</stem>      </note>      <note default-x="163">        <pitch>          <step>F</step>          <alter>1</alter>          <octave>4</octave>        </pitch>        <duration>2</duration>        <voice>1</voice>        <type>quarter</type>        <stem default-y="11">up</stem>        <lyric default-y="-80" number="1">          <syllabic>end</syllabic>          <text>ry,</text>        </lyric>      </note>      <note default-x="163">        <chord/>        <pitch>          <step>A</step>          <octave>4</octave>        </pitch>        <duration>2</duration>        <voice>1</voice>        <type>quarter</type>        <stem>up</stem>      </note>    </measure>    <!--=======================================================-->    <measure number="2" width="225">      <note default-x="21">        <pitch>          <step>E</step>          <octave>4</octave>        </pitch>        <duration>2</duration>        <tie type="start"/>        <voice>1</voice>        <type>quarter</type>        <stem default-y="6">up</stem>        <notations>          <tied type="start"/>        </notations>        <lyric default-y="-80" number="1">          <syllabic>begin</syllabic>          <text>gent</text>        </lyric>      </note>      <note default-x="21">        <chord/>        <pitch>          <step>G</step>          <octave>4</octave>        </pitch>        <duration>2</duration>        <voice>1</voice>        <type>quarter</type>        <stem>up</stem>      </note>      <note default-x="72">        <pitch>          <step>B</step>          <octave>3</octave>        </pitch>        <duration>2</duration>        <voice>1</voice>        <type>quarter</type>        <stem default-y="0.5">up</stem>        <lyric default-y="-80" number="1">          <syllabic>middle</syllabic>          <text>le</text>        </lyric>      </note>      <note default-x="72">        <chord/>        <pitch>          <step>F</step>          <alter>1</alter>          <octave>4</octave>        </pitch>        <duration>2</duration>        <voice>1</voice>        <type>quarter</type>        <stem>up</stem>      </note>      <note default-x="123">        <pitch>          <step>B</step>          <octave>3</octave>        </pitch>        <duration>2</duration>        <voice>1</voice>        <type>quarter</type>        <stem default-y="-4">up</stem>        <lyric default-y="-80" number="1">          <syllabic>end</syllabic>          <text>men,</text>        </lyric>      </note>      <note default-x="123">        <chord/>        <pitch>          <step>E</step>          <octave>4</octave>        </pitch>        <duration>2</duration>        <voice>1</voice>        <type>quarter</type>        <stem>up</stem>      </note>      <note default-x="173">        <pitch>          <step>B</step>          <octave>3</octave>        </pitch>        <duration>2</duration>        <voice>1</voice>        <type>quarter</type>        <stem default-y="-9">up</stem>        <lyric default-y="-80" number="1">          <syllabic>single</syllabic>          <text>let</text>        </lyric>      </note>      <note default-x="173">        <chord/>        <pitch>          <step>D</step>          <octave>4</octave>        </pitch>        <duration>2</duration>        <voice>1</voice>        <type>quarter</type>        <stem>up</stem>      </note>    </measure>    <!--=======================================================-->    <measure number="3" width="211">      <note default-x="14">        <pitch>          <step>B</step>          <octave>3</octave>        </pitch>        <duration>2</duration>        <voice>1</voice>        <type>quarter</type>        <stem default-y="-4">up</stem>        <lyric default-y="-80" number="1">          <syllabic>begin</syllabic>          <text>no</text>        </lyric>      </note>      <note default-x="14">        <chord/>        <pitch>          <step>E</step>          <octave>4</octave>        </pitch>        <duration>2</duration>        <voice>1</voice>        <type>quarter</type>        <stem>up</stem>      </note>      <note default-x="63">        <pitch>          <step>D</step>          <octave>4</octave>        </pitch>        <duration>2</duration>        <voice>1</voice>        <type>quarter</type>        <stem default-y="0.5">up</stem>        <lyric default-y="-80" number="1">          <syllabic>end</syllabic>          <text>thing</text>        </lyric>      </note>      <note default-x="63">        <chord/>        <pitch>          <step>F</step>          <alter>1</alter>          <octave>4</octave>        </pitch>        <duration>2</duration>        <voice>1</voice>        <type>quarter</type>        <stem>up</stem>      </note>      <note default-x="112">        <pitch>          <step>E</step>          <octave>4</octave>        </pitch>        <duration>2</duration>        <voice>1</voice>        <type>quarter</type>        <stem default-y="6">up</stem>        <lyric default-y="-80" number="1">          <syllabic>single</syllabic>          <text>you</text>        </lyric>      </note>      <note default-x="112">        <chord/>        <pitch>          <step>G</step>          <octave>4</octave>        </pitch>        <duration>2</duration>        <voice>1</voice>        <type>quarter</type>        <stem>up</stem>      </note>      <note default-x="161">        <pitch>          <step>E</step>          <octave>4</octave>        </pitch>        <duration>2</duration>        <voice>1</voice>        <type>quarter</type>        <stem default-y="11">up</stem>        <lyric default-y="-80" number="1">          <syllabic>begin</syllabic>          <text>dis</text>        </lyric>      </note>      <note default-x="161">        <chord/>        <pitch>          <step>A</step>          <octave>4</octave>        </pitch>        <duration>2</duration>        <voice>1</voice>        <type>quarter</type>        <stem>up</stem>      </note>    </measure>    <!--=======================================================-->    <measure number="4" width="172">      <note default-x="23">        <pitch>          <step>D</step>          <alter>1</alter>          <octave>4</octave>        </pitch>        <duration>6</duration>        <voice>1</voice>        <type>half</type>        <dot/>        <accidental>sharp</accidental>        <stem default-y="16">up</stem>        <lyric default-y="-80" number="1">          <syllabic>end</syllabic>          <text>may,</text>        </lyric>      </note>      <note default-x="23">        <chord/>        <pitch>          <step>B</step>          <octave>4</octave>        </pitch>        <duration>6</duration>        <voice>1</voice>        <type>half</type>        <dot/>        <stem>up</stem>      </note>      <note default-x="124">        <pitch>          <step>E</step>          <octave>4</octave>        </pitch>        <duration>2</duration>        <voice>1</voice>        <type>quarter</type>        <stem default-y="-4">up</stem>        <lyric default-y="-80" number="1">          <syllabic>single</syllabic>          <text>For</text>        </lyric>      </note>    </measure>    <!--=======================================================-->    <measure number="5" width="236">      <print new-system="yes">        <system-layout>          <system-distance>112</system-distance>        </system-layout>      </print>      <note default-x="78">        <pitch>          <step>E</step>          <octave>4</octave>        </pitch>        <duration>2</duration>        <voice>1</voice>        <type>quarter</type>        <stem default-y="-4">up</stem>        <lyric default-y="-80" number="1">          <syllabic>begin</syllabic>          <text>Je</text>        </lyric>      </note>      <note default-x="107">        <pitch>          <step>G</step>          <octave>4</octave>        </pitch>        <duration>2</duration>        <voice>1</voice>        <type>quarter</type>        <stem default-y="16">up</stem>        <lyric default-y="-80" number="1">          <syllabic>end</syllabic>          <text>sus,</text>        </lyric>      </note>      <note default-x="107">        <chord/>        <pitch>          <step>B</step>          <octave>4</octave>        </pitch>        <duration>2</duration>        <voice>1</voice>        <type>quarter</type>        <stem>up</stem>      </note>      <note default-x="157">        <pitch>          <step>F</step>          <alter>1</alter>          <octave>4</octave>        </pitch>        <duration>2</duration>        <voice>1</voice>        <type>quarter</type>        <stem default-y="16">up</stem>        <lyric default-y="-80" number="1">          <syllabic>single</syllabic>          <text>Christ</text>        </lyric>      </note>      <note default-x="157">        <chord/>        <pitch>          <step>B</step>          <octave>4</octave>        </pitch>        <duration>2</duration>        <voice>1</voice>        <type>quarter</type>        <stem>up</stem>      </note>      <note default-x="198">        <pitch>          <step>F</step>          <alter>1</alter>          <octave>4</octave>        </pitch>        <duration>2</duration>        <voice>1</voice>        <type>quarter</type>        <stem default-y="11">up</stem>        <lyric default-y="-80" number="1">          <syllabic>single</syllabic>          <text>our</text>        </lyric>      </note>      <note default-x="198">        <chord/>        <pitch>          <step>A</step>          <octave>4</octave>        </pitch>        <duration>2</duration>        <voice>1</voice>        <type>quarter</type>        <stem>up</stem>      </note>    </measure>    <!--=======================================================-->    <measure number="6" width="163">      <note default-x="13">        <pitch>          <step>E</step>          <octave>4</octave>        </pitch>        <duration>2</duration>        <tie type="start"/>        <voice>1</voice>        <type>quarter</type>        <stem default-y="6">up</stem>        <notations>          <tied type="start"/>        </notations>        <lyric default-y="-80" number="1">          <syllabic>begin</syllabic>          <text>Sa</text>        </lyric>      </note>      <note default-x="13">        <chord/>        <pitch>          <step>G</step>          <octave>4</octave>        </pitch>        <duration>2</duration>        <tie type="start"/>        <voice>1</voice>        <type>quarter</type>        <stem>up</stem>        <notations>          <tied type="start"/>        </notations>      </note>      <note default-x="49">        <pitch>          <step>D</step>          <octave>4</octave>        </pitch>        <duration>2</duration>        <voice>1</voice>        <type>quarter</type>        <stem default-y="1">up</stem>      </note>      <note default-x="49">        <chord/>        <pitch>          <step>F</step>          <alter>1</alter>          <octave>4</octave>        </pitch>        <duration>2</duration>        <voice>1</voice>        <type>quarter</type>        <stem>up</stem>      </note>      <note default-x="83">        <pitch>          <step>C</step>          <octave>4</octave>        </pitch>        <duration>2</duration>        <voice>1</voice>        <type>quarter</type>        <stem default-y="-4">up</stem>        <lyric default-y="-80" number="1">          <syllabic>end</syllabic>          <text>viour</text>        </lyric>      </note>      <note default-x="83">        <chord/>        <pitch>          <step>E</step>          <octave>4</octave>        </pitch>        <duration>2</duration>        <voice>1</voice>        <type>quarter</type>        <stem>up</stem>      </note>      <note default-x="129">        <pitch>          <step>B</step>          <octave>3</octave>        </pitch>        <duration>2</duration>        <voice>1</voice>        <type>quarter</type>        <stem default-y="-9">up</stem>        <lyric default-y="-80" number="1">          <syllabic>single</syllabic>          <text>was</text>        </lyric>      </note>      <note default-x="129">        <chord/>        <pitch>          <step>D</step>          <octave>4</octave>        </pitch>        <duration>2</duration>        <voice>1</voice>        <type>quarter</type>        <stem>up</stem>      </note>    </measure>    <!--=======================================================-->    <measure number="7" width="166">      <note default-x="22">        <pitch>          <step>B</step>          <octave>3</octave>        </pitch>        <duration>2</duration>        <voice>1</voice>        <type>quarter</type>        <stem default-y="-4">up</stem>        <lyric default-y="-80" number="1">          <syllabic>single</syllabic>          <text>born</text>        </lyric>      </note>      <note default-x="22">        <chord/>        <pitch>          <step>E</step>          <octave>4</octave>        </pitch>        <duration>2</duration>        <voice>1</voice>        <type>quarter</type>        <stem>up</stem>      </note>      <note default-x="61">        <pitch>          <step>D</step>          <octave>4</octave>        </pitch>        <duration>2</duration>        <voice>1</voice>        <type>quarter</type>        <stem default-y="1">up</stem>        <lyric default-y="-80" number="1">          <syllabic>begin</syllabic>          <text>up</text>        </lyric>      </note>      <note default-x="61">        <chord/>        <pitch>          <step>F</step>          <alter>1</alter>          <octave>4</octave>        </pitch>        <duration>2</duration>        <voice>1</voice>        <type>quarter</type>        <stem>up</stem>      </note>      <note default-x="93">        <pitch>          <step>B</step>          <octave>3</octave>        </pitch>        <duration>2</duration>        <voice>1</voice>        <type>quarter</type>        <stem default-y="6">up</stem>        <lyric default-y="-80" number="1">          <syllabic>end</syllabic>          <text>on</text>        </lyric>      </note>      <note default-x="93">        <chord/>        <pitch>          <step>G</step>          <octave>4</octave>        </pitch>        <duration>2</duration>        <voice>1</voice>        <type>quarter</type>        <stem>up</stem>      </note>      <note default-x="125">        <pitch>          <step>E</step>          <octave>4</octave>        </pitch>        <duration>2</duration>        <voice>1</voice>        <type>quarter</type>        <stem default-y="11">up</stem>        <lyric default-y="-80" number="1">          <syllabic>single</syllabic>          <text>this</text>        </lyric>      </note>      <note default-x="125">        <chord/>        <pitch>          <step>A</step>          <octave>4</octave>        </pitch>        <duration>2</duration>        <voice>1</voice>        <type>quarter</type>        <stem>up</stem>      </note>    </measure>    <!--=======================================================-->    <measure number="8" width="146">      <note default-x="23">        <pitch>          <step>D</step>          <alter>1</alter>          <octave>4</octave>        </pitch>        <duration>4</duration>        <voice>1</voice>        <type>half</type>        <accidental>sharp</accidental>        <stem default-y="16">up</stem>        <lyric default-y="-80" number="1">          <syllabic>single</syllabic>          <text>day,</text>        </lyric>      </note>      <note default-x="23">        <chord/>        <pitch>          <step>B</step>          <octave>4</octave>        </pitch>        <duration>4</duration>        <voice>1</voice>        <type>half</type>        <stem>up</stem>      </note>      <note default-x="78">        <rest/>        <duration>2</duration>        <voice>1</voice>        <type>quarter</type>      </note>      <note default-x="111">        <pitch>          <step>E</step>          <octave>4</octave>        </pitch>        <duration>2</duration>        <voice>1</voice>        <type>quarter</type>        <stem default-y="16">up</stem>        <lyric default-y="-80" number="1">          <syllabic>single</syllabic>          <text>To</text>        </lyric>      </note>      <note default-x="111">        <chord/>        <pitch>          <step>B</step>          <octave>4</octave>        </pitch>        <duration>2</duration>        <voice>1</voice>        <type>quarter</type>        <stem>up</stem>      </note>    </measure>    <!--=======================================================-->    <measure number="9" width="173">      <note default-x="21">        <pitch>          <step>E</step>          <octave>4</octave>        </pitch>        <duration>2</duration>        <voice>1</voice>        <type>quarter</type>        <stem default-y="11">up</stem>        <lyric default-y="-80" number="1">          <syllabic>single</syllabic>          <text>save</text>        </lyric>      </note>      <note default-x="21">        <chord/>        <pitch>          <step>C</step>          <octave>5</octave>        </pitch>        <duration>2</duration>        <voice>1</voice>        <type>quarter</type>        <stem>up</stem>      </note>      <note default-x="58">        <pitch>          <step>D</step>          <octave>4</octave>        </pitch>        <duration>2</duration>        <voice>1</voice>        <type>quarter</type>        <stem default-y="11">up</stem>        <lyric default-y="-80" number="1">          <syllabic>single</syllabic>          <text>us</text>        </lyric>      </note>      <note default-x="58">        <chord/>        <pitch>          <step>A</step>          <octave>4</octave>        </pitch>        <duration>2</duration>        <voice>1</voice>        <type>quarter</type>        <stem>up</stem>      </note>      <note default-x="91">        <pitch>          <step>D</step>          <octave>4</octave>        </pitch>        <duration>2</duration>        <voice>1</voice>        <type>quarter</type>        <stem default-y="16">up</stem>        <lyric default-y="-80" number="1">          <syllabic>single</syllabic>          <text>all</text>        </lyric>      </note>      <note default-x="91">        <chord/>        <pitch>          <step>B</step>          <octave>4</octave>        </pitch>        <duration>2</duration>        <voice>1</voice>        <type>quarter</type>        <stem>up</stem>      </note>      <note default-x="122">        <pitch>          <step>E</step>          <octave>4</octave>        </pitch>        <duration>2</duration>        <voice>1</voice>        <type>quarter</type>        <stem default-y="11">up</stem>        <lyric default-y="-80" number="1">          <syllabic>single</syllabic>          <text>from</text>        </lyric>      </note>      <note default-x="122">        <chord/>        <pitch>          <step>C</step>          <octave>5</octave>        </pitch>        <duration>2</duration>        <voice>1</voice>        <type>quarter</type>        <stem>up</stem>      </note>    </measure>    <!--=======================================================-->    <measure number="10" width="203">      <note default-x="13">        <pitch>          <step>D</step>          <octave>4</octave>        </pitch>        <duration>2</duration>        <tie type="start"/>        <voice>1</voice>        <type>quarter</type>        <stem default-y="16">up</stem>        <notations>          <tied type="start"/>        </notations>        <lyric default-y="-80" number="1">          <syllabic>begin</syllabic>          <text>Sa</text>        </lyric>      </note>      <note default-x="13">        <chord/>        <pitch>          <step>D</step>          <octave>5</octave>        </pitch>        <duration>2</duration>        <tie type="start"/>        <voice>1</voice>        <type>quarter</type>        <stem>up</stem>        <notations>          <tied type="start"/>        </notations>      </note>      <note default-x="59">        <pitch>          <step>G</step>          <octave>4</octave>        </pitch>        <duration>2</duration>        <voice>1</voice>        <type>quarter</type>        <stem default-y="-56">down</stem>        <lyric default-y="-80" number="1">          <syllabic>end</syllabic>          <text>tan's</text>        </lyric>      </note>      <note default-x="59">        <chord/>        <pitch>          <step>E</step>          <octave>5</octave>        </pitch>        <duration>2</duration>        <voice>1</voice>        <type>quarter</type>        <stem>down</stem>      </note>      <note default-x="110">        <pitch>          <step>G</step>          <octave>4</octave>        </pitch>        <duration>2</duration>        <voice>1</voice>        <type>quarter</type>        <stem default-y="16">up</stem>        <lyric default-y="-80" number="1">          <syllabic>single</syllabic>          <text>power</text>        </lyric>      </note>      <note default-x="110">        <chord/>        <pitch>          <step>B</step>          <octave>4</octave>        </pitch>        <duration>2</duration>        <voice>1</voice>        <type>quarter</type>        <stem>up</stem>      </note>      <note default-x="166">        <pitch>          <step>F</step>          <alter>1</alter>          <octave>4</octave>        </pitch>        <duration>2</duration>        <voice>1</voice>        <type>quarter</type>        <stem default-y="11">up</stem>        <lyric default-y="-80" number="1">          <syllabic>single</syllabic>          <text>when</text>        </lyric>      </note>      <note default-x="166">        <chord/>        <pitch>          <step>A</step>          <octave>4</octave>        </pitch>        <duration>2</duration>        <voice>1</voice>        <type>quarter</type>        <stem>up</stem>      </note>    </measure>    <!--=======================================================-->    <measure number="11" width="274">      <print new-system="yes">        <system-layout>          <system-distance>112</system-distance>        </system-layout>      </print>      <note default-x="82">        <pitch>          <step>E</step>          <octave>4</octave>        </pitch>        <duration>2</duration>        <voice>1</voice>        <type>quarter</type>        <stem default-y="6">up</stem>        <lyric default-y="-80" number="1">          <syllabic>single</syllabic>          <text>we</text>        </lyric>      </note>      <note default-x="82">        <chord/>        <pitch>          <step>G</step>          <octave>4</octave>        </pitch>        <duration>2</duration>        <voice>1</voice>        <type>quarter</type>        <stem>up</stem>      </note>      <note default-x="129">        <pitch>          <step>C</step>          <alter>1</alter>          <octave>4</octave>        </pitch>        <duration>2</duration>        <voice>1</voice>        <type>quarter</type>        <accidental>sharp</accidental>        <stem default-y="-4.5">up</stem>        <lyric default-y="-80" number="1">          <syllabic>single</syllabic>          <text>were</text>        </lyric>      </note>      <note default-x="129">        <chord/>        <pitch>          <step>E</step>          <octave>4</octave>        </pitch>        <duration>2</duration>        <voice>1</voice>        <type>quarter</type>        <stem>up</stem>      </note>      <note default-x="179">        <pitch>          <step>D</step>          <octave>4</octave>        </pitch>        <duration>2</duration>        <voice>1</voice>        <type>quarter</type>        <stem default-y="1">up</stem>        <lyric default-y="-80" number="1">          <syllabic>single</syllabic>          <text>gone</text>        </lyric>      </note>      <note default-x="179">        <chord/>        <pitch>          <step>F</step>          <alter>1</alter>          <octave>4</octave>        </pitch>        <duration>2</duration>        <voice>1</voice>        <type>quarter</type>        <stem>up</stem>      </note>      <note default-x="226">        <pitch>          <step>D</step>          <octave>4</octave>        </pitch>        <duration>2</duration>        <voice>1</voice>        <type>quarter</type>        <stem default-y="6">up</stem>        <lyric default-y="-80" number="1">          <syllabic>begin</syllabic>          <text>a</text>        </lyric>      </note>      <note default-x="226">        <chord/>        <pitch>          <step>G</step>          <octave>4</octave>        </pitch>        <duration>2</duration>        <voice>1</voice>        <type>quarter</type>        <stem>up</stem>      </note>    </measure>    <!--=======================================================-->    <measure number="12" width="105">      <note default-x="26">        <pitch>          <step>F</step>          <alter>1</alter>          <octave>4</octave>        </pitch>        <duration>4</duration>        <voice>1</voice>        <type>half</type>        <stem default-y="11">up</stem>        <lyric default-y="-80" number="1">          <syllabic>end</syllabic>          <text>stray;</text>        </lyric>      </note>      <note default-x="26">        <chord/>        <pitch>          <step>A</step>          <octave>4</octave>        </pitch>        <duration>4</duration>        <voice>1</voice>        <type>half</type>        <stem>up</stem>      </note>      <barline location="right">        <bar-style>light-light</bar-style>      </barline>    </measure>    <!--=======================================================-->    <measure number="13" width="101">      <note default-x="9">        <pitch>          <step>G</step>          <octave>4</octave>        </pitch>        <duration>2</duration>        <tie type="start"/>        <voice>1</voice>        <type>quarter</type>        <stem default-y="6">up</stem>        <notations>          <tied orientation="under" type="start"/>        </notations>        <lyric default-y="-80" justify="left" number="1">          <syllabic>single</syllabic>          <text>O</text>          <extend/>        </lyric>      </note>      <note default-x="54">        <pitch>          <step>A</step>          <octave>4</octave>        </pitch>        <duration>2</duration>        <voice>1</voice>        <type>quarter</type>        <stem default-y="11">up</stem>      </note>    </measure>    <!--=======================================================-->    <measure number="14" width="167">      <note default-x="15">        <pitch>          <step>G</step>          <octave>4</octave>        </pitch>        <duration>4</duration>        <voice>1</voice>        <type>half</type>        <stem default-y="16">up</stem>        <lyric default-y="-80" number="1">          <syllabic>begin</syllabic>          <text>tid</text>        </lyric>      </note>      <note default-x="15">        <chord/>        <pitch>          <step>B</step>          <octave>4</octave>        </pitch>        <duration>4</duration>        <voice>1</voice>        <type>half</type>        <stem>up</stem>      </note>      <note default-x="82">        <pitch>          <step>E</step>          <octave>4</octave>        </pitch>        <duration>2</duration>        <voice>1</voice>        <type>quarter</type>        <stem default-y="11">up</stem>        <lyric default-y="-80" number="1">          <syllabic>end</syllabic>          <text>ings</text>        </lyric>      </note>      <note default-x="82">        <chord/>        <pitch>          <step>C</step>          <octave>5</octave>        </pitch>        <duration>2</duration>        <voice>1</voice>        <type>quarter</type>        <stem>up</stem>      </note>      <note default-x="124">        <pitch>          <step>D</step>          <octave>4</octave>        </pitch>        <duration>2</duration>        <voice>1</voice>        <type>quarter</type>        <stem default-y="16">up</stem>        <lyric default-y="-80" number="1">          <syllabic>single</syllabic>          <text>of</text>        </lyric>      </note>      <note default-x="124">        <chord/>        <pitch>          <step>B</step>          <octave>4</octave>        </pitch>        <duration>2</duration>        <voice>1</voice>        <type>quarter</type>        <stem>up</stem>      </note>    </measure>    <!--=======================================================-->    <measure number="15" width="210">      <note default-x="21">        <pitch>          <step>G</step>          <octave>4</octave>        </pitch>        <duration>2</duration>        <tie type="start"/>        <voice>1</voice>        <type>quarter</type>        <stem default-y="16">up</stem>        <notations>          <tied type="start"/>        </notations>        <lyric default-y="-80" number="1">          <syllabic>begin</syllabic>          <text>com</text>        </lyric>      </note>      <note default-x="21">        <chord/>        <pitch>          <step>B</step>          <octave>4</octave>        </pitch>        <duration>2</duration>        <tie type="start"/>        <voice>1</voice>        <type>quarter</type>        <stem>up</stem>        <notations>          <tied type="start"/>        </notations>      </note>      <note default-x="68">        <pitch>          <step>F</step>          <alter>1</alter>          <octave>4</octave>        </pitch>        <duration>2</duration>        <voice>1</voice>        <type>quarter</type>        <stem default-y="11">up</stem>      </note>      <note default-x="68">        <chord/>        <pitch>          <step>A</step>          <octave>4</octave>        </pitch>        <duration>2</duration>        <voice>1</voice>        <type>quarter</type>        <stem>up</stem>      </note>      <note default-x="115">        <pitch>          <step>E</step>          <octave>4</octave>        </pitch>        <duration>2</duration>        <voice>1</voice>        <type>quarter</type>        <stem default-y="6">up</stem>        <lyric default-y="-80" number="1">          <syllabic>end</syllabic>          <text>fort</text>        </lyric>      </note>      <note default-x="115">        <chord/>        <pitch>          <step>G</step>          <octave>4</octave>        </pitch>        <duration>2</duration>        <voice>1</voice>        <type>quarter</type>        <stem>up</stem>      </note>      <note default-x="162">        <pitch>          <step>D</step>          <alter>1</alter>          <octave>4</octave>        </pitch>        <duration>2</duration>        <voice>1</voice>        <type>quarter</type>        <accidental>sharp</accidental>        <stem default-y="1">up</stem>        <lyric default-y="-80" number="1">          <syllabic>single</syllabic>          <text>and</text>        </lyric>      </note>      <note default-x="162">        <chord/>        <pitch>          <step>F</step>          <alter>1</alter>          <octave>4</octave>        </pitch>        <duration>2</duration>        <voice>1</voice>        <type>quarter</type>        <stem>up</stem>      </note>    </measure>    <!--=======================================================-->    <measure number="16" width="231">      <note default-x="20">        <pitch>          <step>E</step>          <octave>4</octave>        </pitch>        <duration>4</duration>        <voice>1</voice>        <type>half</type>        <stem default-y="-4.5">up</stem>        <lyric default-y="-80" number="1">          <syllabic>single</syllabic>          <text>joy,</text>        </lyric>      </note>      <note default-x="97">        <pitch>          <step>B</step>          <octave>3</octave>        </pitch>        <duration>1</duration>        <voice>1</voice>        <type>eighth</type>        <stem default-y="5">up</stem>        <beam number="1">begin</beam>        <lyric default-y="-80" number="1">          <syllabic>begin</syllabic>          <text>com</text>        </lyric>      </note>      <note default-x="97">        <chord/>        <pitch>          <step>G</step>          <octave>4</octave>        </pitch>        <duration>1</duration>        <voice>1</voice>        <type>eighth</type>        <stem>up</stem>      </note>      <note default-x="136">        <pitch>          <step>B</step>          <octave>3</octave>        </pitch>        <duration>1</duration>        <voice>1</voice>        <type>eighth</type>        <stem default-y="2.5">up</stem>        <beam number="1">end</beam>        <lyric default-y="-80" number="1">          <syllabic>end</syllabic>          <text>fort</text>        </lyric>      </note>      <note default-x="136">        <chord/>        <pitch>          <step>F</step>          <alter>1</alter>          <octave>4</octave>        </pitch>        <duration>1</duration>        <voice>1</voice>        <type>eighth</type>        <stem>up</stem>      </note>      <note default-x="179">        <pitch>          <step>C</step>          <alter>1</alter>          <octave>4</octave>        </pitch>        <duration>2</duration>        <voice>1</voice>        <type>quarter</type>        <accidental>sharp</accidental>        <stem default-y="-4.5">up</stem>        <lyric default-y="-80" number="1">          <syllabic>single</syllabic>          <text>and</text>        </lyric>      </note>      <note default-x="179">        <chord/>        <pitch>          <step>E</step>          <octave>4</octave>        </pitch>        <duration>2</duration>        <voice>1</voice>        <type>quarter</type>        <stem>up</stem>      </note>    </measure>    <!--=======================================================-->    <measure number="17" width="323">      <print new-system="yes">        <system-layout>          <system-distance>112</system-distance>        </system-layout>      </print>      <note default-x="87">        <pitch>          <step>D</step>          <octave>4</octave>        </pitch>        <duration>4</duration>        <voice>1</voice>        <type>half</type>        <stem default-y="11">up</stem>        <lyric default-y="-80" number="1">          <syllabic>single</syllabic>          <text>joy,</text>        </lyric>      </note>      <note default-x="87">        <chord/>        <pitch>          <step>A</step>          <octave>4</octave>        </pitch>        <duration>4</duration>        <voice>1</voice>        <type>half</type>        <stem>up</stem>      </note>      <note default-x="192">        <pitch>          <step>G</step>          <octave>4</octave>        </pitch>        <duration>2</duration>        <tie type="start"/>        <voice>1</voice>        <type>quarter</type>        <stem default-y="5.5">up</stem>        <notations>          <tied type="start"/>        </notations>        <lyric default-y="-80" justify="left" number="1">          <syllabic>single</syllabic>          <text>O</text>          <extend/>        </lyric>      </note>      <note default-x="257">        <pitch>          <step>A</step>          <octave>4</octave>        </pitch>        <duration>2</duration>        <voice>1</voice>        <type>quarter</type>        <stem default-y="11">up</stem>      </note>    </measure>    <!--=======================================================-->    <measure number="18" width="262">      <note default-x="14">        <pitch>          <step>G</step>          <octave>4</octave>        </pitch>        <duration>4</duration>        <voice>1</voice>        <type>half</type>        <stem default-y="-55">down</stem>        <lyric default-y="-80" number="1">          <syllabic>begin</syllabic>          <text>tid</text>        </lyric>      </note>      <note default-x="138">        <pitch>          <step>G</step>          <octave>4</octave>        </pitch>        <duration>2</duration>        <voice>1</voice>        <type>quarter</type>        <stem default-y="-55">down</stem>        <lyric default-y="-80" number="1">          <syllabic>end</syllabic>          <text>ings</text>        </lyric>      </note>      <note default-x="199">        <pitch>          <step>G</step>          <octave>4</octave>        </pitch>        <duration>2</duration>        <voice>1</voice>        <type>quarter</type>        <stem default-y="-55">down</stem>        <lyric default-y="-80" number="1">          <syllabic>single</syllabic>          <text>of</text>        </lyric>      </note>      <backup>        <duration>8</duration>      </backup>      <note default-x="14">        <pitch>          <step>B</step>          <octave>4</octave>        </pitch>        <duration>2</duration>        <tie type="start"/>        <voice>2</voice>        <type>quarter</type>        <stem default-y="-55">down</stem>        <notations>          <tied orientation="under" type="start"/>        </notations>      </note>      <note default-x="76">        <pitch>          <step>C</step>          <octave>5</octave>        </pitch>        <duration>2</duration>        <voice>2</voice>        <type>quarter</type>        <stem default-y="-50.5">down</stem>      </note>      <note default-x="138">        <pitch>          <step>D</step>          <octave>5</octave>        </pitch>        <duration>2</duration>        <voice>2</voice>        <type>quarter</type>        <stem default-y="-46">down</stem>      </note>      <note default-x="199">        <pitch>          <step>E</step>          <octave>5</octave>        </pitch>        <duration>2</duration>        <voice>2</voice>        <type>quarter</type>        <stem default-y="-40.5">down</stem>      </note>    </measure>    <!--=======================================================-->    <measure number="19" width="303">      <note default-x="21">        <pitch>          <step>G</step>          <octave>4</octave>        </pitch>        <duration>2</duration>        <tie type="start"/>        <voice>1</voice>        <type>quarter</type>        <stem default-y="-55">down</stem>        <notations>          <tied orientation="under" type="start"/>        </notations>        <lyric default-y="-80" number="1">          <syllabic>begin</syllabic>          <text>com</text>        </lyric>      </note>      <note default-x="21">        <chord/>        <pitch>          <step>B</step>          <octave>4</octave>        </pitch>        <duration>2</duration>        <voice>1</voice>        <type>quarter</type>        <stem>down</stem>      </note>      <note default-x="91">        <pitch>          <step>F</step>          <alter>1</alter>          <octave>4</octave>        </pitch>        <duration>2</duration>        <voice>1</voice>        <type>quarter</type>        <stem default-y="-61">down</stem>      </note>      <note default-x="161">        <pitch>          <step>E</step>          <octave>4</octave>        </pitch>        <duration>2</duration>        <voice>1</voice>        <type>quarter</type>        <stem default-y="-65.5">down</stem>        <lyric default-y="-80" number="1">          <syllabic>end</syllabic>          <text>fort</text>        </lyric>      </note>      <note default-x="231">        <pitch>          <step>D</step>          <alter>1</alter>          <octave>4</octave>        </pitch>        <duration>2</duration>        <voice>1</voice>        <type>quarter</type>        <accidental>sharp</accidental>        <stem default-y="-71">down</stem>        <lyric default-y="-80" number="1">          <syllabic>single</syllabic>          <text>and</text>        </lyric>      </note>      <backup>        <duration>8</duration>      </backup>      <note default-x="21">        <pitch>          <step>B</step>          <octave>4</octave>        </pitch>        <duration>2</duration>        <tie type="start"/>        <voice>2</voice>        <type>quarter</type>        <stem default-y="-55">down</stem>        <notations>          <tied orientation="under" type="start"/>        </notations>      </note>      <note default-x="91">        <pitch>          <step>A</step>          <octave>4</octave>        </pitch>        <duration>2</duration>        <voice>2</voice>        <type>quarter</type>        <stem default-y="-50.5">down</stem>      </note>      <note default-x="161">        <pitch>          <step>G</step>          <octave>4</octave>        </pitch>        <duration>2</duration>        <voice>2</voice>        <type>quarter</type>        <stem default-y="-55">down</stem>      </note>      <note default-x="231">        <pitch>          <step>F</step>          <alter>1</alter>          <octave>4</octave>        </pitch>        <duration>2</duration>        <voice>2</voice>        <type>quarter</type>        <stem default-y="-61">down</stem>      </note>    </measure>    <!--=======================================================-->    <measure number="20" width="199">      <note default-x="20">        <pitch>          <step>E</step>          <octave>4</octave>        </pitch>        <duration>6</duration>        <voice>1</voice>        <type>half</type>        <dot/>        <stem default-y="-4">up</stem>        <lyric default-y="-80" number="1">          <syllabic>single</syllabic>          <text>joy.</text>        </lyric>      </note>      <backup>        <duration>6</duration>      </backup>      <note default-x="20">        <pitch>          <step>E</step>          <octave>4</octave>        </pitch>        <duration>4</duration>        <voice>2</voice>        <type>half</type>        <stem default-y="-65.5">down</stem>      </note>      <forward>        <duration>2</duration>        <voice>2</voice>      </forward>      <barline location="right">        <bar-style>light-heavy</bar-style>      </barline>    </measure>  </part>  <!--=========================================================-->  <part id="P2">    <measure implicit="yes" number="0" width="186">      <print>        <measure-numbering>none</measure-numbering>      </print>      <attributes>        <divisions>2</divisions>        <key>          <fifths>1</fifths>          <mode>major</mode>        </key>        <time symbol="common">          <beats>4</beats>          <beat-type>4</beat-type>        </time>        <clef>          <sign>F</sign>          <line>4</line>        </clef>      </attributes>      <note default-x="126">        <pitch>          <step>E</step>          <octave>3</octave>        </pitch>        <duration>2</duration>        <voice>1</voice>        <type>quarter</type>        <stem default-y="-50.5">down</stem>      </note>    </measure>    <!--=======================================================-->    <measure number="1" width="213">      <note default-x="18">        <pitch>          <step>E</step>          <octave>3</octave>        </pitch>        <duration>2</duration>        <voice>1</voice>        <type>quarter</type>        <stem default-y="-50.5">down</stem>      </note>      <note default-x="66">        <pitch>          <step>E</step>          <octave>3</octave>        </pitch>        <duration>2</duration>        <voice>1</voice>        <type>quarter</type>        <stem default-y="-50.5">down</stem>      </note>      <note default-x="66">        <chord/>        <pitch>          <step>E</step>          <octave>4</octave>        </pitch>        <duration>2</duration>        <voice>1</voice>        <type>quarter</type>        <stem>down</stem>      </note>      <note default-x="115">        <pitch>          <step>B</step>          <octave>2</octave>        </pitch>        <duration>2</duration>        <voice>1</voice>        <type>quarter</type>        <stem default-y="-55.5">down</stem>      </note>      <note default-x="115">        <chord/>        <pitch>          <step>D</step>          <octave>4</octave>        </pitch>        <duration>2</duration>        <voice>1</voice>        <type>quarter</type>        <stem>down</stem>      </note>      <note default-x="163">        <pitch>          <step>D</step>          <octave>3</octave>        </pitch>        <duration>2</duration>        <voice>1</voice>        <type>quarter</type>        <stem default-y="-55.5">down</stem>      </note>      <note default-x="163">        <chord/>        <pitch>          <step>D</step>          <octave>4</octave>        </pitch>        <duration>2</duration>        <voice>1</voice>        <type>quarter</type>        <stem>down</stem>      </note>    </measure>    <!--=======================================================-->    <measure number="2" width="225">      <note default-x="21">        <pitch>          <step>E</step>          <octave>3</octave>        </pitch>        <duration>2</duration>        <voice>1</voice>        <type>quarter</type>        <stem default-y="-50.5">down</stem>      </note>      <note default-x="21">        <chord/>        <pitch>          <step>B</step>          <octave>3</octave>        </pitch>        <duration>2</duration>        <tie type="start"/>        <voice>1</voice>        <type>quarter</type>        <stem>down</stem>        <notations>          <tied type="start"/>        </notations>      </note>      <note default-x="72">        <pitch>          <step>B</step>          <octave>2</octave>        </pitch>        <duration>2</duration>        <voice>1</voice>        <type>quarter</type>        <stem default-y="-55.5">down</stem>      </note>      <note default-x="72">        <chord/>        <pitch>          <step>B</step>          <octave>3</octave>        </pitch>        <duration>2</duration>        <tie type="stop"/>        <voice>1</voice>        <type>quarter</type>        <stem>down</stem>        <notations>          <tied type="stop"/>        </notations>      </note>      <note default-x="123">        <pitch>          <step>E</step>          <octave>3</octave>        </pitch>        <duration>2</duration>        <voice>1</voice>        <type>quarter</type>        <stem default-y="-50.5">down</stem>      </note>      <note default-x="123">        <chord/>        <pitch>          <step>G</step>          <octave>3</octave>        </pitch>        <duration>2</duration>        <voice>1</voice>        <type>quarter</type>        <stem>down</stem>      </note>      <note default-x="173">        <pitch>          <step>B</step>          <octave>2</octave>        </pitch>        <duration>2</duration>        <voice>1</voice>        <type>quarter</type>        <stem default-y="-55.5">down</stem>      </note>      <note default-x="173">        <chord/>        <pitch>          <step>F</step>          <alter>1</alter>          <octave>3</octave>        </pitch>        <duration>2</duration>        <voice>1</voice>        <type>quarter</type>        <stem>down</stem>      </note>    </measure>    <!--=======================================================-->    <measure number="3" width="211">      <note default-x="14">        <pitch>          <step>E</step>          <octave>3</octave>        </pitch>        <duration>2</duration>        <voice>1</voice>        <type>quarter</type>        <stem default-y="-50.5">down</stem>      </note>      <note default-x="14">        <chord/>        <pitch>          <step>G</step>          <octave>3</octave>        </pitch>        <duration>2</duration>        <voice>1</voice>        <type>quarter</type>        <stem>down</stem>      </note>      <note default-x="63">        <pitch>          <step>D</step>          <octave>3</octave>        </pitch>        <duration>2</duration>        <voice>1</voice>        <type>quarter</type>        <stem default-y="-55.5">down</stem>      </note>      <note default-x="63">        <chord/>        <pitch>          <step>A</step>          <octave>3</octave>        </pitch>        <duration>2</duration>        <voice>1</voice>        <type>quarter</type>        <stem>down</stem>      </note>      <note default-x="112">        <pitch>          <step>C</step>          <octave>3</octave>        </pitch>        <duration>2</duration>        <voice>1</voice>        <type>quarter</type>        <stem default-y="-50.5">down</stem>      </note>      <note default-x="112">        <chord/>        <pitch>          <step>E</step>          <octave>3</octave>        </pitch>        <duration>2</duration>        <voice>1</voice>        <type>quarter</type>        <stem>down</stem>      </note>      <note default-x="161">        <pitch>          <step>C</step>          <octave>3</octave>        </pitch>        <duration>2</duration>        <voice>1</voice>        <type>quarter</type>        <stem default-y="-50.5">down</stem>      </note>      <note default-x="161">        <chord/>        <pitch>          <step>E</step>          <octave>3</octave>        </pitch>        <duration>2</duration>        <voice>1</voice>        <type>quarter</type>        <stem>down</stem>      </note>    </measure>    <!--=======================================================-->    <measure number="4" width="172">      <note default-x="23">        <pitch>          <step>B</step>          <octave>2</octave>        </pitch>        <duration>6</duration>        <voice>1</voice>        <type>half</type>        <dot/>        <stem default-y="-55.5">down</stem>      </note>      <note default-x="23">        <chord/>        <pitch>          <step>F</step>          <alter>1</alter>          <octave>3</octave>        </pitch>        <duration>6</duration>        <voice>1</voice>        <type>half</type>        <dot/>        <stem>down</stem>      </note>      <note default-x="124">        <pitch>          <step>E</step>          <octave>3</octave>        </pitch>        <duration>2</duration>        <voice>1</voice>        <type>quarter</type>        <stem default-y="-50.5">down</stem>      </note>    </measure>    <!--=======================================================-->    <measure number="5" width="236">      <print new-system="yes"/>      <note default-x="78">        <pitch>          <step>E</step>          <octave>3</octave>        </pitch>        <duration>2</duration>        <voice>1</voice>        <type>quarter</type>        <stem default-y="-51">down</stem>      </note>      <note default-x="107">        <pitch>          <step>E</step>          <octave>3</octave>        </pitch>        <duration>2</duration>        <voice>1</voice>        <type>quarter</type>        <stem default-y="-51">down</stem>      </note>      <note default-x="107">        <chord/>        <pitch>          <step>E</step>          <octave>4</octave>        </pitch>        <duration>2</duration>        <voice>1</voice>        <type>quarter</type>        <stem>down</stem>      </note>      <note default-x="157">        <pitch>          <step>B</step>          <octave>2</octave>        </pitch>        <duration>2</duration>        <voice>1</voice>        <type>quarter</type>        <stem default-y="-55.5">down</stem>      </note>      <note default-x="157">        <chord/>        <pitch>          <step>D</step>          <octave>4</octave>        </pitch>        <duration>2</duration>        <voice>1</voice>        <type>quarter</type>        <stem>down</stem>      </note>      <note default-x="198">        <pitch>          <step>D</step>          <octave>3</octave>        </pitch>        <duration>2</duration>        <voice>1</voice>        <type>quarter</type>        <stem default-y="-55.5">down</stem>      </note>      <note default-x="198">        <chord/>        <pitch>          <step>D</step>          <octave>4</octave>        </pitch>        <duration>2</duration>        <voice>1</voice>        <type>quarter</type>        <stem>down</stem>      </note>    </measure>    <!--=======================================================-->    <measure number="6" width="163">      <note default-x="13">        <pitch>          <step>E</step>          <octave>3</octave>        </pitch>        <duration>2</duration>        <tie type="start"/>        <voice>1</voice>        <type>quarter</type>        <stem default-y="-51">down</stem>        <notations>          <tied orientation="under" type="start"/>        </notations>      </note>      <note default-x="49">        <pitch>          <step>B</step>          <octave>2</octave>        </pitch>        <duration>2</duration>        <voice>1</voice>        <type>quarter</type>        <stem default-y="-55.5">down</stem>      </note>      <note default-x="83">        <pitch>          <step>C</step>          <octave>3</octave>        </pitch>        <duration>2</duration>        <voice>1</voice>        <type>quarter</type>        <stem default-y="-51">down</stem>      </note>      <note default-x="129">        <pitch>          <step>G</step>          <octave>3</octave>        </pitch>        <duration>2</duration>        <voice>1</voice>        <type>quarter</type>        <stem default-y="-40.5">down</stem>      </note>      <backup>        <duration>8</duration>      </backup>      <note default-x="13">        <pitch>          <step>B</step>          <octave>3</octave>        </pitch>        <duration>4</duration>        <voice>2</voice>        <type>half</type>        <stem default-y="31">up</stem>      </note>      <note default-x="83">        <pitch>          <step>G</step>          <octave>3</octave>        </pitch>        <duration>2</duration>        <voice>2</voice>        <type>quarter</type>        <stem default-y="21">up</stem>      </note>      <note default-x="129">        <pitch>          <step>G</step>          <octave>3</octave>        </pitch>        <duration>2</duration>        <voice>2</voice>        <type>quarter</type>        <stem default-y="21">up</stem>      </note>    </measure>    <!--=======================================================-->    <measure number="7" width="166">      <note default-x="22">        <pitch>          <step>E</step>          <octave>3</octave>        </pitch>        <duration>2</duration>        <voice>1</voice>        <type>quarter</type>        <stem default-y="-51">down</stem>      </note>      <note default-x="22">        <chord/>        <pitch>          <step>G</step>          <octave>3</octave>        </pitch>        <duration>2</duration>        <voice>1</voice>        <type>quarter</type>        <stem>down</stem>      </note>      <note default-x="61">        <pitch>          <step>B</step>          <octave>2</octave>        </pitch>        <duration>2</duration>        <voice>1</voice>        <type>quarter</type>        <stem default-y="-55.5">down</stem>      </note>      <note default-x="61">        <chord/>        <pitch>          <step>B</step>          <octave>3</octave>        </pitch>        <duration>2</duration>        <voice>1</voice>        <type>quarter</type>        <stem>down</stem>      </note>      <note default-x="93">        <pitch>          <step>E</step>          <octave>3</octave>        </pitch>        <duration>2</duration>        <voice>1</voice>        <type>quarter</type>        <stem default-y="-51">down</stem>      </note>      <note default-x="93">        <chord/>        <pitch>          <step>G</step>          <octave>3</octave>        </pitch>        <duration>2</duration>        <voice>1</voice>        <type>quarter</type>        <stem>down</stem>      </note>      <note default-x="125">        <pitch>          <step>C</step>          <octave>3</octave>        </pitch>        <duration>2</duration>        <voice>1</voice>        <type>quarter</type>        <stem default-y="-51">down</stem>      </note>      <note default-x="125">        <chord/>        <pitch>          <step>E</step>          <octave>3</octave>        </pitch>        <duration>2</duration>        <voice>1</voice>        <type>quarter</type>        <stem>down</stem>      </note>    </measure>    <!--=======================================================-->    <measure number="8" width="146">      <note default-x="23">        <pitch>          <step>B</step>          <octave>2</octave>        </pitch>        <duration>4</duration>        <voice>1</voice>        <type>half</type>        <stem default-y="-55.5">down</stem>      </note>      <note default-x="23">        <chord/>        <pitch>          <step>F</step>          <alter>1</alter>          <octave>3</octave>        </pitch>        <duration>4</duration>        <voice>1</voice>        <type>half</type>        <stem>down</stem>      </note>      <note default-x="78">        <rest/>        <duration>2</duration>        <voice>1</voice>        <type>quarter</type>      </note>      <note default-x="111">        <pitch>          <step>E</step>          <octave>3</octave>        </pitch>        <duration>2</duration>        <voice>1</voice>        <type>quarter</type>        <stem default-y="-51">down</stem>      </note>      <note default-x="111">        <chord/>        <pitch>          <step>G</step>          <alter>1</alter>          <octave>3</octave>        </pitch>        <duration>2</duration>        <voice>1</voice>        <type>quarter</type>        <accidental>sharp</accidental>        <stem>down</stem>      </note>    </measure>    <!--=======================================================-->    <measure number="9" width="173">      <note default-x="21">        <pitch>          <step>A</step>          <octave>2</octave>        </pitch>        <duration>2</duration>        <voice>1</voice>        <type>quarter</type>        <stem default-y="-61">down</stem>      </note>      <note default-x="21">        <chord/>        <pitch>          <step>A</step>          <octave>3</octave>        </pitch>        <duration>2</duration>        <voice>1</voice>        <type>quarter</type>        <stem>down</stem>      </note>      <note default-x="58">        <pitch>          <step>D</step>          <octave>3</octave>        </pitch>        <duration>2</duration>        <voice>1</voice>        <type>quarter</type>        <stem default-y="-55.5">down</stem>      </note>      <note default-x="58">        <chord/>        <pitch>          <step>F</step>          <alter>1</alter>          <octave>3</octave>        </pitch>        <duration>2</duration>        <voice>1</voice>        <type>quarter</type>        <stem>down</stem>      </note>      <note default-x="91">        <pitch>          <step>G</step>          <octave>2</octave>        </pitch>        <duration>2</duration>        <voice>1</voice>        <type>quarter</type>        <stem default-y="21">up</stem>      </note>      <note default-x="91">        <chord/>        <pitch>          <step>G</step>          <octave>3</octave>        </pitch>        <duration>2</duration>        <voice>1</voice>        <type>quarter</type>        <stem>up</stem>      </note>      <note default-x="122">        <pitch>          <step>C</step>          <octave>3</octave>        </pitch>        <duration>2</duration>        <voice>1</voice>        <type>quarter</type>        <stem default-y="-51">down</stem>      </note>      <note default-x="122">        <chord/>        <pitch>          <step>G</step>          <octave>3</octave>        </pitch>        <duration>2</duration>        <voice>1</voice>        <type>quarter</type>        <stem>down</stem>      </note>    </measure>    <!--=======================================================-->    <measure number="10" width="203">      <note default-x="13">        <pitch>          <step>B</step>          <octave>2</octave>        </pitch>        <duration>2</duration>        <tie type="start"/>        <voice>1</voice>        <type>quarter</type>        <stem default-y="-55.5">down</stem>        <notations>          <tied type="start"/>        </notations>      </note>      <note default-x="13">        <chord/>        <pitch>          <step>G</step>          <octave>3</octave>        </pitch>        <duration>2</duration>        <tie type="start"/>        <voice>1</voice>        <type>quarter</type>        <stem>down</stem>        <notations>          <tied type="start"/>        </notations>      </note>      <note default-x="59">        <pitch>          <step>C</step>          <octave>3</octave>        </pitch>        <duration>2</duration>        <voice>1</voice>        <type>quarter</type>        <stem default-y="-51">down</stem>      </note>      <note default-x="59">        <chord/>        <pitch>          <step>G</step>          <octave>3</octave>        </pitch>        <duration>2</duration>        <tie type="stop"/>        <voice>1</voice>        <type>quarter</type>        <stem>down</stem>        <notations>          <tied type="stop"/>        </notations>      </note>      <note default-x="110">        <pitch>          <step>G</step>          <octave>2</octave>        </pitch>        <duration>2</duration>        <voice>1</voice>        <type>quarter</type>        <stem default-y="-65.5">down</stem>      </note>      <note default-x="110">        <chord/>        <pitch>          <step>D</step>          <octave>4</octave>        </pitch>        <duration>2</duration>        <voice>1</voice>        <type>quarter</type>        <stem>down</stem>      </note>      <note default-x="166">        <pitch>          <step>D</step>          <octave>3</octave>        </pitch>        <duration>2</duration>        <voice>1</voice>        <type>quarter</type>        <stem default-y="-55.5">down</stem>      </note>      <note default-x="166">        <chord/>        <pitch>          <step>D</step>          <octave>4</octave>        </pitch>        <duration>2</duration>        <voice>1</voice>        <type>quarter</type>        <stem>down</stem>      </note>    </measure>    <!--=======================================================-->    <measure number="11" width="274">      <print new-system="yes"/>      <note default-x="82">        <pitch>          <step>E</step>          <octave>3</octave>        </pitch>        <duration>2</duration>        <voice>1</voice>        <type>quarter</type>        <stem default-y="-51">down</stem>      </note>      <note default-x="82">        <chord/>        <pitch>          <step>B</step>          <octave>3</octave>        </pitch>        <duration>2</duration>        <voice>1</voice>        <type>quarter</type>        <stem>down</stem>      </note>      <note default-x="129">        <pitch>          <step>E</step>          <octave>3</octave>        </pitch>        <duration>2</duration>        <voice>1</voice>        <type>quarter</type>        <stem default-y="-51">down</stem>      </note>      <note default-x="129">        <chord/>        <pitch>          <step>G</step>          <octave>3</octave>        </pitch>        <duration>2</duration>        <voice>1</voice>        <type>quarter</type>        <stem>down</stem>      </note>      <note default-x="179">        <pitch>          <step>D</step>          <octave>3</octave>        </pitch>        <duration>2</duration>        <voice>1</voice>        <type>quarter</type>        <stem default-y="-55.5">down</stem>      </note>      <note default-x="179">        <chord/>        <pitch>          <step>A</step>          <octave>3</octave>        </pitch>        <duration>2</duration>        <voice>1</voice>        <type>quarter</type>        <stem>down</stem>      </note>      <note default-x="226">        <pitch>          <step>B</step>          <octave>2</octave>        </pitch>        <duration>2</duration>        <voice>1</voice>        <type>quarter</type>        <stem default-y="-55.5">down</stem>      </note>      <note default-x="226">        <chord/>        <pitch>          <step>D</step>          <octave>4</octave>        </pitch>        <duration>2</duration>        <voice>1</voice>        <type>quarter</type>        <stem>down</stem>      </note>    </measure>    <!--=======================================================-->    <measure number="12" width="105">      <note default-x="26">        <pitch>          <step>D</step>          <octave>3</octave>        </pitch>        <duration>4</duration>        <voice>1</voice>        <type>half</type>        <stem default-y="-55.5">down</stem>      </note>      <note default-x="26">        <chord/>        <pitch>          <step>D</step>          <octave>4</octave>        </pitch>        <duration>4</duration>        <voice>1</voice>        <type>half</type>        <stem>down</stem>      </note>      <barline location="right">        <bar-style>light-light</bar-style>      </barline>    </measure>    <!--=======================================================-->    <measure number="13" width="101">      <note default-x="9">        <pitch>          <step>G</step>          <octave>3</octave>        </pitch>        <duration>2</duration>        <tie type="start"/>        <voice>1</voice>        <type>quarter</type>        <stem default-y="-40.5">down</stem>        <notations>          <tied orientation="under" type="start"/>        </notations>      </note>      <note default-x="54">        <pitch>          <step>A</step>          <octave>3</octave>        </pitch>        <duration>2</duration>        <voice>1</voice>        <type>quarter</type>        <stem default-y="-36">down</stem>      </note>    </measure>    <!--=======================================================-->    <measure number="14" width="167">      <note default-x="15">        <pitch>          <step>G</step>          <octave>3</octave>        </pitch>        <duration>4</duration>        <voice>1</voice>        <type>half</type>        <stem default-y="-40.5">down</stem>      </note>      <note default-x="15">        <chord/>        <pitch>          <step>B</step>          <octave>3</octave>        </pitch>        <duration>4</duration>        <voice>1</voice>        <type>half</type>        <stem>down</stem>      </note>      <note default-x="82">        <pitch>          <step>C</step>          <octave>3</octave>        </pitch>        <duration>2</duration>        <voice>1</voice>        <type>quarter</type>        <stem default-y="-51">down</stem>      </note>      <note default-x="82">        <chord/>        <pitch>          <step>G</step>          <octave>3</octave>        </pitch>        <duration>2</duration>        <voice>1</voice>        <type>quarter</type>        <stem>down</stem>      </note>      <note default-x="124">        <pitch>          <step>G</step>          <octave>3</octave>        </pitch>        <duration>2</duration>        <voice>1</voice>        <type>quarter</type>        <stem default-y="-40.5">down</stem>      </note>    </measure>    <!--=======================================================-->    <measure number="15" width="210">      <note default-x="21">        <pitch>          <step>G</step>          <octave>3</octave>        </pitch>        <duration>2</duration>        <tie type="start"/>        <voice>1</voice>        <type>quarter</type>        <stem default-y="-40.5">down</stem>        <notations>          <tied type="start"/>        </notations>      </note>      <note default-x="21">        <chord/>        <pitch>          <step>D</step>          <octave>4</octave>        </pitch>        <duration>2</duration>        <tie type="start"/>        <voice>1</voice>        <type>quarter</type>        <stem>down</stem>        <notations>          <tied type="start"/>        </notations>      </note>      <note default-x="68">        <pitch>          <step>A</step>          <octave>3</octave>        </pitch>        <duration>2</duration>        <voice>1</voice>        <type>quarter</type>        <stem default-y="-36">down</stem>      </note>      <note default-x="68">        <chord/>        <pitch>          <step>C</step>          <octave>4</octave>        </pitch>        <duration>2</duration>        <voice>1</voice>        <type>quarter</type>        <stem>down</stem>      </note>      <note default-x="115">        <pitch>          <step>B</step>          <octave>3</octave>        </pitch>        <duration>2</duration>        <voice>1</voice>        <type>quarter</type>        <stem default-y="-30.5">down</stem>      </note>      <note default-x="162">        <pitch>          <step>B</step>          <octave>2</octave>        </pitch>        <duration>2</duration>        <voice>1</voice>        <type>quarter</type>        <stem default-y="-55.5">down</stem>      </note>      <note default-x="162">        <chord/>        <pitch>          <step>B</step>          <octave>3</octave>        </pitch>        <duration>2</duration>        <voice>1</voice>        <type>quarter</type>        <stem>down</stem>      </note>    </measure>    <!--=======================================================-->    <measure number="16" width="231">      <note default-x="20">        <pitch>          <step>E</step>          <octave>3</octave>        </pitch>        <duration>4</duration>        <voice>1</voice>        <type>half</type>        <stem default-y="-51">down</stem>      </note>      <note default-x="20">        <chord/>        <pitch>          <step>G</step>          <octave>3</octave>        </pitch>        <duration>4</duration>        <voice>1</voice>        <type>half</type>        <stem>down</stem>      </note>      <note default-x="97">        <pitch>          <step>E</step>          <octave>3</octave>        </pitch>        <duration>1</duration>        <voice>1</voice>        <type>eighth</type>        <stem default-y="-50">down</stem>        <beam number="1">begin</beam>      </note>      <note default-x="97">        <chord/>        <pitch>          <step>G</step>          <octave>3</octave>        </pitch>        <duration>1</duration>        <voice>1</voice>        <type>eighth</type>        <stem>down</stem>      </note>      <note default-x="136">        <pitch>          <step>E</step>          <octave>3</octave>        </pitch>        <duration>1</duration>        <voice>1</voice>        <type>eighth</type>        <stem default-y="-50">down</stem>        <beam number="1">end</beam>      </note>      <note default-x="136">        <chord/>        <pitch>          <step>G</step>          <octave>3</octave>        </pitch>        <duration>1</duration>        <voice>1</voice>        <type>eighth</type>        <stem>down</stem>      </note>      <note default-x="179">        <pitch>          <step>E</step>          <octave>3</octave>        </pitch>        <duration>2</duration>        <voice>1</voice>        <type>quarter</type>        <stem default-y="-51">down</stem>      </note>      <note default-x="179">        <chord/>        <pitch>          <step>G</step>          <octave>3</octave>        </pitch>        <duration>2</duration>        <voice>1</voice>        <type>quarter</type>        <stem>down</stem>      </note>    </measure>    <!--=======================================================-->    <measure number="17" width="323">      <print new-system="yes"/>      <note default-x="87">        <pitch>          <step>D</step>          <octave>3</octave>        </pitch>        <duration>4</duration>        <voice>1</voice>        <type>half</type>        <stem default-y="-56">down</stem>      </note>      <note default-x="87">        <chord/>        <pitch>          <step>F</step>          <alter>1</alter>          <octave>3</octave>        </pitch>        <duration>4</duration>        <voice>1</voice>        <type>half</type>        <stem>down</stem>      </note>      <note default-x="192">        <pitch>          <step>G</step>          <octave>3</octave>        </pitch>        <duration>2</duration>        <tie type="start"/>        <voice>1</voice>        <type>quarter</type>        <stem default-y="-41">down</stem>        <notations>          <tied type="start"/>        </notations>      </note>      <note default-x="257">        <pitch>          <step>A</step>          <octave>3</octave>        </pitch>        <duration>2</duration>        <voice>1</voice>        <type>quarter</type>        <stem default-y="-35.5">down</stem>      </note>    </measure>    <!--=======================================================-->    <measure number="18" width="262">      <note default-x="14">        <pitch>          <step>G</step>          <octave>3</octave>        </pitch>        <duration>2</duration>        <tie type="start"/>        <voice>1</voice>        <type>quarter</type>        <stem default-y="-41">down</stem>        <notations>          <tied type="start"/>        </notations>      </note>      <note default-x="14">        <chord/>        <pitch>          <step>B</step>          <octave>3</octave>        </pitch>        <duration>2</duration>        <tie type="start"/>        <voice>1</voice>        <type>quarter</type>        <stem>down</stem>        <notations>          <tied type="start"/>        </notations>      </note>      <note default-x="76">        <pitch>          <step>E</step>          <octave>3</octave>        </pitch>        <duration>2</duration>        <voice>1</voice>        <type>quarter</type>        <stem default-y="-50">down</stem>      </note>      <note default-x="76">        <chord/>        <pitch>          <step>G</step>          <octave>3</octave>        </pitch>        <duration>2</duration>        <tie type="stop"/>        <voice>1</voice>        <type>quarter</type>        <stem>down</stem>        <notations>          <tied type="stop"/>        </notations>      </note>      <note default-x="138">        <pitch>          <step>B</step>          <octave>2</octave>        </pitch>        <duration>2</duration>        <voice>1</voice>        <type>quarter</type>        <stem default-y="-56">down</stem>      </note>      <note default-x="138">        <chord/>        <pitch>          <step>D</step>          <octave>4</octave>        </pitch>        <duration>2</duration>        <voice>1</voice>        <type>quarter</type>        <stem>down</stem>      </note>      <note default-x="199">        <pitch>          <step>C</step>          <octave>3</octave>        </pitch>        <duration>2</duration>        <voice>1</voice>        <type>quarter</type>        <stem default-y="-50">down</stem>      </note>      <note default-x="199">        <chord/>        <pitch>          <step>C</step>          <octave>4</octave>        </pitch>        <duration>2</duration>        <voice>1</voice>        <type>quarter</type>        <stem>down</stem>      </note>    </measure>    <!--=======================================================-->    <measure number="19" width="303">      <note default-x="21">        <pitch>          <step>G</step>          <octave>2</octave>        </pitch>        <duration>2</duration>        <tie type="start"/>        <voice>1</voice>        <type>quarter</type>        <stem default-y="-66">down</stem>        <notations>          <tied type="start"/>        </notations>      </note>      <note default-x="21">        <chord/>        <pitch>          <step>D</step>          <octave>4</octave>        </pitch>        <duration>2</duration>        <tie type="start"/>        <voice>1</voice>        <type>quarter</type>        <stem>down</stem>        <notations>          <tied type="start"/>        </notations>      </note>      <note default-x="91">        <pitch>          <step>A</step>          <octave>2</octave>        </pitch>        <duration>2</duration>        <voice>1</voice>        <type>quarter</type>        <stem default-y="-60.5">down</stem>        <notations>          <slur bezier-x="-19" bezier-y="99" default-x="62" default-y="-449" number="1" placement="above" type="start"/>        </notations>      </note>      <note default-x="91">        <chord/>        <pitch>          <step>C</step>          <octave>4</octave>        </pitch>        <duration>2</duration>        <voice>1</voice>        <type>quarter</type>        <stem>down</stem>      </note>      <note default-x="161">        <pitch>          <step>B</step>          <octave>2</octave>        </pitch>        <duration>2</duration>        <voice>1</voice>        <type>quarter</type>        <stem default-y="-56">down</stem>        <notations>          <slur bezier-x="-14" bezier-y="-96" default-x="-18" default-y="-84" number="1" type="stop"/>        </notations>      </note>      <note default-x="161">        <chord/>        <pitch>          <step>B</step>          <octave>3</octave>        </pitch>        <duration>2</duration>        <voice>1</voice>        <type>quarter</type>        <stem>down</stem>      </note>      <note default-x="231">        <pitch>          <step>B</step>          <octave>2</octave>        </pitch>        <duration>2</duration>        <voice>1</voice>        <type>quarter</type>        <stem default-y="-56">down</stem>        <notations>          <slur bezier-x="20" bezier-y="-100" default-x="287" default-y="-79" number="1" placement="above" type="start"/>        </notations>      </note>      <note default-x="231">        <chord/>        <pitch>          <step>B</step>          <octave>3</octave>        </pitch>        <duration>2</duration>        <voice>1</voice>        <type>quarter</type>        <stem>down</stem>      </note>    </measure>    <!--=======================================================-->    <measure number="20" width="199">      <note default-x="20">        <pitch>          <step>E</step>          <octave>3</octave>        </pitch>        <duration>6</duration>        <voice>1</voice>        <type>half</type>        <dot/>        <stem default-y="-50">down</stem>        <notations>          <slur bezier-x="20" bezier-y="99" default-x="195" default-y="-456" number="1" type="stop"/>        </notations>      </note>      <note default-x="20">        <chord/>        <pitch>          <step>G</step>          <octave>3</octave>        </pitch>        <duration>6</duration>        <voice>1</voice>        <type>half</type>        <dot/>        <stem>down</stem>      </note>      <barline location="right">        <bar-style>light-heavy</bar-style>      </barline>    </measure>  </part>  <!--=========================================================--></score-partwise>