<?xml version="1.0" encoding="UTF-8"?><!DOCTYPE score-partwise PUBLIC "-//Recordare//DTD MusicXML 2.0 Partwise//EN"                                "http://www.musicxml.org/dtds/partwise.dtd"><score-partwise version="2.0">  <movement-title>Choral</movement-title>  <identification>    <creator type="composer">Bach</creator>    <rights>CM Kerstzingcie 2006</rights>    <encoding>      <software>Finale 2011 for Macintosh</software>      <software>Dolet Light for Finale 2011</software>      <encoding-date>2011-09-30</encoding-date>      <supports attribute="new-system" element="print" type="yes" value="yes"/>      <supports attribute="new-page" element="print" type="yes" value="yes"/>    </encoding>  </identification>  <defaults>    <scaling>      <millimeters>7.2319</millimeters>      <tenths>40</tenths>    </scaling>    <page-layout>      <page-height>1545</page-height>      <page-width>1194</page-width>      <page-margins type="both">        <left-margin>140</left-margin>        <right-margin>70</right-margin>        <top-margin>70</top-margin>        <bottom-margin>0</bottom-margin>      </page-margins>    </page-layout>    <system-layout>      <system-margins>        <left-margin>0</left-margin>        <right-margin>2</right-margin>      </system-margins>      <system-distance>142</system-distance>      <top-system-distance>92</top-system-distance>    </system-layout>    <staff-layout>      <staff-distance>173</staff-distance>    </staff-layout>    <appearance>      <line-width type="stem">1.4583</line-width>      <line-width type="beam">5</line-width>      <line-width type="staff">1.4583</line-width>      <line-width type="light barline">1.4583</line-width>      <line-width type="heavy barline">5</line-width>      <line-width type="leger">1.4583</line-width>      <line-width type="ending">1.4583</line-width>      <line-width type="wedge">1.4583</line-width>      <line-width type="enclosure">1.4583</line-width>      <line-width type="tuplet bracket">1.4583</line-width>      <note-size type="grace">60</note-size>      <note-size type="cue">60</note-size>    </appearance>    <music-font font-family="Maestro" font-size="20.5"/>    <word-font font-family="Times New Roman" font-size="10.25"/>    <lyric-font font-family="Times New Roman" font-size="10.25" name="verse"/>  </defaults>  <credit page="1">    <credit-words default-x="597" default-y="1501" font-size="24" font-weight="bold" justify="center" valign="top">06. Choral
Ich steh an deine Krippen hier</credit-words>  </credit>  <credit page="1">    <credit-words default-x="1099" default-y="1375" font-size="12" font-weight="bold" justify="right" valign="top">Johan Sebastian Bach</credit-words>  </credit>  <credit page="1">    <credit-words default-x="964" default-y="196" font-size="12" valign="top">Zweimal singen</credit-words>  </credit>  <credit page="1">    <credit-words default-x="520" default-y="100" font-size="12" valign="top">CM Kerstzingcie 2006</credit-words>  </credit>  <part-list>    <part-group number="1" type="start">      <group-symbol default-x="-4">bracket</group-symbol>      <group-barline>no</group-barline>    </part-group>    <score-part id="P1">      <part-name>Sopraan
Alt</part-name>      <part-abbreviation>S
A</part-abbreviation>      <score-instrument id="P1-I1">        <instrument-name>Choir Aahs</instrument-name>      </score-instrument>      <score-instrument id="P1-I2">        <instrument-name>Instrument2</instrument-name>      </score-instrument>      <midi-instrument id="P1-I1">        <midi-channel>1</midi-channel>        <midi-program>72</midi-program>        <volume>80</volume>        <pan>0</pan>      </midi-instrument>      <midi-instrument id="P1-I2">        <midi-channel>2</midi-channel>        <midi-program>57</midi-program>        <volume>80</volume>        <pan>0</pan>      </midi-instrument>    </score-part>    <score-part id="P2">      <part-name>Tenor
Bas</part-name>      <part-abbreviation>T
B</part-abbreviation>      <score-instrument id="P2-I3">        <instrument-name>Instrument3</instrument-name>      </score-instrument>      <score-instrument id="P2-I4">        <instrument-name>Instrument4</instrument-name>      </score-instrument>      <midi-instrument id="P2-I3">        <midi-channel>3</midi-channel>        <midi-program>58</midi-program>        <volume>80</volume>        <pan>0</pan>      </midi-instrument>      <midi-instrument id="P2-I4">        <midi-channel>4</midi-channel>        <midi-program>59</midi-program>        <volume>80</volume>        <pan>0</pan>      </midi-instrument>    </score-part>    <part-group number="1" type="stop"/>  </part-list>  <!--=========================================================-->  <part id="P1">    <measure implicit="yes" number="0" width="175">      <print>        <system-layout>          <top-system-distance>211</top-system-distance>        </system-layout>        <measure-numbering>system</measure-numbering>      </print>      <barline location="left">        <bar-style>heavy-light</bar-style>        <repeat direction="forward"/>      </barline>      <attributes>        <divisions>4</divisions>        <key>          <fifths>1</fifths>          <mode>major</mode>        </key>        <time symbol="common">          <beats>4</beats>          <beat-type>4</beat-type>        </time>        <instruments>2</instruments>        <clef>          <sign>G</sign>          <line>2</line>        </clef>      </attributes>      <sound tempo="70"/>      <note default-x="135">        <pitch>          <step>G</step>          <octave>4</octave>        </pitch>        <duration>4</duration>        <instrument id="P1-I1"/>        <voice>1</voice>        <type>quarter</type>        <stem default-y="6">up</stem>        <lyric default-y="-108" number="1">          <syllabic>single</syllabic>          <text>Ich</text>        </lyric>        <lyric default-y="-140" number="2">          <syllabic>single</syllabic>          <text>Ich</text>        </lyric>      </note>      <backup>        <duration>4</duration>      </backup>      <note default-x="135">        <pitch>          <step>D</step>          <octave>4</octave>        </pitch>        <duration>4</duration>        <instrument id="P1-I2"/>        <voice>2</voice>        <type>quarter</type>        <stem default-y="-71">down</stem>      </note>    </measure>    <!--=======================================================-->    <measure number="1" width="238">      <note default-x="11">        <pitch>          <step>G</step>          <octave>4</octave>        </pitch>        <duration>2</duration>        <instrument id="P1-I1"/>        <voice>1</voice>        <type>eighth</type>        <stem default-y="5">up</stem>        <beam number="1">begin</beam>        <notations>          <slur number="1" placement="above" type="start"/>        </notations>        <lyric default-y="-108" justify="left" number="1">          <syllabic>single</syllabic>          <text>steh</text>          <extend/>        </lyric>        <lyric default-y="-140" justify="left" number="2">          <syllabic>begin</syllabic>          <text>kom</text>        </lyric>      </note>      <note default-x="52">        <pitch>          <step>A</step>          <octave>4</octave>        </pitch>        <duration>2</duration>        <instrument id="P1-I1"/>        <voice>1</voice>        <type>eighth</type>        <stem default-y="10">up</stem>        <beam number="1">end</beam>        <notations>          <slur number="1" type="stop"/>        </notations>      </note>      <note default-x="77">        <pitch>          <step>B</step>          <octave>4</octave>        </pitch>        <duration>4</duration>        <instrument id="P1-I1"/>        <voice>1</voice>        <type>quarter</type>        <stem default-y="16">up</stem>        <lyric default-y="-108" number="1">          <syllabic>single</syllabic>          <text>an</text>        </lyric>        <lyric default-y="-140" number="2">          <syllabic>end</syllabic>          <text>me,</text>        </lyric>      </note>      <note default-x="120">        <pitch>          <step>A</step>          <octave>4</octave>        </pitch>        <duration>4</duration>        <instrument id="P1-I1"/>        <voice>1</voice>        <type>quarter</type>        <stem default-y="10.5">up</stem>        <lyric default-y="-108" number="1">          <syllabic>begin</syllabic>          <text>dei</text>        </lyric>        <lyric default-y="-140" number="2">          <syllabic>single</syllabic>          <text>bring</text>        </lyric>      </note>      <note default-x="207">        <pitch>          <step>G</step>          <octave>4</octave>        </pitch>        <duration>4</duration>        <instrument id="P1-I1"/>        <voice>1</voice>        <type>quarter</type>        <stem default-y="6">up</stem>        <lyric default-y="-108" number="1">          <syllabic>end</syllabic>          <text>ner</text>        </lyric>        <lyric default-y="-140" number="2">          <syllabic>single</syllabic>          <text>und</text>        </lyric>      </note>      <backup>        <duration>16</duration>      </backup>      <note default-x="11">        <pitch>          <step>E</step>          <octave>4</octave>        </pitch>        <duration>2</duration>        <instrument id="P1-I2"/>        <voice>2</voice>        <type>eighth</type>        <stem default-y="-75">down</stem>        <beam number="1">begin</beam>        <notations>          <slur number="1" placement="below" type="start"/>        </notations>      </note>      <note default-x="52">        <pitch>          <step>F</step>          <alter>1</alter>          <octave>4</octave>        </pitch>        <duration>2</duration>        <instrument id="P1-I2"/>        <voice>2</voice>        <type>eighth</type>        <stem default-y="-70">down</stem>        <beam number="1">end</beam>        <notations>          <slur number="1" type="stop"/>        </notations>      </note>      <note default-x="77">        <pitch>          <step>G</step>          <octave>4</octave>        </pitch>        <duration>4</duration>        <instrument id="P1-I2"/>        <voice>2</voice>        <type>quarter</type>        <stem default-y="-56">down</stem>      </note>      <note default-x="132">        <pitch>          <step>G</step>          <octave>4</octave>        </pitch>        <duration>2</duration>        <instrument id="P1-I2"/>        <voice>2</voice>        <type>eighth</type>        <stem default-y="-65">down</stem>        <beam number="1">begin</beam>        <notations>          <slur number="1" placement="below" type="start"/>        </notations>      </note>      <note default-x="181">        <pitch>          <step>F</step>          <alter>1</alter>          <octave>4</octave>        </pitch>        <duration>2</duration>        <instrument id="P1-I2"/>        <voice>2</voice>        <type>eighth</type>        <stem default-y="-70">down</stem>        <beam number="1">end</beam>        <notations>          <slur number="1" type="stop"/>        </notations>      </note>      <note default-x="207">        <pitch>          <step>G</step>          <octave>4</octave>        </pitch>        <duration>4</duration>        <instrument id="P1-I2"/>        <voice>2</voice>        <type>quarter</type>        <stem default-y="-56">down</stem>      </note>    </measure>    <!--=======================================================-->    <measure number="2" width="203">      <note default-x="26">        <pitch>          <step>A</step>          <octave>4</octave>        </pitch>        <duration>4</duration>        <instrument id="P1-I1"/>        <voice>1</voice>        <type>quarter</type>        <stem default-y="10.5">up</stem>        <notations>          <articulations>            <breath-mark default-x="108" default-y="19" placement="above"/>          </articulations>        </notations>        <lyric default-y="-108" number="1">          <syllabic>single</syllabic>          <text>Krip</text>        </lyric>        <lyric default-y="-140" number="2">          <syllabic>begin</syllabic>          <text>schen</text>        </lyric>      </note>      <note default-x="69">        <pitch>          <step>A</step>          <octave>4</octave>        </pitch>        <duration>4</duration>        <instrument id="P1-I1"/>        <voice>1</voice>        <type>quarter</type>        <stem default-y="10.5">up</stem>        <lyric default-y="-108" number="1">          <syllabic>single</syllabic>          <text>pen</text>        </lyric>        <lyric default-y="-140" number="2">          <syllabic>end</syllabic>          <text>ke</text>        </lyric>      </note>      <note default-x="113">        <pitch>          <step>B</step>          <octave>4</octave>        </pitch>        <duration>4</duration>        <instrument id="P1-I1"/>        <voice>1</voice>        <type>quarter</type>        <stem default-y="16">up</stem>        <lyric default-y="-108" number="1">          <syllabic>single</syllabic>          <text>hier,</text>        </lyric>        <lyric default-y="-140" number="2">          <syllabic>single</syllabic>          <text>dir,</text>        </lyric>      </note>      <note default-x="146">        <pitch>          <step>G</step>          <octave>4</octave>        </pitch>        <duration>2</duration>        <instrument id="P1-I1"/>        <voice>1</voice>        <type>eighth</type>        <stem default-y="5">up</stem>        <beam number="1">begin</beam>        <notations>          <slur number="1" placement="above" type="start"/>        </notations>        <lyric default-y="-108" justify="left" number="1">          <syllabic>single</syllabic>          <text>o</text>          <extend/>        </lyric>        <lyric default-y="-140" justify="left" number="2">          <syllabic>single</syllabic>          <text>was</text>          <extend/>        </lyric>      </note>      <note default-x="185">        <pitch>          <step>A</step>          <octave>4</octave>        </pitch>        <duration>2</duration>        <instrument id="P1-I1"/>        <voice>1</voice>        <type>eighth</type>        <stem default-y="10">up</stem>        <beam number="1">end</beam>        <notations>          <slur number="1" type="stop"/>        </notations>      </note>      <backup>        <duration>16</duration>      </backup>      <note default-x="37">        <pitch>          <step>G</step>          <octave>4</octave>        </pitch>        <duration>4</duration>        <instrument id="P1-I2"/>        <voice>2</voice>        <type>quarter</type>        <stem default-y="-56">down</stem>      </note>      <note default-x="69">        <pitch>          <step>F</step>          <alter>1</alter>          <octave>4</octave>        </pitch>        <duration>4</duration>        <instrument id="P1-I2"/>        <voice>2</voice>        <type>quarter</type>        <stem default-y="-60.5">down</stem>      </note>      <note default-x="113">        <pitch>          <step>G</step>          <octave>4</octave>        </pitch>        <duration>4</duration>        <instrument id="P1-I2"/>        <voice>2</voice>        <type>quarter</type>        <stem default-y="-56">down</stem>      </note>      <note default-x="146">        <pitch>          <step>E</step>          <octave>4</octave>        </pitch>        <duration>2</duration>        <instrument id="P1-I2"/>        <voice>2</voice>        <type>eighth</type>        <stem default-y="-75">down</stem>        <beam number="1">begin</beam>        <notations>          <slur number="1" placement="below" type="start"/>        </notations>      </note>      <note default-x="185">        <pitch>          <step>F</step>          <alter>1</alter>          <octave>4</octave>        </pitch>        <duration>2</duration>        <instrument id="P1-I2"/>        <voice>2</voice>        <type>eighth</type>        <stem default-y="-70">down</stem>        <beam number="1">end</beam>        <notations>          <slur number="1" type="stop"/>        </notations>      </note>    </measure>    <!--=======================================================-->    <measure number="3" width="219">      <note default-x="14">        <pitch>          <step>B</step>          <octave>4</octave>        </pitch>        <duration>4</duration>        <instrument id="P1-I1"/>        <voice>1</voice>        <type>quarter</type>        <stem default-y="16">up</stem>        <lyric default-y="-108" number="1">          <syllabic>begin</syllabic>          <text>Je</text>        </lyric>        <lyric default-y="-140" number="2">          <syllabic>single</syllabic>          <text>du</text>        </lyric>      </note>      <note default-x="51">        <pitch>          <step>C</step>          <octave>5</octave>        </pitch>        <duration>4</duration>        <instrument id="P1-I1"/>        <voice>1</voice>        <type>quarter</type>        <stem default-y="10.5">up</stem>        <lyric default-y="-108" number="1">          <syllabic>middle</syllabic>          <text>su</text>        </lyric>        <lyric default-y="-140" number="2">          <syllabic>single</syllabic>          <text>mir</text>        </lyric>      </note>      <note default-x="105">        <pitch>          <step>D</step>          <octave>5</octave>        </pitch>        <duration>4</duration>        <instrument id="P1-I1"/>        <voice>1</voice>        <type>quarter</type>        <stem default-y="16">up</stem>        <lyric default-y="-108" number="1">          <syllabic>end</syllabic>          <text>lein,</text>        </lyric>        <lyric default-y="-140" number="2">          <syllabic>single</syllabic>          <text>hast</text>        </lyric>      </note>      <note default-x="150">        <pitch>          <step>C</step>          <octave>5</octave>        </pitch>        <duration>2</duration>        <instrument id="P1-I1"/>        <voice>1</voice>        <type>eighth</type>        <stem default-y="20">up</stem>        <beam number="1">begin</beam>        <notations>          <slur number="1" placement="above" type="start"/>        </notations>        <lyric default-y="-108" justify="left" number="1">          <syllabic>single</syllabic>          <text>mein</text>          <extend/>        </lyric>        <lyric default-y="-140" justify="left" number="2">          <syllabic>begin</syllabic>          <text>ge</text>        </lyric>      </note>      <note default-x="200">        <pitch>          <step>B</step>          <octave>4</octave>        </pitch>        <duration>2</duration>        <instrument id="P1-I1"/>        <voice>1</voice>        <type>eighth</type>        <stem default-y="15">up</stem>        <beam number="1">end</beam>        <notations>          <slur number="1" type="stop"/>        </notations>      </note>      <backup>        <duration>16</duration>      </backup>      <note default-x="14">        <pitch>          <step>G</step>          <octave>4</octave>        </pitch>        <duration>2</duration>        <instrument id="P1-I2"/>        <voice>2</voice>        <type>eighth</type>        <stem default-y="-65.5">down</stem>      </note>      <note default-x="32">        <pitch>          <step>B</step>          <octave>4</octave>        </pitch>        <duration>4</duration>        <instrument id="P1-I2"/>        <voice>2</voice>        <type>quarter</type>        <stem default-y="-56">down</stem>      </note>      <note default-x="69">        <pitch>          <step>A</step>          <octave>4</octave>        </pitch>        <duration>1</duration>        <instrument id="P1-I2"/>        <voice>2</voice>        <type>16th</type>        <stem default-y="-60">down</stem>        <beam number="1">begin</beam>        <beam number="2">begin</beam>        <notations>          <slur number="1" placement="below" type="start"/>        </notations>      </note>      <note default-x="87">        <pitch>          <step>G</step>          <octave>4</octave>        </pitch>        <duration>1</duration>        <instrument id="P1-I2"/>        <voice>2</voice>        <type>16th</type>        <stem default-y="-65">down</stem>        <beam number="1">end</beam>        <beam number="2">end</beam>        <notations>          <slur number="1" type="stop"/>        </notations>      </note>      <note default-x="105">        <pitch>          <step>F</step>          <alter>1</alter>          <octave>4</octave>        </pitch>        <duration>4</duration>        <instrument id="P1-I2"/>        <voice>2</voice>        <type>quarter</type>        <stem default-y="-60.5">down</stem>      </note>      <note default-x="150">        <pitch>          <step>G</step>          <octave>4</octave>        </pitch>        <duration>4</duration>        <instrument id="P1-I2"/>        <voice>2</voice>        <type>quarter</type>        <stem default-y="-56">down</stem>      </note>    </measure>    <!--=======================================================-->    <measure number="4" width="146">      <note default-x="14">        <pitch>          <step>A</step>          <octave>4</octave>        </pitch>        <duration>2</duration>        <instrument id="P1-I1"/>        <voice>1</voice>        <type>eighth</type>        <stem default-y="10">up</stem>        <beam number="1">begin</beam>        <notations>          <slur number="1" placement="above" type="start"/>          <slur number="2" placement="above" type="start"/>        </notations>        <lyric default-y="-108" number="1">          <syllabic>begin</syllabic>          <text>Le</text>        </lyric>        <lyric default-y="-140" number="2">          <syllabic>middle</syllabic>          <text>ge</text>        </lyric>      </note>      <note default-x="36">        <pitch>          <step>G</step>          <octave>4</octave>        </pitch>        <duration>2</duration>        <instrument id="P1-I1"/>        <voice>1</voice>        <type>eighth</type>        <stem default-y="5">up</stem>        <beam number="1">end</beam>      </note>      <note default-x="54">        <pitch>          <step>A</step>          <octave>4</octave>        </pitch>        <duration>4</duration>        <instrument id="P1-I1"/>        <voice>1</voice>        <type>quarter</type>        <stem default-y="10.5">up</stem>        <notations>          <slur number="1" type="stop"/>          <slur number="2" type="stop"/>        </notations>      </note>      <note default-x="95">        <pitch>          <step>G</step>          <octave>4</octave>        </pitch>        <duration>4</duration>        <instrument id="P1-I1"/>        <voice>1</voice>        <type>quarter</type>        <stem default-y="6">up</stem>        <lyric default-y="-108" number="1">          <syllabic>end</syllabic>          <text>ben</text>        </lyric>        <lyric default-y="-140" number="2">          <syllabic>end</syllabic>          <text>ben</text>        </lyric>      </note>      <backup>        <duration>12</duration>      </backup>      <note default-x="25">        <pitch>          <step>G</step>          <octave>4</octave>        </pitch>        <duration>4</duration>        <instrument id="P1-I2"/>        <voice>2</voice>        <type>quarter</type>        <stem default-y="-56">down</stem>        <notations>          <slur number="1" placement="below" type="start"/>        </notations>      </note>      <note default-x="54">        <pitch>          <step>F</step>          <alter>1</alter>          <octave>4</octave>        </pitch>        <duration>4</duration>        <instrument id="P1-I2"/>        <voice>2</voice>        <type>quarter</type>        <stem default-y="-60.5">down</stem>        <notations>          <slur number="1" type="stop"/>        </notations>      </note>      <note default-x="95">        <pitch>          <step>D</step>          <octave>4</octave>        </pitch>        <duration>4</duration>        <instrument id="P1-I2"/>        <voice>2</voice>        <type>quarter</type>        <stem default-y="-71">down</stem>      </note>      <barline location="right">        <bar-style>light-heavy</bar-style>        <repeat direction="backward"/>      </barline>    </measure>    <!--=======================================================-->    <measure number="5" width="195">      <print new-system="yes">        <system-layout>          <system-distance>135</system-distance>        </system-layout>      </print>      <note default-x="96">        <pitch>          <step>B</step>          <octave>4</octave>        </pitch>        <duration>4</duration>        <instrument id="P1-I1"/>        <voice>1</voice>        <type>quarter</type>        <stem default-y="16">up</stem>        <lyric default-y="-110" number="1">          <syllabic>single</syllabic>          <text>Nimm</text>        </lyric>      </note>      <backup>        <duration>4</duration>      </backup>      <note default-x="96">        <pitch>          <step>G</step>          <octave>4</octave>        </pitch>        <duration>4</duration>        <instrument id="P1-I2"/>        <voice>2</voice>        <type>quarter</type>        <stem default-y="-56">down</stem>      </note>    </measure>    <!--=======================================================-->    <measure number="6" width="257">      <note default-x="20">        <pitch>          <step>B</step>          <octave>4</octave>        </pitch>        <duration>4</duration>        <instrument id="P1-I1"/>        <voice>1</voice>        <type>quarter</type>        <stem default-y="16">up</stem>        <lyric default-y="-110" number="1">          <syllabic>single</syllabic>          <text>hin!</text>        </lyric>      </note>      <note default-x="75">        <pitch>          <step>A</step>          <octave>4</octave>        </pitch>        <duration>4</duration>        <instrument id="P1-I1"/>        <voice>1</voice>        <type>quarter</type>        <stem default-y="11">up</stem>        <lyric default-y="-110" number="1">          <syllabic>single</syllabic>          <text>Es</text>        </lyric>      </note>      <note default-x="129">        <pitch>          <step>G</step>          <octave>4</octave>        </pitch>        <duration>4</duration>        <instrument id="P1-I1"/>        <voice>1</voice>        <type>quarter</type>        <stem default-y="6">up</stem>        <lyric default-y="-110" number="1">          <syllabic>single</syllabic>          <text>ist</text>        </lyric>      </note>      <note default-x="187">        <pitch>          <step>F</step>          <alter>1</alter>          <octave>4</octave>        </pitch>        <duration>4</duration>        <instrument id="P1-I1"/>        <voice>1</voice>        <type>quarter</type>        <stem default-y="1">up</stem>        <lyric default-y="-110" number="1">          <syllabic>single</syllabic>          <text>mein</text>        </lyric>      </note>      <backup>        <duration>16</duration>      </backup>      <note default-x="20">        <pitch>          <step>G</step>          <octave>4</octave>        </pitch>        <duration>6</duration>        <instrument id="P1-I2"/>        <voice>2</voice>        <type>quarter</type>        <dot/>        <stem default-y="-56">down</stem>      </note>      <note default-x="103">        <pitch>          <step>F</step>          <alter>1</alter>          <octave>4</octave>        </pitch>        <duration>2</duration>        <instrument id="P1-I2"/>        <voice>2</voice>        <type>eighth</type>        <stem default-y="-71">down</stem>      </note>      <note default-x="140">        <pitch>          <step>F</step>          <alter>1</alter>          <octave>4</octave>        </pitch>        <duration>2</duration>        <instrument id="P1-I2"/>        <voice>2</voice>        <type>eighth</type>        <stem default-y="-75">down</stem>        <beam number="1">begin</beam>        <notations>          <slur number="1" placement="below" type="start"/>        </notations>      </note>      <note default-x="161">        <pitch>          <step>E</step>          <octave>4</octave>        </pitch>        <duration>2</duration>        <instrument id="P1-I2"/>        <voice>2</voice>        <type>eighth</type>        <stem default-y="-76">down</stem>        <beam number="1">continue</beam>        <notations>          <slur number="1" type="stop"/>        </notations>      </note>      <note default-x="198">        <pitch>          <step>E</step>          <octave>4</octave>        </pitch>        <duration>2</duration>        <instrument id="P1-I2"/>        <voice>2</voice>        <type>eighth</type>        <stem default-y="-78">down</stem>        <beam number="1">continue</beam>        <notations>          <slur number="1" placement="below" type="start"/>        </notations>      </note>      <note default-x="229">        <pitch>          <step>D</step>          <alter>1</alter>          <octave>4</octave>        </pitch>        <duration>2</duration>        <instrument id="P1-I2"/>        <voice>2</voice>        <type>eighth</type>        <accidental>sharp</accidental>        <stem default-y="-80">down</stem>        <beam number="1">end</beam>        <notations>          <slur number="1" type="stop"/>        </notations>      </note>    </measure>    <!--=======================================================-->    <measure number="7" width="265">      <note default-x="11">        <pitch>          <step>G</step>          <octave>4</octave>        </pitch>        <duration>2</duration>        <instrument id="P1-I1"/>        <voice>1</voice>        <type>eighth</type>        <stem default-y="5">up</stem>        <beam number="1">begin</beam>        <notations>          <slur number="1" placement="above" type="start"/>        </notations>        <lyric default-y="-110" justify="left" number="1">          <syllabic>single</syllabic>          <text>Geist</text>          <extend/>        </lyric>      </note>      <note default-x="63">        <pitch>          <step>A</step>          <octave>4</octave>        </pitch>        <duration>2</duration>        <instrument id="P1-I1"/>        <voice>1</voice>        <type>eighth</type>        <stem default-y="10">up</stem>        <beam number="1">end</beam>        <notations>          <slur number="1" type="stop"/>        </notations>      </note>      <note default-x="94">        <pitch>          <step>B</step>          <octave>4</octave>        </pitch>        <duration>4</duration>        <instrument id="P1-I1"/>        <voice>1</voice>        <type>quarter</type>        <stem default-y="16">up</stem>        <lyric default-y="-110" number="1">          <syllabic>single</syllabic>          <text>und</text>        </lyric>      </note>      <note default-x="150">        <pitch>          <step>A</step>          <octave>4</octave>        </pitch>        <duration>4</duration>        <instrument id="P1-I1"/>        <voice>1</voice>        <type>quarter</type>        <stem default-y="11">up</stem>        <lyric default-y="-110" number="1">          <syllabic>single</syllabic>          <text>Sinn,</text>        </lyric>      </note>      <note default-x="208">        <pitch>          <step>A</step>          <octave>4</octave>        </pitch>        <duration>4</duration>        <instrument id="P1-I1"/>        <voice>1</voice>        <type>quarter</type>        <stem default-y="11">up</stem>        <notations>          <articulations>            <breath-mark default-x="-26" default-y="19" placement="above"/>          </articulations>        </notations>        <lyric default-y="-110" number="1">          <syllabic>single</syllabic>          <text>Herz,</text>        </lyric>      </note>      <backup>        <duration>16</duration>      </backup>      <note default-x="11">        <pitch>          <step>E</step>          <octave>4</octave>        </pitch>        <duration>4</duration>        <instrument id="P1-I2"/>        <voice>2</voice>        <type>quarter</type>        <stem default-y="-65.5">down</stem>      </note>      <note default-x="94">        <pitch>          <step>D</step>          <octave>4</octave>        </pitch>        <duration>4</duration>        <instrument id="P1-I2"/>        <voice>2</voice>        <type>quarter</type>        <stem default-y="-71">down</stem>      </note>      <note default-x="150">        <pitch>          <step>D</step>          <octave>4</octave>        </pitch>        <duration>4</duration>        <instrument id="P1-I2"/>        <voice>2</voice>        <type>quarter</type>        <stem default-y="-71">down</stem>      </note>      <note default-x="208">        <pitch>          <step>D</step>          <octave>4</octave>        </pitch>        <duration>4</duration>        <instrument id="P1-I2"/>        <voice>2</voice>        <type>quarter</type>        <stem default-y="-71">down</stem>      </note>    </measure>    <!--=======================================================-->    <measure number="8" width="264">      <note default-x="21">        <pitch>          <step>G</step>          <octave>4</octave>        </pitch>        <duration>4</duration>        <instrument id="P1-I1"/>        <voice>1</voice>        <type>quarter</type>        <stem default-y="6">up</stem>        <lyric default-y="-110" number="1">          <syllabic>single</syllabic>          <text>Seel</text>        </lyric>      </note>      <note default-x="83">        <pitch>          <step>F</step>          <alter>1</alter>          <octave>4</octave>        </pitch>        <duration>4</duration>        <instrument id="P1-I1"/>        <voice>1</voice>        <type>quarter</type>        <stem default-y="1">up</stem>        <lyric default-y="-110" number="1">          <syllabic>single</syllabic>          <text>und</text>        </lyric>      </note>      <note default-x="147">        <pitch>          <step>G</step>          <octave>4</octave>        </pitch>        <duration>4</duration>        <instrument id="P1-I1"/>        <voice>1</voice>        <type>quarter</type>        <stem default-y="6">up</stem>        <lyric default-y="-110" number="1">          <syllabic>single</syllabic>          <text>Mut,</text>        </lyric>      </note>      <note default-x="211">        <pitch>          <step>D</step>          <octave>4</octave>        </pitch>        <duration>4</duration>        <instrument id="P1-I1"/>        <voice>1</voice>        <type>quarter</type>        <stem default-y="-9">up</stem>        <lyric default-y="-110" number="1">          <syllabic>single</syllabic>          <text>nimm</text>        </lyric>      </note>      <backup>        <duration>16</duration>      </backup>      <note default-x="21">        <pitch>          <step>D</step>          <octave>4</octave>        </pitch>        <duration>2</duration>        <instrument id="P1-I2"/>        <voice>2</voice>        <type>eighth</type>        <stem default-y="-80">down</stem>        <beam number="1">begin</beam>        <notations>          <slur number="1" placement="below" type="start"/>        </notations>      </note>      <note default-x="55">        <pitch>          <step>C</step>          <octave>4</octave>        </pitch>        <duration>2</duration>        <instrument id="P1-I2"/>        <voice>2</voice>        <type>eighth</type>        <stem default-y="-85">down</stem>        <beam number="1">end</beam>        <notations>          <slur number="1" type="stop"/>        </notations>      </note>      <note default-x="83">        <pitch>          <step>D</step>          <octave>4</octave>        </pitch>        <duration>4</duration>        <instrument id="P1-I2"/>        <voice>2</voice>        <type>quarter</type>        <stem default-y="-71">down</stem>      </note>      <note default-x="147">        <pitch>          <step>D</step>          <octave>4</octave>        </pitch>        <duration>2</duration>        <instrument id="P1-I2"/>        <voice>2</voice>        <type>eighth</type>        <stem default-y="-80">down</stem>        <beam number="1">begin</beam>        <notations>          <slur number="1" placement="below" type="start"/>        </notations>      </note>      <note default-x="181">        <pitch>          <step>C</step>          <octave>4</octave>        </pitch>        <duration>2</duration>        <instrument id="P1-I2"/>        <voice>2</voice>        <type>eighth</type>        <stem default-y="-85">down</stem>        <beam number="1">end</beam>        <notations>          <slur number="1" type="stop"/>        </notations>      </note>      <note default-x="211">        <pitch>          <step>B</step>          <octave>3</octave>        </pitch>        <duration>4</duration>        <instrument id="P1-I2"/>        <voice>2</voice>        <type>quarter</type>        <stem default-y="-80.5">down</stem>      </note>    </measure>    <!--=======================================================-->    <measure number="9" width="416">      <print new-system="yes">        <system-layout>          <system-distance>135</system-distance>        </system-layout>      </print>      <note default-x="80">        <pitch>          <step>G</step>          <octave>4</octave>        </pitch>        <duration>4</duration>        <instrument id="P1-I1"/>        <voice>1</voice>        <type>quarter</type>        <stem default-y="6">up</stem>        <lyric default-y="-110" number="1">          <syllabic>begin</syllabic>          <text>al</text>        </lyric>      </note>      <note default-x="168">        <pitch>          <step>A</step>          <octave>4</octave>        </pitch>        <duration>4</duration>        <instrument id="P1-I1"/>        <voice>1</voice>        <type>quarter</type>        <stem default-y="11">up</stem>        <lyric default-y="-110" number="1">          <syllabic>end</syllabic>          <text>les</text>        </lyric>      </note>      <note default-x="256">        <pitch>          <step>B</step>          <octave>4</octave>        </pitch>        <duration>4</duration>        <instrument id="P1-I1"/>        <voice>1</voice>        <type>quarter</type>        <stem default-y="15.5">up</stem>        <notations>          <articulations>            <breath-mark default-x="31" default-y="15" placement="above"/>          </articulations>        </notations>        <lyric default-y="-110" number="1">          <syllabic>single</syllabic>          <text>hin,</text>        </lyric>      </note>      <note default-x="327">        <pitch>          <step>G</step>          <octave>4</octave>        </pitch>        <duration>2</duration>        <instrument id="P1-I1"/>        <voice>1</voice>        <type>eighth</type>        <stem default-y="5">up</stem>        <beam number="1">begin</beam>        <notations>          <slur number="1" placement="above" type="start"/>        </notations>        <lyric default-y="-110" justify="left" number="1">          <syllabic>single</syllabic>          <text>und</text>          <extend/>        </lyric>      </note>      <note default-x="371">        <pitch>          <step>A</step>          <octave>4</octave>        </pitch>        <duration>2</duration>        <instrument id="P1-I1"/>        <voice>1</voice>        <type>eighth</type>        <stem default-y="10">up</stem>        <beam number="1">end</beam>        <notations>          <slur number="1" type="stop"/>        </notations>      </note>      <backup>        <duration>16</duration>      </backup>      <note default-x="80">        <pitch>          <step>B</step>          <octave>3</octave>        </pitch>        <duration>4</duration>        <instrument id="P1-I2"/>        <voice>2</voice>        <type>quarter</type>        <stem default-y="-80.5">down</stem>      </note>      <note default-x="168">        <pitch>          <step>E</step>          <octave>4</octave>        </pitch>        <duration>4</duration>        <instrument id="P1-I2"/>        <voice>2</voice>        <type>quarter</type>        <stem default-y="-66">down</stem>      </note>      <note default-x="256">        <pitch>          <step>D</step>          <alter>1</alter>          <octave>4</octave>        </pitch>        <duration>4</duration>        <instrument id="P1-I2"/>        <voice>2</voice>        <type>quarter</type>        <accidental>sharp</accidental>        <stem default-y="-71">down</stem>      </note>      <note default-x="327">        <pitch>          <step>B</step>          <octave>3</octave>        </pitch>        <duration>4</duration>        <instrument id="P1-I2"/>        <voice>2</voice>        <type>quarter</type>        <stem default-y="-80.5">down</stem>      </note>    </measure>    <!--=======================================================-->    <measure number="10" width="335">      <note default-x="19">        <pitch>          <step>B</step>          <octave>4</octave>        </pitch>        <duration>4</duration>        <instrument id="P1-I1"/>        <voice>1</voice>        <type>quarter</type>        <stem default-y="15.5">up</stem>        <lyric default-y="-110" number="1">          <syllabic>single</syllabic>          <text>lass</text>        </lyric>      </note>      <note default-x="97">        <pitch>          <step>C</step>          <octave>5</octave>        </pitch>        <duration>4</duration>        <instrument id="P1-I1"/>        <voice>1</voice>        <type>quarter</type>        <stem default-y="11">up</stem>        <lyric default-y="-110" number="1">          <syllabic>single</syllabic>          <text>dirs</text>        </lyric>      </note>      <note default-x="167">        <pitch>          <step>D</step>          <octave>5</octave>        </pitch>        <duration>4</duration>        <instrument id="P1-I1"/>        <voice>1</voice>        <type>quarter</type>        <stem default-y="15.5">up</stem>        <lyric default-y="-110" number="1">          <syllabic>begin</syllabic>          <text>wohl</text>        </lyric>      </note>      <note default-x="255">        <pitch>          <step>C</step>          <octave>5</octave>        </pitch>        <duration>2</duration>        <instrument id="P1-I1"/>        <voice>1</voice>        <type>eighth</type>        <stem default-y="20">up</stem>        <beam number="1">begin</beam>        <notations>          <slur number="1" placement="above" type="start"/>        </notations>        <lyric default-y="-110" number="1">          <syllabic>middle</syllabic>          <text>ge</text>        </lyric>      </note>      <note default-x="294">        <pitch>          <step>B</step>          <octave>4</octave>        </pitch>        <duration>2</duration>        <instrument id="P1-I1"/>        <voice>1</voice>        <type>eighth</type>        <stem default-y="15">up</stem>        <beam number="1">end</beam>        <notations>          <slur number="1" type="stop"/>        </notations>      </note>      <backup>        <duration>16</duration>      </backup>      <note default-x="19">        <pitch>          <step>E</step>          <octave>4</octave>        </pitch>        <duration>4</duration>        <instrument id="P1-I2"/>        <voice>2</voice>        <type>quarter</type>        <stem default-y="-66">down</stem>      </note>      <note default-x="97">        <pitch>          <step>E</step>          <octave>4</octave>        </pitch>        <duration>4</duration>        <instrument id="P1-I2"/>        <voice>2</voice>        <type>quarter</type>        <stem default-y="-66">down</stem>      </note>      <note default-x="167">        <pitch>          <step>D</step>          <octave>4</octave>        </pitch>        <duration>2</duration>        <instrument id="P1-I2"/>        <voice>2</voice>        <type>eighth</type>        <stem default-y="-80">down</stem>        <beam number="1">begin</beam>        <notations>          <slur number="1" placement="below" type="start"/>        </notations>      </note>      <note default-x="207">        <pitch>          <step>E</step>          <octave>4</octave>        </pitch>        <duration>1</duration>        <instrument id="P1-I2"/>        <voice>2</voice>        <type>16th</type>        <stem default-y="-76.5">down</stem>        <beam number="1">continue</beam>        <beam number="2">begin</beam>      </note>      <note default-x="230">        <pitch>          <step>F</step>          <alter>1</alter>          <octave>4</octave>        </pitch>        <duration>1</duration>        <instrument id="P1-I2"/>        <voice>2</voice>        <type>16th</type>        <stem default-y="-75">down</stem>        <beam number="1">end</beam>        <beam number="2">end</beam>        <notations>          <slur number="1" type="stop"/>        </notations>      </note>      <note default-x="255">        <pitch>          <step>G</step>          <octave>4</octave>        </pitch>        <duration>4</duration>        <instrument id="P1-I2"/>        <voice>2</voice>        <type>quarter</type>        <stem default-y="-55.5">down</stem>      </note>    </measure>    <!--=======================================================-->    <measure number="11" width="230">      <note default-x="14">        <pitch>          <step>A</step>          <octave>4</octave>        </pitch>        <duration>2</duration>        <instrument id="P1-I1"/>        <voice>1</voice>        <type>eighth</type>        <stem default-y="10">up</stem>        <beam number="1">begin</beam>        <notations>          <slur number="1" placement="above" type="start"/>          <slur number="2" placement="above" type="start"/>        </notations>        <lyric default-y="-110" number="1">          <syllabic>middle</syllabic>          <text>fal</text>        </lyric>      </note>      <note default-x="50">        <pitch>          <step>G</step>          <octave>4</octave>        </pitch>        <duration>2</duration>        <instrument id="P1-I1"/>        <voice>1</voice>        <type>eighth</type>        <stem default-y="5">up</stem>        <beam number="1">end</beam>      </note>      <note default-x="88">        <pitch>          <step>A</step>          <octave>4</octave>        </pitch>        <duration>4</duration>        <instrument id="P1-I1"/>        <voice>1</voice>        <type>quarter</type>        <stem default-y="11">up</stem>        <notations>          <slur number="1" type="stop"/>          <slur number="2" type="stop"/>        </notations>      </note>      <note default-x="161">        <pitch>          <step>G</step>          <octave>4</octave>        </pitch>        <duration>4</duration>        <instrument id="P1-I1"/>        <voice>1</voice>        <type>quarter</type>        <stem default-y="6">up</stem>        <lyric default-y="-110" number="1">          <syllabic>end</syllabic>          <text>len</text>        </lyric>      </note>      <backup>        <duration>12</duration>      </backup>      <note default-x="25">        <pitch>          <step>G</step>          <octave>4</octave>        </pitch>        <duration>4</duration>        <instrument id="P1-I2"/>        <voice>2</voice>        <type>quarter</type>        <stem default-y="-55.5">down</stem>        <notations>          <slur number="1" placement="below" type="start"/>        </notations>      </note>      <note default-x="88">        <pitch>          <step>F</step>          <alter>1</alter>          <octave>4</octave>        </pitch>        <duration>4</duration>        <instrument id="P1-I2"/>        <voice>2</voice>        <type>quarter</type>        <stem default-y="-60.5">down</stem>        <notations>          <slur number="1" type="stop"/>        </notations>      </note>      <note default-x="161">        <pitch>          <step>D</step>          <octave>4</octave>        </pitch>        <duration>4</duration>        <instrument id="P1-I2"/>        <voice>2</voice>        <type>quarter</type>        <stem default-y="-71">down</stem>      </note>      <barline location="right">        <bar-style>light-heavy</bar-style>      </barline>    </measure>  </part>  <!--=========================================================-->  <part id="P2">    <measure implicit="yes" number="0" width="175">      <print>        <measure-numbering>none</measure-numbering>      </print>      <barline location="left">        <bar-style>heavy-light</bar-style>        <repeat direction="forward"/>      </barline>      <attributes>        <divisions>2</divisions>        <key>          <fifths>1</fifths>          <mode>major</mode>        </key>        <time symbol="common">          <beats>4</beats>          <beat-type>4</beat-type>        </time>        <instruments>2</instruments>        <clef>          <sign>F</sign>          <line>4</line>        </clef>      </attributes>      <sound tempo="70"/>      <note default-x="135">        <pitch>          <step>B</step>          <octave>3</octave>        </pitch>        <duration>2</duration>        <instrument id="P2-I3"/>        <voice>1</voice>        <type>quarter</type>        <stem default-y="31">up</stem>      </note>      <backup>        <duration>2</duration>      </backup>      <note default-x="135">        <pitch>          <step>G</step>          <octave>3</octave>        </pitch>        <duration>1</duration>        <instrument id="P2-I4"/>        <voice>2</voice>        <type>eighth</type>        <stem default-y="-40">down</stem>        <beam number="1">begin</beam>        <notations>          <slur number="1" placement="below" type="start"/>        </notations>      </note>      <note default-x="154">        <pitch>          <step>F</step>          <alter>1</alter>          <octave>3</octave>        </pitch>        <duration>1</duration>        <instrument id="P2-I4"/>        <voice>2</voice>        <type>eighth</type>        <stem default-y="-42.5">down</stem>        <beam number="1">end</beam>        <notations>          <slur number="1" type="stop"/>        </notations>      </note>    </measure>    <!--=======================================================-->    <measure number="1" width="238">      <note default-x="11">        <pitch>          <step>B</step>          <octave>3</octave>        </pitch>        <duration>2</duration>        <instrument id="P2-I3"/>        <voice>1</voice>        <type>quarter</type>        <stem default-y="31">up</stem>      </note>      <note default-x="77">        <pitch>          <step>E</step>          <octave>4</octave>        </pitch>        <duration>2</duration>        <instrument id="P2-I3"/>        <voice>1</voice>        <type>quarter</type>        <stem default-y="46">up</stem>      </note>      <note default-x="120">        <pitch>          <step>E</step>          <octave>4</octave>        </pitch>        <duration>1</duration>        <instrument id="P2-I3"/>        <voice>1</voice>        <type>eighth</type>        <stem default-y="55">up</stem>        <beam number="1">begin</beam>        <notations>          <slur number="1" placement="above" type="start"/>          <slur number="2" placement="above" type="start"/>          <slur number="3" placement="above" type="start"/>          <slur number="4" placement="above" type="start"/>        </notations>      </note>      <note default-x="181">        <pitch>          <step>D</step>          <octave>4</octave>        </pitch>        <duration>1</duration>        <instrument id="P2-I3"/>        <voice>1</voice>        <type>eighth</type>        <stem default-y="50">up</stem>        <beam number="1">end</beam>        <notations>          <slur number="1" type="stop"/>          <slur number="2" type="stop"/>          <slur number="3" type="stop"/>          <slur number="4" type="stop"/>        </notations>      </note>      <note default-x="207">        <pitch>          <step>D</step>          <octave>4</octave>        </pitch>        <duration>2</duration>        <instrument id="P2-I3"/>        <voice>1</voice>        <type>quarter</type>        <stem default-y="41">up</stem>      </note>      <backup>        <duration>8</duration>      </backup>      <note default-x="11">        <pitch>          <step>E</step>          <octave>3</octave>        </pitch>        <duration>3</duration>        <instrument id="P2-I4"/>        <voice>2</voice>        <type>quarter</type>        <dot/>        <stem default-y="-51">down</stem>      </note>      <note default-x="99">        <pitch>          <step>D</step>          <octave>3</octave>        </pitch>        <duration>1</duration>        <instrument id="P2-I4"/>        <voice>2</voice>        <type>eighth</type>        <stem default-y="-55.5">down</stem>      </note>      <note default-x="120">        <pitch>          <step>C</step>          <octave>3</octave>        </pitch>        <duration>3</duration>        <instrument id="P2-I4"/>        <voice>2</voice>        <type>quarter</type>        <dot/>        <stem default-y="-51">down</stem>      </note>      <note default-x="220">        <pitch>          <step>B</step>          <octave>2</octave>        </pitch>        <duration>1</duration>        <instrument id="P2-I4"/>        <voice>2</voice>        <type>eighth</type>        <stem default-y="-66">down</stem>      </note>    </measure>    <!--=======================================================-->    <measure number="2" width="203">      <note default-x="26">        <pitch>          <step>E</step>          <octave>4</octave>        </pitch>        <duration>1</duration>        <instrument id="P2-I3"/>        <voice>1</voice>        <type>eighth</type>        <stem default-y="55">up</stem>        <beam number="1">begin</beam>        <notations>          <slur number="1" placement="above" type="start"/>          <slur number="2" placement="above" type="start"/>          <slur number="3" placement="above" type="start"/>          <slur number="4" placement="above" type="start"/>        </notations>      </note>      <note default-x="49">        <pitch>          <step>C</step>          <octave>4</octave>        </pitch>        <duration>1</duration>        <instrument id="P2-I3"/>        <voice>1</voice>        <type>eighth</type>        <stem default-y="50">up</stem>        <beam number="1">end</beam>        <notations>          <slur number="1" type="stop"/>          <slur number="2" type="stop"/>          <slur number="3" type="stop"/>          <slur number="4" type="stop"/>        </notations>      </note>      <note default-x="69">        <pitch>          <step>A</step>          <octave>3</octave>        </pitch>        <duration>1</duration>        <instrument id="P2-I3"/>        <voice>1</voice>        <type>eighth</type>        <stem default-y="45">up</stem>        <beam number="1">begin</beam>        <notations>          <slur number="1" placement="above" type="start"/>          <slur number="2" placement="above" type="start"/>          <slur number="3" placement="above" type="start"/>          <slur number="4" placement="above" type="start"/>        </notations>      </note>      <note default-x="89">        <pitch>          <step>D</step>          <octave>4</octave>        </pitch>        <duration>1</duration>        <instrument id="P2-I3"/>        <voice>1</voice>        <type>eighth</type>        <stem default-y="50">up</stem>        <beam number="1">end</beam>        <notations>          <slur number="1" type="stop"/>          <slur number="2" type="stop"/>          <slur number="3" type="stop"/>          <slur number="4" type="stop"/>        </notations>      </note>      <note default-x="113">        <pitch>          <step>D</step>          <octave>4</octave>        </pitch>        <duration>2</duration>        <instrument id="P2-I3"/>        <voice>1</voice>        <type>quarter</type>        <stem default-y="41">up</stem>        <notations>          <articulations>            <breath-mark default-x="18" default-y="32" placement="above"/>          </articulations>        </notations>      </note>      <note default-x="146">        <pitch>          <step>E</step>          <octave>4</octave>        </pitch>        <duration>2</duration>        <instrument id="P2-I3"/>        <voice>1</voice>        <type>quarter</type>        <stem default-y="46">up</stem>      </note>      <backup>        <duration>8</duration>      </backup>      <note default-x="26">        <pitch>          <step>C</step>          <octave>3</octave>        </pitch>        <duration>1</duration>        <instrument id="P2-I4"/>        <voice>2</voice>        <type>eighth</type>        <stem default-y="-65">down</stem>        <beam number="1">begin</beam>        <notations>          <slur number="1" placement="below" type="start"/>        </notations>      </note>      <note default-x="49">        <pitch>          <step>A</step>          <octave>2</octave>        </pitch>        <duration>1</duration>        <instrument id="P2-I4"/>        <voice>2</voice>        <type>eighth</type>        <stem default-y="-70">down</stem>        <beam number="1">end</beam>        <notations>          <slur number="1" type="stop"/>        </notations>      </note>      <note default-x="69">        <pitch>          <step>D</step>          <octave>3</octave>        </pitch>        <duration>2</duration>        <instrument id="P2-I4"/>        <voice>2</voice>        <type>quarter</type>        <stem default-y="-55.5">down</stem>      </note>      <note default-x="113">        <pitch>          <step>G</step>          <octave>2</octave>        </pitch>        <duration>2</duration>        <instrument id="P2-I4"/>        <voice>2</voice>        <type>quarter</type>        <stem default-y="-66">down</stem>      </note>      <note default-x="146">        <pitch>          <step>C</step>          <octave>3</octave>        </pitch>        <duration>2</duration>        <instrument id="P2-I4"/>        <voice>2</voice>        <type>quarter</type>        <stem default-y="-51">down</stem>      </note>    </measure>    <!--=======================================================-->    <measure number="3" width="219">      <note default-x="14">        <pitch>          <step>D</step>          <octave>4</octave>        </pitch>        <duration>2</duration>        <instrument id="P2-I3"/>        <voice>1</voice>        <type>quarter</type>        <stem default-y="41">up</stem>      </note>      <note default-x="51">        <pitch>          <step>G</step>          <octave>3</octave>        </pitch>        <duration>1</duration>        <instrument id="P2-I3"/>        <voice>1</voice>        <type>eighth</type>        <stem default-y="30">up</stem>        <beam number="1">begin</beam>        <notations>          <slur number="1" placement="above" type="start"/>          <slur number="2" placement="above" type="start"/>          <slur number="3" placement="above" type="start"/>          <slur number="4" placement="above" type="start"/>        </notations>      </note>      <note default-x="69">        <pitch>          <step>A</step>          <octave>3</octave>        </pitch>        <duration>1</duration>        <instrument id="P2-I3"/>        <voice>1</voice>        <type>eighth</type>        <stem default-y="35">up</stem>        <beam number="1">end</beam>        <notations>          <slur number="1" type="stop"/>          <slur number="2" type="stop"/>          <slur number="3" type="stop"/>          <slur number="4" type="stop"/>        </notations>      </note>      <note default-x="105">        <pitch>          <step>B</step>          <octave>3</octave>        </pitch>        <duration>1</duration>        <instrument id="P2-I3"/>        <voice>1</voice>        <type>eighth</type>        <stem default-y="40">up</stem>        <beam number="1">begin</beam>        <notations>          <slur number="1" placement="above" type="start"/>          <slur number="2" placement="above" type="start"/>          <slur number="3" placement="above" type="start"/>          <slur number="4" placement="above" type="start"/>        </notations>      </note>      <note default-x="126">        <pitch>          <step>C</step>          <octave>4</octave>        </pitch>        <duration>1</duration>        <instrument id="P2-I3"/>        <voice>1</voice>        <type>eighth</type>        <stem default-y="45">up</stem>        <beam number="1">end</beam>        <notations>          <slur number="1" type="stop"/>          <slur number="2" type="stop"/>          <slur number="3" type="stop"/>          <slur number="4" type="stop"/>        </notations>      </note>      <note default-x="150">        <pitch>          <step>D</step>          <octave>4</octave>        </pitch>        <duration>2</duration>        <instrument id="P2-I3"/>        <voice>1</voice>        <type>quarter</type>        <stem default-y="41">up</stem>      </note>      <backup>        <duration>8</duration>      </backup>      <note default-x="14">        <pitch>          <step>G</step>          <octave>3</octave>        </pitch>        <duration>1</duration>        <instrument id="P2-I4"/>        <voice>2</voice>        <type>eighth</type>        <stem default-y="-40">down</stem>        <beam number="1">begin</beam>        <notations>          <slur number="1" placement="below" type="start"/>        </notations>      </note>      <note default-x="32">        <pitch>          <step>F</step>          <alter>1</alter>          <octave>3</octave>        </pitch>        <duration>1</duration>        <instrument id="P2-I4"/>        <voice>2</voice>        <type>eighth</type>        <stem default-y="-42.5">down</stem>        <beam number="1">end</beam>        <notations>          <slur number="1" type="stop"/>        </notations>      </note>      <note default-x="51">        <pitch>          <step>E</step>          <octave>3</octave>        </pitch>        <duration>2</duration>        <instrument id="P2-I4"/>        <voice>2</voice>        <type>quarter</type>        <stem default-y="-51">down</stem>      </note>      <note default-x="116">        <pitch>          <step>B</step>          <octave>3</octave>        </pitch>        <duration>1</duration>        <instrument id="P2-I4"/>        <voice>2</voice>        <type>eighth</type>        <stem default-y="-30">down</stem>        <beam number="1">begin</beam>        <notations>          <slur number="1" placement="below" type="start"/>        </notations>      </note>      <note default-x="137">        <pitch>          <step>A</step>          <octave>3</octave>        </pitch>        <duration>1</duration>        <instrument id="P2-I4"/>        <voice>2</voice>        <type>eighth</type>        <stem default-y="-33">down</stem>        <beam number="1">end</beam>        <notations>          <slur number="1" type="stop"/>        </notations>      </note>      <note default-x="150">        <pitch>          <step>G</step>          <octave>3</octave>        </pitch>        <duration>2</duration>        <instrument id="P2-I4"/>        <voice>2</voice>        <type>quarter</type>        <stem default-y="-40.5">down</stem>      </note>    </measure>    <!--=======================================================-->    <measure number="4" width="146">      <note default-x="14">        <pitch>          <step>D</step>          <octave>4</octave>        </pitch>        <duration>2</duration>        <instrument id="P2-I3"/>        <voice>1</voice>        <type>quarter</type>        <stem default-y="41">up</stem>        <notations>          <slur number="1" placement="above" type="start"/>          <slur number="2" placement="above" type="start"/>          <slur number="3" placement="above" type="start"/>          <slur number="4" placement="above" type="start"/>        </notations>      </note>      <note default-x="54">        <pitch>          <step>C</step>          <octave>4</octave>        </pitch>        <duration>1</duration>        <instrument id="P2-I3"/>        <voice>1</voice>        <type>eighth</type>        <stem default-y="45">up</stem>        <beam number="1">begin</beam>      </note>      <note default-x="76">        <pitch>          <step>B</step>          <octave>3</octave>        </pitch>        <duration>1</duration>        <instrument id="P2-I3"/>        <voice>1</voice>        <type>eighth</type>        <stem default-y="40">up</stem>        <beam number="1">end</beam>        <notations>          <slur number="1" type="stop"/>          <slur number="2" type="stop"/>          <slur number="3" type="stop"/>          <slur number="4" type="stop"/>        </notations>      </note>      <note default-x="95">        <pitch>          <step>B</step>          <octave>3</octave>        </pitch>        <duration>2</duration>        <instrument id="P2-I3"/>        <voice>1</voice>        <type>quarter</type>        <stem default-y="31">up</stem>      </note>      <backup>        <duration>6</duration>      </backup>      <note default-x="14">        <pitch>          <step>D</step>          <octave>4</octave>        </pitch>        <duration>2</duration>        <instrument id="P2-I4"/>        <voice>2</voice>        <type>quarter</type>        <stem default-y="-20.5">down</stem>        <notations>          <slur number="1" placement="below" type="start"/>        </notations>      </note>      <note default-x="54">        <pitch>          <step>D</step>          <octave>3</octave>        </pitch>        <duration>2</duration>        <instrument id="P2-I4"/>        <voice>2</voice>        <type>quarter</type>        <stem default-y="-55.5">down</stem>        <notations>          <slur number="1" type="stop"/>        </notations>      </note>      <note default-x="95">        <pitch>          <step>G</step>          <octave>3</octave>        </pitch>        <duration>2</duration>        <instrument id="P2-I4"/>        <voice>2</voice>        <type>quarter</type>        <stem default-y="-40.5">down</stem>      </note>      <barline location="right">        <bar-style>light-heavy</bar-style>        <repeat direction="backward"/>      </barline>    </measure>    <!--=======================================================-->    <measure number="5" width="195">      <print new-system="yes"/>      <note default-x="96">        <pitch>          <step>D</step>          <octave>4</octave>        </pitch>        <duration>2</duration>        <instrument id="P2-I3"/>        <voice>1</voice>        <type>quarter</type>        <stem default-y="40.5">up</stem>      </note>      <backup>        <duration>2</duration>      </backup>      <note default-x="96">        <pitch>          <step>G</step>          <octave>3</octave>        </pitch>        <duration>1</duration>        <instrument id="P2-I4"/>        <voice>2</voice>        <type>eighth</type>        <stem default-y="-35">down</stem>        <beam number="1">begin</beam>        <notations>          <slur number="1" placement="below" type="start"/>        </notations>      </note>      <note default-x="158">        <pitch>          <step>A</step>          <octave>3</octave>        </pitch>        <duration>1</duration>        <instrument id="P2-I4"/>        <voice>2</voice>        <type>eighth</type>        <stem default-y="-32.5">down</stem>        <beam number="1">end</beam>        <notations>          <slur number="1" type="stop"/>        </notations>      </note>    </measure>    <!--=======================================================-->    <measure number="6" width="257">      <note default-x="20">        <pitch>          <step>D</step>          <octave>4</octave>        </pitch>        <duration>2</duration>        <instrument id="P2-I3"/>        <voice>1</voice>        <type>quarter</type>        <stem default-y="40.5">up</stem>      </note>      <note default-x="75">        <pitch>          <step>D</step>          <octave>4</octave>        </pitch>        <duration>1</duration>        <instrument id="P2-I3"/>        <voice>1</voice>        <type>eighth</type>        <stem default-y="50">up</stem>        <beam number="1">begin</beam>        <notations>          <slur number="1" placement="above" type="start"/>        </notations>      </note>      <note default-x="103">        <pitch>          <step>C</step>          <octave>4</octave>        </pitch>        <duration>1</duration>        <instrument id="P2-I3"/>        <voice>1</voice>        <type>eighth</type>        <stem default-y="45">up</stem>        <beam number="1">end</beam>        <notations>          <slur number="1" type="stop"/>        </notations>      </note>      <note default-x="129">        <pitch>          <step>B</step>          <octave>3</octave>        </pitch>        <duration>1</duration>        <instrument id="P2-I3"/>        <voice>1</voice>        <type>eighth</type>        <stem default-y="40">up</stem>        <beam number="1">begin</beam>        <notations>          <slur number="1" placement="above" type="start"/>        </notations>      </note>      <note default-x="161">        <pitch>          <step>C</step>          <octave>4</octave>        </pitch>        <duration>1</duration>        <instrument id="P2-I3"/>        <voice>1</voice>        <type>eighth</type>        <stem default-y="45">up</stem>        <beam number="1">end</beam>        <notations>          <slur number="1" type="stop"/>        </notations>      </note>      <note default-x="187">        <pitch>          <step>F</step>          <alter>1</alter>          <octave>3</octave>        </pitch>        <duration>1</duration>        <instrument id="P2-I3"/>        <voice>1</voice>        <type>eighth</type>        <stem default-y="35">up</stem>        <beam number="1">begin</beam>        <notations>          <slur number="1" placement="above" type="start"/>        </notations>      </note>      <note default-x="229">        <pitch>          <step>B</step>          <octave>3</octave>        </pitch>        <duration>1</duration>        <instrument id="P2-I3"/>        <voice>1</voice>        <type>eighth</type>        <stem default-y="40">up</stem>        <beam number="1">end</beam>        <notations>          <slur number="1" type="stop"/>        </notations>      </note>      <backup>        <duration>8</duration>      </backup>      <note default-x="20">        <pitch>          <step>B</step>          <octave>3</octave>        </pitch>        <duration>1</duration>        <instrument id="P2-I4"/>        <voice>2</voice>        <type>eighth</type>        <stem default-y="-25">down</stem>        <beam number="1">begin</beam>        <notations>          <slur number="1" placement="below" type="start"/>        </notations>      </note>      <note default-x="46">        <pitch>          <step>C</step>          <octave>4</octave>        </pitch>        <duration>1</duration>        <instrument id="P2-I4"/>        <voice>2</voice>        <type>eighth</type>        <stem default-y="-22">down</stem>        <beam number="1">end</beam>        <notations>          <slur number="1" type="stop"/>        </notations>      </note>      <note default-x="75">        <pitch>          <step>D</step>          <octave>4</octave>        </pitch>        <duration>2</duration>        <instrument id="P2-I4"/>        <voice>2</voice>        <type>quarter</type>        <stem default-y="-21">down</stem>      </note>      <note default-x="129">        <pitch>          <step>G</step>          <octave>3</octave>        </pitch>        <duration>1</duration>        <instrument id="P2-I4"/>        <voice>2</voice>        <type>eighth</type>        <stem default-y="-35">down</stem>        <beam number="1">begin</beam>        <notations>          <slur number="1" placement="below" type="start"/>        </notations>      </note>      <note default-x="161">        <pitch>          <step>A</step>          <octave>3</octave>        </pitch>        <duration>1</duration>        <instrument id="P2-I4"/>        <voice>2</voice>        <type>eighth</type>        <stem default-y="-32.5">down</stem>        <beam number="1">end</beam>        <notations>          <slur number="1" type="stop"/>        </notations>      </note>      <note default-x="187">        <pitch>          <step>B</step>          <octave>3</octave>        </pitch>        <duration>2</duration>        <instrument id="P2-I4"/>        <voice>2</voice>        <type>quarter</type>        <stem default-y="-30.5">down</stem>      </note>    </measure>    <!--=======================================================-->    <measure number="7" width="265">      <note default-x="11">        <pitch>          <step>B</step>          <octave>3</octave>        </pitch>        <duration>1</duration>        <instrument id="P2-I3"/>        <voice>1</voice>        <type>eighth</type>        <stem default-y="40">up</stem>        <beam number="1">begin</beam>        <notations>          <slur number="1" placement="above" type="start"/>        </notations>      </note>      <note default-x="63">        <pitch>          <step>A</step>          <octave>3</octave>        </pitch>        <duration>1</duration>        <instrument id="P2-I3"/>        <voice>1</voice>        <type>eighth</type>        <stem default-y="35">up</stem>        <beam number="1">end</beam>        <notations>          <slur number="1" type="stop"/>        </notations>      </note>      <note default-x="94">        <pitch>          <step>A</step>          <octave>3</octave>        </pitch>        <duration>1</duration>        <instrument id="P2-I3"/>        <voice>1</voice>        <type>eighth</type>        <stem default-y="35">up</stem>        <beam number="1">begin</beam>        <notations>          <slur number="1" placement="above" type="start"/>        </notations>      </note>      <note default-x="122">        <pitch>          <step>G</step>          <octave>3</octave>        </pitch>        <duration>1</duration>        <instrument id="P2-I3"/>        <voice>1</voice>        <type>eighth</type>        <stem default-y="30">up</stem>        <beam number="1">end</beam>        <notations>          <slur number="1" type="stop"/>        </notations>      </note>      <note default-x="150">        <pitch>          <step>F</step>          <alter>1</alter>          <octave>3</octave>        </pitch>        <duration>2</duration>        <instrument id="P2-I3"/>        <voice>1</voice>        <type>quarter</type>        <stem default-y="16">up</stem>      </note>      <note default-x="190">        <pitch>          <step>F</step>          <alter>1</alter>          <octave>3</octave>        </pitch>        <duration>2</duration>        <instrument id="P2-I3"/>        <voice>1</voice>        <type>quarter</type>        <stem default-y="27.5">up</stem>      </note>      <backup>        <duration>8</duration>      </backup>      <note default-x="11">        <pitch>          <step>E</step>          <octave>3</octave>        </pitch>        <duration>1</duration>        <instrument id="P2-I4"/>        <voice>2</voice>        <type>eighth</type>        <stem default-y="-50">down</stem>        <beam number="1">begin</beam>        <notations>          <slur number="1" placement="below" type="start"/>        </notations>      </note>      <note default-x="63">        <pitch>          <step>F</step>          <alter>1</alter>          <octave>3</octave>        </pitch>        <duration>1</duration>        <instrument id="P2-I4"/>        <voice>2</voice>        <type>eighth</type>        <stem default-y="-45">down</stem>        <beam number="1">end</beam>        <notations>          <slur number="1" type="stop"/>        </notations>      </note>      <note default-x="105">        <pitch>          <step>G</step>          <octave>3</octave>        </pitch>        <duration>2</duration>        <instrument id="P2-I4"/>        <voice>2</voice>        <type>quarter</type>        <stem default-y="-41">down</stem>      </note>      <note default-x="150">        <pitch>          <step>D</step>          <octave>3</octave>        </pitch>        <duration>2</duration>        <instrument id="P2-I4"/>        <voice>2</voice>        <type>quarter</type>        <stem default-y="-55.5">down</stem>      </note>      <note default-x="208">        <pitch>          <step>D</step>          <octave>4</octave>        </pitch>        <duration>1</duration>        <instrument id="P2-I4"/>        <voice>2</voice>        <type>eighth</type>        <stem default-y="-38">down</stem>        <beam number="1">begin</beam>        <notations>          <slur number="1" placement="below" type="start"/>          <articulations>            <breath-mark default-x="-31" default-y="21" placement="above"/>          </articulations>        </notations>      </note>      <note default-x="237">        <pitch>          <step>C</step>          <octave>4</octave>        </pitch>        <duration>1</duration>        <instrument id="P2-I4"/>        <voice>2</voice>        <type>eighth</type>        <stem default-y="-31">down</stem>        <beam number="1">end</beam>        <notations>          <slur number="1" type="stop"/>        </notations>      </note>    </measure>    <!--=======================================================-->    <measure number="8" width="264">      <note default-x="21">        <pitch>          <step>G</step>          <octave>3</octave>        </pitch>        <duration>1</duration>        <tie type="start"/>        <instrument id="P2-I3"/>        <voice>1</voice>        <type>eighth</type>        <stem default-y="30">up</stem>        <beam number="1">begin</beam>        <notations>          <tied orientation="over" type="start"/>          <slur number="1" placement="above" type="start"/>        </notations>      </note>      <note default-x="55">        <pitch>          <step>A</step>          <octave>3</octave>        </pitch>        <duration>1</duration>        <instrument id="P2-I3"/>        <voice>1</voice>        <type>eighth</type>        <stem default-y="35">up</stem>        <beam number="1">end</beam>        <notations>          <slur number="1" type="stop"/>        </notations>      </note>      <note default-x="83">        <pitch>          <step>B</step>          <octave>3</octave>        </pitch>        <duration>1</duration>        <tie type="start"/>        <instrument id="P2-I3"/>        <voice>1</voice>        <type>eighth</type>        <stem default-y="40">up</stem>        <beam number="1">begin</beam>        <notations>          <tied orientation="over" type="start"/>          <slur number="1" placement="above" type="start"/>        </notations>      </note>      <note default-x="119">        <pitch>          <step>C</step>          <octave>4</octave>        </pitch>        <duration>1</duration>        <instrument id="P2-I3"/>        <voice>1</voice>        <type>eighth</type>        <stem default-y="45">up</stem>        <beam number="1">end</beam>        <notations>          <slur number="1" type="stop"/>        </notations>      </note>      <note default-x="147">        <pitch>          <step>B</step>          <octave>3</octave>        </pitch>        <duration>1</duration>        <tie type="start"/>        <instrument id="P2-I3"/>        <voice>1</voice>        <type>eighth</type>        <stem default-y="40">up</stem>        <beam number="1">begin</beam>        <notations>          <tied orientation="over" type="start"/>          <slur number="1" placement="above" type="start"/>        </notations>      </note>      <note default-x="181">        <pitch>          <step>A</step>          <octave>3</octave>        </pitch>        <duration>1</duration>        <instrument id="P2-I3"/>        <voice>1</voice>        <type>eighth</type>        <stem default-y="35">up</stem>        <beam number="1">end</beam>        <notations>          <slur number="1" type="stop"/>        </notations>      </note>      <note default-x="211">        <pitch>          <step>G</step>          <octave>3</octave>        </pitch>        <duration>2</duration>        <instrument id="P2-I3"/>        <voice>1</voice>        <type>quarter</type>        <stem default-y="20.5">up</stem>      </note>      <backup>        <duration>8</duration>      </backup>      <note default-x="21">        <pitch>          <step>B</step>          <octave>3</octave>        </pitch>        <duration>3</duration>        <instrument id="P2-I4"/>        <voice>2</voice>        <type>quarter</type>        <dot/>        <stem default-y="-30.5">down</stem>      </note>      <note default-x="119">        <pitch>          <step>A</step>          <octave>3</octave>        </pitch>        <duration>1</duration>        <instrument id="P2-I4"/>        <voice>2</voice>        <type>eighth</type>        <stem default-y="-35.5">down</stem>      </note>      <note default-x="147">        <pitch>          <step>G</step>          <octave>3</octave>        </pitch>        <duration>3</duration>        <instrument id="P2-I4"/>        <voice>2</voice>        <type>quarter</type>        <dot/>        <stem default-y="-41">down</stem>      </note>      <note default-x="235">        <pitch>          <step>F</step>          <alter>1</alter>          <octave>3</octave>        </pitch>        <duration>1</duration>        <instrument id="P2-I4"/>        <voice>2</voice>        <type>eighth</type>        <stem default-y="-46">down</stem>      </note>    </measure>    <!--=======================================================-->    <measure number="9" width="416">      <print new-system="yes"/>      <note default-x="80">        <pitch>          <step>G</step>          <octave>3</octave>        </pitch>        <duration>2</duration>        <instrument id="P2-I3"/>        <voice>1</voice>        <type>quarter</type>        <stem default-y="21">up</stem>      </note>      <note default-x="168">        <pitch>          <step>F</step>          <alter>1</alter>          <octave>3</octave>        </pitch>        <duration>1</duration>        <instrument id="P2-I3"/>        <voice>1</voice>        <type>eighth</type>        <stem default-y="25">up</stem>        <beam number="1">begin</beam>        <notations>          <slur number="1" placement="above" type="start"/>        </notations>      </note>      <note default-x="212">        <pitch>          <step>E</step>          <octave>3</octave>        </pitch>        <duration>1</duration>        <instrument id="P2-I3"/>        <voice>1</voice>        <type>eighth</type>        <stem default-y="20">up</stem>        <beam number="1">end</beam>        <notations>          <slur number="1" type="stop"/>        </notations>      </note>      <note default-x="256">        <pitch>          <step>F</step>          <alter>1</alter>          <octave>3</octave>        </pitch>        <duration>2</duration>        <instrument id="P2-I3"/>        <voice>1</voice>        <type>quarter</type>        <stem default-y="16">up</stem>        <notations>          <articulations>            <breath-mark default-x="28" default-y="23" placement="above"/>          </articulations>        </notations>      </note>      <note default-x="327">        <pitch>          <step>E</step>          <octave>3</octave>        </pitch>        <duration>1</duration>        <instrument id="P2-I3"/>        <voice>1</voice>        <type>eighth</type>        <stem default-y="20">up</stem>        <beam number="1">begin</beam>        <notations>          <slur number="1" placement="above" type="start"/>        </notations>      </note>      <note default-x="371">        <pitch>          <step>F</step>          <alter>1</alter>          <octave>3</octave>        </pitch>        <duration>1</duration>        <instrument id="P2-I3"/>        <voice>1</voice>        <type>eighth</type>        <stem default-y="25">up</stem>        <beam number="1">end</beam>        <notations>          <slur number="1" type="stop"/>        </notations>      </note>      <backup>        <duration>8</duration>      </backup>      <note default-x="80">        <pitch>          <step>E</step>          <octave>3</octave>        </pitch>        <duration>1</duration>        <instrument id="P2-I4"/>        <voice>2</voice>        <type>eighth</type>        <stem default-y="-50">down</stem>        <beam number="1">begin</beam>        <notations>          <slur number="1" placement="below" type="start"/>        </notations>      </note>      <note default-x="124">        <pitch>          <step>D</step>          <octave>3</octave>        </pitch>        <duration>1</duration>        <instrument id="P2-I4"/>        <voice>2</voice>        <type>eighth</type>        <stem default-y="-55">down</stem>        <beam number="1">end</beam>        <notations>          <slur number="1" type="stop"/>        </notations>      </note>      <note default-x="168">        <pitch>          <step>C</step>          <octave>3</octave>        </pitch>        <duration>2</duration>        <instrument id="P2-I4"/>        <voice>2</voice>        <type>quarter</type>        <stem default-y="-50.5">down</stem>      </note>      <note default-x="256">        <pitch>          <step>B</step>          <octave>2</octave>        </pitch>        <duration>2</duration>        <instrument id="P2-I4"/>        <voice>2</voice>        <type>quarter</type>        <stem default-y="-55.5">down</stem>      </note>      <note default-x="327">        <pitch>          <step>E</step>          <octave>3</octave>        </pitch>        <duration>2</duration>        <instrument id="P2-I4"/>        <voice>2</voice>        <type>quarter</type>        <stem default-y="-50.5">down</stem>      </note>    </measure>    <!--=======================================================-->    <measure number="10" width="335">      <note default-x="19">        <pitch>          <step>G</step>          <octave>3</octave>        </pitch>        <duration>3</duration>        <instrument id="P2-I3"/>        <voice>1</voice>        <type>quarter</type>        <dot/>        <stem default-y="21">up</stem>      </note>      <note default-x="128">        <pitch>          <step>A</step>          <octave>3</octave>        </pitch>        <duration>1</duration>        <instrument id="P2-I3"/>        <voice>1</voice>        <type>eighth</type>        <stem default-y="36">up</stem>      </note>      <note default-x="167">        <pitch>          <step>B</step>          <octave>3</octave>        </pitch>        <duration>1</duration>        <instrument id="P2-I3"/>        <voice>1</voice>        <type>eighth</type>        <stem default-y="40">up</stem>        <beam number="1">begin</beam>        <notations>          <slur number="1" placement="above" type="start"/>        </notations>      </note>      <note default-x="207">        <pitch>          <step>C</step>          <octave>4</octave>        </pitch>        <duration>1</duration>        <instrument id="P2-I3"/>        <voice>1</voice>        <type>eighth</type>        <stem default-y="45">up</stem>        <beam number="1">end</beam>        <notations>          <slur number="1" type="stop"/>        </notations>      </note>      <note default-x="255">        <pitch>          <step>D</step>          <octave>4</octave>        </pitch>        <duration>2</duration>        <instrument id="P2-I3"/>        <voice>1</voice>        <type>quarter</type>        <stem default-y="41">up</stem>      </note>      <backup>        <duration>8</duration>      </backup>      <note default-x="19">        <pitch>          <step>E</step>          <octave>3</octave>        </pitch>        <duration>1</duration>        <instrument id="P2-I4"/>        <voice>2</voice>        <type>eighth</type>        <stem default-y="-50">down</stem>        <beam number="1">begin</beam>        <notations>          <slur number="1" placement="below" type="start"/>        </notations>      </note>      <note default-x="58">        <pitch>          <step>D</step>          <octave>3</octave>        </pitch>        <duration>1</duration>        <instrument id="P2-I4"/>        <voice>2</voice>        <type>eighth</type>        <stem default-y="-55">down</stem>        <beam number="1">end</beam>        <notations>          <slur number="1" type="stop"/>        </notations>      </note>      <note default-x="97">        <pitch>          <step>C</step>          <octave>3</octave>        </pitch>        <duration>2</duration>        <instrument id="P2-I4"/>        <voice>2</voice>        <type>quarter</type>        <stem default-y="-50.5">down</stem>      </note>      <note default-x="167">        <pitch>          <step>B</step>          <octave>2</octave>        </pitch>        <duration>1</duration>        <instrument id="P2-I4"/>        <voice>2</voice>        <type>eighth</type>        <stem default-y="-65">down</stem>        <beam number="1">begin</beam>        <notations>          <slur number="1" placement="below" type="start"/>        </notations>      </note>      <note default-x="207">        <pitch>          <step>A</step>          <octave>2</octave>        </pitch>        <duration>1</duration>        <instrument id="P2-I4"/>        <voice>2</voice>        <type>eighth</type>        <stem default-y="-70">down</stem>        <beam number="1">end</beam>        <notations>          <slur number="1" type="stop"/>        </notations>      </note>      <note default-x="255">        <pitch>          <step>G</step>          <octave>2</octave>        </pitch>        <duration>2</duration>        <instrument id="P2-I4"/>        <voice>2</voice>        <type>quarter</type>        <stem default-y="-66">down</stem>      </note>    </measure>    <!--=======================================================-->    <measure number="11" width="230">      <note default-x="14">        <pitch>          <step>D</step>          <octave>4</octave>        </pitch>        <duration>2</duration>        <instrument id="P2-I3"/>        <voice>1</voice>        <type>quarter</type>        <stem default-y="41">up</stem>        <notations>          <slur number="1" placement="above" type="start"/>          <slur number="2" placement="above" type="start"/>          <slur number="3" placement="above" type="start"/>          <slur number="4" placement="above" type="start"/>        </notations>      </note>      <note default-x="88">        <pitch>          <step>C</step>          <octave>4</octave>        </pitch>        <duration>1</duration>        <instrument id="P2-I3"/>        <voice>1</voice>        <type>eighth</type>        <stem default-y="45">up</stem>        <beam number="1">begin</beam>      </note>      <note default-x="124">        <pitch>          <step>B</step>          <octave>3</octave>        </pitch>        <duration>1</duration>        <instrument id="P2-I3"/>        <voice>1</voice>        <type>eighth</type>        <stem default-y="40">up</stem>        <beam number="1">end</beam>        <notations>          <slur number="1" type="stop"/>          <slur number="2" type="stop"/>          <slur number="3" type="stop"/>          <slur number="4" type="stop"/>        </notations>      </note>      <note default-x="161">        <pitch>          <step>B</step>          <octave>3</octave>        </pitch>        <duration>2</duration>        <instrument id="P2-I3"/>        <voice>1</voice>        <type>quarter</type>        <stem default-y="31">up</stem>      </note>      <backup>        <duration>6</duration>      </backup>      <note default-x="14">        <pitch>          <step>D</step>          <octave>3</octave>        </pitch>        <duration>4</duration>        <instrument id="P2-I4"/>        <voice>2</voice>        <type>half</type>        <stem default-y="-55.5">down</stem>      </note>      <note default-x="161">        <pitch>          <step>G</step>          <octave>2</octave>        </pitch>        <duration>2</duration>        <instrument id="P2-I4"/>        <voice>2</voice>        <type>quarter</type>        <stem default-y="-66">down</stem>      </note>      <barline location="right">        <bar-style>light-heavy</bar-style>      </barline>    </measure>  </part>  <!--=========================================================--></score-partwise>