<?xml version="1.0" encoding="UTF-8"?><!DOCTYPE score-partwise PUBLIC "-//Recordare//DTD MusicXML 2.0 Partwise//EN"                                "http://www.musicxml.org/dtds/partwise.dtd"><score-partwise version="2.0">  <movement-title>Entre le boeuf et l'âne gris</movement-title>  <identification>    <creator type="composer">Bew. Reinier Wakelkamp</creator>    <rights>Copyright by Annie Bank, Amsterdam, 1-10-1975</rights>    <encoding>      <software>Finale 2011 for Macintosh</software>      <software>Dolet Light for Finale 2011</software>      <encoding-date>2011-09-30</encoding-date>      <supports attribute="new-system" element="print" type="yes" value="yes"/>      <supports attribute="new-page" element="print" type="yes" value="yes"/>    </encoding>  </identification>  <defaults>    <scaling>      <millimeters>7.2319</millimeters>      <tenths>40</tenths>    </scaling>    <page-layout>      <page-height>1545</page-height>      <page-width>1194</page-width>      <page-margins type="both">        <left-margin>140</left-margin>        <right-margin>70</right-margin>        <top-margin>70</top-margin>        <bottom-margin>70</bottom-margin>      </page-margins>    </page-layout>    <system-layout>      <system-margins>        <left-margin>0</left-margin>        <right-margin>0</right-margin>      </system-margins>      <system-distance>121</system-distance>      <top-system-distance>70</top-system-distance>    </system-layout>    <staff-layout>      <staff-distance>93</staff-distance>    </staff-layout>    <appearance>      <line-width type="stem">1.4583</line-width>      <line-width type="beam">5</line-width>      <line-width type="staff">1.4583</line-width>      <line-width type="light barline">1.4583</line-width>      <line-width type="heavy barline">5</line-width>      <line-width type="leger">1.4583</line-width>      <line-width type="ending">1.4583</line-width>      <line-width type="wedge">1.4583</line-width>      <line-width type="enclosure">1.4583</line-width>      <line-width type="tuplet bracket">1.4583</line-width>      <note-size type="grace">60</note-size>      <note-size type="cue">60</note-size>    </appearance>    <music-font font-family="Maestro" font-size="20.5"/>    <word-font font-family="Times New Roman" font-size="10.25"/>    <lyric-font font-family="Times New Roman" font-size="10.25" name="verse"/>  </defaults>  <credit page="1">    <credit-words default-x="632" default-y="1458" font-size="24" font-weight="bold" justify="center" valign="top">16. Entre le boeuf et l'âne gris</credit-words>  </credit>  <credit page="1">    <credit-words default-x="1124" default-y="1393" font-size="12" font-weight="bold" justify="right" valign="top">Bew. Reinier Wakelkamp</credit-words>  </credit>  <credit page="1">    <credit-words default-x="481" default-y="64" font-size="12" valign="top">CM Kerstzingcie 2006 'kickass'</credit-words>  </credit>  <part-list>    <part-group number="1" type="start">      <group-symbol default-x="-6">bracket</group-symbol>      <group-barline>no</group-barline>    </part-group>    <score-part id="P1">      <part-name>Sopraan</part-name>      <part-abbreviation>S</part-abbreviation>      <score-instrument id="P1-I4">        <instrument-name>Acoustic Grand Piano</instrument-name>      </score-instrument>      <midi-instrument id="P1-I4">        <midi-channel>1</midi-channel>        <midi-program>66</midi-program>        <volume>80</volume>        <pan>0</pan>      </midi-instrument>    </score-part>    <score-part id="P2">      <part-name>Alt</part-name>      <part-abbreviation>A</part-abbreviation>      <score-instrument id="P2-I1">        <instrument-name>Choir Aahs</instrument-name>      </score-instrument>      <midi-instrument id="P2-I1">        <midi-channel>2</midi-channel>        <midi-program>67</midi-program>        <volume>80</volume>        <pan>0</pan>      </midi-instrument>    </score-part>    <score-part id="P3">      <part-name>Tenor</part-name>      <part-abbreviation>T</part-abbreviation>      <score-instrument id="P3-I2">        <instrument-name>Instrument2</instrument-name>      </score-instrument>      <midi-instrument id="P3-I2">        <midi-channel>3</midi-channel>        <midi-program>66</midi-program>        <volume>80</volume>        <pan>0</pan>      </midi-instrument>    </score-part>    <score-part id="P4">      <part-name>Bas</part-name>      <part-abbreviation>B</part-abbreviation>      <score-instrument id="P4-I3">        <instrument-name>Violin</instrument-name>      </score-instrument>      <midi-instrument id="P4-I3">        <midi-channel>4</midi-channel>        <midi-program>66</midi-program>        <volume>80</volume>        <pan>0</pan>      </midi-instrument>    </score-part>    <part-group number="1" type="stop"/>  </part-list>  <!--=========================================================-->  <part id="P1">    <measure number="1" width="223">      <print>        <system-layout>          <system-margins>            <left-margin>70</left-margin>            <right-margin>0</right-margin>          </system-margins>          <top-system-distance>211</top-system-distance>        </system-layout>        <measure-numbering>system</measure-numbering>      </print>      <attributes>        <divisions>2</divisions>        <key>          <fifths>1</fifths>          <mode>major</mode>        </key>        <time symbol="common">          <beats>4</beats>          <beat-type>4</beat-type>        </time>        <clef>          <sign>G</sign>          <line>2</line>        </clef>      </attributes>      <sound tempo="90"/>      <note default-x="121">        <pitch>          <step>E</step>          <octave>4</octave>        </pitch>        <duration>2</duration>        <voice>1</voice>        <type>quarter</type>        <stem default-y="-4">up</stem>        <lyric default-y="-80" number="1">          <syllabic>begin</syllabic>          <text>1.En</text>        </lyric>        <lyric default-y="-97" number="2">          <syllabic>begin</syllabic>          <text>2.En</text>        </lyric>        <lyric default-y="-113" number="3">          <syllabic>begin</syllabic>          <text>3.En</text>        </lyric>      </note>      <note default-x="161">        <pitch>          <step>E</step>          <octave>4</octave>        </pitch>        <duration>1</duration>        <voice>1</voice>        <type>eighth</type>        <stem default-y="-10">up</stem>        <beam number="1">begin</beam>        <lyric default-y="-80" number="1">          <syllabic>end</syllabic>          <text>tre</text>        </lyric>        <lyric default-y="-97" number="2">          <syllabic>end</syllabic>          <text>tre</text>        </lyric>        <lyric default-y="-113" number="3">          <syllabic>end</syllabic>          <text>tre</text>        </lyric>      </note>      <note default-x="193">        <pitch>          <step>F</step>          <alter>1</alter>          <octave>4</octave>        </pitch>        <duration>1</duration>        <voice>1</voice>        <type>eighth</type>        <stem default-y="-7.5">up</stem>        <beam number="1">end</beam>        <lyric default-y="-80" number="1">          <syllabic>single</syllabic>          <text>le</text>        </lyric>        <lyric default-y="-97" number="2">          <syllabic>single</syllabic>          <text>les</text>        </lyric>        <lyric default-y="-113" number="3">          <syllabic>single</syllabic>          <text>les</text>        </lyric>      </note>    </measure>    <!--=======================================================-->    <measure number="2" width="235">      <note default-x="26">        <pitch>          <step>G</step>          <octave>4</octave>        </pitch>        <duration>2</duration>        <voice>1</voice>        <type>quarter</type>        <stem default-y="6">up</stem>        <lyric default-y="-80" number="1">          <syllabic>single</syllabic>          <text>boeuf</text>        </lyric>        <lyric default-y="-97" number="2">          <syllabic>single</syllabic>          <text>deux</text>        </lyric>        <lyric default-y="-113" number="3">          <syllabic>begin</syllabic>          <text>ro</text>        </lyric>      </note>      <note default-x="79">        <pitch>          <step>G</step>          <octave>4</octave>        </pitch>        <duration>1</duration>        <voice>1</voice>        <type>eighth</type>        <stem default-y="5">up</stem>        <beam number="1">begin</beam>        <notations>          <slur number="1" placement="below" type="start"/>        </notations>        <lyric default-y="-80" justify="left" number="1">          <syllabic>begin</syllabic>          <text>et</text>          <extend/>        </lyric>        <lyric default-y="-97" justify="left" number="2">          <syllabic>single</syllabic>          <text>bras</text>          <extend/>        </lyric>        <lyric default-y="-113" justify="left" number="3">          <syllabic>end</syllabic>          <text>ses</text>          <extend/>        </lyric>      </note>      <note default-x="122">        <pitch>          <step>A</step>          <octave>4</octave>        </pitch>        <duration>1</duration>        <voice>1</voice>        <type>eighth</type>        <stem default-y="10">up</stem>        <beam number="1">end</beam>        <notations>          <slur number="1" type="stop"/>        </notations>      </note>      <note default-x="146">        <pitch>          <step>A</step>          <octave>4</octave>        </pitch>        <duration>3</duration>        <voice>1</voice>        <type>quarter</type>        <dot/>        <stem default-y="10.5">up</stem>        <lyric default-y="-80" number="1">          <syllabic>middle</syllabic>          <text>l'â</text>        </lyric>        <lyric default-y="-97" number="2">          <syllabic>single</syllabic>          <text>de</text>        </lyric>        <lyric default-y="-113" number="3">          <syllabic>single</syllabic>          <text>et</text>        </lyric>      </note>      <note default-x="204">        <pitch>          <step>B</step>          <octave>4</octave>        </pitch>        <duration>1</duration>        <voice>1</voice>        <type>eighth</type>        <stem default-y="-56">down</stem>        <lyric default-y="-80" number="1">          <syllabic>end</syllabic>          <text>ne</text>        </lyric>        <lyric default-y="-97" number="2">          <syllabic>begin</syllabic>          <text>Ma</text>        </lyric>        <lyric default-y="-113" number="3">          <syllabic>single</syllabic>          <text>les</text>        </lyric>      </note>    </measure>    <!--=======================================================-->    <measure number="3" width="192">      <note default-x="11">        <pitch>          <step>B</step>          <octave>4</octave>        </pitch>        <duration>4</duration>        <voice>1</voice>        <type>half</type>        <stem default-y="-56">down</stem>        <lyric default-y="-80" number="1">          <syllabic>begin</syllabic>          <text>gris,</text>        </lyric>        <lyric default-y="-97" number="2">          <syllabic>end</syllabic>          <text>rie,</text>        </lyric>        <lyric default-y="-113" number="3">          <syllabic>single</syllabic>          <text>lis,</text>        </lyric>      </note>      <note default-x="73">        <pitch>          <step>D</step>          <octave>5</octave>        </pitch>        <duration>4</duration>        <voice>1</voice>        <type>half</type>        <stem default-y="-45.5">down</stem>        <lyric default-y="-97" number="2">          <syllabic>single</syllabic>          <text>dort,</text>        </lyric>      </note>    </measure>    <!--=======================================================-->    <measure number="4" width="264">      <note default-x="22">        <pitch>          <step>B</step>          <octave>4</octave>        </pitch>        <duration>4</duration>        <voice>1</voice>        <type>half</type>        <stem default-y="-56">down</stem>        <lyric default-y="-97" number="2">          <syllabic>single</syllabic>          <text>dort,</text>        </lyric>      </note>      <note default-x="147">        <pitch>          <step>A</step>          <octave>4</octave>        </pitch>        <duration>1</duration>        <voice>1</voice>        <type>eighth</type>        <stem default-y="20">up</stem>        <beam number="1">begin</beam>        <lyric default-y="-97" number="2">          <syllabic>single</syllabic>          <text>dort</text>        </lyric>      </note>      <note default-x="181">        <pitch>          <step>B</step>          <octave>4</octave>        </pitch>        <duration>1</duration>        <voice>1</voice>        <type>eighth</type>        <stem default-y="20">up</stem>        <beam number="1">continue</beam>        <lyric default-y="-97" number="2">          <syllabic>single</syllabic>          <text>le</text>        </lyric>      </note>      <note default-x="210">        <pitch>          <step>C</step>          <octave>5</octave>        </pitch>        <duration>1</duration>        <voice>1</voice>        <type>eighth</type>        <stem default-y="20">up</stem>        <beam number="1">continue</beam>        <lyric default-y="-97" number="2">          <syllabic>begin</syllabic>          <text>pe</text>        </lyric>      </note>      <note default-x="235">        <pitch>          <step>A</step>          <octave>4</octave>        </pitch>        <duration>1</duration>        <voice>1</voice>        <type>eighth</type>        <stem default-y="20">up</stem>        <beam number="1">end</beam>        <lyric default-y="-97" number="2">          <syllabic>end</syllabic>          <text>tit</text>        </lyric>      </note>    </measure>    <!--=======================================================-->    <measure number="5" width="274">      <print new-system="yes">        <system-layout>          <system-distance>165</system-distance>        </system-layout>      </print>      <note default-x="84">        <pitch>          <step>B</step>          <octave>4</octave>        </pitch>        <duration>4</duration>        <voice>1</voice>        <type>half</type>        <stem default-y="-56">down</stem>        <lyric default-y="-97" number="2">          <syllabic>single</syllabic>          <text>fils,</text>        </lyric>      </note>      <note default-x="152">        <pitch>          <step>B</step>          <octave>4</octave>        </pitch>        <duration>1</duration>        <voice>1</voice>        <type>eighth</type>        <stem default-y="-55">down</stem>        <beam number="1">begin</beam>        <lyric default-y="-97" number="2">          <syllabic>single</syllabic>          <text>mille</text>        </lyric>      </note>      <note default-x="186">        <pitch>          <step>C</step>          <octave>5</octave>        </pitch>        <duration>1</duration>        <voice>1</voice>        <type>eighth</type>        <stem default-y="-53">down</stem>        <beam number="1">continue</beam>        <lyric default-y="-97" number="2">          <syllabic>begin</syllabic>          <text>an</text>        </lyric>      </note>      <note default-x="209">        <pitch>          <step>D</step>          <octave>5</octave>        </pitch>        <duration>1</duration>        <voice>1</voice>        <type>eighth</type>        <stem default-y="-52">down</stem>        <beam number="1">continue</beam>        <lyric default-y="-97" number="2">          <syllabic>end</syllabic>          <text>ges</text>        </lyric>      </note>      <note default-x="257">        <pitch>          <step>E</step>          <octave>5</octave>        </pitch>        <duration>1</duration>        <voice>1</voice>        <type>eighth</type>        <stem default-y="-50">down</stem>        <beam number="1">end</beam>        <lyric default-y="-97" number="2">          <syllabic>begin</syllabic>          <text>di</text>        </lyric>      </note>    </measure>    <!--=======================================================-->    <measure number="6" width="198">      <note default-x="21">        <pitch>          <step>B</step>          <octave>4</octave>        </pitch>        <duration>4</duration>        <voice>1</voice>        <type>half</type>        <stem default-y="-56">down</stem>        <lyric default-y="-97" number="2">          <syllabic>end</syllabic>          <text>vins,</text>        </lyric>      </note>      <note default-x="125">        <pitch>          <step>A</step>          <octave>4</octave>        </pitch>        <duration>1</duration>        <voice>1</voice>        <type>eighth</type>        <stem default-y="10">up</stem>        <beam number="1">begin</beam>        <lyric default-y="-97" number="2">          <syllabic>begin</syllabic>          <text>mil</text>        </lyric>      </note>      <note default-x="145">        <pitch>          <step>G</step>          <octave>4</octave>        </pitch>        <duration>1</duration>        <voice>1</voice>        <type>eighth</type>        <stem default-y="12">up</stem>        <beam number="1">continue</beam>        <lyric default-y="-97" number="2">          <syllabic>end</syllabic>          <text>le</text>        </lyric>      </note>      <note default-x="165">        <pitch>          <step>A</step>          <octave>4</octave>        </pitch>        <duration>1</duration>        <voice>1</voice>        <type>eighth</type>        <stem default-y="13.5">up</stem>        <beam number="1">continue</beam>        <lyric default-y="-97" number="2">          <syllabic>begin</syllabic>          <text>sé</text>        </lyric>      </note>      <note default-x="181">        <pitch>          <step>B</step>          <octave>4</octave>        </pitch>        <duration>1</duration>        <voice>1</voice>        <type>eighth</type>        <stem default-y="15">up</stem>        <beam number="1">end</beam>        <lyric default-y="-97" number="2">          <syllabic>middle</syllabic>          <text>ra</text>        </lyric>      </note>    </measure>    <!--=======================================================-->    <measure number="7" width="230">      <note default-x="24">        <pitch>          <step>G</step>          <octave>4</octave>        </pitch>        <duration>4</duration>        <voice>1</voice>        <type>half</type>        <stem default-y="6">up</stem>        <lyric default-y="-97" number="2">          <syllabic>end</syllabic>          <text>phins,</text>        </lyric>      </note>      <note default-x="104">        <pitch>          <step>A</step>          <octave>4</octave>        </pitch>        <duration>1</duration>        <voice>1</voice>        <type>eighth</type>        <stem default-y="10">up</stem>        <beam number="1">begin</beam>        <lyric default-y="-97" number="2">          <syllabic>begin</syllabic>          <text>vo</text>        </lyric>      </note>      <note default-x="137">        <pitch>          <step>G</step>          <octave>4</octave>        </pitch>        <duration>1</duration>        <voice>1</voice>        <type>eighth</type>        <stem default-y="12">up</stem>        <beam number="1">continue</beam>        <lyric default-y="-97" number="2">          <syllabic>end</syllabic>          <text>lent</text>        </lyric>      </note>      <note default-x="186">        <pitch>          <step>A</step>          <octave>4</octave>        </pitch>        <duration>1</duration>        <voice>1</voice>        <type>eighth</type>        <stem default-y="14">up</stem>        <beam number="1">continue</beam>        <lyric default-y="-97" number="2">          <syllabic>single</syllabic>          <text>à</text>        </lyric>      </note>      <note default-x="208">        <pitch>          <step>B</step>          <octave>4</octave>        </pitch>        <duration>1</duration>        <voice>1</voice>        <type>eighth</type>        <stem default-y="15">up</stem>        <beam number="1">end</beam>        <lyric default-y="-97" number="2">          <syllabic>begin</syllabic>          <text>l'en</text>        </lyric>      </note>    </measure>    <!--=======================================================-->    <measure number="8" width="195">      <note default-x="18">        <pitch>          <step>C</step>          <octave>5</octave>        </pitch>        <duration>2</duration>        <voice>1</voice>        <type>quarter</type>        <stem default-y="-51">down</stem>        <lyric default-y="-97" number="2">          <syllabic>end</syllabic>          <text>tour</text>        </lyric>      </note>      <note default-x="45">        <pitch>          <step>A</step>          <octave>4</octave>        </pitch>        <duration>1</duration>        <voice>1</voice>        <type>eighth</type>        <stem default-y="10">up</stem>        <beam number="1">begin</beam>        <lyric default-y="-97" number="2">          <syllabic>single</syllabic>          <text>de</text>        </lyric>      </note>      <note default-x="67">        <pitch>          <step>G</step>          <octave>4</octave>        </pitch>        <duration>1</duration>        <voice>1</voice>        <type>eighth</type>        <stem default-y="5">up</stem>        <beam number="1">end</beam>        <lyric default-y="-97" number="2">          <syllabic>single</syllabic>          <text>ce</text>        </lyric>      </note>      <note default-x="96">        <pitch>          <step>F</step>          <alter>1</alter>          <octave>4</octave>        </pitch>        <duration>3</duration>        <voice>1</voice>        <type>quarter</type>        <dot/>        <stem default-y="1">up</stem>        <lyric default-y="-97" number="2">          <syllabic>single</syllabic>          <text>Dieu</text>        </lyric>      </note>      <note default-x="172">        <pitch>          <step>E</step>          <octave>4</octave>        </pitch>        <duration>1</duration>        <voice>1</voice>        <type>eighth</type>        <stem default-y="-4">up</stem>        <lyric default-y="-97" number="2">          <syllabic>begin</syllabic>          <text>d'a</text>        </lyric>      </note>    </measure>    <!--=======================================================-->    <measure number="9" width="86">      <note default-x="27">        <pitch>          <step>E</step>          <octave>4</octave>        </pitch>        <duration>4</duration>        <voice>1</voice>        <type>half</type>        <stem default-y="-4">up</stem>        <lyric default-y="-97" number="2">          <syllabic>end</syllabic>          <text>mour.</text>        </lyric>      </note>      <barline location="right">        <bar-style>light-heavy</bar-style>        <repeat direction="backward"/>      </barline>    </measure>  </part>  <!--=========================================================-->  <part id="P2">    <measure number="1" width="223">      <print>        <measure-numbering>none</measure-numbering>      </print>      <attributes>        <divisions>4</divisions>        <key>          <fifths>1</fifths>          <mode>major</mode>        </key>        <time symbol="common">          <beats>4</beats>          <beat-type>4</beat-type>        </time>        <clef>          <sign>G</sign>          <line>2</line>        </clef>      </attributes>      <sound tempo="90"/>      <note default-x="121">        <pitch>          <step>E</step>          <octave>4</octave>        </pitch>        <duration>4</duration>        <voice>1</voice>        <type>quarter</type>        <stem default-y="-4">up</stem>        <lyric default-y="-80" number="1">          <syllabic>begin</syllabic>          <text>1.En</text>        </lyric>        <lyric default-y="-97" number="2">          <syllabic>begin</syllabic>          <text>2.En</text>        </lyric>        <lyric default-y="-113" number="3">          <syllabic>begin</syllabic>          <text>3.En</text>        </lyric>      </note>      <note default-x="161">        <pitch>          <step>D</step>          <octave>4</octave>        </pitch>        <duration>2</duration>        <voice>1</voice>        <type>eighth</type>        <stem default-y="-10">up</stem>        <beam number="1">begin</beam>        <lyric default-y="-80" number="1">          <syllabic>end</syllabic>          <text>tre</text>        </lyric>        <lyric default-y="-97" number="2">          <syllabic>end</syllabic>          <text>tre</text>        </lyric>        <lyric default-y="-113" number="3">          <syllabic>end</syllabic>          <text>tre</text>        </lyric>      </note>      <note default-x="193">        <pitch>          <step>D</step>          <octave>4</octave>        </pitch>        <duration>2</duration>        <voice>1</voice>        <type>eighth</type>        <stem default-y="-10">up</stem>        <beam number="1">end</beam>        <lyric default-y="-80" number="1">          <syllabic>single</syllabic>          <text>le</text>        </lyric>        <lyric default-y="-97" number="2">          <syllabic>single</syllabic>          <text>les</text>        </lyric>        <lyric default-y="-113" number="3">          <syllabic>single</syllabic>          <text>les</text>        </lyric>      </note>    </measure>    <!--=======================================================-->    <measure number="2" width="235">      <note default-x="26">        <pitch>          <step>D</step>          <octave>4</octave>        </pitch>        <duration>4</duration>        <voice>1</voice>        <type>quarter</type>        <stem default-y="-9">up</stem>        <lyric default-y="-80" number="1">          <syllabic>single</syllabic>          <text>boeuf</text>        </lyric>        <lyric default-y="-97" number="2">          <syllabic>single</syllabic>          <text>deux</text>        </lyric>        <lyric default-y="-113" number="3">          <syllabic>begin</syllabic>          <text>ro</text>        </lyric>      </note>      <note default-x="79">        <pitch>          <step>C</step>          <octave>4</octave>        </pitch>        <duration>4</duration>        <voice>1</voice>        <type>quarter</type>        <stem default-y="-14">up</stem>        <lyric default-y="-80" number="1">          <syllabic>begin</syllabic>          <text>et</text>        </lyric>        <lyric default-y="-97" number="2">          <syllabic>single</syllabic>          <text>bras</text>        </lyric>        <lyric default-y="-113" number="3">          <syllabic>end</syllabic>          <text>ses</text>        </lyric>      </note>      <note default-x="146">        <pitch>          <step>C</step>          <octave>4</octave>        </pitch>        <duration>4</duration>        <voice>1</voice>        <type>quarter</type>        <stem default-y="-14">up</stem>        <lyric default-y="-80" number="1">          <syllabic>middle</syllabic>          <text>l'â</text>        </lyric>        <lyric default-y="-97" number="2">          <syllabic>single</syllabic>          <text>de</text>        </lyric>        <lyric default-y="-113" number="3">          <syllabic>single</syllabic>          <text>et</text>        </lyric>      </note>      <note default-x="185">        <pitch>          <step>D</step>          <octave>4</octave>        </pitch>        <duration>4</duration>        <voice>1</voice>        <type>quarter</type>        <stem default-y="-9">up</stem>        <lyric default-y="-80" number="1">          <syllabic>end</syllabic>          <text>ne</text>        </lyric>        <lyric default-y="-97" number="2">          <syllabic>begin</syllabic>          <text>Ma</text>        </lyric>        <lyric default-y="-113" number="3">          <syllabic>single</syllabic>          <text>les</text>        </lyric>      </note>    </measure>    <!--=======================================================-->    <measure number="3" width="192">      <note default-x="11">        <pitch>          <step>E</step>          <octave>4</octave>        </pitch>        <duration>8</duration>        <voice>1</voice>        <type>half</type>        <stem default-y="-4">up</stem>        <lyric default-y="-80" number="1">          <syllabic>begin</syllabic>          <text>gris,</text>        </lyric>        <lyric default-y="-97" number="2">          <syllabic>end</syllabic>          <text>rie,</text>        </lyric>        <lyric default-y="-113" number="3">          <syllabic>single</syllabic>          <text>lis,</text>        </lyric>      </note>      <note default-x="73">        <pitch>          <step>F</step>          <alter>1</alter>          <octave>4</octave>        </pitch>        <duration>8</duration>        <voice>1</voice>        <type>half</type>        <stem default-y="1">up</stem>        <lyric default-y="-97" number="2">          <syllabic>single</syllabic>          <text>dort,</text>        </lyric>      </note>    </measure>    <!--=======================================================-->    <measure number="4" width="264">      <note default-x="22">        <pitch>          <step>F</step>          <alter>1</alter>          <octave>4</octave>        </pitch>        <duration>2</duration>        <voice>1</voice>        <type>eighth</type>        <stem default-y="0">up</stem>        <beam number="1">begin</beam>        <notations>          <slur number="1" placement="below" type="start"/>        </notations>        <lyric default-y="-97" justify="left" number="2">          <syllabic>single</syllabic>          <text>dort,</text>          <extend/>        </lyric>      </note>      <note default-x="70">        <pitch>          <step>G</step>          <octave>4</octave>        </pitch>        <duration>2</duration>        <voice>1</voice>        <type>eighth</type>        <stem default-y="5">up</stem>        <beam number="1">end</beam>      </note>      <note default-x="93">        <pitch>          <step>E</step>          <octave>4</octave>        </pitch>        <duration>4</duration>        <voice>1</voice>        <type>quarter</type>        <stem default-y="-4">up</stem>        <notations>          <slur number="1" type="stop"/>        </notations>      </note>      <note default-x="147">        <pitch>          <step>A</step>          <octave>4</octave>        </pitch>        <duration>2</duration>        <voice>1</voice>        <type>eighth</type>        <stem default-y="10">up</stem>        <beam number="1">begin</beam>        <lyric default-y="-97" number="2">          <syllabic>single</syllabic>          <text>dort</text>        </lyric>      </note>      <note default-x="181">        <pitch>          <step>A</step>          <octave>4</octave>        </pitch>        <duration>2</duration>        <voice>1</voice>        <type>eighth</type>        <stem default-y="10">up</stem>        <beam number="1">continue</beam>        <lyric default-y="-97" number="2">          <syllabic>single</syllabic>          <text>le</text>        </lyric>      </note>      <note default-x="210">        <pitch>          <step>A</step>          <octave>4</octave>        </pitch>        <duration>2</duration>        <voice>1</voice>        <type>eighth</type>        <stem default-y="10">up</stem>        <beam number="1">continue</beam>        <lyric default-y="-97" number="2">          <syllabic>begin</syllabic>          <text>pe</text>        </lyric>      </note>      <note default-x="235">        <pitch>          <step>G</step>          <octave>4</octave>        </pitch>        <duration>2</duration>        <voice>1</voice>        <type>eighth</type>        <stem default-y="10">up</stem>        <beam number="1">end</beam>        <lyric default-y="-97" number="2">          <syllabic>end</syllabic>          <text>tit</text>        </lyric>      </note>    </measure>    <!--=======================================================-->    <measure number="5" width="274">      <print new-system="yes"/>      <note default-x="84">        <pitch>          <step>F</step>          <alter>1</alter>          <octave>4</octave>        </pitch>        <duration>8</duration>        <voice>1</voice>        <type>half</type>        <stem default-y="0.5">up</stem>        <lyric default-y="-97" number="2">          <syllabic>single</syllabic>          <text>fils,</text>        </lyric>      </note>      <note default-x="152">        <pitch>          <step>F</step>          <alter>1</alter>          <octave>4</octave>        </pitch>        <duration>2</duration>        <voice>1</voice>        <type>eighth</type>        <stem default-y="-5">up</stem>        <beam number="1">begin</beam>        <lyric default-y="-97" number="2">          <syllabic>single</syllabic>          <text>mille</text>        </lyric>      </note>      <note default-x="186">        <pitch>          <step>E</step>          <octave>4</octave>        </pitch>        <duration>2</duration>        <voice>1</voice>        <type>eighth</type>        <stem default-y="-7">up</stem>        <beam number="1">end</beam>        <lyric default-y="-97" number="2">          <syllabic>begin</syllabic>          <text>an</text>        </lyric>      </note>      <note default-x="209">        <pitch>          <step>E</step>          <octave>4</octave>        </pitch>        <duration>1</duration>        <voice>1</voice>        <type>16th</type>        <stem default-y="0">up</stem>        <beam number="1">begin</beam>        <beam number="2">begin</beam>        <notations>          <slur number="1" placement="below" type="start"/>        </notations>        <lyric default-y="-97" justify="left" number="2">          <syllabic>end</syllabic>          <text>ges</text>          <extend/>        </lyric>      </note>      <note default-x="240">        <pitch>          <step>F</step>          <alter>1</alter>          <octave>4</octave>        </pitch>        <duration>1</duration>        <voice>1</voice>        <type>16th</type>        <stem default-y="3.5">up</stem>        <beam number="1">continue</beam>        <beam number="2">end</beam>        <notations>          <slur number="1" type="stop"/>        </notations>      </note>      <note default-x="257">        <pitch>          <step>G</step>          <octave>4</octave>        </pitch>        <duration>2</duration>        <voice>1</voice>        <type>eighth</type>        <stem default-y="5">up</stem>        <beam number="1">end</beam>        <lyric default-y="-97" number="2">          <syllabic>begin</syllabic>          <text>di</text>        </lyric>      </note>    </measure>    <!--=======================================================-->    <measure number="6" width="198">      <note default-x="21">        <pitch>          <step>F</step>          <alter>1</alter>          <octave>4</octave>        </pitch>        <duration>8</duration>        <voice>1</voice>        <type>half</type>        <stem default-y="0.5">up</stem>        <lyric default-y="-97" number="2">          <syllabic>end</syllabic>          <text>vins,</text>        </lyric>      </note>      <note default-x="125">        <pitch>          <step>F</step>          <alter>1</alter>          <octave>4</octave>        </pitch>        <duration>2</duration>        <voice>1</voice>        <type>eighth</type>        <stem default-y="5">up</stem>        <beam number="1">begin</beam>        <lyric default-y="-97" number="2">          <syllabic>begin</syllabic>          <text>mil</text>        </lyric>      </note>      <note default-x="145">        <pitch>          <step>E</step>          <octave>4</octave>        </pitch>        <duration>2</duration>        <voice>1</voice>        <type>eighth</type>        <stem default-y="5">up</stem>        <beam number="1">continue</beam>        <lyric default-y="-97" number="2">          <syllabic>end</syllabic>          <text>le</text>        </lyric>      </note>      <note default-x="165">        <pitch>          <step>G</step>          <octave>4</octave>        </pitch>        <duration>2</duration>        <voice>1</voice>        <type>eighth</type>        <stem default-y="5">up</stem>        <beam number="1">continue</beam>        <lyric default-y="-97" number="2">          <syllabic>begin</syllabic>          <text>sé</text>        </lyric>      </note>      <note default-x="181">        <pitch>          <step>F</step>          <alter>1</alter>          <octave>4</octave>        </pitch>        <duration>2</duration>        <voice>1</voice>        <type>eighth</type>        <stem default-y="5">up</stem>        <beam number="1">end</beam>        <lyric default-y="-97" number="2">          <syllabic>middle</syllabic>          <text>ra</text>        </lyric>      </note>    </measure>    <!--=======================================================-->    <measure number="7" width="230">      <note default-x="24">        <pitch>          <step>E</step>          <octave>4</octave>        </pitch>        <duration>8</duration>        <voice>1</voice>        <type>half</type>        <stem default-y="-4">up</stem>        <lyric default-y="-97" number="2">          <syllabic>end</syllabic>          <text>phins,</text>        </lyric>      </note>      <note default-x="104">        <pitch>          <step>E</step>          <octave>4</octave>        </pitch>        <duration>2</duration>        <voice>1</voice>        <type>eighth</type>        <stem default-y="5">up</stem>        <beam number="1">begin</beam>        <lyric default-y="-97" number="2">          <syllabic>begin</syllabic>          <text>vo</text>        </lyric>      </note>      <note default-x="137">        <pitch>          <step>E</step>          <octave>4</octave>        </pitch>        <duration>2</duration>        <voice>1</voice>        <type>eighth</type>        <stem default-y="6.5">up</stem>        <beam number="1">continue</beam>        <lyric default-y="-97" number="2">          <syllabic>end</syllabic>          <text>lent</text>        </lyric>      </note>      <note default-x="186">        <pitch>          <step>E</step>          <octave>4</octave>        </pitch>        <duration>2</duration>        <voice>1</voice>        <type>eighth</type>        <stem default-y="9">up</stem>        <beam number="1">continue</beam>        <lyric default-y="-97" number="2">          <syllabic>single</syllabic>          <text>à</text>        </lyric>      </note>      <note default-x="208">        <pitch>          <step>A</step>          <octave>4</octave>        </pitch>        <duration>2</duration>        <voice>1</voice>        <type>eighth</type>        <stem default-y="10">up</stem>        <beam number="1">end</beam>        <lyric default-y="-97" number="2">          <syllabic>begin</syllabic>          <text>l'en</text>        </lyric>      </note>    </measure>    <!--=======================================================-->    <measure number="8" width="195">      <note default-x="18">        <pitch>          <step>G</step>          <octave>4</octave>        </pitch>        <duration>4</duration>        <voice>1</voice>        <type>quarter</type>        <stem default-y="6">up</stem>        <lyric default-y="-97" number="2">          <syllabic>end</syllabic>          <text>tour</text>        </lyric>      </note>      <note default-x="45">        <pitch>          <step>F</step>          <alter>1</alter>          <octave>4</octave>        </pitch>        <duration>2</duration>        <voice>1</voice>        <type>eighth</type>        <stem default-y="-5">up</stem>        <beam number="1">begin</beam>        <lyric default-y="-97" number="2">          <syllabic>single</syllabic>          <text>de</text>        </lyric>      </note>      <note default-x="67">        <pitch>          <step>E</step>          <octave>4</octave>        </pitch>        <duration>2</duration>        <voice>1</voice>        <type>eighth</type>        <stem default-y="-7">up</stem>        <beam number="1">end</beam>        <lyric default-y="-97" number="2">          <syllabic>single</syllabic>          <text>ce</text>        </lyric>      </note>      <note default-x="96">        <pitch>          <step>E</step>          <octave>4</octave>        </pitch>        <duration>4</duration>        <voice>1</voice>        <type>quarter</type>        <stem default-y="-4">up</stem>        <lyric default-y="-97" number="2">          <syllabic>single</syllabic>          <text>Dieu</text>        </lyric>      </note>      <note default-x="152">        <pitch>          <step>D</step>          <octave>4</octave>        </pitch>        <duration>2</duration>        <voice>1</voice>        <type>eighth</type>        <stem default-y="-15">up</stem>        <beam number="1">begin</beam>        <notations>          <slur number="1" placement="below" type="start"/>        </notations>        <lyric default-y="-97" number="2">          <syllabic>begin</syllabic>          <text>d'a</text>        </lyric>      </note>      <note default-x="172">        <pitch>          <step>C</step>          <octave>4</octave>        </pitch>        <duration>2</duration>        <voice>1</voice>        <type>eighth</type>        <stem default-y="-17.5">up</stem>        <beam number="1">end</beam>        <notations>          <slur number="1" type="stop"/>        </notations>      </note>    </measure>    <!--=======================================================-->    <measure number="9" width="86">      <note default-x="27">        <pitch>          <step>B</step>          <octave>3</octave>        </pitch>        <duration>8</duration>        <voice>1</voice>        <type>half</type>        <stem default-y="-19.5">up</stem>        <lyric default-y="-97" number="2">          <syllabic>end</syllabic>          <text>mour.</text>        </lyric>      </note>      <barline location="right">        <bar-style>light-heavy</bar-style>        <repeat direction="backward"/>      </barline>    </measure>  </part>  <!--=========================================================-->  <part id="P3">    <measure number="1" width="223">      <print>        <measure-numbering>none</measure-numbering>      </print>      <attributes>        <divisions>4</divisions>        <key>          <fifths>1</fifths>          <mode>major</mode>        </key>        <time symbol="common">          <beats>4</beats>          <beat-type>4</beat-type>        </time>        <clef>          <sign>G</sign>          <line>2</line>          <clef-octave-change>-1</clef-octave-change>        </clef>      </attributes>      <sound tempo="90"/>      <note default-x="121">        <pitch>          <step>B</step>          <octave>3</octave>        </pitch>        <duration>4</duration>        <voice>1</voice>        <type>quarter</type>        <stem default-y="-56">down</stem>        <lyric default-y="-80" number="1">          <syllabic>begin</syllabic>          <text>1.En</text>        </lyric>        <lyric default-y="-97" number="2">          <syllabic>begin</syllabic>          <text>2.En</text>        </lyric>        <lyric default-y="-113" number="3">          <syllabic>begin</syllabic>          <text>3.En</text>        </lyric>      </note>      <note default-x="161">        <pitch>          <step>B</step>          <octave>3</octave>        </pitch>        <duration>2</duration>        <voice>1</voice>        <type>eighth</type>        <stem default-y="-55">down</stem>        <beam number="1">begin</beam>        <lyric default-y="-80" number="1">          <syllabic>end</syllabic>          <text>tre</text>        </lyric>        <lyric default-y="-97" number="2">          <syllabic>end</syllabic>          <text>tre</text>        </lyric>        <lyric default-y="-113" number="3">          <syllabic>end</syllabic>          <text>tre</text>        </lyric>      </note>      <note default-x="193">        <pitch>          <step>B</step>          <octave>3</octave>        </pitch>        <duration>2</duration>        <voice>1</voice>        <type>eighth</type>        <stem default-y="-55">down</stem>        <beam number="1">end</beam>        <lyric default-y="-80" number="1">          <syllabic>single</syllabic>          <text>le</text>        </lyric>        <lyric default-y="-97" number="2">          <syllabic>single</syllabic>          <text>les</text>        </lyric>        <lyric default-y="-113" number="3">          <syllabic>single</syllabic>          <text>les</text>        </lyric>      </note>    </measure>    <!--=======================================================-->    <measure number="2" width="235">      <note default-x="26">        <pitch>          <step>B</step>          <octave>3</octave>        </pitch>        <duration>4</duration>        <voice>1</voice>        <type>quarter</type>        <stem default-y="-56">down</stem>        <lyric default-y="-80" number="1">          <syllabic>single</syllabic>          <text>boeuf</text>        </lyric>        <lyric default-y="-97" number="2">          <syllabic>single</syllabic>          <text>deux</text>        </lyric>        <lyric default-y="-113" number="3">          <syllabic>begin</syllabic>          <text>ro</text>        </lyric>      </note>      <note default-x="79">        <pitch>          <step>B</step>          <octave>3</octave>        </pitch>        <duration>4</duration>        <voice>1</voice>        <type>quarter</type>        <stem default-y="-56">down</stem>        <lyric default-y="-80" number="1">          <syllabic>begin</syllabic>          <text>et</text>        </lyric>        <lyric default-y="-97" number="2">          <syllabic>single</syllabic>          <text>bras</text>        </lyric>        <lyric default-y="-113" number="3">          <syllabic>end</syllabic>          <text>ses</text>        </lyric>      </note>      <note default-x="146">        <pitch>          <step>A</step>          <octave>3</octave>        </pitch>        <duration>4</duration>        <voice>1</voice>        <type>quarter</type>        <stem default-y="11">up</stem>        <lyric default-y="-80" number="1">          <syllabic>middle</syllabic>          <text>l'â</text>        </lyric>        <lyric default-y="-97" number="2">          <syllabic>single</syllabic>          <text>de</text>        </lyric>        <lyric default-y="-113" number="3">          <syllabic>single</syllabic>          <text>et</text>        </lyric>      </note>      <note default-x="185">        <pitch>          <step>A</step>          <octave>3</octave>        </pitch>        <duration>4</duration>        <voice>1</voice>        <type>quarter</type>        <stem default-y="11">up</stem>        <lyric default-y="-80" number="1">          <syllabic>end</syllabic>          <text>ne</text>        </lyric>        <lyric default-y="-97" number="2">          <syllabic>begin</syllabic>          <text>Ma</text>        </lyric>        <lyric default-y="-113" number="3">          <syllabic>single</syllabic>          <text>les</text>        </lyric>      </note>    </measure>    <!--=======================================================-->    <measure number="3" width="192">      <note default-x="11">        <pitch>          <step>G</step>          <octave>3</octave>        </pitch>        <duration>8</duration>        <voice>1</voice>        <type>half</type>        <stem default-y="5.5">up</stem>        <lyric default-y="-80" number="1">          <syllabic>begin</syllabic>          <text>gris,</text>        </lyric>        <lyric default-y="-97" number="2">          <syllabic>end</syllabic>          <text>rie,</text>        </lyric>        <lyric default-y="-113" number="3">          <syllabic>single</syllabic>          <text>lis,</text>        </lyric>      </note>      <note default-x="73">        <pitch>          <step>B</step>          <octave>3</octave>        </pitch>        <duration>2</duration>        <voice>1</voice>        <type>eighth</type>        <stem default-y="-60">down</stem>        <beam number="1">begin</beam>        <notations>          <slur number="1" placement="above" type="start"/>        </notations>        <lyric default-y="-97" justify="left" number="2">          <syllabic>single</syllabic>          <text>dort,</text>          <extend/>        </lyric>      </note>      <note default-x="120">        <pitch>          <step>C</step>          <octave>4</octave>        </pitch>        <duration>2</duration>        <voice>1</voice>        <type>eighth</type>        <stem default-y="-60">down</stem>        <beam number="1">continue</beam>      </note>      <note default-x="143">        <pitch>          <step>B</step>          <octave>3</octave>        </pitch>        <duration>2</duration>        <voice>1</voice>        <type>eighth</type>        <stem default-y="-60">down</stem>        <beam number="1">continue</beam>      </note>      <note default-x="167">        <pitch>          <step>A</step>          <octave>3</octave>        </pitch>        <duration>2</duration>        <voice>1</voice>        <type>eighth</type>        <stem default-y="-60">down</stem>        <beam number="1">end</beam>        <notations>          <slur number="1" type="stop"/>        </notations>      </note>    </measure>    <!--=======================================================-->    <measure number="4" width="264">      <note default-x="22">        <pitch>          <step>A</step>          <octave>3</octave>        </pitch>        <duration>4</duration>        <voice>1</voice>        <type>quarter</type>        <stem default-y="11">up</stem>        <notations>          <slur number="1" placement="below" type="start"/>        </notations>        <lyric default-y="-97" justify="left" number="2">          <syllabic>single</syllabic>          <text>dort,</text>          <extend/>        </lyric>      </note>      <note default-x="93">        <pitch>          <step>G</step>          <octave>3</octave>        </pitch>        <duration>4</duration>        <voice>1</voice>        <type>quarter</type>        <stem default-y="5.5">up</stem>        <notations>          <slur number="1" type="stop"/>        </notations>      </note>      <note default-x="147">        <pitch>          <step>A</step>          <octave>3</octave>        </pitch>        <duration>2</duration>        <voice>1</voice>        <type>eighth</type>        <stem default-y="-60">down</stem>        <beam number="1">begin</beam>        <lyric default-y="-97" number="2">          <syllabic>single</syllabic>          <text>dort</text>        </lyric>      </note>      <note default-x="181">        <pitch>          <step>D</step>          <octave>4</octave>        </pitch>        <duration>2</duration>        <voice>1</voice>        <type>eighth</type>        <stem default-y="-58">down</stem>        <beam number="1">continue</beam>        <lyric default-y="-97" number="2">          <syllabic>single</syllabic>          <text>le</text>        </lyric>      </note>      <note default-x="210">        <pitch>          <step>E</step>          <octave>4</octave>        </pitch>        <duration>2</duration>        <voice>1</voice>        <type>eighth</type>        <stem default-y="-56">down</stem>        <beam number="1">continue</beam>        <lyric default-y="-97" number="2">          <syllabic>begin</syllabic>          <text>pe</text>        </lyric>      </note>      <note default-x="235">        <pitch>          <step>E</step>          <octave>4</octave>        </pitch>        <duration>2</duration>        <voice>1</voice>        <type>eighth</type>        <stem default-y="-55">down</stem>        <beam number="1">end</beam>        <lyric default-y="-97" number="2">          <syllabic>end</syllabic>          <text>tit</text>        </lyric>      </note>    </measure>    <!--=======================================================-->    <measure number="5" width="274">      <print new-system="yes"/>      <note default-x="84">        <pitch>          <step>E</step>          <octave>4</octave>        </pitch>        <duration>2</duration>        <voice>1</voice>        <type>eighth</type>        <stem default-y="-45">down</stem>        <beam number="1">begin</beam>        <notations>          <slur number="1" placement="above" type="start"/>        </notations>        <lyric default-y="-97" justify="left" number="2">          <syllabic>single</syllabic>          <text>fils,</text>          <extend/>        </lyric>      </note>      <note default-x="118">        <pitch>          <step>C</step>          <octave>4</octave>        </pitch>        <duration>2</duration>        <voice>1</voice>        <type>eighth</type>        <stem default-y="-50">down</stem>        <beam number="1">end</beam>      </note>      <note default-x="134">        <pitch>          <step>D</step>          <octave>4</octave>        </pitch>        <duration>4</duration>        <voice>1</voice>        <type>quarter</type>        <stem default-y="-45.5">down</stem>        <notations>          <slur number="1" type="stop"/>        </notations>      </note>      <note default-x="150">        <rest/>        <duration>8</duration>        <voice>1</voice>        <type>half</type>      </note>    </measure>    <!--=======================================================-->    <measure number="6" width="198">      <note default-x="21">        <pitch>          <step>B</step>          <octave>3</octave>        </pitch>        <duration>2</duration>        <voice>1</voice>        <type>eighth</type>        <stem default-y="-55">down</stem>        <beam number="1">begin</beam>        <lyric default-y="-97" number="2">          <syllabic>single</syllabic>          <text>mille</text>        </lyric>      </note>      <note default-x="53">        <pitch>          <step>C</step>          <octave>4</octave>        </pitch>        <duration>2</duration>        <voice>1</voice>        <type>eighth</type>        <stem default-y="-53">down</stem>        <beam number="1">continue</beam>        <lyric default-y="-97" number="2">          <syllabic>begin</syllabic>          <text>an</text>        </lyric>      </note>      <note default-x="75">        <pitch>          <step>D</step>          <octave>4</octave>        </pitch>        <duration>2</duration>        <voice>1</voice>        <type>eighth</type>        <stem default-y="-51.5">down</stem>        <beam number="1">continue</beam>        <lyric default-y="-97" number="2">          <syllabic>end</syllabic>          <text>ges</text>        </lyric>      </note>      <note default-x="99">        <pitch>          <step>E</step>          <octave>4</octave>        </pitch>        <duration>2</duration>        <voice>1</voice>        <type>eighth</type>        <stem default-y="-50">down</stem>        <beam number="1">end</beam>        <lyric default-y="-97" number="2">          <syllabic>begin</syllabic>          <text>di</text>        </lyric>      </note>      <note default-x="125">        <pitch>          <step>B</step>          <octave>3</octave>        </pitch>        <duration>8</duration>        <voice>1</voice>        <type>half</type>        <stem default-y="-56">down</stem>        <lyric default-y="-97" number="2">          <syllabic>end</syllabic>          <text>vins,</text>        </lyric>      </note>    </measure>    <!--=======================================================-->    <measure number="7" width="230">      <note default-x="24">        <pitch>          <step>B</step>          <octave>3</octave>        </pitch>        <duration>2</duration>        <voice>1</voice>        <type>eighth</type>        <stem default-y="-60">down</stem>        <beam number="1">begin</beam>        <lyric default-y="-97" number="2">          <syllabic>begin</syllabic>          <text>mil</text>        </lyric>      </note>      <note default-x="44">        <pitch>          <step>A</step>          <octave>3</octave>        </pitch>        <duration>2</duration>        <voice>1</voice>        <type>eighth</type>        <stem default-y="-60">down</stem>        <beam number="1">continue</beam>        <lyric default-y="-97" number="2">          <syllabic>middle</syllabic>          <text>le</text>        </lyric>      </note>      <note default-x="60">        <pitch>          <step>B</step>          <octave>3</octave>        </pitch>        <duration>2</duration>        <voice>1</voice>        <type>eighth</type>        <stem default-y="-60">down</stem>        <beam number="1">continue</beam>        <lyric default-y="-97" number="2">          <syllabic>middle</syllabic>          <text>sé</text>        </lyric>      </note>      <note default-x="77">        <pitch>          <step>D</step>          <octave>4</octave>        </pitch>        <duration>2</duration>        <voice>1</voice>        <type>eighth</type>        <stem default-y="-60">down</stem>        <beam number="1">end</beam>        <lyric default-y="-97" number="2">          <syllabic>middle</syllabic>          <text>ra</text>        </lyric>      </note>      <note default-x="104">        <pitch>          <step>C</step>          <octave>4</octave>        </pitch>        <duration>2</duration>        <voice>1</voice>        <type>eighth</type>        <stem default-y="-55">down</stem>        <beam number="1">begin</beam>        <lyric default-y="-97" number="2">          <syllabic>end</syllabic>          <text>phins</text>        </lyric>      </note>      <note default-x="137">        <pitch>          <step>B</step>          <octave>3</octave>        </pitch>        <duration>1</duration>        <voice>1</voice>        <type>16th</type>        <stem default-y="-55">down</stem>        <beam number="1">continue</beam>        <beam number="2">begin</beam>        <lyric default-y="-97" number="2">          <syllabic>begin</syllabic>          <text>vo</text>        </lyric>      </note>      <note default-x="161">        <pitch>          <step>B</step>          <octave>3</octave>        </pitch>        <duration>1</duration>        <voice>1</voice>        <type>16th</type>        <stem default-y="-55">down</stem>        <beam number="1">end</beam>        <beam number="2">end</beam>        <lyric default-y="-97" number="2">          <syllabic>end</syllabic>          <text>lent</text>        </lyric>      </note>      <note default-x="186">        <pitch>          <step>C</step>          <octave>4</octave>        </pitch>        <duration>2</duration>        <voice>1</voice>        <type>eighth</type>        <stem default-y="-50">down</stem>        <beam number="1">begin</beam>        <lyric default-y="-97" number="2">          <syllabic>single</syllabic>          <text>à</text>        </lyric>      </note>      <note default-x="208">        <pitch>          <step>D</step>          <octave>4</octave>        </pitch>        <duration>2</duration>        <voice>1</voice>        <type>eighth</type>        <stem default-y="-45">down</stem>        <beam number="1">end</beam>        <lyric default-y="-97" number="2">          <syllabic>begin</syllabic>          <text>l'en</text>        </lyric>      </note>    </measure>    <!--=======================================================-->    <measure number="8" width="195">      <note default-x="18">        <pitch>          <step>E</step>          <octave>4</octave>        </pitch>        <duration>4</duration>        <voice>1</voice>        <type>quarter</type>        <stem default-y="-41">down</stem>        <lyric default-y="-97" number="2">          <syllabic>end</syllabic>          <text>tour</text>        </lyric>      </note>      <note default-x="45">        <pitch>          <step>D</step>          <octave>4</octave>        </pitch>        <duration>2</duration>        <voice>1</voice>        <type>eighth</type>        <stem default-y="-45">down</stem>        <beam number="1">begin</beam>        <lyric default-y="-97" number="2">          <syllabic>single</syllabic>          <text>de</text>        </lyric>      </note>      <note default-x="67">        <pitch>          <step>D</step>          <octave>4</octave>        </pitch>        <duration>2</duration>        <voice>1</voice>        <type>eighth</type>        <stem default-y="-45">down</stem>        <beam number="1">end</beam>        <lyric default-y="-97" number="2">          <syllabic>single</syllabic>          <text>ce</text>        </lyric>      </note>      <note default-x="96">        <pitch>          <step>C</step>          <octave>4</octave>        </pitch>        <duration>2</duration>        <voice>1</voice>        <type>eighth</type>        <stem default-y="-50">down</stem>        <beam number="1">begin</beam>        <notations>          <slur number="1" placement="above" type="start"/>        </notations>        <lyric default-y="-97" justify="left" number="2">          <syllabic>single</syllabic>          <text>Dieu</text>          <extend/>        </lyric>      </note>      <note default-x="135">        <pitch>          <step>B</step>          <octave>3</octave>        </pitch>        <duration>2</duration>        <voice>1</voice>        <type>eighth</type>        <stem default-y="-55">down</stem>        <beam number="1">end</beam>        <notations>          <slur number="1" type="stop"/>        </notations>      </note>      <note default-x="152">        <pitch>          <step>A</step>          <octave>3</octave>        </pitch>        <duration>4</duration>        <voice>1</voice>        <type>quarter</type>        <stem default-y="11">up</stem>        <lyric default-y="-97" number="2">          <syllabic>begin</syllabic>          <text>d'a</text>        </lyric>      </note>    </measure>    <!--=======================================================-->    <measure number="9" width="86">      <note default-x="27">        <pitch>          <step>G</step>          <octave>3</octave>        </pitch>        <duration>8</duration>        <voice>1</voice>        <type>half</type>        <stem default-y="6">up</stem>        <lyric default-y="-97" number="2">          <syllabic>end</syllabic>          <text>mour.</text>        </lyric>      </note>      <barline location="right">        <bar-style>light-heavy</bar-style>        <repeat direction="backward"/>      </barline>    </measure>  </part>  <!--=========================================================-->  <part id="P4">    <measure number="1" width="223">      <print>        <measure-numbering>none</measure-numbering>      </print>      <attributes>        <divisions>2</divisions>        <key>          <fifths>1</fifths>          <mode>major</mode>        </key>        <time symbol="common">          <beats>4</beats>          <beat-type>4</beat-type>        </time>        <clef>          <sign>F</sign>          <line>4</line>        </clef>      </attributes>      <sound tempo="90"/>      <note default-x="121">        <pitch>          <step>E</step>          <octave>3</octave>        </pitch>        <duration>2</duration>        <voice>1</voice>        <type>quarter</type>        <stem default-y="-51">down</stem>        <lyric default-y="-80" number="1">          <syllabic>begin</syllabic>          <text>1.En</text>        </lyric>        <lyric default-y="-97" number="2">          <syllabic>begin</syllabic>          <text>2.En</text>        </lyric>        <lyric default-y="-113" number="3">          <syllabic>begin</syllabic>          <text>3.En</text>        </lyric>      </note>      <note default-x="161">        <pitch>          <step>E</step>          <octave>3</octave>        </pitch>        <duration>1</duration>        <voice>1</voice>        <type>eighth</type>        <stem default-y="-50">down</stem>        <beam number="1">begin</beam>        <lyric default-y="-80" number="1">          <syllabic>end</syllabic>          <text>tre</text>        </lyric>        <lyric default-y="-97" number="2">          <syllabic>end</syllabic>          <text>tre</text>        </lyric>        <lyric default-y="-113" number="3">          <syllabic>end</syllabic>          <text>tre</text>        </lyric>      </note>      <note default-x="193">        <pitch>          <step>E</step>          <octave>3</octave>        </pitch>        <duration>1</duration>        <voice>1</voice>        <type>eighth</type>        <stem default-y="-50">down</stem>        <beam number="1">end</beam>        <lyric default-y="-80" number="1">          <syllabic>single</syllabic>          <text>le</text>        </lyric>        <lyric default-y="-97" number="2">          <syllabic>single</syllabic>          <text>les</text>        </lyric>        <lyric default-y="-113" number="3">          <syllabic>single</syllabic>          <text>les</text>        </lyric>      </note>    </measure>    <!--=======================================================-->    <measure number="2" width="235">      <note default-x="26">        <pitch>          <step>E</step>          <octave>3</octave>        </pitch>        <duration>2</duration>        <voice>1</voice>        <type>quarter</type>        <stem default-y="-51">down</stem>        <lyric default-y="-80" number="1">          <syllabic>single</syllabic>          <text>boeuf</text>        </lyric>        <lyric default-y="-97" number="2">          <syllabic>single</syllabic>          <text>deux</text>        </lyric>        <lyric default-y="-113" number="3">          <syllabic>begin</syllabic>          <text>ro</text>        </lyric>      </note>      <note default-x="79">        <pitch>          <step>E</step>          <octave>3</octave>        </pitch>        <duration>2</duration>        <voice>1</voice>        <type>quarter</type>        <stem default-y="-51">down</stem>        <lyric default-y="-80" number="1">          <syllabic>begin</syllabic>          <text>et</text>        </lyric>        <lyric default-y="-97" number="2">          <syllabic>single</syllabic>          <text>bras</text>        </lyric>        <lyric default-y="-113" number="3">          <syllabic>end</syllabic>          <text>ses</text>        </lyric>      </note>      <note default-x="146">        <pitch>          <step>G</step>          <octave>3</octave>        </pitch>        <duration>2</duration>        <voice>1</voice>        <type>quarter</type>        <stem default-y="-40.5">down</stem>        <lyric default-y="-80" number="1">          <syllabic>middle</syllabic>          <text>l'â</text>        </lyric>        <lyric default-y="-97" number="2">          <syllabic>single</syllabic>          <text>de</text>        </lyric>        <lyric default-y="-113" number="3">          <syllabic>single</syllabic>          <text>et</text>        </lyric>      </note>      <note default-x="185">        <pitch>          <step>F</step>          <alter>1</alter>          <octave>3</octave>        </pitch>        <duration>2</duration>        <voice>1</voice>        <type>quarter</type>        <stem default-y="-45.5">down</stem>        <lyric default-y="-80" number="1">          <syllabic>end</syllabic>          <text>ne</text>        </lyric>        <lyric default-y="-97" number="2">          <syllabic>begin</syllabic>          <text>Ma</text>        </lyric>        <lyric default-y="-113" number="3">          <syllabic>single</syllabic>          <text>les</text>        </lyric>      </note>    </measure>    <!--=======================================================-->    <measure number="3" width="192">      <note default-x="11">        <pitch>          <step>E</step>          <octave>3</octave>        </pitch>        <duration>4</duration>        <voice>1</voice>        <type>half</type>        <stem default-y="-51">down</stem>        <lyric default-y="-80" number="1">          <syllabic>begin</syllabic>          <text>gris,</text>        </lyric>        <lyric default-y="-97" number="2">          <syllabic>end</syllabic>          <text>rie,</text>        </lyric>        <lyric default-y="-113" number="3">          <syllabic>single</syllabic>          <text>lis,</text>        </lyric>      </note>      <note default-x="73">        <pitch>          <step>B</step>          <octave>2</octave>        </pitch>        <duration>2</duration>        <voice>1</voice>        <type>quarter</type>        <stem default-y="6">up</stem>        <notations>          <slur number="1" placement="below" type="start"/>        </notations>        <lyric default-y="-97" justify="left" number="2">          <syllabic>single</syllabic>          <text>dort,</text>          <extend/>        </lyric>      </note>      <note default-x="143">        <pitch>          <step>C</step>          <octave>3</octave>        </pitch>        <duration>2</duration>        <voice>1</voice>        <type>quarter</type>        <stem default-y="11">up</stem>        <notations>          <slur number="1" type="stop"/>        </notations>      </note>    </measure>    <!--=======================================================-->    <measure number="4" width="264">      <note default-x="22">        <pitch>          <step>D</step>          <octave>3</octave>        </pitch>        <duration>2</duration>        <voice>1</voice>        <type>quarter</type>        <stem default-y="-56">down</stem>        <notations>          <slur number="1" placement="above" type="start"/>        </notations>        <lyric default-y="-97" justify="left" number="2">          <syllabic>single</syllabic>          <text>dort,</text>          <extend/>        </lyric>      </note>      <note default-x="93">        <pitch>          <step>E</step>          <octave>3</octave>        </pitch>        <duration>1</duration>        <voice>1</voice>        <type>eighth</type>        <stem default-y="-50">down</stem>        <beam number="1">begin</beam>      </note>      <note default-x="118">        <pitch>          <step>D</step>          <octave>3</octave>        </pitch>        <duration>1</duration>        <voice>1</voice>        <type>eighth</type>        <stem default-y="-55">down</stem>        <beam number="1">end</beam>        <notations>          <slur number="1" type="stop"/>        </notations>      </note>      <note default-x="147">        <pitch>          <step>C</step>          <octave>3</octave>        </pitch>        <duration>1</duration>        <voice>1</voice>        <type>eighth</type>        <stem default-y="10">up</stem>        <beam number="1">begin</beam>        <lyric default-y="-97" number="2">          <syllabic>single</syllabic>          <text>dort</text>        </lyric>      </note>      <note default-x="181">        <pitch>          <step>B</step>          <octave>2</octave>        </pitch>        <duration>1</duration>        <voice>1</voice>        <type>eighth</type>        <stem default-y="10">up</stem>        <beam number="1">continue</beam>        <lyric default-y="-97" number="2">          <syllabic>single</syllabic>          <text>le</text>        </lyric>      </note>      <note default-x="210">        <pitch>          <step>A</step>          <octave>2</octave>        </pitch>        <duration>1</duration>        <voice>1</voice>        <type>eighth</type>        <stem default-y="10">up</stem>        <beam number="1">continue</beam>        <lyric default-y="-97" number="2">          <syllabic>begin</syllabic>          <text>pe</text>        </lyric>      </note>      <note default-x="235">        <pitch>          <step>C</step>          <octave>3</octave>        </pitch>        <duration>1</duration>        <voice>1</voice>        <type>eighth</type>        <stem default-y="10">up</stem>        <beam number="1">end</beam>        <lyric default-y="-97" number="2">          <syllabic>end</syllabic>          <text>tit</text>        </lyric>      </note>    </measure>    <!--=======================================================-->    <measure number="5" width="274">      <print new-system="yes"/>      <note default-x="84">        <pitch>          <step>B</step>          <octave>2</octave>        </pitch>        <duration>4</duration>        <voice>1</voice>        <type>half</type>        <stem default-y="6">up</stem>        <lyric default-y="-97" number="2">          <syllabic>single</syllabic>          <text>fils,</text>        </lyric>      </note>      <note default-x="152">        <pitch>          <step>D</step>          <octave>3</octave>        </pitch>        <duration>1</duration>        <voice>1</voice>        <type>eighth</type>        <stem default-y="15">up</stem>        <beam number="1">begin</beam>        <lyric default-y="-97" number="2">          <syllabic>single</syllabic>          <text>mille</text>        </lyric>      </note>      <note default-x="186">        <pitch>          <step>D</step>          <octave>3</octave>        </pitch>        <duration>1</duration>        <voice>1</voice>        <type>eighth</type>        <stem default-y="15">up</stem>        <beam number="1">continue</beam>        <lyric default-y="-97" number="2">          <syllabic>begin</syllabic>          <text>an</text>        </lyric>      </note>      <note default-x="209">        <pitch>          <step>C</step>          <octave>3</octave>        </pitch>        <duration>1</duration>        <voice>1</voice>        <type>eighth</type>        <stem default-y="15">up</stem>        <beam number="1">continue</beam>        <lyric default-y="-97" number="2">          <syllabic>end</syllabic>          <text>ges</text>        </lyric>      </note>      <note default-x="257">        <pitch>          <step>A</step>          <octave>2</octave>        </pitch>        <duration>1</duration>        <voice>1</voice>        <type>eighth</type>        <stem default-y="15">up</stem>        <beam number="1">end</beam>        <lyric default-y="-97" number="2">          <syllabic>begin</syllabic>          <text>di</text>        </lyric>      </note>    </measure>    <!--=======================================================-->    <measure number="6" width="198">      <note default-x="21">        <pitch>          <step>B</step>          <octave>2</octave>        </pitch>        <duration>4</duration>        <voice>1</voice>        <type>half</type>        <stem default-y="6">up</stem>        <lyric default-y="-97" number="2">          <syllabic>end</syllabic>          <text>vins,</text>        </lyric>      </note>      <note default-x="125">        <pitch>          <step>D</step>          <octave>3</octave>        </pitch>        <duration>1</duration>        <voice>1</voice>        <type>eighth</type>        <stem default-y="-60">down</stem>        <beam number="1">begin</beam>        <lyric default-y="-97" number="2">          <syllabic>begin</syllabic>          <text>mil</text>        </lyric>      </note>      <note default-x="145">        <pitch>          <step>E</step>          <octave>3</octave>        </pitch>        <duration>1</duration>        <voice>1</voice>        <type>eighth</type>        <stem default-y="-60">down</stem>        <beam number="1">continue</beam>        <lyric default-y="-97" number="2">          <syllabic>end</syllabic>          <text>le</text>        </lyric>      </note>      <note default-x="165">        <pitch>          <step>C</step>          <octave>3</octave>        </pitch>        <duration>1</duration>        <voice>1</voice>        <type>eighth</type>        <stem default-y="-60">down</stem>        <beam number="1">continue</beam>        <lyric default-y="-97" number="2">          <syllabic>begin</syllabic>          <text>sé</text>        </lyric>      </note>      <note default-x="181">        <pitch>          <step>D</step>          <octave>3</octave>        </pitch>        <duration>1</duration>        <voice>1</voice>        <type>eighth</type>        <stem default-y="-60">down</stem>        <beam number="1">end</beam>        <lyric default-y="-97" number="2">          <syllabic>middle</syllabic>          <text>ra</text>        </lyric>      </note>    </measure>    <!--=======================================================-->    <measure number="7" width="230">      <note default-x="24">        <pitch>          <step>E</step>          <octave>3</octave>        </pitch>        <duration>4</duration>        <voice>1</voice>        <type>half</type>        <stem default-y="-51">down</stem>        <lyric default-y="-97" number="2">          <syllabic>end</syllabic>          <text>phins,</text>        </lyric>      </note>      <note default-x="104">        <pitch>          <step>A</step>          <octave>3</octave>        </pitch>        <duration>1</duration>        <voice>1</voice>        <type>eighth</type>        <stem default-y="-40">down</stem>        <beam number="1">begin</beam>        <lyric default-y="-97" number="2">          <syllabic>begin</syllabic>          <text>vo</text>        </lyric>      </note>      <note default-x="137">        <pitch>          <step>A</step>          <octave>3</octave>        </pitch>        <duration>1</duration>        <voice>1</voice>        <type>eighth</type>        <stem default-y="-40.5">down</stem>        <beam number="1">continue</beam>        <lyric default-y="-97" number="2">          <syllabic>end</syllabic>          <text>lent</text>        </lyric>      </note>      <note default-x="186">        <pitch>          <step>G</step>          <octave>3</octave>        </pitch>        <duration>1</duration>        <voice>1</voice>        <type>eighth</type>        <stem default-y="-42">down</stem>        <beam number="1">continue</beam>        <lyric default-y="-97" number="2">          <syllabic>single</syllabic>          <text>à</text>        </lyric>      </note>      <note default-x="208">        <pitch>          <step>F</step>          <alter>1</alter>          <octave>3</octave>        </pitch>        <duration>1</duration>        <voice>1</voice>        <type>eighth</type>        <stem default-y="-42.5">down</stem>        <beam number="1">end</beam>        <lyric default-y="-97" number="2">          <syllabic>begin</syllabic>          <text>l'en</text>        </lyric>      </note>    </measure>    <!--=======================================================-->    <measure number="8" width="195">      <note default-x="18">        <pitch>          <step>E</step>          <octave>3</octave>        </pitch>        <duration>2</duration>        <voice>1</voice>        <type>quarter</type>        <stem default-y="-51">down</stem>        <lyric default-y="-97" number="2">          <syllabic>end</syllabic>          <text>tour</text>        </lyric>      </note>      <note default-x="45">        <pitch>          <step>B</step>          <octave>2</octave>        </pitch>        <duration>1</duration>        <voice>1</voice>        <type>eighth</type>        <stem default-y="5">up</stem>        <beam number="1">begin</beam>        <lyric default-y="-97" number="2">          <syllabic>single</syllabic>          <text>de</text>        </lyric>      </note>      <note default-x="67">        <pitch>          <step>C</step>          <octave>3</octave>        </pitch>        <duration>1</duration>        <voice>1</voice>        <type>eighth</type>        <stem default-y="10">up</stem>        <beam number="1">end</beam>        <lyric default-y="-97" number="2">          <syllabic>single</syllabic>          <text>ce</text>        </lyric>      </note>      <note default-x="96">        <pitch>          <step>D</step>          <octave>3</octave>        </pitch>        <duration>2</duration>        <voice>1</voice>        <type>quarter</type>        <stem default-y="-56">down</stem>        <lyric default-y="-97" number="2">          <syllabic>single</syllabic>          <text>Dieu</text>        </lyric>      </note>      <note default-x="152">        <pitch>          <step>B</step>          <octave>2</octave>        </pitch>        <duration>2</duration>        <voice>1</voice>        <type>quarter</type>        <stem default-y="6">up</stem>        <lyric default-y="-97" number="2">          <syllabic>begin</syllabic>          <text>d'a</text>        </lyric>      </note>    </measure>    <!--=======================================================-->    <measure number="9" width="86">      <note default-x="27">        <pitch>          <step>E</step>          <octave>3</octave>        </pitch>        <duration>4</duration>        <voice>1</voice>        <type>half</type>        <stem default-y="-51">down</stem>        <lyric default-y="-97" number="2">          <syllabic>end</syllabic>          <text>mour.</text>        </lyric>      </note>      <barline location="right">        <bar-style>light-heavy</bar-style>        <repeat direction="backward"/>      </barline>    </measure>  </part>  <!--=========================================================--></score-partwise>